<svg version="1.1" id="Layer_1" xmlns="http://www.w3.org/2000/svg" xmlns:xlink="http://www.w3.org/1999/xlink" x="0px" y="0px"
	 width="100%" viewBox="0 0 1152 896" enable-background="new 0 0 1152 896" xml:space="preserve">
<path fill="none" opacity="1.000000" stroke="#000000" stroke-linecap="round" stroke-linejoin="round" stroke-width="8.000000"
	d="
M345.500000,734.500000 
	C325.297821,739.075134 305.101166,743.727722 285.521881,750.562622 
	C271.812683,755.348328 258.432037,760.889038 246.434799,769.408203 
	C241.630768,772.819519 237.132599,776.581055 233.617706,781.091736 
	C225.315063,791.746704 225.974731,801.843811 235.933731,812.064575 
	C247.383072,823.814941 261.671692,830.655884 276.532104,836.417175 
	C298.702789,845.012512 321.675110,850.959717 345.004730,855.475464 
	C360.312988,858.438599 375.596985,861.660034 391.022797,863.838501 
	C402.632477,865.478027 414.231995,867.361023 425.991333,868.132141 
	C436.865356,868.845215 447.634766,871.247375 458.508545,871.844360 
	C470.530487,872.504272 482.481781,873.912354 494.499390,874.512146 
	C519.656311,875.767578 544.806946,877.012085 569.997559,877.604370 
	C595.516785,878.204407 621.005066,878.040771 646.500305,877.007141 
	C659.831970,876.466614 673.170105,876.076965 686.499084,875.479797 
	C701.700317,874.798767 716.841736,873.256042 732.009460,872.126892 
	C764.394470,869.716125 796.522644,865.364014 828.474915,859.854370 
	C849.381470,856.249390 870.129028,851.643066 890.516113,845.553955 
	C905.649841,841.033936 920.429993,835.723938 934.507629,828.514893 
	C943.016602,824.157532 950.477844,818.547241 957.050232,811.547180 
	C968.185669,799.687012 966.575806,789.094360 956.354248,778.135986 
	C947.492065,768.635071 935.927612,762.608154 924.002930,757.493225 
	C903.714294,748.790833 882.372742,743.609558 861.009521,738.460571 
	C855.028687,737.019043 848.782715,736.811096 843.000000,734.500000 
"/>
<path fill="none" opacity="1.000000" stroke="#000000" stroke-linecap="round" stroke-linejoin="round" stroke-width="6.000000"
	d="
M282.500000,138.000000 
	C280.528442,131.954773 277.708527,126.689705 272.598969,122.382584 
	C264.557495,115.603981 256.035828,116.262802 246.641602,119.107986 
	C235.955521,85.787025 212.723694,66.325363 178.014267,67.121719 
	C143.632904,67.910538 120.719505,87.926788 110.488884,121.195801 
	C100.481567,118.111496 91.827072,119.077507 84.476524,126.476677 
	C82.047424,128.921860 80.494591,131.823868 79.549240,135.014587 
	C78.549492,138.388885 76.701569,138.613602 73.483223,138.106461 
	C61.148579,136.162720 49.821819,137.864960 40.923321,147.932220 
	C38.631268,150.525314 37.023136,153.050110 37.032906,156.544800 
	C38.260990,158.740616 40.410381,158.504898 42.500000,158.504776 
	C135.166672,158.499252 227.833328,158.500320 320.500000,158.497711 
	C322.311157,158.497650 324.665344,159.048233 325.373993,156.957291 
	C325.969513,155.200027 325.404358,153.257431 324.060699,151.454758 
	C317.154083,142.189087 307.572235,138.270599 296.494934,137.581635 
	C291.742889,137.286057 286.826660,136.853287 282.250000,139.000000 
"/>
<path fill="none" opacity="1.000000" stroke="#000000" stroke-linecap="round" stroke-linejoin="round" stroke-width="6.000000"
	d="
M899.000000,228.000000 
	C902.468445,231.384674 907.085266,230.201279 911.004883,230.294937 
	C921.654541,230.549423 932.328735,230.567352 943.005493,230.137009 
	C951.808960,229.782135 960.681946,229.376205 969.503235,230.474075 
	C970.980347,230.657928 972.500000,230.500000 974.000000,230.500000 
	C1012.000000,230.500000 1050.000122,230.539185 1088.000000,230.477036 
	C1100.000244,230.457413 1111.999756,230.139053 1124.000244,230.030197 
	C1125.771851,230.014114 1127.407593,229.704727 1129.025757,228.658707 
	C1129.177734,220.786407 1122.858398,218.254211 1116.980347,215.542618 
	C1110.474609,212.541519 1103.411133,213.195190 1095.725098,212.301208 
	C1090.857056,200.036667 1082.446777,191.946976 1066.877808,196.886307 
	C1063.837280,186.168976 1058.347290,177.623566 1050.518311,170.479874 
	C1027.465942,149.445236 995.363464,150.725800 973.585205,172.086884 
	C966.954895,178.590164 961.221680,186.067078 959.018677,195.504364 
	C958.354675,198.348740 956.517151,198.872849 953.999084,198.506210 
	C943.222290,196.936951 936.874573,199.555450 932.775513,209.118088 
	C931.240906,212.697952 929.510376,212.537552 927.000610,212.474747 
	C919.384094,212.284088 911.941345,212.357544 905.451965,217.438614 
	C902.024109,220.122559 899.817566,223.289764 899.000000,227.500000 
"/>
<path fill="none" opacity="1.000000" stroke="#000000" stroke-linecap="round" stroke-linejoin="round" stroke-width="8.000000"
	d="
M1031.500000,410.000000 
	C1029.380981,416.217072 1032.807129,421.474396 1034.528564,426.991089 
	C1038.212402,438.797333 1041.082886,450.815521 1042.837402,463.023376 
	C1043.582764,468.208923 1043.832886,473.354034 1046.512085,477.993042 
	C1046.925781,478.709503 1047.387085,479.773254 1048.016724,479.934814 
	C1059.568481,482.898773 1068.986328,491.123016 1080.960693,493.223907 
	C1082.786255,493.544189 1084.674561,493.924805 1086.500488,493.939667 
	C1091.593750,493.981201 1092.586426,492.571564 1092.040527,487.495636 
	C1091.673706,484.084717 1090.478394,481.095337 1089.108643,477.952637 
	C1080.692871,458.643768 1067.034668,443.190796 1052.970337,428.027527 
	C1048.325317,423.019501 1043.348877,418.317657 1038.488892,413.511292 
	C1037.302979,412.338623 1036.312622,410.961060 1034.508057,410.470184 
	C1029.391235,409.078217 1028.190674,404.800079 1028.661743,400.517792 
	C1029.156860,396.018036 1029.513672,391.414825 1029.747803,386.986664 
	C1030.883545,365.497955 1030.086182,344.179840 1019.528931,324.484497 
	C1009.446655,305.675232 994.752380,292.860626 973.493958,288.529694 
	C953.316040,284.418945 935.759521,290.194397 920.523804,303.527191 
	C905.660767,316.533722 897.284119,333.348694 894.181152,352.529297 
	C892.319580,364.036377 892.001648,375.807098 893.915222,387.513855 
	C894.609436,391.760986 894.838074,396.225372 894.342834,400.481720 
	C893.935181,403.984894 892.398682,406.858734 888.679077,409.275574 
	C882.837891,413.070862 878.026611,418.526733 873.029358,423.529358 
	C862.903442,433.666290 853.727783,444.599274 844.703247,455.760040 
	C838.466553,463.472870 834.247986,471.880310 830.029419,480.514374 
	C828.333008,483.986267 827.202576,488.106628 829.175415,491.394745 
	C831.508423,495.283020 835.967224,493.543365 839.487732,492.929718 
	C849.150146,491.245453 857.854248,486.899445 866.487976,482.476471 
	C868.877258,481.252502 871.211182,480.083496 874.000000,480.500000 
"/>
<path fill="none" opacity="1.000000" stroke="#000000" stroke-linecap="round" stroke-linejoin="round" stroke-width="5.000000"
	d="
M670.500000,505.500000 
	C675.236755,496.921661 678.838074,488.036560 679.035522,478.000702 
	C679.335205,462.771393 673.577454,449.992493 663.474792,439.023193 
	C648.689087,422.969025 629.492004,415.683502 608.485229,413.121246 
	C581.644409,409.847382 556.642639,415.141418 534.486511,431.481750 
	C521.018982,441.414246 512.414734,454.505249 510.165619,471.022552 
	C508.535950,482.990784 512.178955,494.218292 518.500000,504.500000 
"/>
<path fill="none" opacity="1.000000" stroke="#000000" stroke-linecap="round" stroke-linejoin="round" stroke-width="10.000000"
	d="
M423.000000,453.500000 
	C419.294220,451.332275 419.557312,447.514160 418.984467,444.002533 
	C417.442474,434.549957 420.312622,425.346375 420.853668,416.020508 
	C421.120514,411.420746 424.723358,406.946991 426.105225,402.029572 
	C429.969635,388.277954 434.662994,374.756775 438.428497,360.980438 
	C445.364044,335.606567 461.059326,311.204529 473.339569,295.871490 
	C481.746460,285.374725 493.380554,278.579254 502.000000,268.500000 
	C510.555023,265.824951 517.798218,260.401825 526.006775,257.016418 
	C540.784790,250.921555 556.064880,246.770554 571.993103,244.939972 
	C579.651001,244.059875 587.274658,242.816406 594.999390,243.023636 
	C625.568298,243.843674 654.446411,250.607468 681.050415,266.415100 
	C703.732178,279.892212 724.710144,304.468445 736.248962,326.368835 
	C740.805786,335.017578 743.418457,344.598846 749.331787,352.623932 
	C750.940430,354.807037 750.236694,358.572968 751.044373,361.487701 
	C755.100037,376.122375 759.790222,390.563324 764.380188,405.037994 
	C766.422852,411.479736 767.392090,418.298218 768.436951,425.009827 
	C769.493774,431.798645 769.590332,438.563843 768.802429,445.534180 
	C768.224976,450.642731 764.366638,453.251312 762.904480,457.466858 
	C761.664856,461.040619 759.281616,464.114655 758.425049,467.983398 
	C756.403076,477.116638 749.044434,482.684418 743.576172,489.560577 
	C737.049927,497.767151 729.205505,504.601501 721.405457,511.391388 
	C708.291626,522.806763 692.763184,530.501648 676.961487,537.411926 
	C661.921021,543.989258 646.150024,548.455566 630.000061,551.500427 
	C615.458496,554.241943 600.745056,556.083313 586.011963,554.856323 
	C563.490540,552.980652 541.229248,549.068359 520.039001,540.898865 
	C506.252777,535.583862 492.978516,529.032593 480.496002,521.006226 
	C464.077698,510.449097 455.292969,502.389038 442.016449,485.487061 
	C441.335693,484.620361 440.805389,484.110382 439.524536,483.869568 
	C437.403778,483.470795 435.497559,481.874176 434.575531,479.963562 
	C432.237122,475.117706 428.312347,470.842285 428.526611,465.000977 
	C428.667877,461.149109 425.723602,458.712860 424.500000,455.500000 
"/>
<path fill="none" opacity="1.000000" stroke="#000000" stroke-linecap="round" stroke-linejoin="round" stroke-width="5.000000"
	d="
M808.500000,56.500000 
	C805.775574,57.257545 803.266296,57.468899 800.452087,56.098431 
	C796.061584,53.960377 791.263733,55.870598 787.043823,56.718285 
	C760.729004,62.004448 741.406982,82.928238 736.432373,107.986572 
	C730.571167,137.510284 742.966309,162.539276 763.689941,176.212128 
	C782.361572,188.531143 803.451233,189.870880 824.455627,181.390076 
	C832.732910,178.048004 839.951416,172.679535 846.537231,166.539948 
	C849.016357,164.228806 849.409363,160.674850 851.963867,158.458328 
	C852.774048,157.755325 853.508667,157.438309 854.500000,157.500000 
"/>
<path fill="none" opacity="1.000000" stroke="#000000" stroke-linecap="round" stroke-linejoin="round" stroke-width="8.000000"
	d="
M258.500000,527.500000 
	C256.876251,515.966614 256.253082,504.274170 253.001892,492.999451 
	C251.657150,488.336090 250.081406,483.716736 249.138245,478.972504 
	C248.813263,477.337952 247.798050,476.882324 246.981293,476.017670 
	C243.440109,472.268951 241.070496,467.852356 239.564316,462.980103 
	C239.317810,462.182739 239.278168,461.542694 238.517792,460.976105 
	C229.241638,454.064056 221.470001,445.363831 210.580856,440.325256 
	C195.452621,433.325195 179.924500,432.441498 164.017426,435.104156 
	C151.053070,437.274200 140.214935,444.678528 129.000000,451.000000 
	C127.401192,457.920959 119.693810,459.615845 116.680618,465.845520 
	C113.985306,471.417908 110.430107,476.672577 107.974792,482.489349 
	C100.603645,499.952179 97.922028,518.236267 99.131294,536.991516 
	C99.800583,547.372070 100.309586,557.644104 99.037788,568.004639 
	C96.270027,590.551880 83.531181,607.947327 58.006874,614.028870 
	C50.338871,615.855957 42.558899,617.149109 34.979649,619.432434 
	C26.216286,622.072449 26.488216,628.869507 31.000229,633.999817 
	C40.546169,644.853760 53.164120,648.738464 66.997124,650.030762 
	C74.164368,650.700317 81.333260,650.337097 88.499809,650.507935 
	C93.125084,650.618103 96.183083,647.134766 99.932976,645.358521 
	C112.700699,639.310425 121.675995,629.330444 127.460724,616.482300 
	C127.720055,615.906311 127.785889,615.452576 128.500000,615.500000 
"/>
<path fill="none" opacity="1.000000" stroke="#000000" stroke-linecap="round" stroke-linejoin="round" stroke-width="10.000000"
	d="
M750.000000,353.000000 
	C761.388550,346.664032 772.565674,340.333252 779.127625,328.068298 
	C784.312012,318.378204 787.058228,308.135773 786.317078,297.512756 
	C784.675720,273.985992 772.492432,257.156982 750.968994,247.569595 
	C733.476196,239.777618 716.922729,243.385834 701.559998,253.590302 
	C695.918457,257.337585 691.303955,262.423553 688.000000,268.500000 
"/>
<path fill="none" opacity="1.000000" stroke="#000000" stroke-linecap="round" stroke-linejoin="round" stroke-width="6.000000"
	d="
M1006.500000,391.000000 
	C1016.437744,408.176239 1023.448669,426.436584 1027.010986,445.997986 
	C1029.992676,462.370239 1032.001953,478.884064 1030.877930,495.491730 
	C1029.423950,516.976746 1025.196411,537.897400 1014.485535,556.991882 
	C1013.171265,559.334961 1012.088989,561.774658 1010.584290,564.055603 
	C1006.720459,569.912781 1007.967407,578.862000 1013.008057,583.992065 
	C1016.445984,587.491089 1019.803406,591.016663 1022.032715,595.483643 
	C1023.091248,597.604553 1023.724670,600.037720 1022.858032,601.935120 
	C1021.581665,604.729675 1018.734436,603.151245 1016.501343,602.982117 
	C1015.825928,602.930908 1015.152588,602.709290 1014.502197,602.493469 
	C1006.998901,600.003662 1007.000122,600.000000 1001.999939,605.999939 
	C999.434021,609.078979 997.233948,609.379089 994.010376,606.985962 
	C992.779602,606.072327 991.602722,605.064758 990.512573,603.987305 
	C987.745850,601.252869 984.820190,600.654663 981.488953,602.984192 
	C980.392395,603.751160 979.232422,604.514648 977.987732,604.966064 
	C974.238708,606.325562 972.759094,605.059082 972.979858,600.998901 
	C973.112000,598.569153 973.042114,596.272156 974.352173,593.917725 
	C975.227356,592.344971 976.291077,590.121460 975.000000,588.000000 
"/>
<path fill="none" opacity="1.000000" stroke="#000000" stroke-linecap="round" stroke-linejoin="round" stroke-width="7.000000"
	d="
M916.500000,392.000000 
	C905.225281,408.969696 897.301819,427.197845 893.872192,447.478394 
	C890.867859,465.244507 889.261719,483.048737 890.081482,500.996277 
	C891.002075,521.150818 896.150208,540.408386 905.207458,558.395569 
	C907.437683,562.824585 908.713318,566.771301 908.000000,571.500000 
"/>
<path fill="none" opacity="1.000000" stroke="#000000" stroke-linecap="round" stroke-linejoin="round" stroke-width="10.000000"
	d="
M473.000000,518.500000 
	C464.432831,528.715393 458.920197,540.736816 453.028381,552.514221 
	C446.701263,565.161743 442.056183,578.476929 438.023529,592.007019 
	C437.328033,594.340515 436.589447,596.617798 438.428253,599.054138 
	C440.247650,601.464844 439.998962,604.570496 440.008850,607.500000 
	C440.038300,616.177490 439.481506,624.907776 441.045685,633.491699 
	C443.570221,647.346008 446.922638,660.987244 452.487579,674.005310 
	C462.008179,696.276917 474.211365,716.853027 491.570526,733.928284 
	C501.147003,743.348083 512.823181,750.417358 526.054382,752.062744 
	C534.900757,753.162964 544.746521,752.491211 552.557556,745.564880 
	C561.168518,737.929138 568.568176,729.780762 568.980774,717.499329 
	C569.423401,704.324341 565.336792,692.344727 559.000671,680.999634 
	C548.673462,662.508362 536.423706,644.991760 529.104797,624.961731 
	C523.499817,609.622253 517.832031,594.181030 517.500000,577.500000 
"/>
<path fill="none" opacity="1.000000" stroke="#000000" stroke-linecap="round" stroke-linejoin="round" stroke-width="10.000000"
	d="
M752.000000,599.500000 
	C748.420288,603.374390 747.993958,607.809631 748.345581,613.010437 
	C749.229492,626.082825 746.564453,638.909790 743.396057,651.473816 
	C736.609924,678.383972 724.137024,702.628540 706.385925,723.904785 
	C697.385498,734.692505 686.934204,744.218689 673.473816,749.432312 
	C668.085083,751.519531 662.670776,753.882568 656.439453,751.670471 
	C654.321228,750.918518 651.573364,751.952698 648.982971,751.642212 
	C645.014648,751.166748 641.711365,749.718811 638.480469,747.528809 
	C625.541077,738.757935 617.599060,727.191711 619.113281,711.010620 
	C620.072327,700.762573 623.378357,690.971497 628.551758,682.029968 
	C636.067993,669.038940 644.156555,656.369995 650.953735,642.976562 
	C655.188477,634.632385 658.339294,625.813599 661.759644,617.101929 
	C664.870911,609.177429 667.508728,601.198425 669.404236,592.977905 
	C670.574768,587.901428 672.127747,582.821655 672.000000,577.500000 
"/>
<path fill="none" opacity="1.000000" stroke="#000000" stroke-linecap="round" stroke-linejoin="round" stroke-width="6.000000"
	d="
M91.500000,651.000000 
	C93.845863,657.254639 100.049690,657.804077 105.043045,659.362000 
	C134.001907,668.397278 163.811890,671.417908 193.992325,669.852112 
	C208.783875,669.084656 223.487579,666.686462 237.994720,663.476135 
	C243.830582,662.184692 248.041870,658.120850 252.526535,654.533142 
	C253.947403,653.396545 254.017105,652.065430 254.015945,650.500000 
	C254.006012,637.063049 253.819916,623.644897 250.500000,610.500000 
"/>
<path fill="none" opacity="1.000000" stroke="#000000" stroke-linecap="round" stroke-linejoin="round" stroke-width="5.000000"
	d="
M803.000000,58.000000 
	C802.217041,59.795670 800.568848,60.554852 799.015381,61.524628 
	C769.151550,80.167458 766.098572,122.193314 789.973389,146.026657 
	C804.480530,160.508667 821.695679,165.000458 841.507935,161.039734 
	C844.116760,160.518204 846.833313,159.977066 849.500000,161.000000 
"/>
<path fill="none" opacity="1.000000" stroke="#000000" stroke-linecap="round" stroke-linejoin="round" stroke-width="10.000000"
	d="
M722.500000,807.500000 
	C723.185791,801.855469 719.247925,797.799072 717.457764,793.015808 
	C713.107239,781.390747 712.904175,769.449829 715.073730,757.513428 
	C719.664734,732.254639 730.890747,710.222534 748.507690,691.507263 
	C756.465027,683.053833 766.331848,677.105225 776.625916,672.267944 
	C781.387756,670.030334 787.515076,670.009583 792.996887,670.135498 
	C804.759644,670.405701 815.618591,673.795044 824.491943,682.008728 
	C833.013245,689.896606 838.101562,699.556580 840.670532,710.961609 
	C842.367004,718.492859 842.444946,726.107361 842.135742,733.484741 
	C841.853333,740.223389 839.013245,747.041504 836.408508,753.462891 
	C826.640442,777.543945 811.647583,797.536133 788.964355,810.939697 
	C777.494568,817.717163 765.166565,822.105042 751.501770,820.978760 
	C745.043640,820.446472 739.092529,818.099731 733.528076,814.950439 
	C728.006592,811.825562 723.336243,807.807739 715.983887,808.117798 
	C711.236328,808.317993 706.230652,805.062561 701.520996,802.953125 
	C691.204041,798.332153 680.875244,794.266846 669.583496,792.070801 
	C663.690735,790.924744 659.084412,791.543030 653.994934,793.486633 
	C638.844788,799.272461 623.347595,802.922180 607.019409,804.240662 
	C585.155579,806.006104 564.134399,803.425903 543.509277,796.472534 
	C537.615356,794.485535 531.874634,792.039490 525.961975,790.117004 
	C524.895813,789.770325 523.590637,789.327393 521.959900,789.882141 
	C506.764282,795.050781 491.686920,800.493347 476.978180,806.950317 
	C473.391205,808.524902 469.765289,810.337585 465.476929,809.078613 
	C463.461395,808.486938 462.106506,810.532898 460.493042,811.488220 
	C450.168823,817.600464 439.206909,822.101440 427.013153,820.869873 
	C415.841827,819.741577 405.354340,815.888062 396.013947,809.479675 
	C375.662415,795.516663 360.734039,777.055542 352.138855,753.948364 
	C347.393585,741.191223 344.674713,728.118103 346.772369,713.966248 
	C350.602905,688.123840 373.242065,666.051880 404.493591,670.544556 
	C415.932434,672.188904 425.664764,678.129028 433.873260,685.638550 
	C456.135254,706.004700 468.078308,732.147156 472.841034,761.525757 
	C475.054993,775.182556 473.390289,788.725220 466.009064,801.005432 
	C464.627594,803.303772 464.306671,805.861328 464.500000,808.500000 
"/>
<path fill="none" opacity="1.000000" stroke="#000000" stroke-linecap="round" stroke-linejoin="round" stroke-width="6.000000"
	d="
M661.000000,616.000000 
	C655.365784,613.498169 652.346497,607.997925 647.615173,604.350586 
	C636.200745,595.551514 623.731384,589.801575 609.509644,587.441895 
	C594.762817,584.995056 580.228577,585.646118 566.024658,590.078979 
	C552.750610,594.221741 541.071167,601.151672 531.969299,611.974182 
	C530.691101,613.494019 529.000000,614.666687 527.500000,616.000000 
"/>
<path fill="none" opacity="1.000000" stroke="#000000" stroke-linecap="round" stroke-linejoin="round" stroke-width="6.000000"
	d="
M1089.500000,857.500000 
	C1083.971069,858.340576 1078.791870,860.624634 1072.999878,860.621521 
	C1065.791138,860.617676 1059.086792,858.866028 1053.066162,855.385559 
	C1044.739990,850.572205 1036.710449,850.161011 1028.513062,855.022095 
	C1015.963135,862.464478 1003.523438,862.004150 990.989136,855.019531 
	C985.553955,851.990784 979.982788,852.304382 974.505066,855.010254 
	C969.450867,857.507019 964.361816,859.780579 958.500000,859.000000 
"/>
<path fill="none" opacity="1.000000" stroke="#000000" stroke-linecap="round" stroke-linejoin="round" stroke-width="6.000000"
	d="
M957.500000,351.500000 
	C955.074707,344.411530 954.645935,336.733826 951.019897,329.989288 
	C948.282104,324.897003 945.292358,320.454437 939.560547,317.865936 
	C930.458130,313.755310 922.330017,317.633667 916.561646,323.560028 
	C909.616028,330.695984 906.609436,339.813782 905.545898,349.505035 
	C903.884460,364.645294 906.382629,379.217712 917.257263,390.246338 
	C923.727783,396.808411 932.035828,401.980164 941.486511,404.549713 
	C960.527039,409.726624 978.474548,408.200745 995.559143,397.595276 
	C1004.003723,392.353271 1010.171265,385.193909 1013.782593,376.410614 
	C1017.445740,367.501160 1019.234558,357.913086 1017.561157,347.989685 
	C1016.199463,339.913849 1013.309570,332.387695 1008.386230,326.088928 
	C997.860535,312.622559 980.215027,313.950623 971.384949,329.936462 
	C967.597961,336.792358 966.659973,344.098907 965.500000,351.500000 
"/>
<path fill="none" opacity="1.000000" stroke="#000000" stroke-linecap="round" stroke-linejoin="round" stroke-width="6.000000"
	d="
M1152.250000,429.500000 
	C1152.170166,428.457458 1153.360474,427.236786 1151.509766,426.476257 
	C1129.447632,417.410309 1109.416382,404.117828 1087.024292,395.685516 
	C1071.098633,389.688324 1055.274170,390.689056 1039.565674,395.705719 
	C1036.149292,396.796753 1032.967285,397.503387 1029.500000,397.500000 
"/>
<path fill="none" opacity="1.000000" stroke="#000000" stroke-linecap="round" stroke-linejoin="round" stroke-width="6.000000"
	d="
M887.000000,407.000000 
	C880.986572,401.365143 872.802063,399.731476 865.949341,395.583710 
	C856.294373,389.739777 846.090515,385.180817 834.503479,384.445404 
	C825.732788,383.888702 817.556519,386.156189 809.515503,389.043213 
	C795.501831,394.074646 781.569702,399.335724 767.989807,405.477448 
	C767.235413,405.818634 766.333313,405.833344 765.500000,406.000031 
"/>
<path fill="none" opacity="1.000000" stroke="#000000" stroke-linecap="round" stroke-linejoin="round" stroke-width="8.000000"
	d="
M408.000000,272.500000 
	C396.324951,264.679169 385.639954,255.463562 373.044800,248.913834 
	C355.805573,239.949081 337.866211,232.968231 318.965668,228.650238 
	C314.358643,227.597702 309.352936,226.209686 304.524414,228.063599 
	C302.887482,228.692093 301.750153,227.737076 300.522766,227.413635 
	C291.979675,225.162384 283.448425,224.326584 275.030304,227.578461 
	C272.381836,228.601547 270.467926,226.441055 267.988190,226.941483 
	C261.356201,228.279907 254.561203,228.921097 248.024002,230.593765 
	C237.450409,233.299194 227.020630,236.576935 217.000900,241.002045 
	C216.660385,241.152435 216.282806,241.274017 216.007355,241.508636 
	C208.135773,248.213135 197.856888,250.519867 189.377182,256.320465 
	C180.196228,262.600739 170.949234,268.881317 163.186401,276.685425 
	C155.386459,284.526855 146.692551,291.576660 140.014145,300.510590 
	C133.838699,308.771729 127.705536,317.095337 122.553894,326.031067 
	C114.048378,340.784302 106.029358,355.798828 100.461502,371.986755 
	C99.569176,374.581116 98.166672,377.000000 97.000008,379.500000 
"/>
<path fill="none" opacity="1.000000" stroke="#000000" stroke-linecap="round" stroke-linejoin="round" stroke-width="6.000000"
	d="
M1135.500000,763.500000 
	C1127.797241,765.522400 1120.255493,767.989502 1111.977295,766.638794 
	C1107.251343,765.867615 1103.035034,764.130066 1099.048096,761.913574 
	C1092.468872,758.256104 1086.299072,757.921387 1079.438354,761.377563 
	C1074.038940,764.097534 1068.337280,766.402954 1062.001709,766.565247 
	C1056.615356,766.703186 1051.591431,765.493774 1047.040161,762.928772 
	C1040.480591,759.232056 1034.247925,758.808105 1027.440918,762.387512 
	C1023.973022,764.210999 1020.196655,765.952209 1016.000000,765.750000 
"/>
<path fill="none" opacity="1.000000" stroke="#000000" stroke-linecap="round" stroke-linejoin="round" stroke-width="7.000000"
	d="
M1020.500000,569.000000 
	C1024.950439,572.394104 1030.396729,572.190369 1035.507690,572.948547 
	C1062.444580,576.944763 1089.355225,581.051697 1114.973877,590.818542 
	C1119.159668,592.414429 1123.081665,594.776367 1126.974731,597.043457 
	C1130.200684,598.922119 1132.282959,601.500183 1130.011963,605.506775 
	C1129.756958,605.956726 1129.442017,606.545715 1129.533081,606.993286 
	C1131.661865,617.464539 1127.330688,627.594910 1127.931152,638.003967 
	C1128.179810,642.313354 1127.654175,646.666260 1127.504150,651.000122 
	C1127.389404,654.309937 1125.340698,655.758545 1122.537109,657.078674 
	C1117.387939,659.503479 1112.466797,662.419678 1108.012085,666.014954 
	C1105.924072,667.700012 1103.510010,667.799316 1101.004883,668.049316 
	C1095.988403,668.549927 1090.999878,669.332275 1086.000122,670.001282 
	C1085.315796,670.092834 1084.588135,669.747070 1083.986938,670.489380 
	C1077.133545,678.951233 1066.826538,679.097290 1057.467651,680.824463 
	C1046.973511,682.761047 1036.229858,683.656738 1025.504395,682.934814 
	C1020.356445,682.588257 1015.586487,684.667358 1010.498657,684.593445 
	C1008.713440,684.567505 1008.033020,687.049805 1006.022522,687.584778 
	C1001.565796,688.770386 997.234375,690.131348 992.499084,690.055847 
	C981.501892,689.880554 970.482544,689.608826 959.504456,690.099243 
	C945.868713,690.708435 932.708130,688.693176 919.453369,685.707092 
	C910.868042,683.772949 901.844604,683.671265 892.996155,683.055054 
	C886.749451,682.619995 881.149536,681.221375 875.363770,678.266785 
	C866.302979,673.639709 856.223633,671.398254 846.017944,669.879395 
	C837.960266,668.680176 829.559631,668.321777 822.847656,662.166138 
	C820.677917,660.176147 816.601013,660.769409 813.471069,659.575867 
	C803.019043,655.589966 802.258972,654.750366 802.005676,643.499878 
	C801.775085,633.255493 800.796936,623.095520 799.077332,612.986816 
	C798.690979,610.715393 798.477112,608.163391 800.000000,606.000000 
"/>
<path fill="none" opacity="1.000000" stroke="#000000" stroke-linecap="round" stroke-linejoin="round" stroke-width="6.000000"
	d="
M1008.000000,575.500000 
	C997.968567,581.599548 986.504944,583.662292 975.479370,586.930298 
	C973.794067,587.429810 971.833313,587.000000 970.000000,587.000000 
	C961.000000,587.000000 951.592285,588.643433 943.114136,586.539978 
	C934.555420,584.416626 925.264954,583.696106 917.445862,578.582764 
	C914.423645,576.606445 910.629883,576.002808 908.425171,572.547729 
	C906.757812,569.934692 903.129150,570.168884 901.052429,570.703552 
	C890.174072,573.504333 878.922852,573.703064 867.999817,575.999207 
	C846.515076,580.515686 824.770874,584.085754 804.967224,594.437256 
	C800.666931,596.685059 797.969971,599.348633 799.242737,604.879822 
	C804.827209,606.208557 808.800049,610.716187 812.862793,614.641968 
	C818.242432,619.840088 824.501343,621.582031 831.490723,622.565857 
	C840.196045,623.791260 848.913269,625.146179 857.481262,627.082886 
	C870.334412,629.988220 873.185364,632.722961 875.364929,645.523010 
	C876.959167,654.885498 876.719788,664.483826 876.436584,673.998108 
	C876.401489,675.178589 875.500000,676.333313 875.000000,677.500000 
"/>
<path fill="none" opacity="1.000000" stroke="#000000" stroke-linecap="round" stroke-linejoin="round" stroke-width="5.000000"
	d="
M588.500000,134.000000 
	C592.887634,130.337860 589.765564,125.927475 589.252991,122.032509 
	C589.007019,120.163666 588.571106,117.962700 587.870911,115.957779 
	C586.584229,112.273415 587.015686,109.126480 590.886780,106.342567 
	C595.354553,103.129478 600.925049,100.447365 602.170227,93.624672 
	C597.527405,90.109314 591.781250,90.404839 586.481567,89.625336 
	C582.037842,88.971741 578.926819,88.016533 577.327820,83.055496 
	C575.622009,77.763031 573.286804,72.481316 569.476440,68.281044 
	C564.135376,69.246910 562.635986,73.995132 561.815063,77.083740 
	C559.390686,86.205536 554.776672,90.596062 544.991150,90.253899 
	C541.472778,90.130875 536.997070,90.228905 533.946960,93.550003 
	C534.378174,98.424713 538.541138,100.706192 541.639282,103.335922 
	C544.286743,105.583138 546.838989,107.803482 549.000000,110.500000 
"/>
<path fill="none" opacity="1.000000" stroke="#000000" stroke-linecap="round" stroke-linejoin="round" stroke-width="6.000000"
	d="
M1062.500000,49.499996 
	C1066.000000,56.166660 1069.236938,62.991524 1073.110474,69.433540 
	C1075.057007,72.670731 1079.215210,71.872101 1082.499756,72.501129 
	C1086.764038,73.317795 1091.348877,72.992249 1095.014771,75.879425 
	C1094.606934,79.044937 1093.273071,81.444130 1090.518311,83.031746 
	C1089.407104,83.672203 1088.508057,84.676643 1087.498657,85.498421 
	C1078.973999,92.438431 1079.148193,92.391830 1081.907349,103.024040 
	C1082.906616,106.874466 1085.277100,111.000000 1081.998901,115.177635 
	C1076.939453,114.261330 1072.491577,111.831627 1068.582642,108.890182 
	C1063.251343,104.878487 1058.537231,105.534164 1053.483765,108.976189 
	C1051.078125,110.614708 1048.408936,111.870712 1046.031616,113.544838 
	C1044.408691,114.687645 1042.718018,115.804138 1041.061523,114.426079 
	C1039.340088,112.994011 1038.938477,110.506645 1039.605347,108.535637 
	C1040.555786,105.726440 1040.670532,102.667572 1041.664673,100.062828 
	C1044.553223,92.493782 1040.024414,88.803413 1035.017822,84.976685 
	C1031.985229,82.658745 1028.524048,80.547493 1028.479370,75.729477 
	C1031.345215,72.869011 1035.395630,73.346672 1039.004761,72.520576 
	C1039.638184,72.375587 1040.333496,72.506416 1041.000000,72.499008 
	C1047.675049,72.424789 1052.615356,70.563080 1054.739380,63.067829 
	C1055.887695,59.015289 1057.039062,53.988796 1062.000000,52.000000 
"/>
<path fill="none" opacity="1.000000" stroke="#000000" stroke-linecap="round" stroke-linejoin="round" stroke-width="6.000000"
	d="
M56.500000,818.500000 
	C63.888458,825.431152 73.436226,825.278931 82.508591,825.867615 
	C93.639221,826.589661 104.835747,826.556458 115.999306,826.435913 
	C126.724289,826.320190 137.416138,825.450439 148.016251,823.592773 
	C149.421783,823.346436 150.752136,822.944214 151.973541,822.436401 
	C156.059082,820.737610 156.804459,817.853210 153.445511,815.065674 
	C140.750610,804.530212 127.247887,795.157654 110.477654,792.649414 
	C103.279297,791.572754 95.921585,792.696960 88.997597,795.494080 
	C79.303879,799.410095 70.482216,804.781616 62.534161,811.540161 
	C60.406441,813.349487 58.562172,815.563782 58.000000,818.500000 
"/>
<path fill="none" opacity="1.000000" stroke="#000000" stroke-linecap="round" stroke-linejoin="round" stroke-width="6.000000"
	d="
M234.500000,861.500000 
	C226.725494,864.186340 218.912857,866.544495 210.497360,865.521667 
	C205.519272,864.916687 200.794067,863.346802 196.548096,860.916016 
	C187.946213,855.991333 179.956131,856.968750 171.433777,861.371826 
	C164.062302,865.180237 156.028122,866.776855 147.482147,865.633423 
	C143.331284,865.077942 139.848007,863.118469 136.000000,862.000000 
"/>
<path fill="none" opacity="1.000000" stroke="#000000" stroke-linecap="round" stroke-linejoin="round" stroke-width="10.000000"
	d="
M502.500000,268.000000 
	C495.802216,260.574371 489.711151,252.743011 480.059082,248.369583 
	C460.899536,239.688187 443.368683,242.802673 426.501068,254.001633 
	C419.169525,258.869293 414.577942,266.460663 408.837646,272.805481 
	C406.206390,275.713837 405.771484,281.482697 404.510651,286.002960 
	C400.268921,301.209930 404.046539,318.610840 412.839417,332.104645 
	C419.378357,342.139496 429.530884,346.684418 439.000000,352.500000 
"/>
<path fill="none" opacity="1.000000" stroke="#000000" stroke-linecap="round" stroke-linejoin="round" stroke-width="6.000000"
	d="
M84.500000,460.000000 
	C84.540436,452.576569 86.069084,445.209045 86.505661,437.970184 
	C87.171120,426.936218 88.963257,416.238708 91.039604,405.507660 
	C92.454430,398.195435 94.008484,390.903168 96.963936,383.984589 
	C98.541412,380.291748 97.297226,378.865845 93.000061,379.001892 
	C85.582985,379.236694 78.782913,381.935760 72.016457,384.542725 
	C57.301743,390.212036 43.301472,397.403137 29.489988,404.981750 
	C21.712173,409.249603 13.901787,413.471222 5.958020,417.415466 
	C3.595080,418.588745 3.091372,420.639771 2.000000,422.500000 
"/>
<path fill="none" opacity="1.000000" stroke="#000000" stroke-linecap="round" stroke-linejoin="round" stroke-width="6.000000"
	d="
M480.000000,284.500000 
	C472.837433,277.009857 463.770386,274.372375 454.038788,276.433228 
	C443.110016,278.747620 436.428436,286.711151 433.090790,297.029358 
	C429.091309,309.393768 435.427338,322.868835 444.997070,328.504974 
	C446.351440,329.302643 447.666656,330.166656 449.000000,331.000000 
"/>
<path fill="none" opacity="1.000000" stroke="#000000" stroke-linecap="round" stroke-linejoin="round" stroke-width="8.000000"
	d="
M889.500000,409.500000 
	C892.567932,413.634766 890.397644,417.614777 888.965759,421.487335 
	C883.448181,436.409729 879.516602,451.711304 877.494019,467.499237 
	C876.906311,472.087219 875.057983,476.711914 874.938477,481.012177 
	C874.813354,485.517029 875.205078,490.330811 875.495178,495.000305 
	C876.240906,507.003448 877.840515,518.891235 881.042786,530.488159 
	C884.497742,543.000549 890.230530,554.437561 898.552063,564.456726 
	C899.971924,566.166138 900.823914,567.989990 901.500000,570.000000 
"/>
<path fill="none" opacity="1.000000" stroke="#000000" stroke-linecap="round" stroke-linejoin="round" stroke-width="7.000000"
	d="
M428.500000,471.000000 
	C422.387695,473.766357 415.779236,473.597382 409.531464,472.764069 
	C404.047485,472.032654 398.783997,472.953918 393.513611,473.245667 
	C388.017609,473.549835 382.442322,473.786926 377.000031,473.786072 
	C364.140594,473.784027 351.343750,474.956116 338.500946,475.089874 
	C333.178436,475.145294 327.886475,476.329529 322.498688,476.022888 
	C314.307922,475.556610 306.049683,476.994019 298.014465,476.656219 
	C283.509064,476.046387 268.929718,478.093933 254.497055,475.516510 
	C252.638443,475.184601 251.194962,476.594299 249.500000,477.000000 
"/>
<path fill="none" opacity="1.000000" stroke="#000000" stroke-linecap="round" stroke-linejoin="round" stroke-width="8.000000"
	d="
M258.500000,554.500000 
	C258.000000,557.666687 257.360992,560.818787 257.028198,564.002930 
	C256.279541,571.166443 257.526184,577.613770 262.941986,583.057678 
	C269.169922,589.317932 274.297791,596.628845 278.824738,604.106140 
	C284.649597,613.727295 287.662109,624.301941 287.222412,636.008362 
	C286.879639,645.133789 284.242462,653.036621 279.461609,660.475342 
	C278.389587,662.143250 277.010406,663.720398 275.467651,664.959717 
	C270.316864,669.097717 266.204865,668.223328 262.487579,662.508057 
	C260.280914,659.115356 258.317688,655.476868 254.500000,653.500000 
"/>
<path fill="none" opacity="1.000000" stroke="#000000" stroke-linecap="round" stroke-linejoin="round" stroke-width="8.000000"
	d="
M1047.500000,480.500000 
	C1045.732788,483.643250 1045.875488,486.934326 1045.837646,490.498260 
	C1045.601685,512.724609 1041.311035,533.906128 1029.126465,553.080383 
	C1025.941040,558.093323 1022.460510,562.966309 1019.780273,568.391479 
	C1018.014099,571.966553 1013.684448,573.697754 1009.500000,574.500000 
"/>
<path fill="none" opacity="1.000000" stroke="#000000" stroke-linecap="round" stroke-linejoin="round" stroke-width="6.000000"
	d="
M331.000000,670.000000 
	C324.471069,671.157654 318.613312,674.441406 312.019318,675.609070 
	C300.358490,677.673950 289.563904,683.120972 277.960785,685.290344 
	C272.656464,686.282104 266.992920,685.939575 261.495850,686.455627 
	C251.782486,687.367676 242.574875,690.004456 233.447189,693.356201 
	C230.108353,694.582275 226.172852,694.283936 222.498825,694.477783 
	C211.835464,695.040405 201.170685,695.631653 190.498703,695.957520 
	C182.249512,696.209412 174.082657,695.393982 165.990738,693.540466 
	C150.035614,689.885742 133.823532,688.814453 117.501724,689.538757 
	C111.304001,689.813782 105.445969,688.385620 99.486923,687.058716 
	C88.489738,684.610168 78.648422,678.280212 67.003738,677.888794 
	C61.481972,677.703186 56.000923,676.327148 50.499790,675.501404 
	C43.390739,674.434326 37.869228,670.048462 32.087196,666.363220 
	C30.562841,665.391541 28.396448,665.016479 27.479958,663.009155 
	C25.952772,659.664246 27.020826,657.471741 29.948799,655.426697 
	C32.524235,653.627930 35.124519,651.843750 38.031895,650.842651 
	C40.918148,649.848755 42.692173,648.041077 44.000000,645.500000 
"/>
<path fill="none" opacity="1.000000" stroke="#000000" stroke-linecap="round" stroke-linejoin="round" stroke-width="6.000000"
	d="
M296.500000,681.000000 
	C297.992279,685.959229 295.617554,690.643738 295.357513,695.492371 
	C295.080719,700.653259 293.221130,705.550598 293.784088,711.022217 
	C294.390442,716.915588 287.781311,721.084229 280.015076,722.113647 
	C269.185944,723.548950 258.263702,722.039246 247.514648,723.600830 
	C241.580246,724.462952 235.599075,725.225342 229.919617,727.824341 
	C226.536682,729.372314 222.674103,730.057251 218.482254,729.721741 
	C211.885849,729.193787 205.137604,728.850098 198.501190,730.006836 
	C187.464813,731.930481 176.423904,731.060120 165.521591,729.361389 
	C158.350830,728.244141 151.074112,729.295288 143.995300,727.518677 
	C133.610321,724.912354 123.006706,726.362122 112.500122,725.996521 
	C103.968658,725.699524 96.339706,722.302612 89.059975,718.388428 
	C83.119385,715.194275 77.336479,713.562317 70.486862,714.391479 
	C55.465076,716.209839 42.896347,710.509827 31.991709,700.509033 
	C29.766037,698.467773 28.652199,696.144958 28.411093,693.006836 
	C27.858801,685.818542 26.750811,678.674805 26.046322,671.495483 
	C25.810886,669.096130 25.553673,666.523376 27.500000,664.500000 
"/>
<path fill="none" opacity="1.000000" stroke="#000000" stroke-linecap="round" stroke-linejoin="round" stroke-width="5.000000"
	d="
M527.500000,404.500000 
	C535.135925,401.223816 541.448303,396.850952 542.012451,387.500763 
	C542.496094,379.485199 539.823242,372.936554 533.002869,370.989960 
	C524.526489,368.570679 516.993286,374.478546 516.650635,385.504669 
	C516.403564,393.457428 520.021118,400.089203 527.000000,404.500000 
"/>
<path fill="none" opacity="1.000000" stroke="#000000" stroke-linecap="round" stroke-linejoin="round" stroke-width="5.000000"
	d="
M43.500004,226.500000 
	C47.500004,230.333328 51.568146,234.098679 55.479977,238.019974 
	C59.065929,241.614609 55.850368,245.705078 55.792721,249.496841 
	C55.745060,252.631821 53.117783,256.664948 55.699860,258.752838 
	C58.577259,261.079559 62.122890,257.767426 64.384079,255.862411 
	C70.716881,250.527176 76.531174,250.996475 82.476608,256.027649 
	C83.848885,257.188873 85.574425,257.639404 86.927696,258.601685 
	C88.436295,259.674408 90.233810,260.046967 91.116409,259.122467 
	C92.100693,258.091461 93.005745,256.353302 92.510941,254.497086 
	C91.548668,250.887329 91.442085,246.931686 90.235832,243.595520 
	C88.775589,239.556900 90.224945,238.037430 92.952408,235.938156 
	C96.495865,233.210831 100.981216,231.017441 101.074669,225.333725 
	C97.193741,222.998291 92.704544,222.664413 88.500542,222.677292 
	C83.744026,222.691833 81.739975,220.116135 80.597305,216.469513 
	C79.818138,213.982925 78.627586,211.759018 77.456978,209.522522 
	C75.006432,204.840668 72.874512,204.685684 70.044937,209.029282 
	C68.302216,211.704483 66.621658,214.536575 65.591835,217.531570 
	C64.173599,221.656189 61.513859,222.557465 57.501812,222.618729 
	C53.088726,222.686127 48.352501,222.622406 45.000000,226.500000 
"/>
<path fill="none" opacity="1.000000" stroke="#000000" stroke-linecap="round" stroke-linejoin="round" stroke-width="10.000000"
	d="
M717.000000,517.000000 
	C732.799988,541.052979 744.168030,567.036499 751.020935,594.994873 
	C751.357605,596.368225 751.604797,598.322205 752.561035,598.898743 
	C762.271301,604.753235 762.680298,615.460999 765.890076,624.538879 
	C771.224060,639.624817 774.145386,655.381592 777.500000,671.000000 
"/>
<path fill="none" opacity="1.000000" stroke="#000000" stroke-linecap="round" stroke-linejoin="round" stroke-width="7.000000"
	d="
M117.500000,462.000000 
	C112.099121,458.487762 106.155319,460.973450 100.491745,460.640289 
	C95.531273,460.348450 90.576683,461.369385 85.468941,460.760529 
	C82.751762,460.436615 79.589760,461.796265 76.510117,462.101959 
	C61.852604,463.556824 47.103748,463.865540 32.489536,465.925781 
	C23.713144,467.163025 14.836066,467.698181 5.996894,468.464142 
	C4.747676,468.572418 3.624759,468.506500 3.250000,470.000000 
"/>
<path fill="none" opacity="1.000000" stroke="#000000" stroke-linecap="round" stroke-linejoin="round" stroke-width="6.000000"
	d="
M81.500000,560.000000 
	C79.403152,559.752258 77.511192,560.348877 75.462326,560.844177 
	C68.555634,562.513611 61.731346,561.623962 55.517059,557.971008 
	C50.198105,554.844299 44.777729,554.628052 39.532169,557.557617 
	C30.841471,562.411194 22.330889,563.167603 13.468900,558.053894 
	C10.196580,556.165649 6.537447,556.260559 3.000000,557.750000 
"/>
<path fill="none" opacity="1.000000" stroke="#000000" stroke-linecap="round" stroke-linejoin="round" stroke-width="6.000000"
	d="
M1084.000000,670.000000 
	C1081.717773,665.592102 1081.937256,660.670044 1081.638184,655.991150 
	C1081.193359,649.032654 1079.748047,642.302124 1078.597778,635.483521 
	C1078.036621,632.157471 1076.362305,631.376953 1073.499756,631.493225 
	C1064.833862,631.845276 1056.136963,631.840515 1047.511353,632.624451 
	C1042.481689,633.081543 1037.498169,632.750122 1032.499390,632.987671 
	C1018.344543,633.660522 1004.392212,635.081726 990.433167,638.200989 
	C976.089417,641.406189 961.322083,643.211670 946.499756,643.486084 
	C944.274536,643.527283 942.044983,643.375671 940.000000,644.500000 
"/>
<path fill="none" opacity="1.000000" stroke="#000000" stroke-linecap="round" stroke-linejoin="round" stroke-width="10.000000"
	d="
M436.500000,596.500000 
	C432.050201,598.869812 430.095032,602.842957 428.391846,607.460083 
	C422.829437,622.539429 418.904083,638.096130 414.664062,653.545044 
	C413.105377,659.224182 413.004669,665.334290 411.000000,671.000000 
"/>
<path fill="none" opacity="1.000000" stroke="#000000" stroke-linecap="round" stroke-linejoin="round" stroke-width="8.000000"
	d="
M623.500000,438.500000 
	C623.500000,429.456177 621.691040,426.305695 612.971069,423.592957 
	C600.250305,419.635498 587.272644,419.417999 574.523804,423.573029 
	C567.394287,425.896667 562.651978,432.622040 570.000000,443.500000 
"/>
<path fill="none" opacity="1.000000" stroke="#000000" stroke-linecap="round" stroke-linejoin="round" stroke-width="7.000000"
	d="
M764.500000,456.500000 
	C771.029480,460.489929 778.370728,460.194305 785.494568,459.878204 
	C793.661926,459.515778 801.817932,459.063660 809.999329,458.950989 
	C817.002563,458.854523 824.001587,458.362335 830.999268,457.986389 
	C834.006531,457.824860 836.780823,458.234772 839.000000,460.500000 
"/>
<path fill="none" opacity="1.000000" stroke="#000000" stroke-linecap="round" stroke-linejoin="round" stroke-width="6.000000"
	d="
M840.500000,526.000000 
	C835.023071,525.914246 830.169250,528.992249 824.490173,528.677246 
	C819.187561,528.382935 814.513428,526.779297 810.030151,524.442139 
	C803.743958,521.165161 797.568237,521.149841 791.527527,524.548889 
	C785.403076,527.994934 779.242065,530.522705 771.982178,529.090210 
	C770.575256,528.812561 769.646423,528.047180 768.500000,527.500000 
"/>
<path fill="none" opacity="1.000000" stroke="#000000" stroke-linecap="round" stroke-linejoin="round" stroke-width="6.000000"
	d="
M572.000000,498.500000 
	C568.236206,510.388794 572.964478,514.401123 585.105469,519.235046 
	C594.994995,523.172607 605.253296,521.043457 613.962280,514.450195 
	C619.347656,510.373077 619.800720,506.853516 617.000000,498.500000 
"/>
<path fill="none" opacity="1.000000" stroke="#000000" stroke-linecap="round" stroke-linejoin="round" stroke-width="6.000000"
	d="
M415.500000,560.000000 
	C410.854370,559.189453 406.714294,562.052185 401.988098,561.634888 
	C397.094818,561.202942 392.523987,560.239380 388.526672,557.461609 
	C383.714600,554.117737 378.820435,553.621338 373.489502,555.976196 
	C370.548096,557.275574 367.515472,558.375183 364.496948,559.491760 
	C356.643402,562.397034 349.718597,558.341431 342.500000,556.500000 
"/>
<path fill="none" opacity="1.000000" stroke="#000000" stroke-linecap="round" stroke-linejoin="round" stroke-width="7.000000"
	d="
M1152.500000,470.000000 
	C1143.459839,469.361389 1134.471680,468.319336 1125.479980,467.154053 
	C1120.554565,466.515747 1115.487793,466.648254 1110.494873,466.042542 
	C1104.850586,465.357880 1099.116455,465.305389 1093.518677,464.385986 
	C1090.137817,463.830627 1087.239136,463.935181 1084.500000,466.000000 
"/>
<path fill="none" opacity="1.000000" stroke="#000000" stroke-linecap="round" stroke-linejoin="round" stroke-width="6.000000"
	d="
M676.500000,392.500000 
	C678.923950,386.201355 678.802063,380.349274 674.025818,374.977020 
	C666.703064,366.740479 657.260864,370.622681 654.183838,378.571167 
	C650.335022,388.513428 652.287354,395.199768 659.991699,403.008209 
	C661.731262,404.771301 663.323608,404.760498 665.537964,403.570709 
	C670.161621,401.086395 674.287109,398.287079 676.000000,393.000000 
"/>
<path fill="none" opacity="1.000000" stroke="#000000" stroke-linecap="round" stroke-linejoin="round" stroke-width="5.000000"
	d="
M409.000000,83.500000 
	C404.815063,84.527969 404.131805,88.400986 403.107452,91.535126 
	C400.963745,98.094093 397.099609,101.319862 389.990875,100.588829 
	C387.715851,100.354881 385.295135,101.004311 383.009888,101.542053 
	C380.294220,102.181099 379.503967,104.952438 381.536469,106.963135 
	C384.050781,109.450447 386.715729,111.821846 389.532745,113.956779 
	C392.406677,116.134827 392.991425,118.700783 392.029266,122.008514 
	C391.084625,125.256210 390.402710,128.555099 390.466217,132.000626 
	C390.541687,136.091278 391.114197,136.776550 394.975525,135.429855 
	C397.767609,134.456100 400.546112,133.133408 402.949707,131.429047 
	C406.478302,128.926956 409.544403,128.890335 413.043701,131.440002 
	C415.311340,133.092255 418.057800,134.070786 420.481110,135.531342 
	C422.310425,136.633896 424.078796,136.800049 426.019012,135.932449 
	C427.374756,131.450348 425.561401,127.279411 424.525513,122.993835 
	C423.590729,119.126633 423.268829,115.661484 427.931458,113.361069 
	C430.801758,111.944931 433.163910,109.324936 435.452667,106.954315 
	C437.625061,104.704224 436.724762,102.612411 433.495697,102.023621 
	C431.017303,101.571709 428.503479,101.085548 425.999298,101.050438 
	C420.406586,100.972038 417.003632,98.434715 415.449890,93.014366 
	C414.396729,89.340286 412.419281,86.086067 409.500000,83.500000 
"/>
<path fill="none" opacity="1.000000" stroke="#000000" stroke-linecap="round" stroke-linejoin="round" stroke-width="7.000000"
	d="
M772.000000,715.500000 
	C780.985535,713.114746 784.573914,700.151306 782.966125,693.007629 
	C782.139832,689.335999 777.289978,687.729858 773.000000,689.500061 
	C765.785645,692.477051 761.622986,702.035461 763.925903,709.522766 
	C764.938416,712.815063 766.736328,714.963013 770.012695,715.405884 
	C771.731262,715.638123 771.521423,716.442261 771.500000,717.500000 
"/>
<path fill="none" opacity="1.000000" stroke="#000000" stroke-linecap="round" stroke-linejoin="round" stroke-width="6.000000"
	d="
M947.500000,689.000000 
	C948.563110,676.136047 947.916077,663.635620 942.666748,651.428284 
	C939.376831,643.777527 934.077026,641.890503 926.514465,641.311218 
	C917.286987,640.604431 908.154175,638.571960 899.003784,636.978333 
	C890.985718,635.582031 883.006592,633.962158 874.989197,632.561951 
	C874.237061,632.430542 873.333374,633.166687 872.500000,633.500061 
"/>
<path fill="none" opacity="1.000000" stroke="#000000" stroke-linecap="round" stroke-linejoin="round" stroke-width="6.000000"
	d="
M288.000000,642.500000 
	C300.152893,644.131531 311.607147,648.190857 323.010223,652.472778 
	C327.584259,654.190430 331.197845,656.745544 333.051086,661.479980 
	C333.523773,662.687622 333.713684,663.897034 333.451538,664.988342 
	C331.236237,674.211060 331.825867,683.667419 331.060364,693.004944 
	C330.388733,701.197449 328.890503,703.546448 320.992981,705.724548 
	C312.296753,708.122803 303.478241,709.981384 294.500000,711.000000 
"/>
<path fill="none" opacity="1.000000" stroke="#000000" stroke-linecap="round" stroke-linejoin="round" stroke-width="7.000000"
	d="
M362.000000,721.000000 
	C357.896057,720.538147 356.256165,722.820801 356.011505,726.500793 
	C355.504761,734.122925 360.888733,741.810364 366.430634,744.163391 
	C369.786346,745.588074 372.541962,745.006470 374.914307,743.375366 
	C377.612000,741.520630 378.574371,738.575928 377.563019,734.982239 
	C375.165222,726.461731 369.950592,721.261108 363.000000,721.000000 
"/>
<path fill="none" opacity="1.000000" stroke="#000000" stroke-linecap="round" stroke-linejoin="round" stroke-width="6.000000"
	d="
M759.500000,304.500000 
	C757.935425,304.731232 757.522339,304.030243 757.463928,302.501373 
	C756.994690,290.229797 750.429199,282.003906 739.454041,277.614929 
	C729.256104,273.536774 719.719238,276.410767 711.008545,282.512177 
	C709.946106,283.256378 709.000000,284.166656 708.000000,285.000000 
"/>
<path fill="none" opacity="1.000000" stroke="#000000" stroke-linecap="round" stroke-linejoin="round" stroke-width="6.000000"
	d="
M98.000000,382.500000 
	C105.479568,385.271851 113.334808,386.661377 121.002907,388.739288 
	C139.372849,393.717072 158.222458,396.144989 177.015976,398.629089 
	C194.427353,400.930511 211.919144,402.631287 229.489746,403.673004 
	C242.330856,404.434326 255.145493,404.964264 267.999817,405.033630 
	C276.008942,405.076843 283.952942,405.740326 292.042694,404.922241 
	C295.313507,404.591492 300.120178,404.080505 303.500000,407.000000 
"/>
<path fill="none" opacity="1.000000" stroke="#000000" stroke-linecap="round" stroke-linejoin="round" stroke-width="7.000000"
	d="
M401.000000,391.000000 
	C398.728424,391.130798 397.204498,389.590973 395.506622,388.489777 
	C386.889099,382.900848 377.791504,378.033600 367.486511,377.158905 
	C356.297455,376.209198 345.616516,378.027222 334.836884,382.616882 
	C323.826050,387.304901 316.235931,395.260315 307.946198,402.941925 
	C302.410950,408.071045 300.374756,415.205200 298.459808,421.636902 
	C296.610291,427.848724 293.232300,433.607056 292.676331,440.473785 
	C292.249268,445.748230 291.315887,451.164703 290.524780,456.503662 
	C289.591248,462.803955 290.124878,469.165558 290.000000,475.500000 
"/>
<path fill="none" opacity="1.000000" stroke="#000000" stroke-linecap="round" stroke-linejoin="round" stroke-width="6.000000"
	d="
M241.500000,405.500000 
	C239.623367,419.102509 238.048935,432.732910 238.532562,446.498871 
	C238.676559,450.597931 238.031509,454.427155 236.000000,458.000000 
"/>
<path fill="none" opacity="1.000000" stroke="#000000" stroke-linecap="round" stroke-linejoin="round" stroke-width="6.000000"
	d="
M130.500000,392.500000 
	C124.849701,404.940521 122.297287,418.285095 119.700165,431.539215 
	C118.847237,435.892120 118.449188,440.494354 118.000000,445.000000 
"/>
<path fill="none" opacity="1.000000" stroke="#000000" stroke-linecap="round" stroke-linejoin="round" stroke-width="7.000000"
	d="
M943.000000,587.500000 
	C941.845947,589.610046 942.879639,591.544800 943.507385,593.497620 
	C944.293823,595.944092 945.170654,598.360596 945.004578,601.000305 
	C944.742065,605.172485 942.217285,606.964355 938.510803,605.473145 
	C937.275818,604.976379 936.112244,604.245728 935.008972,603.487000 
	C928.519165,599.023621 928.851562,601.000061 924.002686,604.503662 
	C922.651917,605.479614 921.349243,606.522156 919.996338,607.494934 
	C917.837280,609.047302 916.240112,608.931946 914.435852,606.548584 
	C909.513123,600.045715 909.427856,600.249695 901.471985,602.916382 
	C899.644592,603.528809 897.419800,604.337830 895.482300,602.518860 
	C893.436218,600.597839 894.511780,598.066772 895.180725,596.581360 
	C896.826233,592.927429 899.267944,589.546692 902.522095,587.028564 
	C906.210510,584.174500 909.172607,580.814331 911.000000,576.500000 
"/>
<path fill="none" opacity="1.000000" stroke="#000000" stroke-linecap="round" stroke-linejoin="round" stroke-width="5.000000"
	d="
M225.000000,515.500000 
	C229.079865,512.107117 232.586685,508.347321 231.973663,502.502777 
	C231.398361,497.017822 228.278809,494.134216 223.998566,494.739868 
	C218.587784,495.505493 216.740417,499.550964 217.629639,505.480560 
	C218.072617,508.434387 219.451599,511.493042 222.027374,513.464233 
	C224.434937,515.306702 225.190460,517.656494 225.000000,520.500000 
"/>
<path fill="none" opacity="1.000000" stroke="#000000" stroke-linecap="round" stroke-linejoin="round" stroke-width="6.000000"
	d="
M415.500000,339.000000 
	C413.527039,340.840881 411.183624,341.470764 408.556091,342.201630 
	C402.739502,343.819611 396.451050,345.821594 390.990234,345.912354 
	C383.115295,346.043182 375.675659,347.932404 368.008087,348.593658 
	C344.207214,350.646210 320.424408,352.641174 296.499817,352.551666 
	C281.155487,352.494232 265.812714,352.728973 250.500427,351.494690 
	C234.679932,350.219421 218.783981,350.206940 202.990753,348.327728 
	C193.598114,347.210114 184.296646,345.581848 175.016434,343.908875 
	C159.289978,341.073822 143.664062,337.679474 128.002548,334.487488 
	C125.379532,333.952881 123.136589,332.560150 121.000000,331.000000 
"/>
<path fill="none" opacity="1.000000" stroke="#000000" stroke-linecap="round" stroke-linejoin="round" stroke-width="6.000000"
	d="
M292.000000,354.000000 
	C292.166656,355.000000 292.476227,355.999664 292.478485,357.000061 
	C292.510223,370.999969 292.516663,385.000061 292.477966,398.999939 
	C292.473358,400.667053 292.166656,402.333344 292.000000,404.000000 
"/>
<path fill="none" opacity="1.000000" stroke="#000000" stroke-linecap="round" stroke-linejoin="round" stroke-width="6.000000"
	d="
M199.500000,349.500000 
	C195.797180,363.686218 191.677490,377.777496 190.433167,392.494354 
	C190.246552,394.701599 189.166672,396.833344 188.500000,399.000000 
"/>
<path fill="none" opacity="1.000000" stroke="#000000" stroke-linecap="round" stroke-linejoin="round" stroke-width="6.000000"
	d="
M1152.250000,521.500000 
	C1152.233765,526.142578 1148.533325,524.632080 1146.520020,524.354797 
	C1141.903320,523.719299 1137.390625,522.027832 1133.565674,519.404236 
	C1129.022583,516.288025 1124.479492,517.031494 1120.035767,518.601257 
	C1115.580688,520.175049 1111.578613,523.030823 1106.495239,522.550293 
	C1105.320801,522.439331 1105.456543,523.644958 1105.500000,524.500000 
"/>
<path fill="none" opacity="1.000000" stroke="#000000" stroke-linecap="round" stroke-linejoin="round" stroke-width="6.000000"
	d="
M1105.500000,535.500000 
	C1098.500000,538.498413 1091.373657,537.926941 1084.531616,535.413940 
	C1075.748169,532.187927 1067.325806,532.253235 1059.031738,536.561096 
	C1058.115601,537.036987 1057.333008,536.831787 1056.500000,537.000000 
"/>
<path fill="none" opacity="1.000000" stroke="#000000" stroke-linecap="round" stroke-linejoin="round" stroke-width="6.000000"
	d="
M1019.000000,635.000000 
	C1016.083374,649.666687 1013.178040,664.335571 1010.234741,678.996948 
	C1009.890198,680.713135 1009.851685,682.361572 1010.500000,684.000000 
"/>
<path fill="none" opacity="1.000000" stroke="#000000" stroke-linecap="round" stroke-linejoin="round" stroke-width="6.000000"
	d="
M288.500000,461.000000 
	C282.692352,459.934479 276.832581,460.699249 270.999573,460.513184 
	C263.168579,460.263397 255.321106,460.929749 247.497238,460.023804 
	C244.884354,459.721252 242.286133,459.930664 240.000000,461.500000 
"/>
<path fill="none" opacity="1.000000" stroke="#000000" stroke-linecap="round" stroke-linejoin="round" stroke-width="6.000000"
	d="
M332.500000,302.500000 
	C336.909180,317.963562 341.749359,333.330811 343.000000,349.500000 
"/>
<path fill="none" opacity="1.000000" stroke="#000000" stroke-linecap="round" stroke-linejoin="round" stroke-width="6.000000"
	d="
M179.500000,293.500000 
	C175.666672,300.666656 171.859268,307.847351 167.993057,314.996246 
	C163.712570,322.911224 160.710480,331.303314 158.500000,340.000000 
"/>
<path fill="none" opacity="1.000000" stroke="#000000" stroke-linecap="round" stroke-linejoin="round" stroke-width="6.000000"
	d="
M252.500000,303.500000 
	C249.522186,318.902985 247.039200,334.380463 245.500000,350.000000 
"/>
<path fill="none" opacity="1.000000" stroke="#000000" stroke-linecap="round" stroke-linejoin="round" stroke-width="6.000000"
	d="
M391.000000,347.000000 
	C393.920807,357.905212 398.471161,368.313141 400.622742,379.476349 
	C401.305664,383.019592 403.306366,386.203094 401.576721,390.034637 
	C400.790894,391.775452 402.100067,393.343567 403.504181,394.494904 
	C408.279144,398.410400 410.967133,403.891724 413.849915,409.083344 
	C415.411774,411.896149 417.376068,413.623932 420.000000,415.000000 
"/>
<path fill="none" opacity="1.000000" stroke="#000000" stroke-linecap="round" stroke-linejoin="round" stroke-width="6.000000"
	d="
M1129.000000,607.500000 
	C1122.330566,609.018188 1119.682617,615.599792 1114.668579,619.232666 
	C1114.395996,619.430115 1114.593506,623.002441 1114.492065,624.999573 
	C1113.945190,635.763306 1112.192993,646.387268 1110.349121,656.973694 
	C1109.973022,659.132690 1110.624512,660.685669 1111.000000,662.500000 
"/>
<path fill="none" opacity="1.000000" stroke="#000000" stroke-linecap="round" stroke-linejoin="round" stroke-width="6.000000"
	d="
M550.500000,110.500000 
	C549.626343,110.419373 548.529480,110.568871 548.554138,111.498566 
	C548.714478,117.551689 546.529053,123.171608 545.524658,129.004257 
	C545.066284,131.665939 546.972107,133.077789 550.002502,132.774902 
	C554.465515,132.328781 558.039795,129.559402 561.342346,127.272324 
	C566.440796,123.741486 570.345642,124.044914 575.048035,127.433365 
	C578.929138,130.230042 582.706299,133.562286 587.999634,133.584412 
	C588.169128,133.585114 588.333313,134.833328 588.500000,135.500000 
"/>
<path fill="none" opacity="1.000000" stroke="#000000" stroke-linecap="round" stroke-linejoin="round" stroke-width="6.000000"
	d="
M291.000000,258.500000 
	C291.893372,272.658112 291.358582,286.833038 291.500000,301.000000 
"/>
<path fill="none" opacity="1.000000" stroke="#000000" stroke-linecap="round" stroke-linejoin="round" stroke-width="3.000000"
	d="
M160.500000,540.500000 
	C146.610580,535.522278 132.603073,535.504272 118.500000,539.500000 
"/>
<path fill="none" opacity="1.000000" stroke="#000000" stroke-linecap="round" stroke-linejoin="round" stroke-width="5.000000"
	d="
M541.000000,464.500000 
	C540.840881,474.281036 546.391418,480.603119 554.028931,485.454437 
	C558.785889,488.475952 563.309204,491.749817 567.499084,495.501038 
	C570.025513,497.762939 572.567993,498.480499 576.038574,497.096741 
	C581.942871,494.742615 588.262939,493.710480 594.500000,492.500000 
"/>
<path fill="none" opacity="1.000000" stroke="#000000" stroke-linecap="round" stroke-linejoin="round" stroke-width="4.000000"
	d="
M199.500000,539.000000 
	C201.500000,538.166687 203.569138,537.465637 205.482376,536.466248 
	C207.834457,535.237610 209.655502,533.334717 209.441910,530.504395 
	C209.215210,527.500305 206.892181,524.908386 204.482758,524.716858 
	C199.233459,524.299622 193.640472,523.332947 188.963287,527.458374 
	C185.495590,530.517029 186.130035,532.670288 189.507568,535.992310 
	C192.145065,538.586365 195.805313,538.088745 199.000000,539.000000 
"/>
<path fill="none" opacity="1.000000" stroke="#000000" stroke-linecap="round" stroke-linejoin="round" stroke-width="6.000000"
	d="
M647.500000,465.500000 
	C649.745422,468.786530 648.083923,471.717468 646.440552,474.464417 
	C645.428284,476.156525 643.951904,477.629425 642.479797,478.977966 
	C635.454956,485.413452 627.437622,490.589447 620.030701,496.538208 
	C616.354065,499.490936 612.932800,496.978668 609.516541,496.402100 
	C604.949707,495.631317 600.500000,494.166687 596.000000,493.000031 
"/>
<path fill="none" opacity="1.000000" stroke="#000000" stroke-linecap="round" stroke-linejoin="round" stroke-width="5.000000"
	d="
M347.500000,255.000000 
	C349.600250,261.685059 354.283020,266.934937 357.612091,272.937836 
	C361.654175,280.226379 365.225220,287.661560 368.000000,295.500000 
"/>
<path fill="none" opacity="1.000000" stroke="#000000" stroke-linecap="round" stroke-linejoin="round" stroke-width="6.000000"
	d="
M234.500031,255.500015 
	C230.666687,261.666687 226.864929,267.853241 222.991653,273.994720 
	C218.624268,280.919678 215.079071,288.227142 212.500000,296.000000 
"/>
<path fill="none" opacity="1.000000" stroke="#000000" stroke-linecap="round" stroke-linejoin="round" stroke-width="6.000000"
	d="
M72.500000,499.500000 
	C72.543411,498.644958 72.664322,497.404114 71.507111,497.554657 
	C65.483276,498.338287 60.598373,495.198242 55.528500,492.936127 
	C50.143021,490.533173 45.002048,490.722595 40.019348,493.534271 
	C31.874157,498.130493 23.921965,499.480469 15.425929,494.117340 
	C12.480137,492.257843 8.744436,491.746765 4.982584,492.399658 
	C3.448602,492.665955 3.081225,493.518188 2.500000,494.500000 
"/>
<path fill="none" opacity="1.000000" stroke="#000000" stroke-linecap="round" stroke-linejoin="round" stroke-width="3.000000"
	d="
M159.500000,547.000000 
	C144.809753,546.113647 131.708450,550.754028 119.500000,558.500000 
"/>
<path fill="none" opacity="1.000000" stroke="#000000" stroke-linecap="round" stroke-linejoin="round" stroke-width="6.000000"
	d="
M401.500000,292.500000 
	C398.666656,291.496613 395.766327,291.906708 393.012695,292.554016 
	C385.100159,294.414062 377.074371,295.228912 369.033447,296.260651 
	C360.533386,297.351288 352.019928,298.466736 343.505524,299.543640 
	C335.525269,300.552917 327.565247,301.871979 319.502380,301.454193 
	C311.949554,301.062897 304.515839,302.798309 297.001343,302.469360 
	C283.836426,301.893066 270.671112,302.954315 257.492279,302.122437 
	C251.054321,301.716064 244.828354,300.370422 238.494400,299.542816 
	C234.685532,299.045166 230.849945,299.206482 226.974869,298.687744 
	C212.981476,296.814606 198.904388,295.547333 185.002518,292.986359 
	C175.475601,291.231293 165.891998,289.647644 157.000000,285.500000 
"/>
<path fill="none" opacity="1.000000" stroke="#000000" stroke-linecap="round" stroke-linejoin="round" stroke-width="7.000000"
	d="
M405.000000,471.500000 
	C404.102112,462.839539 403.981506,454.141113 402.631775,445.479462 
	C400.043457,428.869110 393.650208,414.785339 378.980957,405.530182 
	C372.095947,401.186279 364.155670,400.782166 356.516510,401.645966 
	C339.342896,403.587860 329.160950,414.972382 322.067383,429.532837 
	C316.799286,440.346252 316.609344,452.308502 315.548584,464.004395 
	C315.233734,467.475861 315.500000,471.000000 315.500000,474.500000 
"/>
<path fill="none" opacity="1.000000" stroke="#000000" stroke-linecap="round" stroke-linejoin="round" stroke-width="5.000000"
	d="
M698.500000,755.500000 
	C690.038147,766.225952 680.787292,776.168152 669.464783,783.948730 
	C667.090027,785.580566 665.936218,787.760742 665.000000,790.250000 
"/>
<path fill="none" opacity="1.000000" stroke="#000000" stroke-linecap="round" stroke-linejoin="round" stroke-width="6.000000"
	d="
M821.000000,622.000000 
	C819.749023,630.046936 821.613708,637.998962 821.909729,645.994080 
	C822.094482,650.986206 823.553345,655.934814 822.500000,661.000000 
"/>
<path fill="none" opacity="1.000000" stroke="#000000" stroke-linecap="round" stroke-linejoin="round" stroke-width="3.000000"
	d="
M490.500000,754.500000 
	C497.658661,765.937561 507.350891,774.962402 518.066406,782.910461 
	C520.366882,784.616760 521.690857,786.702087 523.000000,789.000000 
"/>
<path fill="none" opacity="1.000000" stroke="#000000" stroke-linecap="round" stroke-linejoin="round" stroke-width="5.000000"
	d="
M595.000000,454.500000 
	C594.272095,464.991089 596.231140,475.434326 594.752136,486.035187 
	C593.731323,493.352081 596.611389,501.000000 594.500000,508.500000 
"/>
<path fill="none" opacity="1.000000" stroke="#000000" stroke-linecap="round" stroke-linejoin="round" stroke-width="6.000000"
	d="
M1114.000000,619.500000 
	C1110.036743,618.878723 1106.924438,621.149048 1103.477905,622.441162 
	C1096.719604,624.974670 1089.802490,627.082092 1083.020752,629.557007 
	C1081.234131,630.208984 1079.092285,630.542664 1078.000000,632.500000 
"/>
<path fill="none" opacity="1.000000" stroke="#000000" stroke-linecap="round" stroke-linejoin="round" stroke-width="3.000000"
	d="
M932.000000,350.000000 
	C934.660095,348.412445 935.861511,345.867157 936.488037,342.997375 
	C937.260620,339.458282 935.755432,336.294769 932.995728,336.047638 
	C929.566467,335.740570 928.004639,337.922577 927.513794,341.002197 
	C926.903442,344.831512 927.650940,348.118103 931.500000,350.000000 
"/>
<path fill="none" opacity="1.000000" stroke="#000000" stroke-linecap="round" stroke-linejoin="round" stroke-width="5.000000"
	d="
M976.000000,365.500000 
	C973.622864,365.053345 971.484192,365.012665 968.940918,365.811981 
	C964.315796,367.265656 959.417725,367.777069 954.460205,366.118927 
	C952.352783,365.414032 950.039673,364.280365 947.471863,365.437531 
	C945.257019,366.435699 944.368469,364.070099 943.000000,363.000000 
	C944.119019,362.091827 943.128357,360.515320 944.895569,359.342621 
	C950.931213,355.337433 957.105103,350.763031 964.437988,352.296509 
	C970.043701,353.468842 975.400635,356.910278 978.434631,362.187531 
	C976.282654,369.333862 970.528015,373.121094 965.473999,377.469757 
	C962.787720,379.781158 959.945618,380.456085 956.971191,377.529266 
	C953.352539,373.968414 947.922058,372.150146 946.500000,366.500000 
"/>
<path fill="none" opacity="1.000000" stroke="#000000" stroke-linecap="round" stroke-linejoin="round" stroke-width="4.000000"
	d="
M991.500000,349.500000 
	C994.415466,347.207733 996.886902,344.702637 996.004456,340.499054 
	C995.372314,337.487671 993.649048,335.782928 990.512756,336.552002 
	C987.527283,337.284027 986.750977,339.493103 986.906128,342.504822 
	C987.021973,344.754059 988.154480,347.469849 989.134338,348.003174 
	C992.157349,349.648499 990.639343,351.976898 991.000000,354.000000 
"/>
<path fill="none" opacity="1.000000" stroke="#000000" stroke-linecap="round" stroke-linejoin="round" stroke-width="7.000000"
	d="
M380.500000,692.500000 
	C390.113770,694.469116 394.435120,703.457336 394.044617,710.502502 
	C393.821716,714.523682 391.718719,717.624023 388.422729,718.779602 
	C385.582031,719.775635 382.089050,719.539856 379.434143,716.558655 
	C375.872589,712.559326 372.191925,708.785339 371.998444,703.000061 
	C371.773041,696.259094 373.473907,694.020325 380.000000,692.500000 
"/>
<path fill="none" opacity="1.000000" stroke="#000000" stroke-linecap="round" stroke-linejoin="round" stroke-width="6.000000"
	d="
M93.500000,687.000000 
	C91.955093,693.657288 94.618546,699.996765 94.931046,706.503296 
	C95.154358,711.152954 98.255226,715.833313 95.000000,720.500000 
"/>
<path fill="none" opacity="1.000000" stroke="#000000" stroke-linecap="round" stroke-linejoin="round" stroke-width="6.000000"
	d="
M46.500000,675.500000 
	C45.062748,677.529663 45.403400,679.752869 45.742050,682.001221 
	C46.917053,689.802551 46.440884,697.661865 46.453381,705.500061 
	C46.455238,706.666199 45.833332,707.833313 45.500000,709.000000 
"/>
<path fill="none" opacity="1.000000" stroke="#000000" stroke-linecap="round" stroke-linejoin="round" stroke-width="6.000000"
	d="
M896.500000,111.500000 
	C900.934692,111.877327 904.048462,108.867523 907.443726,106.902786 
	C911.642700,104.472992 915.242432,104.174469 919.036377,107.457985 
	C920.306335,108.557098 921.919006,109.413849 923.520203,109.938316 
	C925.589966,110.616257 927.677673,112.814529 929.955200,110.945419 
	C931.911621,109.339905 930.124451,106.984222 930.493347,104.998764 
	C930.682983,103.978241 929.699219,103.179100 929.617188,102.486122 
	C928.976685,97.079308 926.931824,91.301849 933.940186,87.877541 
	C936.480591,86.636299 938.336426,83.994148 940.381592,82.104790 
	C938.863403,77.610329 935.386108,77.676788 932.497314,77.592659 
	C925.937134,77.401634 920.883240,75.675217 918.898926,68.528069 
	C918.108948,65.682907 916.506653,62.939999 914.298767,60.800747 
	C910.649353,61.609116 909.521851,64.253967 908.494934,66.998100 
	C908.365051,67.345215 908.091675,67.649551 908.011108,68.002548 
	C906.223083,75.835960 900.282349,77.364883 893.499573,77.472115 
	C890.683289,77.516647 887.970764,77.578987 885.999634,80.000580 
	C886.268433,83.647583 889.080383,85.925385 891.592468,87.335213 
	C898.001831,90.932198 897.807922,96.487930 896.315613,101.949615 
	C895.198425,106.038246 895.686340,109.666664 896.500000,113.500000 
"/>
<path fill="none" opacity="1.000000" stroke="#000000" stroke-linecap="round" stroke-linejoin="round" stroke-width="3.000000"
	d="
M160.500000,552.500000 
	C148.376892,557.288635 136.912445,563.042297 129.000000,574.000000 
"/>
<path fill="none" opacity="1.000000" stroke="#000000" stroke-linecap="round" stroke-linejoin="round" stroke-width="6.000000"
	d="
M144.000000,691.000000 
	C142.557571,694.903320 144.689423,698.614929 144.700089,702.499451 
	C144.717911,709.001465 145.857315,715.521606 146.837662,721.986694 
	C147.128693,723.905945 145.972000,725.291626 146.000000,727.000000 
"/>
<path fill="none" opacity="1.000000" stroke="#000000" stroke-linecap="round" stroke-linejoin="round" stroke-width="6.000000"
	d="
M232.000000,695.000000 
	C233.090454,700.974365 232.168915,707.006165 232.517456,712.998962 
	C232.760101,717.170959 233.166672,721.333313 233.500015,725.500000 
"/>
<path fill="none" opacity="1.000000" stroke="#000000" stroke-linecap="round" stroke-linejoin="round" stroke-width="6.000000"
	d="
M126.500000,450.000000 
	C123.078499,446.957336 118.799095,446.374359 114.520058,445.410919 
	C105.454269,443.369751 96.500000,440.833344 87.500000,438.500000 
"/>
<path fill="none" opacity="1.000000" stroke="#000000" stroke-linecap="round" stroke-linejoin="round" stroke-width="12.000000"
	d="
M685.000000,342.500000 
	C683.555969,331.413910 671.774841,325.884003 660.500000,331.000000 
"/>
<path fill="none" opacity="1.000000" stroke="#000000" stroke-linecap="round" stroke-linejoin="round" stroke-width="6.000000"
	d="
M757.750000,305.000000 
	C756.765259,316.935242 751.180420,325.876099 740.500000,331.500000 
"/>
<path fill="none" opacity="1.000000" stroke="#000000" stroke-linecap="round" stroke-linejoin="round" stroke-width="6.000000"
	d="
M365.500000,247.000000 
	C364.008057,249.808823 361.015747,250.722534 358.468140,251.375717 
	C346.367188,254.478409 333.856964,254.820328 321.488892,255.868866 
	C311.512543,256.714630 301.407013,257.678436 291.504883,257.566772 
	C282.253235,257.462402 272.781860,257.382538 263.501740,255.988419 
	C262.988281,255.911285 262.486450,255.488846 262.001953,255.525787 
	C246.187347,256.731750 230.888168,253.237320 215.489166,250.562347 
	C213.540192,250.223785 212.218018,249.340897 211.000000,248.000000 
"/>
<path fill="none" opacity="1.000000" stroke="#000000" stroke-linecap="round" stroke-linejoin="round" stroke-width="6.000000"
	d="
M274.000000,228.500000 
	C274.182983,233.174835 270.376770,235.946793 268.295929,239.376190 
	C265.274567,244.355606 262.827087,249.378906 261.500000,255.000000 
"/>
<path fill="none" opacity="1.000000" stroke="#000000" stroke-linecap="round" stroke-linejoin="round" stroke-width="5.000000"
	d="
M663.500000,725.500000 
	C662.994385,732.553711 659.155273,738.497620 656.923645,744.973694 
	C656.225281,747.000000 656.014282,748.946838 656.000000,751.000000 
"/>
<path fill="none" opacity="1.000000" stroke="#000000" stroke-linecap="round" stroke-linejoin="round" stroke-width="6.000000"
	d="
M303.500000,229.000000 
	C304.455566,233.965286 308.381897,237.096832 311.080658,240.943405 
	C314.051422,245.177673 317.321442,249.141983 318.000000,254.500000 
"/>
<path fill="none" opacity="1.000000" stroke="#000000" stroke-linecap="round" stroke-linejoin="round" stroke-width="4.000000"
	d="
M284.500000,547.500000 
	C277.768250,543.297241 270.487946,541.383789 262.510040,540.850098 
	C253.698746,540.260681 245.080566,540.507507 236.500000,542.500000 
"/>
<path fill="none" opacity="1.000000" stroke="#000000" stroke-linecap="round" stroke-linejoin="round" stroke-width="5.000000"
	d="
M522.500000,726.500000 
	C525.900818,734.575867 530.866272,742.045044 532.000000,751.000000 
"/>
<path fill="none" opacity="1.000000" stroke="#000000" stroke-linecap="round" stroke-linejoin="round" stroke-width="6.000000"
	d="
M165.500000,518.000000 
	C168.798737,514.815552 170.017517,511.033264 169.019485,506.495728 
	C168.083237,502.239014 165.391800,499.460327 162.000000,499.500000 
	C158.127853,499.545288 154.548248,502.444153 154.061768,506.507385 
	C153.504501,511.161865 154.491745,515.479065 157.971283,519.028137 
	C160.037415,521.135559 161.897766,521.620422 164.000000,519.250000 
"/>
<path fill="none" opacity="1.000000" stroke="#000000" stroke-linecap="round" stroke-linejoin="round" stroke-width="4.000000"
	d="
M169.500000,544.500000 
	C169.060898,550.632812 171.539734,555.199524 177.011978,557.976379 
	C181.609360,560.309326 186.108826,562.700317 191.567429,559.619446 
	C194.001617,558.245605 197.166672,558.166687 200.000000,557.500000 
"/>
<path fill="none" opacity="1.000000" stroke="#000000" stroke-linecap="round" stroke-linejoin="round" stroke-width="5.000000"
	d="
M644.500000,717.000000 
	C639.380310,719.865845 638.036743,725.467407 635.723877,730.111511 
	C634.227722,733.115723 632.523682,736.011841 631.000000,739.000000 
"/>
<path fill="none" opacity="1.000000" stroke="#000000" stroke-linecap="round" stroke-linejoin="round" stroke-width="5.000000"
	d="
M544.000000,717.000000 
	C548.642029,721.457336 552.412415,726.345276 553.621765,732.977783 
	C554.012207,735.119324 555.833313,737.000000 557.000000,739.000000 
"/>
<path fill="none" opacity="1.000000" stroke="#000000" stroke-linecap="round" stroke-linejoin="round" stroke-width="4.000000"
	d="
M224.000000,542.500000 
	C223.811890,550.371216 219.989532,555.502625 212.518845,558.055176 
	C211.219177,558.499268 210.166687,559.666687 209.000015,560.500000 
"/>
<path fill="none" opacity="1.000000" stroke="#000000" stroke-linecap="round" stroke-linejoin="round" stroke-width="4.000000"
	d="
M283.500000,527.500000 
	C278.500000,527.500000 273.494385,527.652832 268.501129,527.468994 
	C257.123779,527.050171 246.845428,531.129395 236.500000,535.000000 
"/>
<path fill="none" opacity="1.000000" stroke="#000000" stroke-linecap="round" stroke-linejoin="round" stroke-width="6.000000"
	d="
M298.500000,427.000000 
	C305.312927,429.109985 311.361145,433.259216 318.500000,434.500000 
"/>
<path fill="none" opacity="1.000000" stroke="#000000" stroke-linecap="round" stroke-linejoin="round" stroke-width="11.000000"
	d="
M526.000000,329.750000 
	C520.307617,326.878448 515.245544,329.224884 510.549805,332.081879 
	C506.360046,334.630981 503.311340,338.376007 502.500000,343.500000 
"/>
<path fill="none" opacity="1.000000" stroke="#000000" stroke-linecap="round" stroke-linejoin="round" stroke-width="3.000000"
	d="
M278.500000,562.500000 
	C272.477295,558.571655 265.969696,556.008118 259.120972,553.648804 
	C252.748779,551.453674 246.527023,550.396362 239.998367,550.029114 
	C239.177002,549.982971 238.333344,550.333374 237.500000,550.500000 
"/>
<path fill="none" opacity="1.000000" stroke="#000000" stroke-linecap="round" stroke-linejoin="round" stroke-width="6.000000"
	d="
M335.500000,384.000000 
	C338.833313,390.500000 342.166656,397.000000 345.500000,403.500000 
"/>
<path fill="none" opacity="1.000000" stroke="#000000" stroke-linecap="round" stroke-linejoin="round" stroke-width="6.000000"
	d="
M386.500000,384.500000 
	C383.666656,391.000000 380.833313,397.500000 378.000000,404.000000 
"/>
<path fill="none" opacity="1.000000" stroke="#000000" stroke-linecap="round" stroke-linejoin="round" stroke-width="4.000000"
	d="
M431.999969,436.500000 
	C430.499969,441.166656 429.200653,445.912994 427.395752,450.458618 
	C426.724884,452.148224 426.536072,454.935913 423.500000,454.750000 
"/>
<path fill="none" opacity="1.000000" stroke="#000000" stroke-linecap="round" stroke-linejoin="round" stroke-width="5.000000"
	d="
M199.500000,539.500000 
	C199.716354,548.165710 201.479095,556.801697 200.000000,565.500000 
"/>
<path fill="none" opacity="1.000000" stroke="#000000" stroke-linecap="round" stroke-linejoin="round" stroke-width="7.000000"
	d="
M426.500000,395.500000 
	C420.282562,394.767761 414.063690,394.025208 408.500000,398.000000 
"/>
<path fill="none" opacity="1.000000" stroke="#000000" stroke-linecap="round" stroke-linejoin="round" stroke-width="8.000000"
	d="
M757.000000,436.500000 
	C757.820923,440.336029 759.191650,444.017944 759.637390,447.984558 
	C759.864380,450.004883 761.031921,452.176666 763.000000,453.500000 
"/>
<path fill="none" opacity="1.000000" stroke="#000000" stroke-linecap="round" stroke-linejoin="round" stroke-width="4.000000"
	d="
M201.000000,558.000000 
	C202.333328,558.333313 203.671051,558.650208 204.999054,559.003540 
	C207.578476,559.689636 209.384064,560.882141 209.571579,563.995667 
	C209.745239,566.879272 208.673798,568.930725 206.489075,570.484619 
	C199.519196,575.441833 188.476364,570.610413 187.000000,562.000000 
"/>
<path fill="none" opacity="1.000000" stroke="#000000" stroke-linecap="round" stroke-linejoin="round" stroke-width="6.000000"
	d="
M418.000000,431.000000 
	C412.273193,430.752625 406.872284,432.297485 401.500000,434.000000 
"/>
<path fill="none" opacity="1.000000" stroke="#000000" stroke-linecap="round" stroke-linejoin="round" stroke-width="3.000000"
	d="
M746.500000,467.500000 
	C747.247559,470.130371 747.075195,473.081818 746.698914,475.452179 
	C746.226807,478.425018 747.730896,480.491425 748.000000,483.000000 
"/>
<path fill="none" opacity="1.000000" stroke="#000000" stroke-linecap="round" stroke-linejoin="round" stroke-width="6.000000"
	d="
M230.000000,477.500000 
	C227.127792,472.028748 224.402298,470.609222 218.000000,471.250000 
"/>
<path fill="none" opacity="1.000000" stroke="#000000" stroke-linecap="round" stroke-linejoin="round" stroke-width="6.000000"
	d="
M159.000000,476.750000 
	C153.485153,475.735840 149.487442,478.019806 146.500000,482.500000 
"/>
<path fill="none" opacity="1.000000" stroke="#000000" stroke-linecap="round" stroke-linejoin="round" stroke-width="6.000000"
	d="
M85.500000,495.500000 
	C81.333336,496.250000 77.166664,497.000000 73.000000,497.750000 
"/>
<path fill="none" opacity="1.000000" stroke="#000000" stroke-linecap="round" stroke-linejoin="round" stroke-width="8.000000"
	d="
M258.000000,529.000000 
	C258.940155,536.833313 258.836548,544.666687 258.000000,552.500000 
"/>
<path fill="none" opacity="1.000000" stroke="#000000" stroke-linecap="round" stroke-linejoin="round" stroke-width="5.000000"
	d="
M441.000000,465.500000 
	C440.104645,468.886444 441.074860,472.243896 441.649811,475.473328 
	C442.162659,478.353943 442.156769,480.895203 441.000000,483.500000 
"/>
<path fill="none" opacity="1.000000" stroke="#000000" stroke-linecap="round" stroke-linejoin="round" stroke-width="7.000000"
	d="
M409.000000,688.000000 
	C402.989227,690.891052 403.165649,696.594299 404.224335,701.451111 
	C405.543030,707.500671 408.868286,713.089600 415.530823,714.885681 
	C418.790894,715.764465 421.431183,713.386536 422.409149,710.469543 
	C425.135925,702.336426 422.245544,693.267456 415.028748,688.951904 
	C413.200195,687.858521 411.382355,688.063721 409.500000,688.000000 
"/>
<path fill="none" opacity="1.000000" stroke="#000000" stroke-linecap="round" stroke-linejoin="round" stroke-width="7.000000"
	d="
M807.000000,692.500000 
	C798.401855,693.241211 792.600891,706.570007 794.045837,713.991089 
	C795.062317,719.211243 801.948547,721.512268 806.445801,717.931946 
	C811.792725,713.675110 815.067566,707.989990 815.475952,700.998596 
	C815.806519,695.340515 813.369507,692.845886 807.500000,692.500000 
"/>
<path fill="none" opacity="1.000000" stroke="#000000" stroke-linecap="round" stroke-linejoin="round" stroke-width="7.000000"
	d="
M772.000000,727.000000 
	C753.740723,731.887756 742.626587,744.399292 736.636108,761.547546 
	C732.423279,773.607056 733.225037,785.357483 742.460205,795.536133 
	C750.008789,803.855957 759.212402,803.329712 768.468689,800.401123 
	C788.256958,794.140320 802.172546,770.240112 801.463013,754.001587 
	C800.939697,742.025269 796.383606,730.903015 781.015015,727.433594 
	C778.132690,726.783020 775.326233,727.287476 772.500000,727.000000 
"/>
<path fill="none" opacity="1.000000" stroke="#000000" stroke-linecap="round" stroke-linejoin="round" stroke-width="6.000000"
	d="
M824.500000,721.000000 
	C816.889709,722.937561 813.110779,728.603943 811.132507,735.537781 
	C810.417603,738.043274 811.708252,740.819336 813.499939,743.000061 
	C815.591125,745.545471 818.316833,745.380737 820.988159,744.465454 
	C827.195374,742.338684 831.987183,734.822266 832.046692,728.000427 
	C832.092224,722.793091 830.114319,720.625488 825.000000,721.000000 
"/>
<path fill="none" opacity="1.000000" stroke="#000000" stroke-linecap="round" stroke-linejoin="round" stroke-width="7.000000"
	d="
M407.000000,727.000000 
	C400.827271,729.220947 394.882202,731.898376 391.031281,737.521423 
	C385.575256,745.488220 384.648254,754.655151 387.194336,763.443726 
	C391.610382,778.687195 400.219543,791.193298 415.000732,798.498535 
	C422.853119,802.379456 431.368622,804.025208 439.411926,800.781616 
	C449.110626,796.870483 452.421387,787.798706 452.932617,777.996460 
	C453.935638,758.764893 438.686401,731.886658 417.539368,727.796448 
	C414.103821,727.131958 410.816437,727.502136 407.500000,727.000000 
"/>
</svg>