<svg version="1.1" id="Layer_1" xmlns="http://www.w3.org/2000/svg" xmlns:xlink="http://www.w3.org/1999/xlink" x="0px" y="0px"
	 width="100%" viewBox="0 0 1024 784" enable-background="new 0 0 1024 784" xml:space="preserve">
<path fill="#000000" opacity="1.000000" stroke="none" 
	d="
M1.000000,538.428467 
	C5.129902,538.365051 8.226329,541.149658 12.722808,543.307312 
	C12.722808,537.771484 12.690953,532.866455 12.731220,527.961975 
	C12.777075,522.376892 14.147031,517.051331 16.486099,512.038208 
	C19.011051,506.626648 22.647087,506.223389 26.297096,510.957123 
	C31.345842,517.504944 33.579720,525.512756 37.801636,534.042847 
	C37.801636,497.267487 37.801636,461.737091 37.801636,425.913483 
	C27.793213,429.782227 25.994059,429.317413 19.108751,421.575165 
	C14.177343,416.029999 13.988733,411.537567 19.390816,406.322754 
	C52.718555,374.150604 84.801308,340.707458 118.684517,309.104218 
	C121.243408,306.717529 123.794174,304.322113 126.349327,301.931396 
	C130.915527,297.659027 133.670303,297.524475 138.439224,301.750488 
	C142.927155,305.727478 147.282425,309.859589 151.596207,314.026825 
	C184.430847,345.745941 217.247711,377.483521 250.050339,409.235779 
	C254.223145,413.274994 254.434357,416.658142 250.577438,420.920349 
	C248.466919,423.252625 245.923172,425.195068 243.556671,427.292908 
	C240.819321,429.719482 237.959686,429.907867 234.897476,427.833435 
	C233.840195,427.117157 232.914612,426.004791 230.398438,426.237152 
	C230.398438,432.738617 230.408463,439.323364 230.396713,445.908051 
	C230.342911,476.072113 230.353561,506.236633 230.151047,536.399719 
	C230.119827,541.047424 231.670990,542.461243 236.050888,541.190186 
	C238.740967,540.409485 241.708649,540.904968 244.630905,539.453613 
	C241.700806,536.115540 237.112915,533.914246 238.352798,528.333923 
	C239.700745,522.267212 243.644699,518.510803 248.701080,515.559937 
	C254.686508,512.066833 255.032486,510.481812 250.667435,504.949829 
	C249.232010,503.130676 247.455597,501.578796 245.818512,499.921112 
	C244.540848,498.627380 242.613525,497.385651 243.179337,495.423706 
	C243.821701,493.196259 246.315948,493.075806 248.219284,492.881470 
	C256.385223,492.047729 264.066315,494.191895 271.577148,497.104065 
	C273.412842,497.815826 275.183990,498.694061 277.293335,499.633087 
	C280.663788,494.472443 283.203430,489.002991 287.297089,484.570679 
	C289.925751,481.724609 292.719818,479.159271 296.126251,477.312836 
	C299.426453,475.524017 301.090515,476.501678 301.277863,480.304199 
	C301.466125,484.125458 301.861969,487.936615 302.178406,491.751282 
	C302.314392,493.390503 302.260162,495.115295 304.323608,496.473267 
	C310.094147,493.604797 316.431610,491.718872 323.098389,491.188416 
	C325.912506,490.964539 328.751709,490.885315 331.572205,490.973602 
	C333.393402,491.030640 335.397644,491.361328 336.291962,493.238403 
	C337.324371,495.405212 335.408936,496.556091 334.213440,497.850006 
	C331.609985,500.667786 329.196442,503.599457 327.079773,506.830444 
	C324.879242,510.189453 325.461121,511.821777 329.166626,513.561768 
	C337.146973,517.309143 338.367798,522.501709 333.668030,530.113281 
	C333.342163,530.640991 333.141052,531.245850 332.727783,532.153381 
	C337.739349,533.587524 342.533447,532.701599 347.245697,532.538879 
	C358.223267,532.159546 369.186920,531.333191 380.165558,531.055176 
	C384.169403,530.953735 386.200592,529.822205 386.910370,525.640137 
	C389.088867,512.804260 393.004608,500.404175 397.401855,488.186737 
	C398.882080,484.074036 398.193573,482.094879 394.174713,480.088348 
	C370.212494,468.124695 348.890930,452.660309 331.955109,431.645020 
	C322.589783,420.023712 314.977997,407.372864 309.777557,393.315399 
	C307.816772,388.015167 306.966858,387.791351 302.200348,390.364929 
	C288.286011,397.877655 277.864746,396.778015 265.539490,386.437836 
	C241.767258,366.494293 224.813370,341.762299 213.879669,312.805664 
	C209.038055,299.983185 205.409134,286.922333 204.675140,273.108795 
	C203.584824,252.589005 210.654358,235.727737 227.175552,223.471329 
	C262.765533,197.068604 296.669739,168.432648 333.189026,143.281052 
	C343.634186,136.087280 354.874451,130.126801 367.862549,128.683487 
	C383.402313,126.956635 397.543396,131.368729 410.837646,138.919708 
	C413.789642,140.596420 416.067169,140.641739 419.165436,139.388306 
	C486.240967,112.252480 551.130188,115.545403 613.369141,153.763916 
	C617.013367,156.001678 620.487488,157.097595 624.642273,155.719635 
	C627.483276,154.777390 630.433777,154.168259 633.285950,153.255859 
	C659.068909,145.007782 681.056091,151.915985 700.465393,169.771118 
	C724.387024,191.777252 747.092651,215.025574 770.287231,237.774429 
	C779.324951,246.638443 788.439758,255.404709 796.801819,264.960327 
	C809.599609,279.584686 812.866455,296.353729 809.031250,314.852417 
	C803.191528,343.019165 788.780579,366.776886 770.425110,388.383850 
	C759.811035,400.878082 748.119019,412.262024 734.030151,420.859650 
	C717.875061,430.718231 701.722656,431.729584 686.024170,419.867310 
	C682.130005,416.924805 680.046082,417.304443 677.797302,421.814056 
	C672.009094,433.421295 663.778015,443.229431 654.229248,451.961761 
	C652.653442,453.402802 650.803284,454.619110 649.606812,457.121796 
	C659.821960,463.559906 669.984314,470.119171 680.297363,476.432220 
	C701.463562,489.388947 723.256836,501.351624 743.274414,516.119080 
	C746.236755,518.304443 749.611877,518.097778 752.818665,518.456238 
	C765.878601,519.916138 779.068542,520.321716 791.898071,523.553955 
	C795.470520,524.453918 796.892883,522.759277 797.753418,519.402527 
	C801.443237,505.009125 800.542419,490.727478 797.241455,476.444550 
	C796.454712,473.040527 795.381775,469.654755 795.056091,466.202515 
	C794.473206,460.022858 798.034546,457.075409 804.040955,458.702271 
	C812.893250,461.099915 819.752197,466.758667 825.654419,473.402008 
	C839.746094,489.262787 849.454468,507.115601 849.305969,529.082947 
	C849.287048,531.889038 850.196594,534.229370 853.230042,534.571228 
	C868.969482,536.344543 884.134521,540.932312 899.990662,544.300354 
	C902.504028,536.897583 902.670959,529.383606 903.506897,522.075562 
	C905.247437,506.859894 906.192871,491.563812 905.651855,476.221039 
	C905.593262,474.558380 905.531189,472.892670 905.375977,471.237274 
	C905.091248,468.200134 903.608154,467.042908 900.373962,467.345856 
	C883.510986,468.925323 874.495728,463.624451 867.641052,448.288239 
	C866.785950,446.375061 865.884460,444.736786 863.633850,444.250793 
	C841.534302,439.478912 832.870605,405.586182 854.158142,387.776947 
	C858.297241,384.314178 859.877686,380.894409 859.886658,375.537659 
	C859.916626,357.527557 875.864014,343.482117 893.599487,345.469696 
	C896.308411,345.773315 897.885559,344.910248 899.562012,342.966675 
	C912.950867,327.444397 928.741455,326.459534 943.855530,340.247192 
	C946.108582,342.302460 948.576416,343.222137 951.450623,343.541199 
	C968.876160,345.475555 981.611633,358.939148 982.082397,376.552734 
	C982.208313,381.262482 983.591614,383.522034 988.132202,385.209412 
	C1000.799561,389.916870 1009.012329,409.364532 997.212585,423.857178 
	C994.701355,426.941437 993.880310,429.797882 993.866516,434.042053 
	C993.816711,449.361816 982.732239,459.976349 971.534241,461.456512 
	C968.317627,461.881714 966.564392,462.996918 964.888611,466.073517 
	C960.325684,474.450500 952.459045,478.223755 943.205444,479.264252 
	C941.229065,479.486481 939.205994,479.403076 937.210449,479.318329 
	C934.395508,479.198792 933.362610,480.608429 933.325378,483.257690 
	C933.034973,503.927063 933.554626,524.539185 937.033813,544.987854 
	C938.096741,551.235474 940.504211,555.740234 947.522949,557.032776 
	C952.340027,557.919861 956.934814,560.013733 961.742065,561.605652 
	C962.399963,559.111755 961.047485,557.659363 960.310120,556.092834 
	C957.066650,549.202271 955.416931,541.940918 955.183655,534.365234 
	C954.988342,528.021790 957.752014,525.918884 963.921082,527.336426 
	C970.316406,528.805847 974.836182,532.811340 978.608276,537.879395 
	C980.092163,539.873169 981.497742,541.925354 983.121155,544.207031 
	C985.663940,543.404968 987.020081,541.201477 988.814819,539.606934 
	C995.619019,533.562317 1003.196533,529.433594 1012.635010,529.697632 
	C1019.888489,529.900513 1021.661377,532.674255 1018.653320,539.147583 
	C1016.496216,543.789673 1013.225342,547.878662 1011.540161,553.068604 
	C1015.600830,555.373474 1020.082031,554.801208 1024.590820,555.917603 
	C1025.000000,561.022095 1025.000000,566.044189 1024.662231,571.620361 
	C1020.954590,574.190857 1017.584656,576.207336 1013.872131,578.428894 
	C1017.291870,581.580017 1021.156189,582.265625 1025.000000,583.000000 
	C1025.000000,585.700012 1025.000000,588.400024 1024.680908,591.397949 
	C1005.134338,584.182007 985.403137,578.097046 965.981567,571.147400 
	C929.517029,558.099304 891.847778,549.791077 854.116089,541.634827 
	C850.292786,540.808472 848.506409,541.653564 847.834900,546.030579 
	C843.848206,572.015198 832.132629,593.230408 808.846436,606.880676 
	C805.158630,609.042480 804.689026,611.655762 805.507385,615.610901 
	C809.492615,634.872437 808.848633,654.021851 802.548279,672.721313 
	C801.065796,677.121216 801.742676,678.836365 806.118042,680.272888 
	C817.872498,684.132141 829.069336,689.244629 838.993652,696.812683 
	C844.802368,701.242188 850.042603,706.260010 851.230286,713.812988 
	C852.922974,724.577698 847.611511,732.576416 839.497742,738.649109 
	C829.564331,746.083618 818.236267,751.092407 806.573059,755.154114 
	C759.835205,771.430542 711.098328,777.167969 662.252686,782.337097 
	C653.835876,783.227844 645.304016,783.052612 637.000000,785.000000 
	C573.979126,785.000000 510.958221,785.000000 447.102722,784.819214 
	C425.864868,783.097900 405.459137,781.659729 385.119232,779.309204 
	C341.009857,774.211548 297.806488,765.146912 255.645416,751.093018 
	C244.535629,747.389648 235.391647,741.156860 227.672180,732.569031 
	C222.967270,727.334900 219.615494,720.607117 221.860733,714.280579 
	C225.530075,703.941284 228.587173,692.772156 237.966797,685.458618 
	C240.525055,683.463806 240.817795,681.575134 239.155716,678.657776 
	C224.237091,652.471680 247.466415,626.086609 271.267029,624.770691 
	C287.413574,623.877930 308.702454,636.434875 310.603394,658.450073 
	C311.296936,666.481750 310.182556,664.022278 321.898834,667.064514 
	C326.781311,668.332336 326.519135,663.539307 327.621246,661.117188 
	C333.530090,648.131348 342.953979,639.325073 357.023773,636.385986 
	C362.270386,635.290039 364.274719,632.575378 365.704773,627.760498 
	C373.919922,600.100708 378.997803,571.809021 383.465057,543.370728 
	C384.115387,539.230652 382.701233,537.948120 378.739502,538.170227 
	C369.763824,538.673523 360.773315,538.906738 351.794922,539.368286 
	C338.655396,540.043701 325.497131,540.534058 312.390442,541.626099 
	C292.997711,543.242004 273.668701,545.655029 254.266464,547.117126 
	C224.536819,549.357361 195.042786,553.494812 165.568146,557.705139 
	C140.215195,561.326660 115.030396,566.024414 89.926422,571.182434 
	C59.901279,577.351562 30.193130,584.643005 1.000000,594.000000 
	C1.000000,591.299988 1.000000,588.599976 1.402256,585.444946 
	C3.903560,584.486694 6.041383,584.106873 8.095530,583.460938 
	C24.780449,578.214722 41.688591,573.780518 58.762356,570.045227 
	C64.399834,568.811951 69.143013,566.283691 73.095459,562.437927 
	C76.071884,559.541870 79.910767,556.387024 78.072388,551.411438 
	C77.250854,549.187988 70.013092,550.457703 65.518509,553.151489 
	C63.632328,554.281982 62.351437,556.731873 59.151981,556.141907 
	C59.168720,547.058105 64.327217,538.840149 63.989567,528.914612 
	C48.543644,537.572815 44.626060,552.478333 40.110340,567.352051 
	C35.961185,550.037598 32.919495,532.700378 22.054806,516.749512 
	C16.214344,535.060486 19.291721,551.384155 26.179434,567.555481 
	C22.822229,565.490784 21.192451,562.439453 19.242912,559.648010 
	C14.507476,552.867493 9.205693,546.738586 1.000000,544.000000 
	C1.000000,542.285645 1.000000,540.571289 1.000000,538.428467 
M505.292236,711.510132 
	C505.946167,725.071472 515.342529,735.017883 526.327637,733.533875 
	C525.977417,732.569641 525.662964,731.637268 525.302979,730.722961 
	C520.384888,718.231018 524.242737,707.598511 532.326050,697.909485 
	C533.828552,696.108582 535.747620,694.708923 538.019775,693.967102 
	C539.452576,693.499146 541.126892,693.054199 542.241150,694.355164 
	C543.510193,695.836853 542.237793,697.153015 541.358337,698.338623 
	C539.968811,700.211731 538.430237,701.978333 537.101624,703.892029 
	C530.966309,712.728882 529.607178,722.219055 533.427307,732.343872 
	C534.397888,734.916382 535.800659,737.294800 538.762268,737.814697 
	C548.764648,739.570618 558.734619,739.533081 569.106384,737.388489 
	C567.977661,735.324341 567.146667,733.902344 566.406494,732.434570 
	C562.493469,724.675110 564.045471,712.105164 569.677612,705.583008 
	C571.826904,703.094116 574.726074,701.344238 577.553955,703.187988 
	C580.728760,705.257935 577.483459,707.644653 576.446960,709.531250 
	C573.578369,714.752502 571.475098,720.042786 572.201599,726.164612 
	C573.211487,734.673950 576.969238,737.222656 585.078552,734.841980 
	C597.730469,731.127869 605.643555,722.608154 610.473267,710.592468 
	C617.703918,692.603088 622.455994,673.896179 626.660217,655.060913 
	C631.950439,631.359741 635.616516,607.360901 638.598083,583.259521 
	C638.928284,580.590027 638.685242,576.416260 642.341125,576.814575 
	C645.641846,577.174194 645.045410,581.292236 645.062378,584.014282 
	C645.126953,594.345703 644.281372,604.631897 643.370789,614.918640 
	C641.417664,636.981812 638.819946,658.936035 633.134888,680.411621 
	C630.010498,692.213989 630.636658,692.941345 642.946838,692.671631 
	C645.682007,692.611633 647.224976,691.867004 647.830750,688.956055 
	C649.696289,679.992615 654.283875,672.582397 661.384644,666.803772 
	C663.885498,664.768555 664.027222,662.704407 662.804382,659.800049 
	C656.701660,645.304932 653.831055,630.281128 655.626038,614.479980 
	C658.560913,588.643616 670.134583,568.195190 693.299133,555.553955 
	C705.522034,548.883789 718.728333,545.664734 732.709595,550.154114 
	C734.048157,550.583984 736.029968,550.843994 735.883667,552.770691 
	C735.727783,554.824646 733.875549,555.193298 732.137207,555.286987 
	C730.974182,555.349731 729.804932,555.291199 728.638428,555.293701 
	C715.119995,555.322449 703.195557,559.878723 692.604492,568.102173 
	C665.454407,589.183105 661.014343,626.271301 673.940674,654.572327 
	C675.285828,657.517273 676.765869,658.218567 680.114014,657.204163 
	C696.978943,652.094360 713.076843,653.834534 727.839294,663.891724 
	C730.215576,665.510681 734.725464,667.170105 732.702942,670.755371 
	C730.770752,674.180298 727.234009,671.015015 724.743225,669.903625 
	C713.648438,664.953308 702.274109,662.658325 690.216675,665.370544 
	C674.534180,668.898071 657.861267,680.067383 660.116760,701.503357 
	C661.255310,712.323669 668.740112,719.732849 679.983582,719.898682 
	C679.580505,718.743103 679.222290,717.667725 678.831909,716.604248 
	C674.045532,703.564697 677.609863,689.283997 687.904602,680.131714 
	C690.578552,677.754456 693.365295,676.445862 696.809265,678.510437 
	C695.994629,681.577332 695.928223,681.518555 692.701904,685.163391 
	C684.496033,694.433594 682.158997,704.794983 686.458069,716.678589 
	C688.202271,721.500061 691.252441,723.596069 696.093201,723.622192 
	C702.258606,723.655518 708.424988,723.690979 714.589600,723.614502 
	C716.550293,723.590271 718.564087,723.391052 720.138916,721.958374 
	C720.405396,720.060730 719.127930,718.773254 718.527588,717.269897 
	C714.723938,707.744385 717.078918,699.294678 723.120178,691.588196 
	C724.690063,689.585571 726.979065,687.862244 729.611145,689.636353 
	C732.636963,691.675903 730.151123,693.850952 729.031982,695.610596 
	C724.501648,702.733643 724.035706,710.272583 726.307861,718.164185 
	C726.879150,720.148193 727.521973,721.849121 730.383179,721.351624 
	C757.534851,716.630615 777.543518,702.724854 787.558228,676.409546 
	C798.417175,647.876160 795.938477,619.283569 785.346436,591.488159 
	C774.230591,562.318298 754.439148,539.662964 728.730713,522.049927 
	C700.271667,502.552368 668.999329,487.502869 641.393921,466.672150 
	C639.282837,465.079132 637.571716,465.431976 635.553101,466.860474 
	C609.795044,485.088135 580.810974,495.482361 550.178101,501.792694 
	C523.869629,507.212219 497.415283,508.194702 470.768494,504.485260 
	C452.370789,501.924164 434.541290,497.302307 417.323547,490.403259 
	C413.404510,488.832886 411.676514,489.763153 410.312531,493.616272 
	C406.977722,503.036865 403.276489,512.360901 401.284393,522.166199 
	C398.137817,537.653870 394.990540,553.161804 392.591064,568.776001 
	C389.295013,590.225159 384.457123,611.252441 377.497192,631.792969 
	C376.119598,635.858643 375.859039,638.565369 381.511749,639.250488 
	C386.638458,639.871826 391.317413,642.435913 395.427185,645.696289 
	C397.539093,647.371704 399.330200,649.317505 397.966522,652.286743 
	C395.776917,652.983154 394.121002,651.986023 392.413147,651.427185 
	C386.081238,649.355591 379.701416,647.583862 373.071838,646.620422 
	C358.574341,644.513367 342.435150,655.378967 338.942993,669.827759 
	C345.390747,672.492126 345.759277,672.378723 348.127228,666.556885 
	C350.095856,661.716675 353.362152,658.073975 358.060913,655.804626 
	C359.599915,655.061340 361.502045,653.466003 362.901093,655.659790 
	C364.068909,657.490967 362.730743,659.160889 361.392670,660.497437 
	C359.260284,662.627441 357.399414,664.934021 355.849396,667.541565 
	C353.839478,670.922668 353.987335,673.044861 358.459198,673.720825 
	C362.731201,674.366577 367.015747,675.102844 371.181366,676.221558 
	C374.287109,677.055664 376.242401,676.344543 377.820679,673.586487 
	C379.836731,670.063416 382.625488,667.204346 386.171631,665.155457 
	C388.332397,663.906921 390.736786,663.139526 392.489319,665.434021 
	C394.497772,668.063599 392.206360,669.730530 390.389404,671.153259 
	C387.933746,673.076172 385.410553,674.882629 383.533051,678.237183 
	C392.295166,680.104858 400.533813,681.881531 408.782776,683.609009 
	C412.023376,684.287598 413.018860,682.045715 414.107483,679.611267 
	C421.676300,662.685913 435.436188,654.354675 453.847626,655.644470 
	C457.041473,655.868225 458.926880,654.982971 459.779938,651.825867 
	C461.038086,647.169434 462.299072,642.503662 463.843140,637.938049 
	C464.949432,634.666931 464.104675,632.066284 461.959564,629.687744 
	C455.447174,622.466736 450.375275,614.211670 445.285736,606.011475 
	C436.283447,591.507141 431.434204,575.455750 428.717590,558.719360 
	C428.279816,556.022278 427.452026,552.265381 431.086548,551.524048 
	C434.790497,550.768494 435.261322,554.710022 436.004761,557.261047 
	C438.147980,564.615112 440.269409,571.946899 443.293976,579.020691 
	C457.692444,612.695740 482.556915,636.344727 514.237793,653.551331 
	C517.540100,655.344788 518.939026,654.375793 519.764099,650.858887 
	C524.289795,631.566528 527.461975,612.048706 529.672180,592.372742 
	C530.841797,581.959839 531.725525,571.514893 532.764771,561.087036 
	C532.951172,559.216003 533.307251,557.108704 535.660034,557.099182 
	C538.038574,557.089600 539.007874,558.977966 539.279358,561.145508 
	C539.610474,563.788879 540.010254,566.433228 540.151001,569.089355 
	C541.614624,596.712585 538.644714,623.914978 532.599854,650.863647 
	C531.090637,657.592163 528.299744,664.037048 527.565186,670.800232 
	C529.652039,672.086914 531.248840,671.129639 532.854065,670.997742 
	C541.862793,670.257507 550.866394,669.655945 559.283569,674.000061 
	C561.072937,674.923584 563.116455,676.120667 562.352966,678.526978 
	C561.499695,681.216309 559.129333,680.343018 557.261292,679.834656 
	C551.734009,678.330872 546.127136,677.870300 540.435059,678.234802 
	C523.521606,679.317627 507.174896,694.408630 505.292236,711.510132 
M583.446289,268.781982 
	C591.105347,273.508881 596.448181,280.118866 599.425537,288.604004 
	C606.072266,307.546997 600.175720,330.303406 585.197632,343.685638 
	C584.592041,344.226654 583.869019,344.722198 584.066406,346.088531 
	C618.950134,364.094116 649.182007,386.628967 656.520813,429.874908 
	C662.732544,422.639496 666.489502,415.419678 670.157959,408.144562 
	C671.284302,405.910828 670.420837,404.077179 669.254272,402.089691 
	C666.643494,397.641724 663.997498,393.180115 661.843994,388.503815 
	C650.587341,364.059937 648.792419,338.091644 650.107910,311.737610 
	C651.213989,289.578094 651.803711,267.447296 647.512146,245.547989 
	C643.721558,226.204971 639.262817,207.042557 626.375427,191.182388 
	C625.421143,190.007980 623.960083,188.681366 625.308472,186.564651 
	C628.752747,186.023453 630.724548,188.523087 632.669189,190.634445 
	C637.766846,196.169128 641.977478,202.373810 645.753845,208.876129 
	C657.593384,229.261414 662.561462,251.557465 663.155334,274.813599 
	C663.686890,295.628296 662.563599,316.499298 663.496704,337.285919 
	C664.488281,359.375519 669.810547,380.607605 684.021912,398.299927 
	C701.497620,420.055908 714.665833,418.584320 731.784668,405.432434 
	C757.622192,385.582245 777.403687,360.763733 790.322021,330.722900 
	C793.613831,323.068085 795.861084,315.083038 796.813171,306.707520 
	C798.789062,289.325989 791.238953,276.286926 779.175232,264.703918 
	C759.473816,245.787521 740.012817,226.621368 720.934082,207.062164 
	C709.430664,195.269058 697.784912,183.550186 684.336304,173.834259 
	C674.493286,166.723236 663.663086,163.483856 651.520386,164.015182 
	C641.566040,164.450760 632.048828,166.848038 622.851746,170.278473 
	C618.347656,171.958481 615.328796,171.181030 611.492126,168.644363 
	C601.362488,161.946915 591.090515,155.424240 579.765991,150.762482 
	C576.094788,149.251205 572.879272,149.257172 569.228821,150.788589 
	C551.778503,158.109207 538.689026,170.367859 529.489075,186.607895 
	C511.687561,218.031509 507.634003,251.481018 515.955750,286.524536 
	C519.289856,300.564819 524.261230,313.925079 532.402710,325.959351 
	C535.053711,329.877930 538.373962,332.433380 543.394165,331.538086 
	C543.514038,331.046295 543.621948,330.865509 543.582642,330.726166 
	C542.816406,328.006012 541.928223,325.315826 541.270508,322.570221 
	C537.645569,307.437866 539.348083,293.100830 548.117737,279.994446 
	C556.575378,267.354523 569.648804,263.079498 583.446289,268.781982 
M367.044708,351.479736 
	C379.460876,343.667908 393.409149,339.153229 407.268829,333.450775 
	C400.849792,326.222717 396.813263,318.522217 395.081573,309.642609 
	C392.053223,294.114227 394.475952,279.776062 404.490021,267.214600 
	C414.941376,254.104584 431.052032,253.538528 442.641052,265.597473 
	C451.881744,275.212921 455.401245,286.746674 454.611511,299.859589 
	C454.090179,308.515900 452.625305,316.955536 449.045929,325.108276 
	C449.608093,325.034302 449.850952,325.074310 449.920471,324.982758 
	C452.333435,321.804230 454.818024,318.675385 457.115570,315.414795 
	C485.024384,275.807556 497.283630,232.883331 484.765869,184.712296 
	C480.742798,169.230606 473.912201,155.410553 461.703827,144.620728 
	C458.873383,142.119186 456.177704,141.071762 452.225800,142.013458 
	C441.121124,144.659622 430.580750,148.697693 420.658356,154.217255 
	C416.560883,156.496536 413.353943,156.767593 409.221039,154.163788 
	C404.035797,150.897034 398.379059,148.310089 392.748566,145.832520 
	C379.419495,139.967285 366.165009,140.646652 353.172546,147.030655 
	C344.322540,151.379196 336.169830,156.876434 328.189331,162.624023 
	C297.374329,184.817139 268.844238,210.005844 237.565613,231.605896 
	C223.593781,241.254379 217.141495,254.845078 218.221481,271.941345 
	C219.050232,285.060333 222.916107,297.393921 227.552094,309.547577 
	C237.304794,335.115173 252.562332,356.907471 273.264679,374.718506 
	C283.239014,383.299805 290.940704,382.945770 300.873138,374.343781 
	C310.392365,366.099670 318.214294,356.525177 323.998749,345.175781 
	C333.428406,326.674408 336.700226,306.664795 338.538452,286.437775 
	C340.657623,263.119690 344.095428,240.161438 352.662048,218.271530 
	C360.006317,199.505112 370.947510,183.164459 386.883850,170.490128 
	C388.611237,169.116318 390.333038,167.270584 392.966064,168.442978 
	C392.722168,171.762665 392.796814,171.830658 391.609650,173.134125 
	C374.507202,191.912506 365.763397,214.830627 359.229462,238.794968 
	C353.641388,259.290100 352.751373,280.481689 350.203247,301.434723 
	C346.978088,327.955048 339.797119,353.020782 321.412994,373.551056 
	C319.776001,375.379150 319.060699,377.526550 319.306122,379.999237 
	C319.596619,382.926605 327.930054,400.839172 330.263031,403.401428 
	C330.634644,392.195587 334.151123,382.186981 340.988373,373.317963 
	C347.928223,364.315765 356.799561,357.653931 367.044708,351.479736 
M506.407349,492.655945 
	C527.441406,492.001984 548.196045,489.528900 568.434570,483.449158 
	C594.175293,475.716522 618.222717,464.882935 639.483765,447.943604 
	C649.351562,440.081635 651.561340,431.419891 648.085266,419.895660 
	C642.889587,402.670868 632.509338,389.135040 619.278748,377.493195 
	C602.389954,362.632416 582.803894,352.443451 561.697266,345.124603 
	C521.067505,331.036011 479.379425,328.091858 437.063293,334.683533 
	C410.302338,338.852142 384.991974,347.491241 362.494385,363.028412 
	C351.517456,370.609283 342.163910,379.626099 338.213470,393.118561 
	C334.478607,405.874725 335.475861,416.912842 345.586060,426.967224 
	C356.618103,437.938354 367.796936,448.615753 380.926392,456.988159 
	C418.875671,481.187683 460.427063,493.004456 506.407349,492.655945 
M45.304981,493.499939 
	C45.304981,507.702209 45.304981,521.904480 45.304981,537.155273 
	C50.703339,529.837097 56.790112,525.233887 63.902668,522.138855 
	C69.493637,519.705933 72.421021,522.027893 71.526855,528.001099 
	C70.772774,533.038513 69.601967,538.013550 68.586617,543.163269 
	C74.132286,545.041931 81.118706,541.165771 84.850349,547.552979 
	C88.621964,554.008423 83.147026,558.676575 80.758148,563.772217 
	C81.997025,564.669250 82.976616,564.172302 83.926224,563.999390 
	C100.946159,560.901489 117.938225,557.638672 134.997757,554.777893 
	C139.496536,554.023438 141.032410,552.326538 141.002182,547.698669 
	C140.805206,517.547668 140.886658,487.394836 140.894012,457.242615 
	C140.894623,454.746338 140.850830,452.231476 141.121780,449.757446 
	C141.813461,443.441803 142.568359,442.777863 148.922348,442.762939 
	C165.580963,442.723785 182.239685,442.728821 198.898376,442.735443 
	C206.397766,442.738434 207.173508,443.530365 207.179733,451.061188 
	C207.202652,478.714569 207.222855,506.367981 207.236130,534.021362 
	C207.241226,544.630920 207.213181,544.466064 218.074524,543.259583 
	C221.699524,542.856934 222.943130,541.484375 222.886307,537.952881 
	C222.744293,529.126343 222.866318,520.295654 222.867752,511.466644 
	C222.872620,481.647675 222.876770,451.828674 222.863708,422.009705 
	C222.862335,418.859894 222.822693,415.934723 220.124786,413.354828 
	C192.438965,386.879303 164.828857,360.323883 137.337021,333.647125 
	C134.138550,330.543518 131.949799,330.795807 129.092987,333.748016 
	C123.996971,339.014221 118.734367,344.119781 113.516953,349.267761 
	C91.821625,370.674408 70.102684,392.057159 48.442253,413.498993 
	C46.627636,415.295319 44.344093,416.790192 44.536598,420.057068 
	C45.958641,444.189606 44.998291,468.352051 45.304981,493.499939 
M823.538879,740.004639 
	C829.662476,736.891357 835.460876,733.313782 840.109558,728.149414 
	C847.513184,719.924622 846.458313,711.950439 837.882080,705.003845 
	C827.715820,696.769470 816.245850,691.483704 803.880188,687.614319 
	C799.325012,686.188965 797.130981,687.139282 794.909607,691.390808 
	C787.546631,705.482910 776.711853,716.433716 762.591492,723.765503 
	C735.919495,737.614502 707.862427,740.145935 678.648315,733.788086 
	C666.671936,731.181641 655.853210,726.608459 650.786316,715.064209 
	C647.561340,707.716370 643.853455,704.842407 635.859314,704.716919 
	C626.364624,704.567871 626.340332,703.752991 623.146729,712.941040 
	C617.678101,728.674805 608.488159,741.446838 592.013794,746.343628 
	C566.184387,754.021057 540.116760,754.356628 514.544128,744.767700 
	C500.328217,739.437134 492.443237,726.786804 492.660858,711.617920 
	C492.728302,706.916199 495.143494,702.671875 494.955566,698.007874 
	C488.528931,696.546875 487.216736,696.879272 485.991241,700.911133 
	C483.593719,708.799011 479.273163,715.407349 473.016571,720.678467 
	C470.440521,722.848816 470.427887,724.630249 472.108856,727.439941 
	C481.929077,743.854370 479.475098,759.849670 465.395325,772.770447 
	C463.617218,774.402161 461.899933,776.100098 459.848724,778.059387 
	C461.000763,778.446777 461.438934,778.711731 461.885925,778.727539 
	C480.190552,779.376831 498.491943,780.352234 516.802063,780.563599 
	C560.446960,781.067627 604.031006,779.525085 647.547913,775.988647 
	C683.075134,773.101501 718.415344,768.893555 753.337280,761.651978 
	C777.165527,756.710999 800.777649,750.964783 823.538879,740.004639 
M342.165192,684.463257 
	C332.170288,682.716736 322.159698,681.054626 312.184418,679.202332 
	C299.679657,676.880310 299.232269,676.304504 297.988464,663.504578 
	C297.875671,662.343750 297.820770,661.175720 297.666199,660.020752 
	C296.316559,649.935059 288.857941,641.906372 278.503540,639.370178 
	C268.101196,636.822144 259.188385,640.036255 253.046646,648.550232 
	C245.636627,658.822388 246.789688,669.291870 256.582916,680.658020 
	C261.848480,686.769348 261.100372,689.682739 253.526413,692.560486 
	C242.757477,696.652100 237.332062,704.982117 238.185303,716.114868 
	C239.009628,726.870483 246.613770,735.442505 257.310425,737.674377 
	C267.883911,739.880615 278.555115,735.024841 283.499847,725.685791 
	C284.901672,723.038208 286.049988,720.256714 287.444977,717.605225 
	C289.391296,713.905701 292.571564,712.508484 296.628265,713.191528 
	C302.368622,714.158020 308.105347,715.155029 313.822296,716.250366 
	C344.376526,722.104431 374.917450,728.028320 405.478943,733.844055 
	C412.759369,735.229431 414.733093,737.123474 415.207123,744.739014 
	C415.460754,748.814209 416.408539,752.630554 418.286804,756.217590 
	C423.813293,766.771667 435.696381,772.218262 446.439087,769.159790 
	C457.769531,765.933960 465.303467,755.963623 464.628113,744.724792 
	C464.226929,738.048523 460.963898,732.810974 455.857880,728.527527 
	C448.918854,722.706665 449.404724,718.845520 457.303375,714.724182 
	C459.514557,713.570435 461.736267,712.391968 463.786835,710.982910 
	C472.747894,704.824890 475.915222,693.973450 471.736206,684.099426 
	C467.268372,673.543030 455.907288,666.891541 445.746185,668.883118 
	C434.113678,671.163208 426.817596,678.669617 424.255981,690.993042 
	C422.898712,697.522583 420.587677,699.160339 414.105072,697.951660 
	C390.403778,693.532349 366.710449,689.070312 342.165192,684.463257 
M943.685608,349.436249 
	C942.710632,348.543121 941.638672,347.734528 940.775208,346.744202 
	C928.475708,332.636627 911.305359,334.738586 903.039917,351.469513 
	C901.749146,354.082367 900.406494,354.962585 897.611267,353.588806 
	C893.371887,351.505249 888.901855,351.696899 884.452087,352.977234 
	C873.110413,356.240540 866.516602,365.491852 866.382507,378.074402 
	C866.326965,383.288635 868.144409,387.699707 860.409302,391.516113 
	C849.949036,396.677094 847.529968,408.405487 849.480286,419.897644 
	C851.268982,430.437012 858.167908,436.529907 868.503845,438.492065 
	C871.885071,439.133942 873.076721,440.682648 873.787659,443.902954 
	C876.269409,455.145630 884.563965,461.284943 896.246460,460.985840 
	C903.346680,460.804108 904.904236,458.795776 902.922180,451.980194 
	C901.622925,447.512207 899.974121,443.146820 898.623535,438.692535 
	C897.916809,436.362152 897.863647,433.846649 900.129211,432.341553 
	C902.510742,430.759399 904.650146,432.412445 906.504456,433.754456 
	C910.223694,436.446320 912.740784,440.195251 914.892334,444.178101 
	C917.055969,448.183502 919.125305,452.239838 921.609497,456.987549 
	C925.604492,451.594421 927.835632,446.092712 931.796936,441.851654 
	C934.076416,439.411224 936.239197,435.170502 940.196838,437.461578 
	C943.747131,439.516754 941.060242,443.263580 940.189087,446.067780 
	C937.963318,453.232819 935.797668,460.384918 934.847290,467.861053 
	C934.579834,469.964996 934.759888,471.304901 937.271729,471.806763 
	C946.010498,473.552582 956.100830,468.994110 959.944519,460.840790 
	C961.713684,457.088135 963.961121,455.377594 968.144287,454.940704 
	C980.989990,453.599030 989.563171,441.126862 986.395081,428.613983 
	C985.794128,426.240540 986.279480,424.876556 988.104065,423.514435 
	C994.789551,418.523651 997.668274,411.730377 995.422913,403.761688 
	C993.160217,395.731354 988.303284,389.822083 978.888123,389.667206 
	C975.530457,389.611969 974.349365,388.196930 975.110901,384.531189 
	C977.360840,373.701477 973.788269,364.608307 966.120850,356.846405 
	C960.061951,350.712891 952.327942,350.077179 943.685608,349.436249 
M515.158081,201.792831 
	C525.020081,177.502029 539.307922,157.037430 564.239502,145.308929 
	C531.766113,135.168701 499.237885,132.701477 465.251556,139.493942 
	C466.635376,140.968689 467.225800,141.750031 467.960083,142.357468 
	C477.656921,150.379059 483.554138,160.988861 487.666504,172.540955 
	C496.939270,198.589050 497.941162,225.272690 492.537415,252.247131 
	C487.650879,276.639557 477.044861,298.537384 462.981506,318.891602 
	C461.845001,320.536469 460.013397,322.029205 460.539185,325.114990 
	C482.306549,322.332764 503.683258,325.086304 525.711670,328.413727 
	C503.483093,287.482788 499.357208,245.800720 515.158081,201.792831 
M154.258606,551.654175 
	C168.237656,549.655823 182.208832,547.599243 196.201660,545.702576 
	C199.458923,545.260986 200.743179,543.840942 200.733215,540.507446 
	C200.647125,511.717865 200.627304,482.927795 200.733322,454.138397 
	C200.747284,450.348297 199.251907,449.255951 195.698044,449.283234 
	C181.553772,449.391876 167.406219,449.431213 153.263947,449.221710 
	C149.217270,449.161743 148.162338,450.690643 148.176697,454.486633 
	C148.293167,485.272797 148.302597,516.059631 148.204971,546.845886 
	C148.192642,550.733337 149.354004,552.547302 154.258606,551.654175 
M327.881500,732.829712 
	C319.528412,731.391418 311.153656,730.065247 302.833862,728.454956 
	C299.867554,727.880798 298.158966,728.939514 296.602417,731.249695 
	C293.223267,736.265015 288.912018,740.423401 284.086792,744.032166 
	C281.763885,745.769531 279.297363,747.314880 276.041016,749.528198 
	C321.918365,763.865967 368.003632,770.014893 414.642334,774.409851 
	C408.103973,766.979797 403.593292,758.831909 401.815918,749.273804 
	C401.366241,746.855591 399.244751,746.477844 397.248566,746.080566 
	C374.446991,741.543152 351.720337,736.612732 327.881500,732.829712 
M49.143196,386.644073 
	C41.260517,394.311737 33.351238,401.952423 25.518944,409.671234 
	C24.054689,411.114227 21.959242,412.464722 23.012518,415.119049 
	C25.395864,421.125366 30.637983,422.202972 35.123089,417.673523 
	C65.134834,387.364899 94.942825,356.851501 125.816788,327.408905 
	C132.085251,321.431061 134.650391,321.297302 140.979843,327.180878 
	C147.323761,333.077911 153.551865,339.101135 159.770264,345.131439 
	C184.769379,369.374268 209.737946,393.648682 234.750259,417.877930 
	C236.007507,419.095795 236.907471,420.906403 239.631714,421.684967 
	C241.067993,420.519592 241.876251,418.758453 243.172607,417.500153 
	C245.547195,415.195251 245.217117,413.572662 242.900391,411.357727 
	C207.373550,377.391052 171.892563,343.376221 136.491501,309.278534 
	C133.439423,306.338837 131.497452,306.255249 128.325043,309.316284 
	C101.945114,334.769958 75.567207,360.223816 49.143196,386.644073 
M834.427795,548.849670 
	C836.697144,535.531311 836.360229,522.302734 832.601624,509.294006 
	C828.857239,496.334045 820.822815,486.195740 811.247498,476.817322 
	C809.968384,478.634460 810.566528,479.875610 810.796692,481.152893 
	C816.311523,511.757294 811.254211,539.702026 789.827698,563.410950 
	C787.755127,565.704224 788.486328,567.593750 789.540649,569.735168 
	C793.142273,577.050537 796.815491,584.334473 799.275452,592.144226 
	C799.715942,593.542480 799.789001,595.123901 801.321167,595.923889 
	C803.137634,595.832092 804.354553,594.601562 805.737427,593.729553 
	C822.041382,583.448486 830.030579,567.793213 834.427795,548.849670 
M312.633850,500.109344 
	C305.357269,501.408081 301.968201,506.901215 299.329681,513.397461 
	C296.561005,504.801117 296.893280,496.248627 294.218353,488.001465 
	C289.219910,491.388153 286.686096,495.970428 284.678162,500.969330 
	C282.726166,505.828949 282.924896,511.149902 281.521606,517.625977 
	C276.294525,505.740021 268.013550,500.663147 255.735565,499.960754 
	C258.636871,505.398621 259.920807,510.479492 264.103729,513.934326 
	C265.481354,515.072144 267.293304,516.352905 266.247925,518.461609 
	C265.301178,520.371460 263.326630,519.558044 261.737183,519.357605 
	C255.738846,518.600830 250.921631,520.670715 247.321609,525.451904 
	C244.870621,528.707153 245.021713,531.698059 248.981094,533.642334 
	C254.383240,536.295105 259.858124,538.528320 266.166199,537.955505 
	C280.086151,536.691589 294.036652,535.763184 307.955444,534.487854 
	C313.406860,533.988342 318.931366,533.338440 323.546448,529.848633 
	C326.150299,527.879700 330.144775,526.241211 329.219421,522.470459 
	C328.376282,519.034790 324.084869,519.436646 321.148163,518.562500 
	C318.247620,517.699097 314.875183,519.125671 311.514435,516.497559 
	C317.935974,512.054565 320.275970,505.407745 323.114777,498.770264 
	C319.350159,497.706238 316.421356,499.239929 312.633850,500.109344 
M929.204163,465.904755 
	C929.819824,462.712006 930.435486,459.519226 931.205200,455.527618 
	C926.317261,460.951874 925.746521,467.976654 920.546692,473.361450 
	C916.831604,464.020264 914.611084,455.048401 908.206848,446.819214 
	C911.359375,458.364471 911.707275,469.035706 912.205505,479.645203 
	C913.193420,500.682892 911.156799,521.547241 907.793884,542.296936 
	C907.496277,544.133057 906.754028,546.150635 909.194275,546.917542 
	C916.100342,549.087830 922.981995,551.454346 931.023254,552.059509 
	C927.331604,523.237488 922.780396,495.069489 929.204163,465.904755 
M1004.408997,561.866089 
	C1001.652832,562.804504 998.896667,563.742981 995.151184,565.018311 
	C999.026001,554.073120 1008.410217,547.386169 1011.662842,536.460266 
	C996.728821,537.814880 989.130249,547.513123 982.792236,560.340576 
	C977.165100,549.635803 974.522644,538.606262 962.899170,534.798889 
	C961.989624,537.359680 962.411255,539.461487 962.773071,541.594543 
	C963.897949,548.226379 966.827332,554.232971 969.090149,560.479431 
	C970.361511,563.989136 972.515259,565.894287 976.046448,566.854431 
	C981.499573,568.337158 987.274292,569.365356 992.186157,571.960938 
	C1002.854492,577.598389 1010.877075,571.197571 1019.509033,567.119690 
	C1020.667480,566.572449 1021.786255,565.525085 1021.459900,563.943481 
	C1021.136658,562.376892 1019.657104,562.033630 1018.425903,561.684387 
	C1014.028503,560.437073 1009.590942,560.297302 1004.408997,561.866089 
M402.470734,284.075378 
	C398.581635,297.911469 400.062164,311.095825 407.416443,323.499207 
	C410.204926,328.202148 411.779480,329.292786 415.503998,329.674316 
	C408.340210,317.138184 404.787415,304.319763 411.425079,290.117493 
	C412.767334,290.625702 413.093903,291.673767 413.780029,292.364868 
	C418.786499,297.407898 423.199768,297.738770 427.065826,293.463318 
	C431.178986,288.914581 430.421936,282.655975 425.267761,278.637939 
	C424.258911,277.851440 422.772705,277.513947 422.630127,275.103851 
	C428.146118,270.777252 434.458405,272.489288 441.059174,274.175873 
	C433.931458,262.816071 423.960785,260.388947 413.980255,267.214905 
	C408.233643,271.145172 405.027527,276.940155 402.470734,284.075378 
M590.588013,284.511841 
	C582.924316,272.496582 572.294800,269.109802 561.878479,275.446869 
	C558.268066,277.643372 555.188843,280.573792 553.159790,284.241333 
	C544.802795,299.346588 544.049866,314.883820 551.075012,330.718903 
	C552.021057,332.851288 553.261963,334.683350 556.310974,334.978699 
	C551.620728,322.790985 550.772644,311.084808 556.382996,299.124542 
	C566.631653,305.525238 569.628906,305.943054 573.329773,301.879822 
	C577.181335,297.651184 576.418701,293.063049 570.239807,285.354279 
	C577.975891,279.019440 584.730835,283.355804 591.988953,287.674561 
	C591.372803,286.263794 591.110168,285.662476 590.588013,284.511841 
M476.214722,646.060425 
	C473.810974,649.750305 472.974152,654.043152 471.594147,658.124268 
	C470.580353,661.122314 471.190155,663.538391 473.880463,665.569946 
	C476.977142,667.908325 479.733765,670.995178 480.806427,674.583069 
	C483.337921,683.050537 488.942993,685.068848 496.809021,683.676392 
	C498.110199,683.446106 499.472046,683.583618 500.793365,683.437866 
	C506.403687,682.819031 510.295502,679.740234 512.850342,674.838440 
	C515.690613,669.389038 515.328735,668.263367 509.783783,665.721619 
	C499.137848,660.841431 489.053406,655.077759 480.239227,647.266785 
	C479.261932,646.400757 478.314178,645.352783 476.214722,646.060425 
M770.723450,541.802490 
	C773.954285,545.949890 777.185120,550.097290 780.805481,554.744690 
	C787.877869,547.934998 791.361877,539.737976 794.736389,530.573975 
	C781.843323,529.032715 769.681885,527.578857 757.520386,526.125000 
	C757.394531,526.494934 757.268738,526.864868 757.142883,527.234802 
	C761.510864,531.914917 765.878845,536.595093 770.723450,541.802490 
z"/>
<path fill="#000000" opacity="1.000000" stroke="none" 
	d="
M863.449951,785.000000 
	C857.936279,781.890015 852.872559,778.779968 847.252930,775.328613 
	C851.370361,770.117737 856.918762,770.674683 862.310425,769.803345 
	C861.212646,765.968933 858.094055,763.956421 855.458435,761.684143 
	C852.185059,758.862183 848.627075,756.372437 845.237854,753.681519 
	C844.065186,752.750427 842.854919,751.670654 843.287781,749.934082 
	C843.713623,748.225830 845.215027,747.787964 846.717651,747.458435 
	C852.917419,746.098694 858.651184,747.975098 864.113403,750.451538 
	C868.610168,752.490173 872.785645,755.237549 877.567078,757.932068 
	C877.068054,751.466492 874.651917,745.990479 872.897400,740.355225 
	C871.808105,736.856567 870.619202,733.386658 870.591370,729.670715 
	C870.555725,724.907349 872.527954,723.716553 876.941528,726.277161 
	C886.808044,732.001465 894.796387,739.585693 899.462952,750.245300 
	C900.389282,752.361267 901.354675,754.460144 902.623108,757.280762 
	C904.431641,754.172668 905.897705,751.614685 907.399902,749.078064 
	C913.505493,738.768188 921.787598,730.796082 932.800537,725.909424 
	C935.402039,724.755066 938.502808,722.568848 941.068726,725.477295 
	C943.693970,728.452881 940.988037,731.089539 939.424927,733.512268 
	C934.616272,740.965210 931.169678,748.988770 928.422363,758.239014 
	C934.884216,756.382141 940.525757,753.984497 946.602173,753.259155 
	C950.438293,752.801208 954.237000,752.654114 958.037476,753.295471 
	C959.825378,753.597107 961.807312,753.860962 962.191650,756.190369 
	C962.582947,758.562256 961.171509,759.947021 959.283752,760.913940 
	C954.193359,763.521301 949.538513,766.678284 945.981995,771.244263 
	C945.398254,771.993774 944.541504,772.680054 944.954468,774.227600 
	C948.302612,774.993469 952.066467,774.879761 955.374207,776.534180 
	C956.568909,777.131836 957.968262,777.722534 957.878540,779.306946 
	C957.777466,781.092346 956.246155,781.859985 954.785583,782.071899 
	C952.829895,782.355591 950.695435,782.628723 948.839905,782.139648 
	C944.248230,780.929443 940.340454,782.282532 936.263916,784.778198 
	C934.611084,785.000000 933.222229,785.000000 931.398865,784.624023 
	C933.201477,775.089600 939.390808,768.287170 945.611633,760.789062 
	C931.451538,761.548584 923.487610,769.839233 917.068848,780.735107 
	C917.847961,765.247070 923.482605,751.402893 927.979492,737.212524 
	C913.921448,748.128540 907.233765,763.224365 903.486206,780.284180 
	C898.273071,764.723145 894.781738,748.784241 880.318787,737.615662 
	C883.626587,752.560608 887.770752,766.443481 887.343445,781.234253 
	C880.393555,770.447083 872.839905,760.656982 860.057434,755.677490 
	C872.729858,770.761719 875.107544,774.932495 874.469360,780.750854 
	C872.186707,782.111633 870.605835,779.312866 868.325745,779.662415 
	C869.607361,781.524292 870.803650,783.262146 872.000000,785.000000 
	C869.299988,785.000000 866.599976,785.000000 863.449951,785.000000 
z"/>
<path fill="#000000" opacity="1.000000" stroke="none" 
	d="
M1025.000000,690.562500 
	C1020.799500,693.994446 1017.531250,698.277466 1012.123535,701.089294 
	C1012.137329,697.398987 1012.351868,694.644226 1011.123169,691.852173 
	C1007.899536,692.919617 1007.817322,697.045715 1004.523315,698.701477 
	C1002.662231,693.625183 1004.631104,688.448486 1003.369995,683.104309 
	C999.724670,687.260986 1000.054932,692.504578 997.679138,696.842163 
	C994.046692,694.802673 994.039490,689.849487 989.939697,688.285767 
	C987.958984,691.378540 990.899597,694.946777 988.822388,699.477539 
	C984.847473,692.974304 980.739746,687.722473 979.404663,680.977173 
	C978.856873,678.209778 980.941467,677.667419 983.187683,677.712341 
	C987.561157,677.799866 991.099487,679.965088 994.310608,682.483582 
	C997.008118,681.497620 997.747192,679.058105 999.291382,677.396667 
	C1000.649292,675.935669 1001.828186,674.270020 1003.342957,673.001526 
	C1006.095764,670.696533 1009.261902,667.101074 1012.835144,669.536438 
	C1016.141724,671.790100 1013.199707,675.607849 1012.451294,678.701355 
	C1012.144775,679.968506 1011.781616,681.221985 1011.355042,682.814636 
	C1015.852966,683.473694 1020.235779,681.434753 1024.624146,683.819092 
	C1025.000000,686.041687 1025.000000,688.083313 1025.000000,690.562500 
z"/>
<path fill="#000000" opacity="1.000000" stroke="none" 
	d="
M1.000000,658.464661 
	C4.923370,658.859863 8.317314,661.050537 12.283759,662.761414 
	C15.211022,659.042053 17.281940,654.732788 21.137480,651.988159 
	C23.276537,650.465576 25.497252,647.979614 28.208826,649.413391 
	C31.370522,651.085144 29.036654,654.195557 28.932640,656.667847 
	C28.878326,657.958862 28.120466,659.211792 28.660170,660.551208 
	C37.212475,662.829041 37.243149,662.848694 32.248562,670.638428 
	C30.619850,673.178650 29.337460,676.281860 25.417332,676.336975 
	C24.502810,673.501282 27.256018,671.589050 26.700314,668.960938 
	C24.611588,670.086182 24.309374,673.055298 21.517574,673.751953 
	C19.884462,670.457825 21.357542,667.026123 20.428503,663.654602 
	C16.289507,666.716980 17.891315,672.420837 14.676521,675.945190 
	C11.179134,674.126221 10.985378,669.440918 6.955779,667.855896 
	C5.573009,670.702332 8.081487,673.785889 6.390835,676.679993 
	C3.462260,676.752930 3.334330,673.575195 1.282444,672.188232 
	C1.000000,667.643127 1.000000,663.286194 1.000000,658.464661 
z"/>
<path fill="#000000" opacity="1.000000" stroke="none" 
	d="
M1.000000,553.454102 
	C3.337824,555.550232 5.336843,558.283752 5.980722,561.620972 
	C4.812372,563.379272 3.259620,563.109619 1.399653,563.064575 
	C1.000000,559.969421 1.000000,556.938782 1.000000,553.454102 
z"/>
<path fill="#000000" opacity="1.000000" stroke="none" 
	d="
M1.000000,573.416626 
	C3.202642,574.215210 5.936089,574.728333 7.271316,577.344971 
	C5.371848,578.923950 3.522673,577.929504 1.398274,578.033081 
	C1.000000,576.611084 1.000000,575.222229 1.000000,573.416626 
z"/>
<path fill="#000000" opacity="1.000000" stroke="none" 
	d="
M762.416870,115.276863 
	C769.642334,110.892151 777.219788,109.238258 785.201538,109.525635 
	C788.194641,109.633392 789.953003,108.772072 790.501953,105.713486 
	C794.024414,86.085701 817.464111,71.804192 838.629089,75.255814 
	C848.998657,76.946915 858.687195,80.585777 866.397156,87.945038 
	C869.563599,90.967499 871.677856,90.560127 874.913452,88.341019 
	C889.177063,78.558472 905.931763,79.371254 919.403809,90.130333 
	C925.248230,94.797836 929.124573,100.664421 930.267273,108.065598 
	C930.867249,111.951508 932.523499,113.701820 936.613464,114.110840 
	C944.071777,114.856720 950.822083,117.621071 956.139160,123.199242 
	C964.416016,131.882446 963.402771,144.515182 953.617432,151.475540 
	C942.607300,159.306992 930.064270,161.207199 916.959290,159.744125 
	C913.028259,159.305252 910.178284,159.909363 906.994690,162.526779 
	C895.621643,171.877121 882.490356,174.413895 868.558411,169.831314 
	C861.555664,167.527939 856.099121,167.848480 849.572449,171.936371 
	C837.867188,179.267761 824.922241,179.284592 812.140442,174.151611 
	C807.255127,172.189758 802.990173,168.974075 800.505737,164.304672 
	C798.013916,159.621490 794.606445,158.986847 789.809509,159.544281 
	C780.302734,160.649017 771.333130,158.514069 762.906128,153.888138 
	C747.392578,145.372070 745.814453,124.892632 762.416870,115.276863 
M813.419250,167.163269 
	C827.213074,173.919739 840.811646,172.225739 852.326965,161.919998 
	C855.708435,158.893677 858.778625,158.146713 862.545227,160.729218 
	C866.096069,163.163788 870.218262,163.924652 874.344177,164.463791 
	C886.059998,165.994736 897.216675,165.052658 905.214172,154.968338 
	C907.747375,151.774094 909.918274,151.522919 913.653564,152.279282 
	C926.043030,154.787994 938.253357,154.504486 949.043213,146.711823 
	C957.910767,140.307449 957.248474,130.212006 947.611755,124.967285 
	C944.134277,123.074730 940.290588,120.962349 936.499695,120.717041 
	C927.540894,120.137352 923.600525,116.762032 922.647827,107.129265 
	C921.613342,96.670357 912.586548,91.929649 903.177246,89.425522 
	C891.989502,86.448082 882.070862,89.161461 874.051575,97.749611 
	C869.854004,102.244919 869.918091,102.304657 866.281250,97.554886 
	C853.949646,81.449303 828.488892,76.246376 811.916687,86.954491 
	C803.432190,92.436760 797.057556,99.733246 797.172974,110.883484 
	C797.223145,115.731377 795.670776,116.665199 790.403320,115.950714 
	C780.335388,114.585091 771.242920,117.500473 762.997803,122.935539 
	C756.760315,127.047203 755.428589,134.473038 759.165771,141.029572 
	C762.415405,146.730804 767.656677,149.884018 773.721252,151.659943 
	C780.897522,153.761383 788.227417,153.528152 795.484314,152.050018 
	C799.692566,151.192825 802.654602,151.938171 803.905212,156.541916 
	C805.205261,161.327759 808.377747,164.626602 813.419250,167.163269 
z"/>
<path fill="#000000" opacity="1.000000" stroke="none" 
	d="
M102.809418,156.361725 
	C92.509300,158.112656 83.079178,156.649292 74.488625,151.509720 
	C59.847610,142.750259 59.988297,123.600151 74.583862,114.644638 
	C78.458321,112.267365 82.641312,110.642433 87.102966,109.871071 
	C89.423927,109.469795 90.377029,108.278793 90.993500,106.053902 
	C93.819214,95.855713 101.956360,89.585091 112.737999,89.912361 
	C117.555824,90.058609 119.755035,88.279869 121.759727,84.090431 
	C130.248901,66.349564 144.485641,55.284805 164.045212,54.152714 
	C182.216263,53.100994 197.464111,60.625622 207.451736,76.735970 
	C210.251251,81.251656 212.884781,85.869812 214.466125,91.540405 
	C220.757996,90.015999 226.740860,89.384201 232.897720,90.690186 
	C240.434464,92.288887 247.086227,95.438843 252.877472,100.407036 
	C266.138702,111.783569 265.423187,132.007019 251.471222,142.542694 
	C245.014481,147.418411 237.792694,150.012024 229.677292,150.006226 
	C227.476517,150.004654 225.392334,149.997726 224.066116,152.325104 
	C215.427170,167.485397 201.480057,170.130600 185.797363,168.201996 
	C180.523270,167.553421 175.244781,166.331375 170.517685,163.795471 
	C167.476562,162.164017 165.036392,162.528519 162.119492,164.029022 
	C153.780548,168.318649 145.160492,171.648987 135.487030,171.424011 
	C124.565689,171.169998 115.401588,167.296677 108.220818,159.017609 
	C106.842255,157.428207 105.502739,156.088959 102.809418,156.361725 
M109.539268,95.869728 
	C103.245682,97.986778 97.652107,100.935287 97.344086,108.600739 
	C97.161812,113.137070 95.153023,114.946136 90.720291,115.587639 
	C84.391685,116.503532 78.487946,118.781540 73.940399,123.680420 
	C67.272621,130.863342 68.540024,140.732605 76.936630,145.833954 
	C85.055855,150.766754 93.762970,152.060776 102.836952,149.104858 
	C107.630447,147.543350 110.821617,148.517410 112.897385,153.304245 
	C115.500214,159.306534 120.511192,162.352051 126.707542,163.691864 
	C139.243790,166.402527 150.902145,164.400848 161.388824,156.884003 
	C164.453156,154.687485 167.233047,154.105820 170.549911,156.192307 
	C177.064621,160.290375 184.444901,161.727234 191.930145,162.492615 
	C203.163330,163.641205 214.310089,157.924438 218.039429,148.773331 
	C219.642303,144.840164 221.841583,143.453262 225.907990,143.676102 
	C233.792099,144.108215 241.127548,142.158691 247.565414,137.468658 
	C255.420547,131.746109 258.328766,122.380127 254.934677,114.216576 
	C249.040237,100.039078 230.266449,92.529999 215.839828,98.579536 
	C210.076157,100.996422 209.618500,100.851555 208.043488,94.749008 
	C206.824341,90.025291 204.998856,85.564850 202.606003,81.364151 
	C194.056534,66.355316 178.576004,59.355312 162.760696,60.480873 
	C147.128006,61.593437 130.453598,75.325150 126.294998,89.409050 
	C124.125069,96.757935 124.136200,96.680222 116.771324,95.625618 
	C114.662323,95.323624 112.468590,95.613457 109.539268,95.869728 
z"/>
<path fill="#000000" opacity="1.000000" stroke="none" 
	d="
M698.792725,65.085892 
	C706.284546,73.302505 705.847595,83.700371 697.585388,92.144524 
	C690.823242,99.055649 682.728699,103.904366 673.238708,106.227020 
	C671.495789,106.653580 669.772644,107.160416 668.078918,107.619736 
	C670.941467,124.156937 667.264587,131.353592 654.913940,133.882095 
	C644.042725,136.107727 635.079041,127.668488 630.999329,111.366577 
	C622.234802,112.190910 621.796021,111.869385 620.538452,103.586540 
	C617.580017,103.179268 615.117554,104.772896 612.534485,105.743027 
	C602.148438,109.643791 592.314209,105.474823 588.434143,95.441978 
	C584.928467,86.377502 589.838135,76.674271 599.920715,72.754486 
	C601.305664,72.216042 602.704651,71.713715 604.160278,71.171120 
	C604.274780,68.208878 602.528015,66.033348 601.524170,63.646812 
	C596.868591,52.578636 597.465088,41.856297 603.647278,31.588131 
	C610.958679,19.444378 623.370667,18.444420 632.503784,29.212395 
	C640.567139,38.719162 642.161072,50.118458 641.712830,62.037235 
	C641.644958,63.842709 640.987793,65.630402 641.593750,67.467987 
	C645.932983,65.148865 648.719849,57.975708 646.962708,53.626808 
	C646.527710,52.550251 645.839661,51.573719 645.427979,50.490387 
	C644.382874,47.740498 645.549927,45.716228 648.142578,45.061985 
	C650.950806,44.353367 651.979980,46.509731 652.207703,48.867622 
	C652.616028,53.095409 651.210754,57.090611 650.378723,61.155556 
	C650.086853,62.581654 649.820801,64.013054 649.351685,66.425766 
	C651.937317,63.478275 653.800598,61.201077 655.834900,59.088573 
	C657.209595,57.660954 658.705139,56.278301 660.363708,55.213646 
	C662.398987,53.907158 664.957092,52.865547 666.276001,55.898163 
	C667.576843,58.889317 665.094666,60.378605 662.782532,60.736187 
	C657.201294,61.599350 654.151245,65.382477 651.387024,69.647820 
	C650.776184,70.590355 650.025146,71.623657 651.115051,73.196960 
	C653.949463,72.493774 656.060791,70.308990 658.535095,68.837219 
	C669.276062,62.448383 680.378052,57.954678 693.120117,62.286949 
	C694.988037,62.922054 696.710205,63.985950 698.792725,65.085892 
M642.695557,124.834938 
	C649.349426,129.505005 655.193787,129.953171 660.006042,125.278175 
	C670.407043,115.173874 662.158752,107.964500 654.914062,100.864784 
	C658.033813,99.336372 660.232117,100.738266 662.427002,101.030220 
	C674.925842,102.692802 691.686340,94.123024 697.302551,83.006554 
	C701.256042,75.181122 697.704712,67.838020 689.268372,66.393845 
	C673.018799,63.612160 652.915039,73.873566 645.455750,88.683113 
	C643.433350,92.698280 641.304199,96.667221 639.050293,100.556679 
	C634.618225,108.205025 635.804932,117.814819 642.695557,124.834938 
M636.859253,60.601864 
	C636.733032,50.958141 635.232544,41.673115 629.135742,33.791382 
	C626.229675,30.034428 622.722229,26.593031 617.492188,27.379314 
	C611.899841,28.220051 608.462585,32.095615 606.601257,37.258537 
	C603.083801,47.015549 604.111145,56.542744 608.475464,65.797638 
	C610.504333,70.099998 612.842529,74.219116 617.394043,76.991386 
	C614.496887,78.642250 612.975769,77.129852 611.315674,76.669220 
	C605.931030,75.175179 599.679565,77.173561 596.081726,81.672791 
	C593.154297,85.333733 592.268921,89.458084 594.090149,93.812965 
	C596.122192,98.671837 602.246948,102.318672 607.981628,101.661118 
	C615.962891,100.745949 623.278259,98.421402 626.902039,90.051056 
	C628.012573,87.485794 629.472046,84.892456 631.375793,82.884789 
	C636.221069,77.774971 637.610291,71.800880 636.910156,65.062408 
	C636.790405,63.909969 636.879822,62.735798 636.859253,60.601864 
M629.553711,96.008636 
	C628.472412,99.283821 625.763367,102.161827 626.838196,106.222466 
	C627.595032,105.995026 628.187622,105.997902 628.478516,105.703072 
	C636.428345,97.646355 641.749756,87.992134 645.436218,77.389503 
	C645.898560,76.059906 646.096375,74.372780 644.144775,73.686325 
	C639.715881,76.536415 635.387085,83.123123 629.553711,96.008636 
z"/>
<path fill="#000000" opacity="1.000000" stroke="none" 
	d="
M72.654099,726.485291 
	C71.138855,725.799866 69.987152,725.020386 67.802155,725.870544 
	C76.850754,737.790894 86.322525,749.428162 88.584930,765.951721 
	C83.045189,762.921692 79.746452,758.592224 74.074783,757.534851 
	C78.285789,762.474792 82.502945,766.921631 83.898849,773.600098 
	C81.027023,773.704834 79.804520,771.715637 78.478882,770.289429 
	C72.793648,764.172852 65.925575,759.929688 58.181644,756.998352 
	C55.970596,756.161438 53.455334,755.482605 53.866447,752.401917 
	C54.302311,749.135803 57.031445,748.034058 59.707802,748.007568 
	C63.340202,747.971558 66.980011,748.685364 70.616676,749.077209 
	C71.732147,749.197388 72.842064,749.934814 74.057999,749.064758 
	C74.530678,746.873291 72.955650,745.418274 71.985229,743.760925 
	C67.206314,735.598816 60.383171,729.211975 53.688560,722.708618 
	C51.772137,720.846924 49.388241,718.749084 51.015659,715.865479 
	C52.570969,713.109680 55.620434,713.746277 58.269592,714.218628 
	C70.406990,716.382446 80.906906,721.829834 90.008957,730.083008 
	C90.953110,730.939148 91.573929,732.247314 93.221748,732.501709 
	C92.091400,718.840881 91.234474,705.253174 89.261528,691.772095 
	C88.962814,689.731018 88.514435,687.598145 90.608551,686.389587 
	C92.512726,685.290588 94.130547,686.771484 95.585976,687.795715 
	C104.611008,694.146667 110.013329,703.349976 114.864449,712.885620 
	C118.341370,719.719849 120.808311,726.980164 122.650604,735.118347 
	C125.487259,731.533997 127.908104,728.285889 130.524963,725.204102 
	C138.319855,716.024536 147.562988,708.838562 159.126251,704.985718 
	C161.612396,704.157288 164.372360,702.801514 166.401031,705.678650 
	C168.298096,708.369141 166.151642,710.349243 164.697922,712.323608 
	C158.832504,720.289673 153.873230,728.691711 151.707886,738.822754 
	C154.109848,739.217834 156.038956,738.067444 157.966370,737.377747 
	C165.681381,734.617188 173.549988,733.972717 181.591354,735.345947 
	C183.926529,735.744751 186.402405,736.394226 186.975998,739.093628 
	C187.613876,742.095459 184.978271,743.112976 182.983429,744.095642 
	C176.462982,747.307922 170.993988,751.674316 166.388351,757.988892 
	C171.253448,758.867371 175.794418,759.182312 179.706650,761.603271 
	C181.544800,762.740784 183.981644,763.773010 183.095490,766.410767 
	C182.210602,769.044617 179.582687,769.272400 177.189301,768.912903 
	C172.099228,768.148438 167.047729,766.534973 161.868713,767.411255 
	C158.192062,768.033264 154.629272,769.328186 149.857559,770.641541 
	C154.477859,758.859253 162.414566,750.965454 170.473694,743.058899 
	C164.777237,741.934753 156.087677,745.044250 149.010849,750.214111 
	C142.561737,754.925354 139.550903,762.295715 134.448898,768.199036 
	C136.598434,749.184326 144.500290,732.417419 154.801285,715.006836 
	C144.257935,720.261658 137.295609,727.321655 131.412445,735.621887 
	C125.490585,743.976685 123.085487,753.886475 118.833748,763.498779 
	C118.281380,740.733154 113.941132,719.453003 98.580360,701.836121 
	C100.171310,723.094177 100.873421,744.312622 103.133453,765.790955 
	C97.705559,748.884338 88.859978,735.024475 72.654099,726.485291 
z"/>
<path fill="#000000" opacity="1.000000" stroke="none" 
	d="
M126.949326,623.952942 
	C123.637161,626.807068 122.442703,631.283386 117.963806,633.273010 
	C116.975121,629.171875 118.915535,626.049255 118.938705,622.359009 
	C117.137856,624.873779 115.337006,627.388550 112.645821,631.146606 
	C111.694748,624.273438 114.854843,619.370605 114.966507,613.655945 
	C109.585396,616.742371 108.899338,622.812744 104.970222,627.836182 
	C102.508263,619.979492 100.371376,613.160217 98.026634,605.677612 
	C93.388336,613.106995 96.092636,620.964539 93.892685,628.298706 
	C90.162178,623.568481 87.211143,618.430237 81.659149,614.865662 
	C81.959290,620.471619 84.638390,625.241272 84.501106,630.557129 
	C79.899239,628.334595 71.323280,611.801208 71.427544,605.345703 
	C77.798859,604.707153 82.810349,607.864563 87.718414,611.277405 
	C90.026405,609.977905 90.100716,607.631836 90.772919,605.686829 
	C92.146126,601.713562 93.883011,597.962952 96.736023,594.828735 
	C99.312950,591.997864 101.367355,592.449829 102.415977,596.089661 
	C103.288116,599.116760 103.687195,602.279724 104.551765,605.309509 
	C105.120575,607.302917 104.977806,609.670288 107.297829,611.383667 
	C111.038437,608.191467 115.417053,605.901489 119.978691,603.958374 
	C121.797989,603.183411 123.885147,601.894165 125.623848,603.354126 
	C127.441856,604.880737 126.164040,607.062500 125.697502,608.962219 
	C125.384987,610.234619 125.102379,611.514465 124.694489,613.273560 
	C127.262321,612.847900 129.463806,612.331238 131.691315,612.166626 
	C133.193695,612.055603 134.729401,612.548950 135.518005,614.051025 
	C136.443100,615.813049 135.096802,616.890198 134.026947,617.863770 
	C131.813751,619.877808 129.483078,621.762695 126.949326,623.952942 
z"/>
<path fill="#000000" opacity="1.000000" stroke="none" 
	d="
M272.031708,578.729980 
	C272.297089,580.222900 272.184601,581.471558 273.322357,582.187866 
	C275.373169,582.113159 276.658112,580.640625 278.222382,579.762451 
	C284.855957,576.038513 286.888184,577.000183 287.452545,584.344788 
	C290.441742,585.167603 294.901459,582.175049 296.418182,585.982056 
	C297.687042,589.166992 293.275513,590.970642 291.710388,593.608032 
	C290.401306,595.813904 289.344818,598.371216 286.665466,599.849609 
	C284.264313,597.057129 286.262604,594.441223 286.780579,591.748596 
	C283.203094,592.491028 281.732178,595.805542 278.562561,597.415894 
	C276.813507,593.791016 279.470764,590.799927 279.063965,587.297668 
	C275.350189,589.240906 273.933594,592.971741 271.737030,596.637634 
	C268.332275,592.573364 268.730530,587.383545 266.206055,582.956970 
	C262.534332,588.117126 265.097961,593.916504 263.511566,599.587036 
	C259.487396,596.500916 258.271881,591.393127 253.562881,589.284912 
	C253.102783,592.770081 255.360962,596.197021 253.112061,600.230835 
	C248.594833,595.269775 246.145615,589.761414 245.027313,583.885254 
	C244.521423,581.227051 247.522964,580.877808 249.829254,581.197998 
	C252.836349,581.615417 255.417801,583.231262 258.040802,584.479187 
	C260.590607,582.858215 260.742371,580.124573 261.883118,577.988892 
	C263.231262,575.465027 264.726379,573.046631 266.924683,571.221680 
	C269.171326,569.356567 270.881744,569.568665 271.265686,572.905090 
	C271.474823,574.722778 271.736328,576.534302 272.031708,578.729980 
z"/>
<path fill="#000000" opacity="1.000000" stroke="none" 
	d="
M886.645142,619.655151 
	C886.780396,622.734924 886.883179,625.394287 886.899170,628.054199 
	C886.901672,628.471680 886.510620,628.891479 885.968140,629.977905 
	C881.577515,626.268188 879.066895,620.754211 873.018372,618.374268 
	C875.146667,624.167847 879.553955,628.875244 877.773010,635.220703 
	C875.406616,634.933472 874.902100,633.123474 874.062622,631.818237 
	C869.989258,625.484558 865.487183,619.536438 859.679932,614.656921 
	C858.010681,613.254395 856.216675,611.677246 857.074707,609.191772 
	C858.046204,606.377441 860.633301,606.657593 862.973999,606.634216 
	C868.991577,606.574036 873.430969,610.593384 879.276550,612.991760 
	C878.853088,610.278870 878.489990,607.940857 878.122864,605.603455 
	C877.825012,603.707397 877.917664,601.863953 879.591125,600.620667 
	C881.370544,599.298767 883.094482,600.322937 884.749817,601.076477 
	C888.350952,602.715881 890.456421,606.065308 893.472290,608.968445 
	C895.756409,605.179382 897.742737,601.417175 900.170349,597.965271 
	C903.938965,592.606384 908.404419,587.891235 914.598145,585.246704 
	C916.751160,584.327454 919.112427,583.359558 921.038818,585.586121 
	C922.832581,587.659485 921.464905,589.639832 920.448792,591.559387 
	C917.955444,596.269470 915.480652,600.982910 914.011841,606.152222 
	C913.508911,607.922302 912.932251,609.640198 913.567932,611.540039 
	C915.540771,612.428711 916.602966,610.684326 917.942261,609.965515 
	C924.005859,606.710938 930.193115,603.759705 937.281433,604.234619 
	C939.762146,604.400757 943.296753,604.100342 943.884399,607.471741 
	C944.448059,610.705872 941.305298,611.840942 938.937927,612.925903 
	C935.285645,614.599548 931.697571,616.333801 928.749512,619.114563 
	C927.831360,619.980530 926.508301,620.623901 926.437561,622.436279 
	C929.461792,623.030090 932.540649,623.476746 935.524780,624.276611 
	C937.484985,624.802002 939.435913,625.907349 939.069824,628.407898 
	C938.702271,630.918823 936.570129,631.250427 934.491394,631.309021 
	C929.682800,631.444519 924.856750,631.022522 920.111816,632.383240 
	C917.549011,633.118103 916.195129,631.108276 914.891602,629.347900 
	C913.409546,627.346313 914.818176,625.933105 915.948547,624.499329 
	C918.194763,621.650391 920.468079,618.822693 923.217346,615.375305 
	C915.488403,618.278564 910.678894,623.518311 906.247009,629.525024 
	C905.039124,619.961853 906.372437,610.736084 907.870972,600.261658 
	C899.056763,608.408569 897.976318,618.566528 895.847778,629.169495 
	C891.661865,623.768066 891.374756,617.409668 886.903503,613.189819 
	C885.821289,615.376526 886.505554,617.321716 886.645142,619.655151 
z"/>
<path fill="#000000" opacity="1.000000" stroke="none" 
	d="
M602.434814,226.659363 
	C605.577393,230.906570 607.491028,235.308167 608.059326,240.197693 
	C608.350830,242.706497 608.318848,245.602142 605.641968,246.727554 
	C603.281067,247.720139 601.783020,245.373322 600.311096,243.871872 
	C598.916321,242.449219 597.713867,240.839569 596.402039,239.333832 
	C590.391968,232.435638 583.057312,228.498672 573.656006,228.945862 
	C569.960999,229.121613 565.855713,229.348083 565.000000,224.400589 
	C564.212341,219.845886 567.226318,217.363129 570.898132,215.608658 
	C579.701904,211.401947 591.220520,214.234802 599.044250,222.518509 
	C600.183838,223.725067 601.162231,225.083832 602.434814,226.659363 
z"/>
<path fill="#000000" opacity="1.000000" stroke="none" 
	d="
M398.214233,223.412415 
	C406.032715,209.603500 419.709045,202.953934 431.907898,206.838028 
	C434.941650,207.803970 437.798004,209.122070 439.738037,211.856064 
	C441.176453,213.883179 441.811310,216.061981 440.799042,218.417572 
	C439.716125,220.937454 437.486725,221.455551 435.006012,221.372726 
	C433.677338,221.328369 432.333435,221.419449 431.021210,221.253464 
	C420.379791,219.907471 411.982147,224.266556 404.533966,231.363159 
	C402.412567,233.384460 400.347961,237.470139 396.907104,235.131348 
	C393.455872,232.785507 396.230591,229.097198 397.056946,226.033066 
	C397.270874,225.239822 397.705963,224.506210 398.214233,223.412415 
z"/>
<path fill="#000000" opacity="1.000000" stroke="none" 
	d="
M533.372375,361.684174 
	C534.448059,368.760559 531.513489,374.239044 527.553955,379.030182 
	C519.180725,389.161926 508.373993,395.309357 495.320404,397.462372 
	C493.002106,397.844727 489.932098,397.348450 488.935699,400.361450 
	C487.897430,403.501038 489.264648,406.223999 491.312164,408.600220 
	C500.369812,419.112122 512.424988,422.668579 525.513855,421.377228 
	C542.087158,419.742096 554.091248,410.359344 562.215027,395.974609 
	C563.344727,393.974243 564.390259,391.858002 564.391907,389.328979 
	C562.765564,387.621399 560.468567,387.815094 558.445557,387.297943 
	C556.528381,386.807800 554.813965,386.073547 555.074158,383.738251 
	C555.288757,381.811523 556.811218,381.108307 558.591919,380.763702 
	C566.399597,379.252686 577.823425,385.086151 581.193848,392.403076 
	C582.036438,394.232178 583.003540,396.372925 581.061157,397.909729 
	C578.896912,399.621979 577.444275,397.493286 575.955933,396.274475 
	C574.944641,395.446289 574.004883,394.530701 573.106689,393.720551 
	C570.850586,394.186890 570.682007,396.097168 569.949036,397.475891 
	C563.909790,408.836365 555.575439,417.912750 543.671265,423.176758 
	C539.913269,424.838562 538.098877,427.730316 536.603271,431.113708 
	C531.563843,442.513794 524.811401,452.646851 515.678223,461.272797 
	C495.026337,480.777710 466.490173,476.168335 453.413330,450.950256 
	C449.334839,443.084991 446.439850,434.755829 444.581879,426.078583 
	C444.084045,423.753479 443.372528,421.790771 440.722656,420.775146 
	C424.234314,414.455627 415.250824,401.696716 410.639587,385.260132 
	C410.251007,383.875092 410.378479,382.250793 408.981781,381.151733 
	C406.222473,381.491577 405.160797,384.153137 403.140869,385.486481 
	C401.664581,386.460968 400.074249,387.138824 398.584045,385.753326 
	C397.238373,384.502197 397.924347,383.023987 398.588409,381.622101 
	C401.940247,374.545868 414.793976,368.779053 422.244934,371.038910 
	C423.547852,371.434082 424.890503,371.934479 424.949066,373.555267 
	C425.006012,375.131561 423.742065,375.752075 422.531219,376.401123 
	C416.559906,379.602234 416.416687,380.001129 418.502106,386.648499 
	C424.539032,405.891571 440.085602,416.992645 459.315765,415.969635 
	C467.014465,415.560059 473.430786,412.203857 479.253815,407.608002 
	C484.341064,403.592804 483.611420,399.241486 477.583588,397.099854 
	C464.099426,392.309052 452.798676,384.963470 446.350342,371.575592 
	C444.288513,367.294861 442.999786,362.888458 443.300079,358.105865 
	C443.905609,348.461517 449.964050,342.774017 458.257690,339.974854 
	C480.439117,332.488434 502.189636,333.357483 522.666687,345.700470 
	C528.417053,349.166656 532.224487,354.417480 533.372375,361.684174 
M520.040039,446.628693 
	C521.169556,445.045013 522.893005,443.791199 522.906982,441.593353 
	C513.624268,435.478455 504.394653,436.089417 495.378143,443.492615 
	C491.907440,446.342377 488.604095,449.395111 485.178223,452.300842 
	C484.037750,453.268219 482.644287,454.385101 481.175812,453.245239 
	C479.655975,452.065491 480.664612,450.539825 481.223145,449.164093 
	C483.139465,444.443848 487.003265,441.309448 490.573822,437.824402 
	C480.458099,438.657898 471.939453,442.565857 465.012207,449.838226 
	C463.666412,451.251068 462.873627,452.596375 464.092743,454.675629 
	C468.374939,461.979218 482.639618,468.591614 491.018280,466.915039 
	C503.371613,464.443146 511.677063,456.063904 520.040039,446.628693 
M491.659973,347.768951 
	C483.021240,346.675873 474.414612,346.297211 466.092438,349.518433 
	C464.306671,350.209595 461.846497,350.835022 461.815155,353.154236 
	C461.784302,355.439545 464.136139,356.149841 465.933746,356.968292 
	C474.819824,361.014038 484.115570,360.026520 493.384644,359.091644 
	C496.203735,358.807281 498.936707,358.018677 501.442963,356.639618 
	C502.728302,355.932373 504.414917,355.352203 504.433167,353.612671 
	C504.454285,351.604736 502.658966,350.858856 501.122345,350.352478 
	C498.295471,349.420929 495.378021,348.764160 491.659973,347.768951 
z"/>
<path fill="#000000" opacity="1.000000" stroke="none" 
	d="
M91.000092,493.953491 
	C83.357056,493.820496 76.210602,494.529114 69.064819,493.509064 
	C65.403168,492.986359 63.754284,491.107727 63.697742,487.595093 
	C63.459476,472.792786 63.241917,457.990173 63.019379,443.187622 
	C62.952427,438.734283 65.145973,436.201508 69.595863,436.171448 
	C84.736443,436.069153 99.878792,436.018494 115.018486,436.159851 
	C118.338913,436.190826 121.160583,437.471252 121.373093,441.688995 
	C122.135315,456.817444 122.417282,471.929932 121.579880,487.077118 
	C121.282265,492.460449 118.577644,493.993866 113.965607,493.993561 
	C106.477081,493.993073 98.988548,493.965637 91.000092,493.953491 
M100.795738,467.284119 
	C98.319351,467.213104 96.026497,467.353363 95.951614,470.720367 
	C95.852074,475.195770 95.669220,479.669312 95.570183,484.144714 
	C95.523628,486.248291 96.179337,487.640320 98.737968,487.477112 
	C103.207123,487.191956 107.687355,487.062958 112.164810,486.932648 
	C114.574593,486.862488 115.865387,485.832245 115.841843,483.306427 
	C115.803162,479.157196 115.806435,475.007172 115.837784,470.857849 
	C115.856659,468.360291 114.692398,467.250824 112.187042,467.298248 
	C108.702454,467.364258 105.215340,467.296326 100.795738,467.284119 
M113.703766,461.482605 
	C115.726509,458.969452 116.636734,446.477478 114.987457,444.040588 
	C114.158257,442.815399 112.927238,442.405640 111.556564,442.394623 
	C107.582657,442.362671 103.608253,442.370758 99.634171,442.389984 
	C97.502319,442.400299 96.200302,443.395660 96.000725,445.613861 
	C95.629982,449.734497 95.150063,453.837036 95.741570,457.996490 
	C96.106590,460.563385 97.204918,461.815247 99.927925,461.723450 
	C104.230049,461.578461 108.539185,461.641266 113.703766,461.482605 
M89.868240,477.484009 
	C89.868729,476.322113 89.874542,475.160187 89.868828,473.998322 
	C89.835800,467.291656 89.834885,467.292236 83.341118,467.309448 
	C80.353424,467.317352 77.360939,467.430267 74.379395,467.298004 
	C71.484238,467.169556 70.029373,468.209930 70.120804,471.275208 
	C70.234589,475.089478 70.248047,478.911774 70.141609,482.726044 
	C70.051071,485.970581 71.610321,487.190063 74.686707,487.111786 
	C78.170258,487.023224 81.659401,487.001251 85.142464,487.091370 
	C88.422447,487.176239 90.190590,485.944794 89.893906,482.428650 
	C89.782646,481.109985 89.871582,479.774414 89.868240,477.484009 
M86.091713,442.314117 
	C83.603561,442.309204 81.114922,442.270172 78.627350,442.305634 
	C70.538307,442.420868 70.154984,442.800323 70.098648,450.658051 
	C70.080811,453.145935 70.130875,455.634338 70.110802,458.122162 
	C70.090919,460.586426 71.214333,461.753693 73.740402,461.710022 
	C77.886093,461.638336 82.033997,461.705750 86.180710,461.677124 
	C87.511887,461.667908 89.249992,461.679688 89.413185,460.053284 
	C89.957924,454.624481 90.290840,449.158661 89.389252,443.732300 
	C89.208275,442.643097 87.991524,442.458862 86.091713,442.314117 
z"/>
<path fill="#000000" opacity="1.000000" stroke="none" 
	d="
M156.076813,491.802612 
	C162.013397,490.415466 166.572784,492.677185 168.018250,497.397675 
	C169.384857,501.860596 167.350281,506.373138 163.158707,508.175781 
	C158.980087,509.972839 154.391235,508.370544 152.008286,504.282288 
	C149.493912,499.968536 150.887741,495.333649 156.076813,491.802612 
M157.624908,498.257294 
	C156.887039,500.384308 156.735275,502.400848 159.641693,502.685333 
	C161.352219,502.852783 162.621841,501.577332 162.473328,499.897369 
	C162.230713,497.152954 160.374878,496.861603 157.624908,498.257294 
z"/>
</svg>