<svg version="1.1" id="Layer_1" xmlns="http://www.w3.org/2000/svg" xmlns:xlink="http://www.w3.org/1999/xlink" x="0px" y="0px"
	 width="100%" viewBox="0 0 1152 896" enable-background="new 0 0 1152 896" xml:space="preserve">
<path fill="none" opacity="1.000000" stroke="#000000" stroke-linecap="round" stroke-linejoin="round" stroke-width="11.000000"
	d="
M383.000000,740.500000 
	C381.209351,740.198669 381.486145,741.442200 381.498871,742.500000 
	C381.677979,757.361389 367.132843,773.957581 351.007935,775.578857 
	C340.906158,776.594666 330.972412,777.519348 320.983978,774.553955 
	C305.174561,769.860291 297.581970,754.480042 304.008240,739.503540 
	C304.948914,737.311462 306.249634,735.237793 306.895752,732.970276 
	C307.223633,731.819519 307.686462,730.073547 306.477020,729.026550 
	C302.028595,725.175110 302.088562,719.368286 300.007629,714.496765 
	C299.947449,714.355774 300.072571,714.101135 299.989655,714.009338 
	C294.404846,707.826843 298.149994,701.795654 301.182526,696.606689 
	C305.292206,689.574463 312.170715,685.884521 320.500458,685.510315 
	C332.262054,684.981873 340.968567,692.118347 345.000000,705.500000 
	C347.505768,713.817444 349.065521,714.763062 357.998474,715.047546 
	C369.376984,715.409851 380.685791,716.727600 392.016815,717.826477 
	C401.368774,718.733459 410.647491,720.160400 419.992950,721.072327 
	C426.363220,721.693970 432.816681,724.348389 438.962677,723.664551 
	C446.950928,722.775635 453.084137,727.567383 460.476349,728.254517 
	C467.420074,728.899963 474.179474,731.620422 480.997314,733.509766 
	C494.771027,737.326782 508.455811,741.523499 520.939148,748.607239 
	C527.004761,752.049194 532.624634,756.211365 537.622681,761.381409 
	C545.621765,769.655640 544.363281,782.476135 536.496521,789.996399 
	C527.697083,798.408081 517.096313,804.022339 505.961731,808.402771 
	C485.813446,816.329407 464.852570,821.301208 443.529877,825.164917 
	C426.081970,828.326538 408.531128,830.648376 390.978271,832.824890 
	C374.913971,834.816895 358.664154,835.299805 342.500580,836.507751 
	C317.026520,838.411499 291.503204,838.317810 266.001984,837.884033 
	C247.142761,837.563232 228.301682,836.422058 209.483093,834.682861 
	C197.829636,833.605896 186.145432,832.647278 174.511368,831.394470 
	C161.794724,830.025146 149.067551,828.339661 136.522827,825.883423 
	C116.804581,822.022766 97.062897,818.036682 78.016914,811.451111 
	C63.209339,806.330994 48.467175,800.894043 37.015335,789.484619 
	C29.053366,781.552307 27.325975,771.073792 36.000134,762.000122 
	C45.629467,751.927185 57.723770,745.916443 70.496994,740.992188 
	C93.466576,732.136963 117.247772,726.448425 141.491959,722.451233 
	C148.656891,721.269897 155.667633,718.527649 162.987701,719.145691 
	C167.759125,719.548523 171.253326,717.945190 174.492020,714.991272 
	C184.019180,706.302063 194.908752,705.431885 206.005081,712.492004 
	C209.418228,714.663696 212.573761,715.541931 217.087128,714.322510 
	C221.896729,713.022949 227.347641,713.390198 232.506729,713.137329 
	C244.652405,712.542114 256.869812,712.021118 268.988373,712.705811 
	C278.556885,713.246399 286.980042,709.380249 296.000000,708.000000 
"/>
<path fill="none" opacity="1.000000" stroke="#000000" stroke-linecap="round" stroke-linejoin="round" stroke-width="9.000000"
	d="
M663.500000,572.000000 
	C663.500000,526.333313 663.524292,480.666626 663.477478,435.000031 
	C663.469116,426.833191 663.126892,418.667145 663.028442,410.499664 
	C663.004333,408.501953 662.783997,406.234497 663.599182,404.547974 
	C666.465576,398.617584 663.985962,393.280792 661.369141,388.572723 
	C650.131287,368.354279 639.326355,347.897064 627.595215,327.944000 
	C618.943787,313.229004 611.221191,297.969971 602.984558,283.008484 
	C594.888794,268.302795 586.767334,253.609055 578.429504,239.040329 
	C576.338379,235.386566 572.937683,232.924728 569.035950,230.929749 
	C538.970642,215.557373 509.000000,200.000000 479.000000,184.500015 
	C459.000000,174.166672 438.962341,163.905121 419.028595,153.445480 
	C414.500854,151.069641 410.707825,150.927124 405.939209,153.381912 
	C375.057831,169.279022 343.947876,184.731308 313.019043,200.537247 
	C293.634705,210.443451 274.187103,220.214035 254.476044,229.448868 
	C250.579346,231.274521 247.612213,233.891830 245.516449,237.509521 
	C226.988144,269.493134 208.496689,301.498077 190.001587,333.500916 
	C182.491882,346.495300 174.958786,359.476471 167.519012,372.510864 
	C164.258942,378.222443 163.333099,384.680023 161.921524,390.982422 
	C161.743423,391.777649 161.371216,392.237061 161.979309,393.016144 
	C165.135315,397.059540 164.488098,401.854340 164.493546,406.500000 
	C164.510971,421.333344 164.729263,436.171814 164.396011,450.997650 
	C164.246292,457.658356 166.975586,464.593994 163.000000,471.000000 
	C165.009323,475.677185 164.214294,480.636414 164.550491,485.496521 
	C165.190369,494.746887 165.358047,503.932709 163.021042,513.005432 
	C162.860001,513.630615 162.828659,514.389465 163.025940,514.991516 
	C165.579956,522.786011 164.964081,530.662354 163.427826,538.485840 
	C162.853806,541.409180 164.778137,543.645569 164.623215,546.506653 
	C164.245285,553.486206 165.089859,560.562561 164.355927,567.484741 
	C163.359863,576.879395 164.751953,586.162903 164.593033,595.501587 
	C164.512573,600.230469 163.004578,604.309692 160.428711,607.949524 
	C157.673340,611.843018 152.786377,610.924622 148.979843,611.289856 
	C138.779968,612.268250 128.642044,613.570068 118.487236,614.902771 
	C108.712875,616.185486 98.830818,616.638367 89.001083,617.512146 
	C84.161537,617.942383 79.319939,618.397888 74.503876,619.029541 
	C69.945152,619.627380 68.547180,623.244324 67.526276,627.007141 
	C67.040123,628.798950 66.178047,630.845093 66.619759,632.467407 
	C68.093452,637.879578 64.893356,640.299683 61.000000,642.500000 
"/>
<path fill="none" opacity="1.000000" stroke="#000000" stroke-linecap="round" stroke-linejoin="round" stroke-width="11.000000"
	d="
M809.500000,385.000000 
	C808.209595,376.061890 802.240845,369.443024 797.954956,362.026031 
	C781.064758,332.795898 763.992004,303.671326 747.003601,274.497894 
	C739.149353,261.010101 731.457397,247.425720 723.440735,234.035492 
	C720.096008,228.449020 715.442688,223.994507 709.506592,220.987030 
	C676.992798,204.514175 644.577698,187.844070 611.954651,171.591064 
	C601.608521,166.436584 591.601685,160.189545 579.991943,158.043671 
	C566.359680,155.523911 552.665222,153.341904 539.000305,150.998108 
	C514.800903,146.847427 490.493378,143.331894 466.476013,138.110275 
	C460.719971,136.858856 454.810852,136.140656 448.980530,135.110199 
	C445.280670,134.456268 441.573242,135.506302 438.500000,138.000000 
"/>
<path fill="none" opacity="1.000000" stroke="#000000" stroke-linecap="round" stroke-linejoin="round" stroke-width="11.000000"
	d="
M682.500000,395.500000 
	C682.524597,390.516174 679.652527,386.600800 677.451660,382.526123 
	C664.550110,358.639587 651.558105,334.801361 638.481873,311.009979 
	C627.737366,291.461151 616.829346,272.002228 606.001892,252.498917 
	C601.656799,244.672150 597.016357,236.987366 593.108826,228.947113 
	C590.397400,223.367844 586.371643,219.727066 581.017883,216.965332 
	C555.644470,203.876358 530.364014,190.607147 504.989807,177.519791 
	C486.375214,167.918854 467.661682,158.509766 449.003815,148.992538 
	C444.791656,146.843948 440.674530,144.306854 438.654724,139.928619 
	C437.752960,137.973892 436.323273,137.307632 434.983948,137.107452 
	C429.351410,136.265549 424.229279,133.833191 419.072784,131.814087 
	C413.965515,129.814224 409.335419,130.269012 405.046112,132.585373 
	C382.341644,144.846405 358.959930,155.753967 335.993988,167.488251 
	C307.519073,182.037323 278.997650,196.495407 250.506699,211.013153 
	C249.036682,211.762238 247.541946,212.442230 246.053482,213.117828 
	C239.528717,216.079391 233.766022,219.445145 229.814331,226.394424 
	C206.189163,267.940887 181.981354,309.155823 158.012711,350.507355 
	C151.761703,361.291809 145.741180,372.210236 139.450073,382.970825 
	C137.778488,385.829956 136.719894,388.739960 136.500000,392.000000 
"/>
<path fill="none" opacity="1.000000" stroke="#000000" stroke-linecap="round" stroke-linejoin="round" stroke-width="9.000000"
	d="
M1036.750000,203.499985 
	C1037.166626,202.833328 1038.074585,202.023712 1037.928345,201.520859 
	C1034.161255,188.574966 1030.890381,175.525436 1020.075989,165.914474 
	C1008.637329,155.748779 995.554688,151.466263 980.500122,152.501816 
	C956.586426,154.146759 941.589905,167.415833 933.016479,189.006546 
	C932.234070,190.976929 931.438721,192.905975 929.974121,194.528687 
	C925.007507,194.589890 920.488098,192.302383 915.518494,191.812576 
	C906.593384,190.932922 898.854187,193.111526 892.032898,198.541351 
	C882.766541,205.917450 877.791321,215.118271 879.863281,227.522827 
	C880.585754,231.847870 882.854431,233.377960 886.506165,233.961533 
	C887.968811,234.195282 889.500000,234.000000 891.000000,234.000000 
	C952.000000,234.000000 1013.000305,233.903183 1073.999634,234.109192 
	C1082.688965,234.138535 1082.402222,231.001984 1082.578857,224.502136 
	C1082.929688,211.584854 1068.202759,200.020920 1056.000732,199.917435 
	C1050.075195,199.867188 1044.313354,200.766891 1038.500000,201.500000 
"/>
<path fill="none" opacity="1.000000" stroke="#000000" stroke-linecap="round" stroke-linejoin="round" stroke-width="11.000000"
	d="
M1152.250000,480.500000 
	C1152.364868,478.668457 1152.479858,476.836945 1152.611938,474.732330 
	C1136.034668,471.647461 1119.541504,468.435425 1102.991821,465.547119 
	C1091.360229,463.517120 1079.784302,461.160217 1068.007446,459.928741 
	C1058.637085,458.948914 1049.368530,456.901459 1039.988892,456.136627 
	C1032.479004,455.524292 1025.002930,454.619965 1017.497925,454.026581 
	C1003.671936,452.933533 989.844727,451.424286 975.997009,451.150360 
	C959.844727,450.830902 943.671387,450.706360 927.494873,451.376160 
	C916.324341,451.838684 905.152405,452.240875 894.002197,453.030701 
	C884.325012,453.716187 874.647644,454.501404 865.012878,455.611786 
	C862.485168,455.903137 859.994263,455.975464 857.500183,455.964661 
	C843.194885,455.902771 829.647827,460.891418 815.512573,462.142395 
	C807.140137,462.883331 799.102966,466.351807 790.500000,466.000000 
"/>
<path fill="none" opacity="1.000000" stroke="#000000" stroke-linecap="round" stroke-linejoin="round" stroke-width="8.000000"
	d="
M122.000000,96.000000 
	C119.510674,92.994843 115.529488,93.250290 112.460197,92.738876 
	C95.383507,89.893555 79.121368,102.716194 78.979538,119.499825 
	C78.916031,127.013596 80.020958,130.252350 89.000053,130.001801 
	C126.162712,128.964722 163.335373,129.439789 200.499176,129.647141 
	C215.661942,129.731720 230.833282,129.846344 246.000168,129.981186 
	C253.610153,130.048859 255.780441,127.182060 254.013062,119.996788 
	C249.730209,102.584908 235.249619,98.097069 221.002075,100.512253 
	C219.327332,100.796150 217.681107,101.248260 215.798248,101.672760 
	C213.017136,95.579102 212.078842,88.943680 209.101440,82.949608 
	C202.407791,69.473930 183.154892,56.873383 164.481293,59.359482 
	C145.058319,61.945347 132.091751,71.953735 124.977852,89.991264 
	C124.315369,91.671005 123.522720,93.348480 122.000000,94.500000 
"/>
<path fill="none" opacity="1.000000" stroke="#000000" stroke-linecap="round" stroke-linejoin="round" stroke-width="9.000000"
	d="
M264.000000,638.500000 
	C264.000000,575.666687 264.002716,512.833313 263.993408,450.000000 
	C263.992828,446.108124 264.440948,442.306244 262.633026,438.437836 
	C260.790802,434.496033 262.299011,430.113098 263.058258,426.010773 
	C263.934235,421.277588 268.488159,422.589996 270.990021,422.709412 
	C287.176178,423.481873 303.338440,422.366058 319.499146,422.568909 
	C397.998962,423.554230 476.500214,422.731903 555.000244,422.895508 
	C559.960205,422.905823 562.255859,424.286804 562.063843,430.002136 
	C559.723145,499.656372 561.600281,569.334595 561.000000,639.000000 
"/>
<path fill="none" opacity="1.000000" stroke="#000000" stroke-linecap="round" stroke-linejoin="round" stroke-width="11.000000"
	d="
M446.500000,723.500000 
	C446.481293,717.235962 451.843323,714.631348 455.618805,711.650452 
	C479.216797,693.019104 503.172028,674.840271 526.992676,656.490479 
	C529.713684,654.394348 532.258972,652.065674 535.022339,650.030396 
	C537.453125,648.239990 538.811401,645.598450 538.877747,642.996887 
	C539.179138,631.187500 543.478821,620.091858 543.296875,607.995544 
	C542.575012,560.006409 543.003601,512.000000 542.986267,464.000000 
	C542.985596,462.161346 543.392578,460.246338 542.489990,458.505188 
	C540.453003,454.575500 539.456909,450.432800 540.046814,446.386627 
	C534.963074,443.493225 529.865051,442.923004 524.499817,442.942719 
	C492.833557,443.059021 461.165314,443.153290 429.501099,442.874847 
	C422.921051,442.816956 417.953461,446.713074 412.031525,448.131622 
	C409.856354,448.652679 410.180389,451.087830 410.994415,453.002380 
	C412.224731,455.895996 412.004578,458.959259 412.004242,462.000000 
	C411.998260,513.166687 411.890228,564.333862 412.140015,615.499329 
	C412.170929,621.837646 412.163971,628.166687 412.000000,634.500000 
"/>
<path fill="none" opacity="1.000000" stroke="#000000" stroke-linecap="round" stroke-linejoin="round" stroke-width="11.000000"
	d="
M1081.500000,594.000000 
	C1064.557739,594.042114 1047.807251,591.763428 1030.984253,590.166382 
	C1018.511536,588.982300 1005.984070,588.183350 993.502319,586.975952 
	C983.829834,586.040344 974.149597,585.147095 964.482239,584.176941 
	C955.685974,583.294189 946.835754,582.517761 937.995728,582.087891 
	C928.118652,581.607666 918.313416,580.571472 908.496765,579.530579 
	C907.854980,579.462524 907.166687,579.833374 906.500000,580.000000 
"/>
<path fill="none" opacity="1.000000" stroke="#000000" stroke-linecap="round" stroke-linejoin="round" stroke-width="9.000000"
	d="
M454.500000,319.000000 
	C456.534180,319.128204 458.323853,319.114960 459.063721,316.518158 
	C459.633148,314.519653 460.024170,312.582611 460.021027,310.499969 
	C459.987244,288.166687 460.006836,265.833344 459.995544,243.500000 
	C459.992432,237.356857 459.643158,237.011078 453.500000,237.004395 
	C440.333344,236.990051 427.166229,237.065002 414.000122,236.981369 
	C401.332916,236.900894 388.658203,236.879074 376.004944,236.375488 
	C372.011444,236.216568 368.816315,238.383041 365.024475,238.751633 
	C363.170807,238.931824 362.494598,242.211655 362.522125,244.499741 
	C362.790833,266.832489 361.770386,289.179718 363.048401,311.497223 
	C363.593323,321.013824 363.834747,321.000000 373.500000,321.000000 
	C397.666656,321.000000 421.833344,320.988403 445.999969,321.015442 
	C448.862610,321.018646 451.664276,320.990387 454.000000,319.000000 
"/>
<path fill="none" opacity="1.000000" stroke="#000000" stroke-linecap="round" stroke-linejoin="round" stroke-width="7.000000"
	d="
M727.500000,88.500000 
	C728.852844,101.942123 734.999084,112.157265 748.028870,116.921074 
	C762.968201,122.383064 783.023010,114.564957 787.977234,96.493752 
	C793.838257,75.114426 778.289551,55.636257 756.504944,57.074718 
	C741.108276,58.091377 732.320984,67.314842 728.067200,81.020866 
	C727.389893,83.203255 728.478088,85.724625 727.500000,88.000000 
"/>
<path fill="none" opacity="1.000000" stroke="#000000" stroke-linecap="round" stroke-linejoin="round" stroke-width="11.000000"
	d="
M1080.500000,557.000000 
	C1075.348755,554.876282 1069.813110,556.021118 1064.465576,555.234070 
	C1054.418457,553.755310 1044.153198,553.824463 1034.003418,552.959290 
	C1021.839294,551.922363 1009.688538,550.765686 997.512573,549.835144 
	C989.848206,549.249390 982.153442,548.755737 974.507019,547.934692 
	C963.856995,546.791199 953.181702,546.151367 942.501282,545.479675 
	C936.327576,545.091370 930.166260,544.505249 924.000122,543.998535 
	C917.999573,543.505371 912.000000,543.000000 906.000000,542.500000 
"/>
<path fill="none" opacity="1.000000" stroke="#000000" stroke-linecap="round" stroke-linejoin="round" stroke-width="11.000000"
	d="
M1079.500000,625.500000 
	C1085.400146,616.758362 1083.657349,607.033447 1082.906006,597.507385 
	C1082.712524,595.054321 1082.250000,592.824280 1083.431030,590.465454 
	C1083.998169,589.332642 1084.140381,587.786804 1083.946899,586.508057 
	C1083.114746,581.013123 1083.684082,575.499451 1083.503052,569.999878 
	C1083.481079,569.333923 1083.335083,568.614746 1083.526001,568.008179 
	C1085.095093,563.025940 1079.614380,558.792725 1082.373169,553.434692 
	C1084.635864,549.039856 1084.013306,543.884705 1083.996338,539.000000 
	C1083.969482,531.304260 1083.258911,530.337097 1075.495728,529.541565 
	C1065.680054,528.535828 1055.830444,527.865967 1046.000854,526.990356 
	C1037.163330,526.203125 1028.331055,525.357483 1019.500977,524.489929 
	C1014.995361,524.047241 1010.510498,523.357361 1005.998108,523.025818 
	C990.480652,521.885620 974.983948,520.461182 959.481018,519.240784 
	C949.010315,518.416443 938.533997,517.227295 928.001587,516.941589 
	C920.826599,516.747009 913.666687,516.000000 906.500000,515.500000 
"/>
<path fill="none" opacity="1.000000" stroke="#000000" stroke-linecap="round" stroke-linejoin="round" stroke-width="11.000000"
	d="
M285.500000,446.500000 
	C285.711426,448.985779 285.564758,451.408997 283.993134,453.494812 
	C282.187134,455.891632 281.974701,458.620483 281.976410,461.500000 
	C282.008514,515.166687 281.921356,568.833557 282.103577,622.499634 
	C282.125397,628.915405 283.777740,635.266052 290.023987,638.959412 
	C291.634277,639.911560 293.559021,640.027527 295.499847,640.035645 
	C322.833405,640.149841 350.166504,640.377075 377.500092,640.471008 
	C384.832794,640.496216 392.166321,640.073364 399.500183,640.046570 
	C402.368378,640.036072 405.254822,639.025269 406.848114,637.355103 
	C410.777344,633.236267 415.003723,634.950806 418.395172,636.702942 
	C422.979218,639.071228 427.541260,640.000366 432.500000,640.000183 
	C451.833344,639.999634 471.166901,639.939575 490.499908,640.021362 
	C503.333740,640.075623 516.184082,640.809509 528.994202,640.341492 
	C538.357117,639.999451 547.666687,640.513916 557.000000,640.506653 
	C581.833313,640.487183 606.699036,639.799683 631.479492,640.944336 
	C638.536499,641.270325 640.936646,638.591919 643.460022,633.978149 
	C647.468933,626.648071 653.950500,620.978455 657.103516,613.041138 
	C658.177246,610.338074 662.023560,610.766724 664.063599,608.558777 
	C669.898010,602.244019 677.081299,597.518250 684.000000,592.500000 
"/>
<path fill="none" opacity="1.000000" stroke="#000000" stroke-linecap="round" stroke-linejoin="round" stroke-width="9.000000"
	d="
M206.500000,754.750000 
	C209.108124,754.517944 211.379593,754.466003 214.083908,755.834167 
	C222.958252,760.323975 232.212936,763.059631 242.528107,760.618774 
	C250.578491,758.713989 252.296082,761.773193 250.637909,770.027710 
	C246.747101,789.396545 229.454727,799.503967 211.000397,799.588257 
	C199.640503,799.640137 188.922729,798.301147 180.008087,790.490784 
	C173.216278,784.540344 168.102936,773.202393 175.064514,763.044189 
	C176.905457,760.357971 176.423843,756.748474 179.000000,754.500000 
"/>
<path fill="none" opacity="1.000000" stroke="#000000" stroke-linecap="round" stroke-linejoin="round" stroke-width="11.000000"
	d="
M162.500000,471.500000 
	C148.891373,469.471161 135.219818,468.085724 121.509392,466.892120 
	C110.679367,465.949310 99.813354,465.689545 89.017334,464.791626 
	C74.153793,463.555420 59.325089,463.990967 44.501522,464.145691 
	C31.494240,464.281464 18.500000,465.666656 5.500000,466.500000 
"/>
<path fill="none" opacity="1.000000" stroke="#000000" stroke-linecap="round" stroke-linejoin="round" stroke-width="9.000000"
	d="
M1063.750000,411.500000 
	C1065.722290,406.411530 1062.256958,402.086060 1060.696289,398.119507 
	C1052.460449,377.187012 1037.428589,362.593597 1014.944580,358.831024 
	C998.149536,356.020477 981.705811,359.266296 967.974548,370.970123 
	C958.289124,379.225494 950.855957,388.803650 947.923523,401.482330 
	C947.470276,403.442139 946.000061,405.166687 945.000061,407.000031 
"/>
<path fill="none" opacity="1.000000" stroke="#000000" stroke-linecap="round" stroke-linejoin="round" stroke-width="11.000000"
	d="
M411.000000,448.000000 
	C406.309631,444.275848 400.944580,442.946106 394.999908,442.961121 
	C362.666779,443.042969 330.333252,443.037384 298.000122,442.951630 
	C294.060028,442.941193 290.585052,443.912994 286.941467,445.351807 
	C283.186249,446.834717 280.484833,442.027527 276.494995,442.453003 
	C272.685852,442.859161 268.799011,442.044098 265.000000,443.000000 
"/>
<path fill="none" opacity="1.000000" stroke="#000000" stroke-linecap="round" stroke-linejoin="round" stroke-width="7.000000"
	d="
M423.000000,796.750000 
	C430.265900,797.385986 437.437897,796.273071 444.478149,794.888916 
	C452.488708,793.313904 460.662994,792.106995 468.068115,788.126709 
	C469.355286,787.434814 470.822906,786.741028 471.937317,785.915405 
	C477.088867,782.098999 476.752136,776.886902 471.515106,772.979736 
	C465.392731,768.411987 458.173706,766.550537 450.973206,765.136475 
	C443.594116,763.687439 436.007294,763.255432 428.495056,762.552795 
	C426.527832,762.368896 424.500000,762.833313 422.500000,762.999939 
"/>
<path fill="none" opacity="1.000000" stroke="#000000" stroke-linecap="round" stroke-linejoin="round" stroke-width="10.000000"
	d="
M797.000000,637.000000 
	C799.782532,639.950378 800.174011,643.924561 801.511169,647.495850 
	C801.833679,648.357178 802.426392,649.086609 801.513672,650.013428 
	C796.735107,654.865967 796.256775,661.708862 793.598633,667.544922 
	C781.118286,694.946411 760.256165,712.205261 731.539734,720.635376 
	C726.698059,722.056763 721.591797,722.478821 716.925842,724.854309 
	C714.234497,726.224426 711.184875,723.652039 707.991577,723.883545 
	C699.862000,724.472717 691.869629,723.194214 683.992188,721.028381 
	C670.707336,717.375610 659.014587,711.941528 649.609436,700.830627 
	C644.806763,695.156921 639.885803,690.170410 637.459473,683.013733 
	C633.805176,672.234619 633.438110,661.485779 636.375671,650.466858 
	C637.032349,648.003601 637.878845,645.231995 637.000000,642.500000 
"/>
<path fill="none" opacity="1.000000" stroke="#000000" stroke-linecap="round" stroke-linejoin="round" stroke-width="11.000000"
	d="
M814.500000,387.250000 
	C811.123718,385.616455 808.029846,385.911621 804.441284,387.353912 
	C799.103821,389.499146 792.993286,389.463898 787.451782,389.949188 
	C782.345215,390.396454 776.827332,390.087585 771.501099,390.514038 
	C755.331360,391.808685 739.162964,393.123474 723.001343,394.515320 
	C712.327698,395.434540 701.668091,396.515533 690.998596,397.484406 
	C689.266052,397.641724 687.646851,397.069336 685.968323,396.617676 
	C684.451599,396.209564 682.758545,395.388000 680.982117,396.470673 
	C676.352173,399.292542 671.137451,398.991455 666.000000,399.000000 
"/>
<path fill="none" opacity="1.000000" stroke="#000000" stroke-linecap="round" stroke-linejoin="round" stroke-width="11.000000"
	d="
M1089.500000,666.500000 
	C1087.099121,660.804077 1087.744995,654.052551 1083.483154,649.014221 
	C1082.523804,647.880127 1083.068237,646.657837 1083.036743,645.499023 
	C1082.937378,641.835022 1083.095947,638.163574 1082.978027,634.500732 
	C1082.791504,628.716003 1080.148193,626.115723 1074.502441,625.478455 
	C1055.550903,623.339233 1036.522827,622.229675 1017.503174,620.952698 
	C1006.485718,620.212952 995.364075,617.453857 984.535645,618.405579 
	C972.023376,619.505432 960.290222,615.087646 947.989990,615.835388 
	C943.359619,616.116882 939.363464,612.578064 935.045471,610.884155 
	C927.894409,608.079102 920.709961,605.863159 913.001892,605.463928 
	C911.322388,605.376953 909.581482,605.052795 908.020630,604.446899 
	C905.853394,603.605774 904.309204,604.445801 902.469727,605.444214 
	C897.088501,608.364563 891.421021,610.766968 886.461670,614.705383 
	C881.424622,610.161499 874.590210,608.813293 869.751038,604.707581 
	C871.530212,595.869141 871.767578,587.203857 870.000366,578.499939 
	C869.831299,577.667114 869.334412,576.733459 869.550293,576.015137 
	C872.423645,566.452454 870.940796,556.688477 870.976257,546.999939 
	C870.981140,545.667236 871.117126,543.988464 870.411987,543.067322 
	C868.599365,540.699158 869.485718,538.719360 870.475647,536.489197 
	C872.627930,531.640198 872.174255,526.257080 871.231689,521.553772 
	C869.765442,514.237549 871.393921,507.162750 871.023743,499.998779 
	C870.875671,497.133240 871.167908,494.325195 871.927429,491.480621 
	C873.371704,486.071014 875.590393,483.855530 880.995850,482.974548 
	C885.554260,482.231659 889.997986,482.614563 894.508423,483.454742 
	C901.157288,484.693237 903.178528,488.235901 903.610474,492.989960 
	C903.776978,494.823273 904.058899,496.669342 903.971680,498.498657 
	C903.534546,507.668243 905.731079,516.749023 904.206360,526.033875 
	C903.386719,531.025208 903.313599,536.404480 905.369324,541.552185 
	C906.369324,544.056335 903.789978,546.585571 903.901367,549.503784 
	C904.193665,557.159302 904.052124,564.833923 903.963806,572.499573 
	C903.941406,574.444336 904.158630,576.316711 905.057617,577.968628 
	C905.628479,579.017639 905.961853,579.798584 905.530334,581.010803 
	C902.887085,588.435547 904.792480,595.991699 905.000000,603.500000 
"/>
<path fill="none" opacity="1.000000" stroke="#000000" stroke-linecap="round" stroke-linejoin="round" stroke-width="7.000000"
	d="
M290.500000,777.500000 
	C291.849396,783.673523 297.153412,785.544067 302.035492,786.869263 
	C318.921051,791.452881 336.141968,791.729858 353.508331,790.088013 
	C362.383240,789.248962 371.252655,788.770630 379.486359,784.970459 
	C382.383850,783.633240 385.649994,782.590942 386.750000,779.000000 
"/>
<path fill="none" opacity="1.000000" stroke="#000000" stroke-linecap="round" stroke-linejoin="round" stroke-width="7.000000"
	d="
M264.500000,800.500000 
	C260.718323,800.585571 260.297668,804.811157 257.125214,806.271912 
	C252.036819,808.614868 246.773193,810.043091 241.476700,810.846375 
	C231.390366,812.376099 221.171890,813.751099 210.998764,813.821655 
	C196.227417,813.924194 181.498688,812.555664 168.000000,805.500000 
"/>
<path fill="none" opacity="1.000000" stroke="#000000" stroke-linecap="round" stroke-linejoin="round" stroke-width="10.000000"
	d="
M1013.000000,716.000000 
	C1015.865295,714.021484 1019.420776,713.978394 1022.517639,713.688110 
	C1034.725098,712.544189 1042.746094,697.920410 1036.493774,685.002991 
	C1034.730347,681.359802 1033.802124,677.666565 1033.265869,673.530334 
	C1032.061279,664.239136 1022.001526,653.174072 1009.503967,654.055969 
	C1007.356628,654.207458 1005.362976,655.168030 1003.463562,656.445801 
	C998.609680,659.710999 994.419678,658.114014 992.502869,652.499023 
	C989.928345,644.957031 987.259338,637.631653 981.135193,631.856628 
	C978.096069,628.990723 977.559448,624.257935 977.000000,620.000000 
"/>
<path fill="none" opacity="1.000000" stroke="#000000" stroke-linecap="round" stroke-linejoin="round" stroke-width="10.000000"
	d="
M162.500000,539.500000 
	C152.604126,539.884949 142.817032,541.334534 132.999176,542.492981 
	C115.835480,544.518188 98.669899,546.528503 81.497673,548.479492 
	C77.346710,548.951111 73.166664,549.166626 69.000000,549.500000 
"/>
<path fill="none" opacity="1.000000" stroke="#000000" stroke-linecap="round" stroke-linejoin="round" stroke-width="10.000000"
	d="
M162.500000,577.500000 
	C135.333328,580.666626 108.148163,583.688660 81.020233,587.158203 
	C77.018417,587.670044 72.923134,587.385071 69.000000,588.500000 
"/>
<path fill="none" opacity="1.000000" stroke="#000000" stroke-linecap="round" stroke-linejoin="round" stroke-width="11.000000"
	d="
M162.000000,514.000000 
	C158.333328,512.943848 154.589417,513.776794 151.012711,514.129089 
	C129.986862,516.199890 109.000916,518.674927 87.999443,520.994995 
	C81.669701,521.694153 75.333336,522.333313 69.000000,523.000000 
"/>
<path fill="none" opacity="1.000000" stroke="#000000" stroke-linecap="round" stroke-linejoin="round" stroke-width="9.000000"
	d="
M419.000000,448.000000 
	C429.119934,461.280060 436.944458,476.035431 445.977325,490.014648 
	C455.412079,504.615784 464.299805,519.583435 474.086914,533.940735 
	C488.369812,554.893250 501.135803,576.792786 514.982605,598.011353 
	C520.920166,607.109985 526.690674,616.318176 532.485046,625.509460 
	C534.174438,628.189331 536.466248,630.200439 539.000000,632.000000 
"/>
<path fill="none" opacity="1.000000" stroke="#000000" stroke-linecap="round" stroke-linejoin="round" stroke-width="9.000000"
	d="
M1000.500000,659.000000 
	C1002.157166,662.515259 1004.751099,665.385620 1006.967468,668.522949 
	C1014.270874,678.860718 1015.801025,690.016174 1011.541260,702.014648 
	C1010.015625,706.311646 1008.651672,709.881287 1011.673462,715.186035 
	C1020.097046,729.973633 1013.164246,751.815491 998.508789,761.014038 
	C996.279053,762.413513 994.273010,764.196472 991.969238,765.443237 
	C989.783569,766.626099 989.436523,768.385254 989.500122,770.500000 
	C989.781921,779.865112 986.117798,787.638184 980.027771,794.524536 
	C977.287903,797.622681 972.695679,799.495300 971.750366,803.558228 
	C971.043396,806.596375 971.726685,810.145935 971.622009,813.503784 
	C971.274109,824.665283 968.271362,835.151184 964.492310,845.497192 
	C961.869995,852.676086 958.963745,854.869324 951.998840,854.523193 
	C949.172546,854.382690 946.332764,854.464844 943.500122,854.507690 
	C938.374329,854.585266 935.402039,851.622437 932.902283,847.560120 
	C932.150146,846.337952 932.769592,845.702637 933.048950,845.020020 
	C936.136230,837.473633 936.534912,829.373291 937.940247,821.489380 
	C938.292664,819.512573 937.903076,817.507812 937.081726,815.467102 
	C934.630615,809.377197 939.559998,802.575928 947.454224,804.219910 
	C953.426147,805.463562 958.901001,804.728882 964.479431,803.412903 
	C966.702759,802.888489 968.823608,803.040344 971.000000,803.000000 
"/>
<path fill="none" opacity="1.000000" stroke="#000000" stroke-linecap="round" stroke-linejoin="round" stroke-width="9.000000"
	d="
M479.000000,543.000000 
	C472.536499,548.009338 469.277130,555.388123 465.016632,562.010681 
	C451.250061,583.409546 437.942535,605.092163 424.952484,626.971802 
	C423.640167,629.182190 421.666656,631.000000 420.000000,633.000000 
"/>
<path fill="none" opacity="1.000000" stroke="#000000" stroke-linecap="round" stroke-linejoin="round" stroke-width="8.000000"
	d="
M368.000000,239.000000 
	C370.777985,246.743896 378.093719,250.321121 383.620026,255.368591 
	C398.097504,268.591553 413.079712,281.269165 428.037903,293.955322 
	C435.164673,299.999603 441.850800,306.569824 449.480255,312.027588 
	C451.749115,313.650635 453.175903,316.069824 454.500000,318.500000 
"/>
<path fill="none" opacity="1.000000" stroke="#000000" stroke-linecap="round" stroke-linejoin="round" stroke-width="9.000000"
	d="
M409.500000,451.000000 
	C404.156494,453.656494 400.616180,458.101929 397.493286,462.995697 
	C382.845764,485.949585 368.353180,509.003510 353.042938,531.529175 
	C351.490906,533.812683 349.800537,535.927979 348.032928,538.027710 
	C346.316467,540.066711 346.425598,542.340332 348.001495,544.498901 
	C363.946075,566.338867 377.403137,589.788147 392.058502,612.462219 
	C396.395294,619.171875 399.863983,626.554932 406.000000,632.000000 
"/>
<path fill="none" opacity="1.000000" stroke="#000000" stroke-linecap="round" stroke-linejoin="round" stroke-width="9.000000"
	d="
M286.000000,451.500000 
	C291.986023,454.234650 294.799316,459.947449 297.902374,465.059265 
	C310.936096,486.530426 324.879028,507.410522 338.504547,528.497070 
	C340.898163,532.201477 342.853943,536.246216 346.500000,539.000000 
"/>
<path fill="none" opacity="1.000000" stroke="#000000" stroke-linecap="round" stroke-linejoin="round" stroke-width="8.000000"
	d="
M347.000000,544.000000 
	C339.988678,549.158203 336.606079,557.122375 332.144958,564.092773 
	C319.135498,584.419739 307.133636,605.385254 293.128754,625.091492 
	C291.662598,627.154541 290.076263,629.057190 288.500000,631.000000 
"/>
<path fill="none" opacity="1.000000" stroke="#000000" stroke-linecap="round" stroke-linejoin="round" stroke-width="9.000000"
	d="
M539.500000,452.500000 
	C531.285950,455.634216 528.352966,463.528564 524.067139,470.044189 
	C510.551788,490.591064 497.356903,511.348633 483.965149,531.977356 
	C482.557617,534.145569 480.666687,536.000000 479.000031,538.000000 
"/>
<path fill="none" opacity="1.000000" stroke="#000000" stroke-linecap="round" stroke-linejoin="round" stroke-width="11.000000"
	d="
M159.000000,610.500000 
	C165.048630,617.110474 165.332779,625.283447 164.931091,633.496643 
	C164.678284,638.665771 165.314224,639.955750 170.500076,639.967468 
	C200.166595,640.034485 229.834702,640.134216 259.498230,639.829041 
	C263.177795,639.791199 266.851318,639.825317 270.495758,640.064636 
	C275.848663,640.416138 280.715271,639.276306 285.250000,636.500000 
"/>
<path fill="none" opacity="1.000000" stroke="#000000" stroke-linecap="round" stroke-linejoin="round" stroke-width="10.000000"
	d="
M71.500000,619.500000 
	C67.796242,614.990479 65.879410,609.942444 66.472343,603.997253 
	C66.971031,598.997070 65.761314,593.930969 67.850609,588.937500 
	C68.788597,586.695679 66.295456,584.269714 66.396866,581.496216 
	C66.688995,573.506897 65.931137,565.445068 66.696701,557.518982 
	C67.221413,552.086548 67.148521,546.900879 66.743095,541.481812 
	C66.299850,535.557190 65.203491,529.334534 68.321426,523.406067 
	C69.309311,521.527649 66.274055,519.180786 66.437263,516.496216 
	C66.679550,512.510925 66.529190,508.499725 66.493347,504.500061 
	C66.435638,498.059875 63.126076,493.383728 56.981575,492.655426 
	C52.744205,492.153198 48.418594,491.475342 43.980263,492.405853 
	C37.110069,493.846191 33.771252,497.522705 33.457916,504.498108 
	C33.112621,512.184998 34.764641,520.008484 31.661863,527.566467 
	C31.172455,528.758545 33.341923,530.813354 33.408291,532.503601 
	C33.643501,538.494385 34.738827,544.868164 33.100418,550.381226 
	C31.833902,554.642944 33.703327,557.820374 33.580002,561.502686 
	C33.317955,569.327209 33.265114,577.176453 33.590168,584.996277 
	C33.778084,589.516907 31.294380,593.656311 33.210712,598.611877 
	C34.668427,602.381470 33.314297,607.176636 33.546299,611.497498 
	C33.846416,617.087097 31.903294,621.646545 28.000000,625.500000 
"/>
<path fill="none" opacity="1.000000" stroke="#000000" stroke-linecap="round" stroke-linejoin="round" stroke-width="10.000000"
	d="
M787.500000,535.000000 
	C782.604309,536.641418 777.636169,534.985413 773.056213,534.180298 
	C766.751160,533.071960 761.155090,533.764038 755.515076,536.037476 
	C752.502930,537.251648 749.887756,537.385559 746.969971,535.547668 
	C735.036560,528.030884 723.411560,528.724548 711.952026,536.933044 
	C708.264954,539.574036 706.563538,543.440430 704.660400,547.083801 
	C703.447510,549.405579 702.178223,551.711548 699.964966,552.384888 
	C691.262573,555.032227 685.915222,560.900940 682.471680,568.987915 
	C681.206848,571.958313 679.783386,574.098572 675.453918,573.229492 
	C671.987671,572.533691 668.091248,574.545593 664.483948,572.528687 
	C664.103027,572.315674 663.318359,572.285156 663.026733,572.531616 
	C656.931519,577.683655 648.481323,577.218384 641.924988,581.381836 
	C640.521484,582.273071 638.841125,583.005371 637.540588,584.050476 
	C633.004333,587.695557 632.612366,592.553589 636.525940,596.977051 
	C640.708069,601.703857 645.603882,605.517517 651.478638,608.049561 
	C653.542725,608.939148 655.520752,610.179871 657.000000,612.000000 
"/>
<path fill="none" opacity="1.000000" stroke="#000000" stroke-linecap="round" stroke-linejoin="round" stroke-width="11.000000"
	d="
M791.000000,509.500000 
	C806.162842,510.116455 821.367920,510.314880 836.480591,511.298370 
	C847.316956,512.003540 858.260620,510.806915 869.000000,513.000000 
"/>
<path fill="none" opacity="1.000000" stroke="#000000" stroke-linecap="round" stroke-linejoin="round" stroke-width="11.000000"
	d="
M868.500000,540.000000 
	C866.442139,538.959290 864.223999,538.980713 862.000000,538.997009 
	C840.628174,539.154175 819.340454,537.140686 797.998535,536.553589 
	C795.676147,536.489685 793.333313,537.166687 791.000000,537.500000 
"/>
<path fill="none" opacity="1.000000" stroke="#000000" stroke-linecap="round" stroke-linejoin="round" stroke-width="10.000000"
	d="
M764.500000,797.500000 
	C761.696289,810.393799 759.400574,823.416016 758.221985,836.519958 
	C757.557129,843.912781 760.858459,847.057007 770.496643,848.033203 
	C777.253906,848.717651 782.968384,845.555298 789.000000,843.500000 
"/>
<path fill="none" opacity="1.000000" stroke="#000000" stroke-linecap="round" stroke-linejoin="round" stroke-width="12.000000"
	d="
M788.000000,391.500000 
	C788.801270,393.103210 788.486816,394.825562 788.488342,396.500000 
	C788.506470,416.333344 788.194153,436.173828 788.658875,455.996277 
	C788.831360,463.352661 788.465149,470.666565 788.493713,478.000031 
	C788.522339,485.333252 788.539001,492.666962 788.480957,499.999847 
	C788.457458,502.971375 788.284790,506.017212 789.638245,508.679749 
	C790.008240,509.407501 790.284973,509.904572 789.977417,510.488098 
	C787.291443,515.584717 789.136719,521.206482 788.060547,526.512268 
	C786.665771,533.388977 790.205200,539.198914 793.087708,544.956116 
	C795.197998,549.170776 797.720276,553.256836 797.891357,558.003906 
	C798.036499,562.032959 801.425232,562.974060 803.532471,563.265137 
	C809.538635,564.094788 813.815857,567.289856 817.442139,571.549255 
	C820.738647,575.421265 823.919861,577.309204 829.549133,576.264648 
	C835.158325,575.223816 841.188293,576.076538 846.994568,576.564697 
	C854.350342,577.183167 861.666687,577.213196 869.000000,576.500000 
"/>
<path fill="none" opacity="1.000000" stroke="#000000" stroke-linecap="round" stroke-linejoin="round" stroke-width="7.000000"
	d="
M137.500000,764.500000 
	C128.627853,764.607910 120.403366,767.721191 112.007912,770.028809 
	C111.612808,770.137329 111.391014,770.781860 110.991043,770.982056 
	C107.273926,772.842834 103.072182,774.201904 102.992950,779.499878 
	C102.916130,784.636047 106.999153,786.196289 110.526352,787.946899 
	C118.384193,791.847046 126.621628,794.613220 135.500000,795.000000 
"/>
<path fill="none" opacity="1.000000" stroke="#000000" stroke-linecap="round" stroke-linejoin="round" stroke-width="10.000000"
	d="
M825.500000,807.500000 
	C825.547913,809.188110 825.610657,810.877747 824.095703,813.215393 
	C825.466492,814.193176 826.828491,814.990234 827.980469,816.021790 
	C830.574707,818.344543 830.704224,820.597168 829.193298,824.083740 
	C826.653625,829.944336 825.366699,836.343567 823.478394,842.493408 
	C822.953308,844.203552 822.168640,845.834106 821.499695,847.499878 
	C819.585205,852.266907 816.658325,855.718384 811.000061,855.760559 
	C807.499634,855.786682 803.976501,856.212219 800.505066,855.936279 
	C793.992981,855.418640 788.360596,846.798096 789.970703,840.492493 
	C791.647461,833.925720 792.590332,827.214966 793.706055,820.534424 
	C794.147461,817.891846 793.280762,816.036682 791.918213,815.121765 
	C785.482971,810.800659 780.002441,805.648560 776.023682,798.985840 
	C774.831177,796.988953 773.021362,796.110840 771.014648,796.564636 
	C764.324036,798.077515 759.275208,794.449463 754.005981,791.489380 
	C742.043823,784.769287 734.263672,773.458252 736.564941,757.036621 
	C724.467285,750.383728 717.350037,740.068481 716.000000,726.000000 
"/>
<path fill="none" opacity="1.000000" stroke="#000000" stroke-linecap="round" stroke-linejoin="round" stroke-width="11.000000"
	d="
M1119.000000,561.500000 
	C1124.333374,561.500000 1129.667236,561.552246 1134.999756,561.484009 
	C1139.565430,561.425659 1141.488281,559.537354 1142.011230,555.001282 
	C1142.530518,550.495422 1142.836548,546.023560 1142.033936,541.493958 
	C1141.062500,536.012207 1139.495972,534.334534 1133.998657,534.024353 
	C1129.005127,533.742615 1124.000000,533.666626 1119.000000,533.499939 
"/>
<path fill="none" opacity="1.000000" stroke="#000000" stroke-linecap="round" stroke-linejoin="round" stroke-width="10.000000"
	d="
M1121.000000,630.000000 
	C1117.680054,625.546021 1116.357788,620.653442 1116.354492,615.000061 
	C1116.350952,608.904114 1118.847412,602.817322 1117.712158,597.056702 
	C1116.512451,590.969055 1116.564697,585.013916 1116.576782,579.000183 
	C1116.587891,573.463745 1115.324341,567.702332 1118.470947,562.482483 
	C1118.692017,562.115784 1118.661621,561.428162 1118.475952,561.010681 
	C1115.438232,554.179321 1116.072754,546.959839 1117.148560,540.023071 
	C1118.719482,529.894775 1115.671021,520.066895 1116.294189,509.987274 
	C1116.779663,502.140137 1110.675171,497.970367 1101.000122,498.022766 
	C1098.832642,498.034485 1096.626099,498.124817 1094.507202,498.537201 
	C1086.692017,500.058197 1083.666992,504.195892 1083.443237,512.498474 
	C1083.285278,518.364319 1084.853027,524.473694 1081.500000,530.000000 
"/>
<path fill="none" opacity="1.000000" stroke="#000000" stroke-linecap="round" stroke-linejoin="round" stroke-width="10.000000"
	d="
M802.500000,649.500000 
	C807.997009,650.219910 810.326965,655.378235 814.407410,658.136902 
	C825.851501,665.873840 838.170715,670.154053 852.000000,670.000183 
	C852.166687,669.998352 852.334534,670.013245 852.499817,669.998108 
	C863.346130,669.006226 867.506531,664.586060 861.796997,654.110657 
	C856.240112,643.915283 849.227783,634.588379 840.129333,626.848022 
	C834.119019,621.734985 827.653442,617.588745 821.080383,613.374634 
	C815.686096,609.916260 810.970032,612.881592 806.018799,613.625122 
	C804.587891,613.840027 804.341309,615.970459 804.517334,617.497986 
	C805.395630,625.118958 799.945374,630.236450 796.771667,636.126953 
	C795.663635,638.183411 791.591492,637.980469 788.937500,638.796814 
	C780.402527,641.422058 771.729919,642.041077 763.999207,636.001038 
	C760.255920,633.076355 756.848633,629.820557 753.988892,626.008362 
	C753.568848,625.448364 753.000000,625.000000 752.500000,624.500000 
"/>
<path fill="none" opacity="1.000000" stroke="#000000" stroke-linecap="round" stroke-linejoin="round" stroke-width="11.000000"
	d="
M30.999996,527.999939 
	C26.666662,528.333313 22.325193,528.585815 18.002117,529.020996 
	C12.928529,529.531677 9.242243,531.345947 9.499857,537.500000 
	C9.667295,541.500000 9.560712,545.535156 10.070772,549.490845 
	C10.673808,554.167725 13.046008,555.969360 18.000021,555.973206 
	C22.541832,555.976685 27.055460,555.499146 31.500000,554.500000 
"/>
<path fill="none" opacity="1.000000" stroke="#000000" stroke-linecap="round" stroke-linejoin="round" stroke-width="9.000000"
	d="
M898.500000,439.500000 
	C898.875732,435.798004 896.587402,433.989868 893.488647,433.587128 
	C889.024109,433.006866 885.004822,431.048401 880.534729,430.294128 
	C867.733826,428.134064 853.948792,433.722717 846.909851,444.440765 
	C844.421631,448.229523 844.080322,451.890778 845.000000,456.000000 
"/>
<path fill="none" opacity="1.000000" stroke="#000000" stroke-linecap="round" stroke-linejoin="round" stroke-width="9.000000"
	d="
M1098.500000,440.750000 
	C1105.097656,437.852417 1112.088989,438.455109 1118.999878,438.518982 
	C1129.271729,438.613892 1141.115112,446.534485 1144.489624,455.503906 
	C1146.530029,460.927338 1146.412842,466.452148 1145.000000,472.000000 
"/>
<path fill="none" opacity="1.000000" stroke="#000000" stroke-linecap="round" stroke-linejoin="round" stroke-width="9.000000"
	d="
M946.500000,411.500000 
	C946.642639,409.640289 946.522644,407.607849 944.482788,407.064575 
	C939.368164,405.702393 934.155029,403.670776 929.002686,403.731232 
	C921.090088,403.824097 913.619629,406.246185 907.440735,411.935608 
	C902.447571,416.533264 899.964478,422.312408 898.010986,428.503479 
	C897.439575,430.314270 897.000000,432.166656 896.500000,434.000000 
"/>
<path fill="none" opacity="1.000000" stroke="#000000" stroke-linecap="round" stroke-linejoin="round" stroke-width="9.000000"
	d="
M1103.000000,438.500000 
	C1100.537476,434.325012 1101.775635,429.270630 1099.949829,425.021576 
	C1093.864258,410.859497 1085.224609,406.458496 1068.515625,408.620789 
	C1067.359009,408.770447 1066.152466,408.733826 1065.000000,409.000000 
"/>
<path fill="none" opacity="1.000000" stroke="#000000" stroke-linecap="round" stroke-linejoin="round" stroke-width="11.000000"
	d="
M1134.500000,629.000000 
	C1141.922485,624.889893 1142.420532,617.946045 1142.608032,610.502747 
	C1142.805420,602.667969 1141.635132,599.229065 1131.000244,598.987671 
	C1126.998535,598.896912 1123.000000,598.666687 1119.000000,598.500000 
"/>
<path fill="none" opacity="1.000000" stroke="#000000" stroke-linecap="round" stroke-linejoin="round" stroke-width="10.000000"
	d="
M935.500000,812.500000 
	C932.595154,812.799194 930.118896,813.930176 927.984802,815.984192 
	C922.272461,821.482483 914.445801,824.133972 907.476501,824.412292 
	C900.665771,824.684204 892.872253,822.848755 886.467041,818.549072 
	C882.579407,815.939209 878.948059,816.175964 874.919189,819.398987 
	C863.948730,828.174988 851.581543,827.847534 839.030396,823.413940 
	C836.372620,822.475159 833.753662,821.554932 831.000000,821.000000 
"/>
<path fill="none" opacity="1.000000" stroke="#000000" stroke-linecap="round" stroke-linejoin="round" stroke-width="9.000000"
	d="
M711.250000,599.500000 
	C709.860107,605.155945 712.829041,609.850037 715.658142,613.889221 
	C721.934021,622.849609 730.981018,626.561401 742.003174,625.022583 
	C744.314697,624.699890 746.679626,624.767395 748.996155,624.470215 
	C751.102112,624.200012 753.137817,623.629517 753.500000,621.000000 
"/>
<path fill="none" opacity="1.000000" stroke="#000000" stroke-linecap="round" stroke-linejoin="round" stroke-width="15.000000"
	d="
M907.000000,825.500000 
	C906.909790,829.336670 906.971741,833.159668 906.577332,837.007935 
	C905.921021,843.411438 908.722168,846.417664 914.990417,847.552856 
	C920.745056,848.595032 926.338989,847.359436 932.000000,847.000000 
"/>
<path fill="none" opacity="1.000000" stroke="#000000" stroke-linecap="round" stroke-linejoin="round" stroke-width="7.000000"
	d="
M683.500000,671.000000 
	C684.310547,668.742432 682.642761,667.187012 681.430603,666.075684 
	C674.641541,659.851562 667.130310,654.831909 658.023132,652.412964 
	C654.664551,651.520996 653.198608,652.881348 651.997925,655.499084 
	C649.289551,661.404114 652.288757,673.530579 657.513794,677.481750 
	C658.961487,678.576355 660.761902,678.533081 662.500000,678.498657 
	C670.225769,678.345581 677.254578,676.096985 683.500000,671.500000 
"/>
<path fill="none" opacity="1.000000" stroke="#000000" stroke-linecap="round" stroke-linejoin="round" stroke-width="9.000000"
	d="
M347.000031,713.500000 
	C344.711060,719.118042 342.422058,724.736023 340.142548,730.330750 
	C351.564758,737.489075 363.621948,739.703003 376.500977,738.007324 
	C378.512299,737.742493 380.573639,737.482605 381.500000,740.000000 
"/>
<path fill="none" opacity="1.000000" stroke="#000000" stroke-linecap="round" stroke-linejoin="round" stroke-width="9.000000"
	d="
M212.500000,716.000000 
	C212.578171,718.813782 213.505997,721.438416 214.528183,723.988708 
	C217.910583,732.427551 217.327759,740.591370 212.963120,748.479614 
	C211.985001,750.247314 210.831161,751.862854 211.000000,754.000000 
"/>
<path fill="none" opacity="1.000000" stroke="#000000" stroke-linecap="round" stroke-linejoin="round" stroke-width="9.000000"
	d="
M31.000004,593.500061 
	C25.166672,594.000061 19.312195,594.337158 13.511686,595.090088 
	C11.531735,595.347107 9.127567,595.684204 8.474258,598.494019 
	C6.484528,607.051941 4.835067,615.526978 11.500000,623.000000 
"/>
<path fill="none" opacity="1.000000" stroke="#000000" stroke-linecap="round" stroke-linejoin="round" stroke-width="9.000000"
	d="
M824.500000,813.000000 
	C818.727844,814.101562 813.402039,816.920044 807.498474,817.484009 
	C803.179260,817.896606 798.784180,816.554932 794.500000,818.000000 
"/>
<path fill="none" opacity="1.000000" stroke="#000000" stroke-linecap="round" stroke-linejoin="round" stroke-width="9.000000"
	d="
M276.500000,714.000000 
	C278.387482,721.328674 284.232178,725.769409 293.505554,726.420959 
	C296.474243,726.629578 299.660797,727.280396 302.500000,725.500000 
"/>
<path fill="none" opacity="1.000000" stroke="#000000" stroke-linecap="round" stroke-linejoin="round" stroke-width="5.000000"
	d="
M15.000000,596.000000 
	C15.164653,605.701294 14.137800,615.484741 17.000000,625.000000 
"/>
<path fill="none" opacity="1.000000" stroke="#000000" stroke-linecap="round" stroke-linejoin="round" stroke-width="9.000000"
	d="
M168.500000,720.000000 
	C169.826797,728.286743 164.926300,731.866516 158.009140,734.029236 
	C155.949905,734.673096 153.880707,735.462524 152.026947,736.546082 
	C148.966248,738.335144 148.583771,740.997375 151.025558,743.474792 
	C154.559448,747.060486 159.134064,748.635803 164.005447,748.899109 
	C166.474274,749.032654 168.894836,749.544739 171.527267,749.223328 
	C174.647537,748.842468 176.692932,751.650757 178.000000,754.500000 
"/>
<path fill="none" opacity="1.000000" stroke="#000000" stroke-linecap="round" stroke-linejoin="round" stroke-width="7.000000"
	d="
M622.500000,838.000000 
	C628.233093,843.630981 628.497498,851.529541 630.999512,858.500183 
	C631.966980,861.195862 632.472473,864.136902 635.000000,866.000000 
"/>
<path fill="none" opacity="1.000000" stroke="#000000" stroke-linecap="round" stroke-linejoin="round" stroke-width="8.000000"
	d="
M75.500000,846.500000 
	C80.879028,851.509277 81.888885,858.658142 84.423462,865.030457 
	C85.455521,867.625183 85.933182,870.457397 88.022064,872.477173 
	C89.527710,873.932983 88.676788,875.394348 88.580750,877.004822 
	C88.368309,880.567444 87.922325,884.060303 87.000000,887.500000 
"/>
<path fill="none" opacity="1.000000" stroke="#000000" stroke-linecap="round" stroke-linejoin="round" stroke-width="6.000000"
	d="
M712.250000,693.000000 
	C707.964172,701.158325 700.764343,704.406738 691.999573,704.993347 
	C690.086060,705.121460 688.246887,704.885986 686.750000,703.500000 
"/>
<path fill="none" opacity="1.000000" stroke="#000000" stroke-linecap="round" stroke-linejoin="round" stroke-width="8.000000"
	d="
M623.000000,831.500000 
	C623.037781,834.693604 622.487854,837.174500 619.668091,839.688538 
	C616.123962,842.848450 614.880432,847.875488 613.486938,852.496094 
	C612.726440,855.018005 612.028442,857.588013 610.950745,859.977783 
	C609.591492,862.992188 609.007263,865.750061 610.384338,869.048279 
	C611.322632,871.295715 611.166687,874.000000 611.500000,876.500000 
"/>
<path fill="none" opacity="1.000000" stroke="#000000" stroke-linecap="round" stroke-linejoin="round" stroke-width="7.000000"
	d="
M75.500000,840.500000 
	C75.744759,843.784180 75.167160,846.244934 72.160461,848.696777 
	C68.966782,851.301208 68.257263,855.998962 67.022820,860.007019 
	C65.781212,864.038330 65.263657,868.361023 62.000000,871.500000 
"/>
<path fill="none" opacity="1.000000" stroke="#000000" stroke-linecap="round" stroke-linejoin="round" stroke-width="8.000000"
	d="
M586.500000,852.000000 
	C586.283447,855.405518 587.947937,858.082336 589.320923,861.081970 
	C591.782410,866.460205 593.819031,872.122253 595.000000,878.000000 
"/>
<path fill="none" opacity="1.000000" stroke="#000000" stroke-linecap="round" stroke-linejoin="round" stroke-width="6.000000"
	d="
M528.500000,685.000000 
	C535.597351,688.074951 543.885376,686.850159 550.616455,691.842957 
	C554.660095,694.842346 557.398865,699.262756 562.000000,701.500000 
"/>
<path fill="none" opacity="1.000000" stroke="#000000" stroke-linecap="round" stroke-linejoin="round" stroke-width="9.000000"
	d="
M680.000000,574.000000 
	C681.584961,579.811462 683.169983,585.622986 684.729126,591.339844 
	C691.916992,597.630127 700.100159,601.899597 710.000000,602.000000 
"/>
<path fill="none" opacity="1.000000" stroke="#000000" stroke-linecap="round" stroke-linejoin="round" stroke-width="8.000000"
	d="
M112.000000,861.000000 
	C113.081886,864.812134 110.656105,867.741821 109.514084,871.004944 
	C108.121460,874.984192 106.465111,878.926331 105.644600,883.028931 
	C105.186836,885.317566 104.339355,885.673889 102.500000,885.500000 
"/>
<path fill="none" opacity="1.000000" stroke="#000000" stroke-linecap="round" stroke-linejoin="round" stroke-width="8.000000"
	d="
M30.500000,856.500000 
	C36.619801,857.133301 38.295151,859.330933 40.655109,864.934692 
	C43.559734,871.831726 45.372917,879.045410 48.000000,886.000000 
"/>
<path fill="none" opacity="1.000000" stroke="#000000" stroke-linecap="round" stroke-linejoin="round" stroke-width="8.000000"
	d="
M657.500000,853.500000 
	C656.484070,861.339233 652.523376,868.175232 649.940674,875.479004 
	C649.592041,876.464905 649.219910,877.166687 650.000000,878.000000 
"/>
<path fill="none" opacity="1.000000" stroke="#000000" stroke-linecap="round" stroke-linejoin="round" stroke-width="12.000000"
	d="
M130.500000,395.250000 
	C134.061234,393.453613 137.261703,393.190247 141.583847,394.102875 
	C147.798843,395.415161 154.741516,395.521484 161.000000,392.500000 
"/>
<path fill="none" opacity="1.000000" stroke="#000000" stroke-linecap="round" stroke-linejoin="round" stroke-width="12.000000"
	d="
M869.000000,604.000000 
	C863.166687,604.994812 857.403687,602.898499 851.471130,603.812683 
	C848.373779,604.290039 845.483765,603.748352 843.450012,606.968445 
	C840.455811,611.709290 834.757446,613.968994 832.000000,619.000000 
"/>
<path fill="none" opacity="1.000000" stroke="#000000" stroke-linecap="round" stroke-linejoin="round" stroke-width="8.000000"
	d="
M1054.500000,836.500000 
	C1049.734863,839.081421 1049.212769,844.129395 1047.483276,848.493408 
	C1046.383911,851.267761 1046.203003,854.489685 1043.536499,856.547363 
	C1043.109619,856.876770 1042.825928,857.996643 1043.054443,858.473938 
	C1044.731079,861.974365 1044.025513,865.979065 1045.500000,869.500000 
"/>
<path fill="none" opacity="1.000000" stroke="#000000" stroke-linecap="round" stroke-linejoin="round" stroke-width="7.000000"
	d="
M1060.500000,767.500000 
	C1059.720703,769.819824 1060.980347,771.681091 1062.029053,773.483093 
	C1065.114380,778.785339 1066.243774,784.747314 1068.000000,790.500000 
"/>
<path fill="none" opacity="1.000000" stroke="#000000" stroke-linecap="round" stroke-linejoin="round" stroke-width="7.000000"
	d="
M1055.000000,832.000000 
	C1053.950195,834.387451 1054.556152,836.069763 1056.398438,838.092529 
	C1059.281372,841.258179 1060.827026,845.344971 1062.010010,849.497131 
	C1062.905029,852.638489 1064.002075,855.694946 1066.500000,858.000000 
"/>
<path fill="none" opacity="1.000000" stroke="#000000" stroke-linecap="round" stroke-linejoin="round" stroke-width="7.000000"
	d="
M1088.500000,848.500000 
	C1087.989990,855.705078 1084.265015,861.866821 1081.922974,868.472717 
	C1081.672852,869.178223 1081.600708,869.816833 1081.500000,870.500000 
"/>
<path fill="none" opacity="1.000000" stroke="#000000" stroke-linecap="round" stroke-linejoin="round" stroke-width="8.000000"
	d="
M609.000000,863.500000 
	C604.550903,861.839111 602.270752,857.508606 598.511414,854.982971 
	C595.161133,852.732178 592.115967,849.909241 587.480103,851.439636 
	C585.859619,851.974670 584.695740,850.515198 583.476929,849.528503 
	C581.769348,848.146179 579.855042,847.101440 577.500000,847.500000 
"/>
<path fill="none" opacity="1.000000" stroke="#000000" stroke-linecap="round" stroke-linejoin="round" stroke-width="7.000000"
	d="
M589.500000,685.500000 
	C584.481995,688.779358 577.917725,686.469055 572.827026,690.796570 
	C569.079956,693.981812 566.161377,697.827576 562.568848,701.076172 
	C560.950439,702.539490 561.143555,704.914734 562.000000,707.000000 
"/>
<path fill="none" opacity="1.000000" stroke="#000000" stroke-linecap="round" stroke-linejoin="round" stroke-width="8.000000"
	d="
M118.500000,856.750000 
	C115.059830,858.664368 111.760696,860.343811 107.520126,860.724304 
	C102.299850,861.192749 98.861862,865.720581 95.003204,869.003784 
	C93.198341,870.539490 91.940063,872.741577 89.500000,873.500000 
"/>
<path fill="none" opacity="1.000000" stroke="#000000" stroke-linecap="round" stroke-linejoin="round" stroke-width="8.000000"
	d="
M64.500000,887.500000 
	C63.428436,881.348328 65.249603,874.604858 58.666634,869.772949 
	C55.409134,867.382019 52.461891,864.296997 48.981831,862.027893 
	C46.384026,860.333984 43.543163,859.549805 40.500000,861.000000 
"/>
<path fill="none" opacity="1.000000" stroke="#000000" stroke-linecap="round" stroke-linejoin="round" stroke-width="8.000000"
	d="
M663.000000,849.000000 
	C660.667358,851.418640 658.313660,853.718811 654.481140,852.043091 
	C654.122620,851.886292 653.507507,852.361694 652.998901,852.495789 
	C645.522827,854.467102 641.695251,861.207764 636.072144,865.592529 
	C633.780029,867.379883 633.414978,870.559509 633.518738,873.499329 
	C633.559875,874.666138 633.250000,875.638916 632.500000,876.500000 
"/>
<path fill="none" opacity="1.000000" stroke="#000000" stroke-linecap="round" stroke-linejoin="round" stroke-width="6.000000"
	d="
M657.000000,678.500000 
	C653.917847,681.725037 653.808777,686.050354 653.115051,690.020081 
	C652.507080,693.499390 651.542908,696.656189 649.500000,699.500000 
"/>
<path fill="none" opacity="1.000000" stroke="#000000" stroke-linecap="round" stroke-linejoin="round" stroke-width="6.000000"
	d="
M537.000000,688.500000 
	C536.338745,691.212708 537.762024,693.268982 538.945801,695.528381 
	C541.275818,699.975830 544.181763,704.238098 544.500000,709.500000 
"/>
<path fill="none" opacity="1.000000" stroke="#000000" stroke-linecap="round" stroke-linejoin="round" stroke-width="8.000000"
	d="
M1021.000000,848.000000 
	C1020.284607,850.743103 1021.452148,853.225037 1022.578430,855.460510 
	C1024.993652,860.254578 1026.361694,865.323914 1027.500000,870.500000 
"/>
<path fill="none" opacity="1.000000" stroke="#000000" stroke-linecap="round" stroke-linejoin="round" stroke-width="8.000000"
	d="
M1042.500000,857.000000 
	C1039.145630,855.531494 1036.313477,853.336182 1033.433350,851.085205 
	C1030.043823,848.436157 1026.526367,845.503723 1021.467407,847.413696 
	C1019.755310,848.060242 1019.127441,845.362793 1017.500000,845.000000 
"/>
<path fill="none" opacity="1.000000" stroke="#000000" stroke-linecap="round" stroke-linejoin="round" stroke-width="8.000000"
	d="
M1096.500000,844.500000 
	C1092.137085,845.371582 1088.630493,848.822449 1083.442017,847.792175 
	C1081.291504,847.365112 1078.424561,850.046082 1076.027832,851.544556 
	C1074.544800,852.471741 1073.514404,854.238037 1071.968628,854.929688 
	C1065.421997,857.859070 1064.727905,863.408875 1065.000000,869.500000 
"/>
<path fill="none" opacity="1.000000" stroke="#000000" stroke-linecap="round" stroke-linejoin="round" stroke-width="8.000000"
	d="
M446.000000,868.000000 
	C446.967133,872.902832 443.097229,876.249084 441.926361,880.479614 
	C441.190216,883.139526 439.522247,885.547241 440.000000,888.500000 
"/>
<path fill="none" opacity="1.000000" stroke="#000000" stroke-linecap="round" stroke-linejoin="round" stroke-width="8.000000"
	d="
M1081.500000,776.000000 
	C1077.960571,774.809204 1075.424927,772.106262 1072.512939,769.982178 
	C1069.210083,767.572998 1065.886841,765.590820 1061.490112,766.449158 
	C1059.409790,766.855347 1057.835083,765.496399 1056.500000,764.000000 
"/>
<path fill="none" opacity="1.000000" stroke="#000000" stroke-linecap="round" stroke-linejoin="round" stroke-width="7.000000"
	d="
M60.500000,673.500000 
	C56.805614,675.816711 55.881531,679.813232 54.524723,683.509094 
	C53.493114,686.319092 52.555916,689.133545 50.000000,691.000000 
"/>
<path fill="none" opacity="1.000000" stroke="#000000" stroke-linecap="round" stroke-linejoin="round" stroke-width="8.000000"
	d="
M1092.500000,757.000000 
	C1096.378906,760.098389 1097.687012,764.726013 1099.438477,769.025085 
	C1100.528320,771.700012 1101.220093,774.489441 1104.000000,776.000000 
"/>
<path fill="none" opacity="1.000000" stroke="#000000" stroke-linecap="round" stroke-linejoin="round" stroke-width="7.000000"
	d="
M1091.750000,752.500000 
	C1092.091431,754.627563 1091.745972,756.010315 1090.264893,758.180725 
	C1085.379883,765.339539 1080.357056,772.961792 1083.080078,782.477051 
	C1083.577393,784.215210 1083.229858,785.843689 1083.500000,787.500000 
"/>
<path fill="none" opacity="1.000000" stroke="#000000" stroke-linecap="round" stroke-linejoin="round" stroke-width="10.000000"
	d="
M817.000000,611.000000 
	C817.500000,609.500000 817.774292,607.869263 818.550415,606.529236 
	C819.866882,604.256226 821.368713,602.059143 823.033325,600.027283 
	C825.110596,597.491577 827.020081,600.218506 828.995667,600.527588 
	C834.441895,601.379517 840.308105,600.600891 845.000000,604.500000 
"/>
<path fill="none" opacity="1.000000" stroke="#000000" stroke-linecap="round" stroke-linejoin="round" stroke-width="7.000000"
	d="
M60.750000,670.500000 
	C60.922928,674.919373 64.940804,677.348145 66.314301,681.393311 
	C67.715736,685.520630 68.973755,690.236450 72.500000,693.500000 
"/>
<path fill="none" opacity="1.000000" stroke="#000000" stroke-linecap="round" stroke-linejoin="round" stroke-width="8.000000"
	d="
M416.000000,854.000000 
	C415.179474,855.333313 414.921600,856.959961 416.045471,857.948303 
	C420.481323,861.848999 421.730438,867.275818 423.547241,872.483521 
	C424.089355,874.037537 424.752930,875.726990 426.500000,876.500000 
"/>
<path fill="none" opacity="1.000000" stroke="#000000" stroke-linecap="round" stroke-linejoin="round" stroke-width="9.000000"
	d="
M560.000000,443.000000 
	C552.825134,441.262817 545.932190,441.136169 540.000000,446.500000 
"/>
<path fill="none" opacity="1.000000" stroke="#000000" stroke-linecap="round" stroke-linejoin="round" stroke-width="19.000000"
	d="
M6.000000,630.000000 
	C8.401728,630.538513 10.403275,629.259033 11.935371,627.925720 
	C15.986043,624.400696 20.453402,625.468567 25.005335,625.949524 
	C27.055347,626.166077 27.538675,627.150208 28.106777,628.966614 
	C28.945351,631.647766 29.651686,634.515747 28.867790,636.957581 
	C26.763029,643.513916 29.085537,648.994873 32.000000,654.500000 
"/>
<path fill="none" opacity="1.000000" stroke="#000000" stroke-linecap="round" stroke-linejoin="round" stroke-width="8.000000"
	d="
M408.000000,884.500000 
	C407.599945,879.073364 406.149658,874.517090 400.548065,871.897217 
	C395.838196,869.694519 392.149323,865.301514 385.961090,866.843933 
	C384.051331,867.320007 381.949188,864.775696 379.500000,865.500000 
"/>
<path fill="none" opacity="1.000000" stroke="#000000" stroke-linecap="round" stroke-linejoin="round" stroke-width="7.000000"
	d="
M452.500000,865.500000 
	C445.001068,867.492859 437.386475,867.679749 430.641541,873.590942 
	C425.602844,878.006714 425.997406,882.554382 425.000000,887.500000 
"/>
<path fill="none" opacity="1.000000" stroke="#000000" stroke-linecap="round" stroke-linejoin="round" stroke-width="8.000000"
	d="
M1102.000000,788.500000 
	C1101.442139,787.333313 1102.250488,786.186646 1102.229858,784.996033 
	C1102.181030,782.175110 1102.399658,778.206909 1104.186890,776.725525 
	C1108.404297,773.229919 1112.505981,769.158081 1118.016479,767.556824 
	C1119.836304,767.027954 1121.828125,767.278442 1123.500000,768.500000 
"/>
<path fill="none" opacity="1.000000" stroke="#000000" stroke-linecap="round" stroke-linejoin="round" stroke-width="7.000000"
	d="
M415.500000,858.000000 
	C411.725952,860.265930 411.115509,864.266113 409.992096,867.997620 
	C409.199890,870.629272 408.530579,873.350830 406.000000,875.000000 
"/>
<path fill="none" opacity="1.000000" stroke="#000000" stroke-linecap="round" stroke-linejoin="round" stroke-width="7.000000"
	d="
M98.500000,682.000000 
	C94.616936,681.947327 91.851112,683.096252 90.929573,687.485229 
	C89.769386,693.010864 86.294258,697.809509 85.500000,703.500000 
"/>
<path fill="none" opacity="1.000000" stroke="#000000" stroke-linecap="round" stroke-linejoin="round" stroke-width="7.000000"
	d="
M24.500000,680.500000 
	C28.653679,681.413879 31.953274,682.807373 32.642418,687.981018 
	C33.220695,692.322327 36.747475,695.858459 37.085762,700.493713 
	C37.144169,701.294006 38.485043,701.620728 39.500000,701.500000 
"/>
<path fill="none" opacity="1.000000" stroke="#000000" stroke-linecap="round" stroke-linejoin="round" stroke-width="7.000000"
	d="
M583.500000,688.500000 
	C583.990662,692.280518 581.657227,695.217896 580.481445,698.493347 
	C579.233948,701.968567 577.186646,705.173340 577.000000,709.000000 
"/>
<path fill="none" opacity="1.000000" stroke="#000000" stroke-linecap="round" stroke-linejoin="round" stroke-width="19.000000"
	d="
M1132.500000,630.500000 
	C1131.347534,630.233826 1130.167847,630.332336 1128.978394,630.122559 
	C1122.172729,628.922363 1117.458008,631.770569 1116.691650,638.521729 
	C1116.097778,643.753357 1113.634033,650.259766 1121.571167,653.257263 
	C1125.049316,652.787537 1128.195435,649.478699 1132.500000,649.500000 
"/>
<path fill="none" opacity="1.000000" stroke="#000000" stroke-linecap="round" stroke-linejoin="round" stroke-width="7.000000"
	d="
M91.000000,684.500000 
	C88.127663,683.187988 85.507820,683.956848 83.002243,685.503662 
	C79.344536,687.761536 76.715019,691.232605 73.195992,693.771667 
	C70.743248,695.541260 71.146957,700.062744 71.000000,703.500000 
"/>
<path fill="none" opacity="1.000000" stroke="#000000" stroke-linecap="round" stroke-linejoin="round" stroke-width="8.000000"
	d="
M1130.500000,764.750000 
	C1126.723511,765.503418 1124.111328,767.418274 1123.487183,771.498047 
	C1122.656982,776.925720 1120.331787,781.886597 1118.500000,787.000000 
"/>
<path fill="none" opacity="1.000000" stroke="#000000" stroke-linecap="round" stroke-linejoin="round" stroke-width="6.000000"
	d="
M167.000000,731.500000 
	C170.811707,736.712158 172.247299,742.739014 173.000000,749.000000 
"/>
<path fill="none" opacity="1.000000" stroke="#000000" stroke-linecap="round" stroke-linejoin="round" stroke-width="8.000000"
	d="
M32.500000,684.000000 
	C35.127205,682.258545 37.741379,683.660706 39.946781,684.622070 
	C43.440212,686.144897 46.471706,688.805603 49.318783,691.214233 
	C51.994171,693.477539 52.110703,697.775208 52.000000,701.500000 
"/>
<path fill="none" opacity="1.000000" stroke="#000000" stroke-linecap="round" stroke-linejoin="round" stroke-width="7.000000"
	d="
M385.500000,868.000000 
	C385.446930,870.095032 386.176514,871.805786 387.442291,873.542053 
	C389.962067,876.998230 391.560944,880.978088 393.000000,885.000000 
"/>
<path fill="none" opacity="1.000000" stroke="#000000" stroke-linecap="round" stroke-linejoin="round" stroke-width="8.000000"
	d="
M1121.000000,654.000000 
	C1120.462646,656.920410 1119.757080,659.781311 1118.519531,662.508850 
	C1117.505127,664.744873 1117.365112,667.109436 1118.000000,669.500000 
"/>
<path fill="none" opacity="1.000000" stroke="#000000" stroke-linecap="round" stroke-linejoin="round" stroke-width="8.000000"
	d="
M51.000000,632.000000 
	C45.813778,638.065369 41.762863,644.519226 44.584900,652.971680 
	C44.882599,653.863281 44.831772,654.666992 45.000000,655.500000 
"/>
<path fill="none" opacity="1.000000" stroke="#000000" stroke-linecap="round" stroke-linejoin="round" stroke-width="8.000000"
	d="
M1095.500000,641.500000 
	C1098.186035,646.961243 1099.665405,653.162048 1105.000000,657.000000 
"/>
<path fill="none" opacity="1.000000" stroke="#000000" stroke-linecap="round" stroke-linejoin="round" stroke-width="7.000000"
	d="
M76.500000,640.000000 
	C76.105057,645.271851 75.674385,650.531372 71.500000,654.500000 
"/>
<path fill="none" opacity="1.000000" stroke="#000000" stroke-linecap="round" stroke-linejoin="round" stroke-width="8.000000"
	d="
M51.500000,625.500000 
	C48.864876,632.251343 54.909542,635.670349 57.804447,639.785828 
	C59.847137,642.689819 60.679058,644.808289 60.032906,648.006653 
	C59.534576,650.473328 59.333336,653.000000 59.000004,655.500000 
"/>
<path fill="none" opacity="1.000000" stroke="#000000" stroke-linecap="round" stroke-linejoin="round" stroke-width="9.000000"
	d="
M1116.000000,649.000000 
	C1109.303955,650.955566 1104.152100,656.665894 1104.161255,662.999756 
	C1104.163940,664.834595 1103.473022,666.666687 1104.000000,668.500000 
"/>
<path fill="none" opacity="1.000000" stroke="#000000" stroke-linecap="round" stroke-linejoin="round" stroke-width="6.000000"
	d="
M1096.000000,645.000000 
	C1092.415039,647.169983 1090.512085,651.337219 1086.500000,653.000000 
"/>
<path fill="none" opacity="1.000000" stroke="#000000" stroke-linecap="round" stroke-linejoin="round" stroke-width="3.000000"
	d="
M1072.500000,645.000000 
	C1075.742676,646.302063 1079.014282,647.507996 1082.500000,648.000000 
"/>
<path fill="none" opacity="1.000000" stroke="#000000" stroke-linecap="round" stroke-linejoin="round" stroke-width="3.000000"
	d="
M937.500000,796.500000 
	C938.333313,799.333313 939.166687,802.166687 940.000000,805.000000 
"/>
<path fill="none" opacity="1.000000" stroke="#000000" stroke-linecap="round" stroke-linejoin="round" stroke-width="9.000000"
	d="
M351.500000,222.000000 
	C347.234283,222.657684 347.880798,226.356171 347.622681,229.011917 
	C347.287292,232.463135 347.996216,236.001175 347.970856,239.499786 
	C347.877747,252.333649 347.285980,265.176117 347.604980,277.997375 
	C347.936798,291.334473 347.959076,304.665558 347.980194,318.000031 
	C347.988892,323.508270 346.448273,329.057129 348.470520,334.490570 
	C356.408325,336.466888 364.533844,335.722290 372.502289,335.828735 
	C403.830048,336.247070 435.166656,336.001923 466.500000,335.998566 
	C474.086761,335.997772 475.000000,335.076508 475.000000,327.500000 
	C475.000000,303.000000 474.959167,278.499908 475.022949,254.000061 
	C475.044220,245.833008 475.393707,237.667313 475.480347,229.499786 
	C475.546417,223.273636 474.202728,222.001465 468.000000,222.001114 
	C429.333344,221.998871 390.666656,222.000000 352.000000,222.000000 
"/>
</svg>