<svg version="1.1" id="Layer_1" xmlns="http://www.w3.org/2000/svg" xmlns:xlink="http://www.w3.org/1999/xlink" x="0px" y="0px"
	 width="100%" viewBox="0 0 1024 784" enable-background="new 0 0 1024 784" xml:space="preserve">
<path fill="#000000" opacity="1.000000" stroke="none" 
	d="
M1.000000,726.460632 
	C13.136876,722.149780 24.984501,723.147156 36.698444,728.685303 
	C37.616947,726.179688 36.667206,724.364868 36.115082,722.588745 
	C31.137175,706.575439 23.378199,691.853760 15.027062,677.410400 
	C13.276605,674.382935 11.512446,671.361572 9.850185,668.285706 
	C9.157556,667.004150 8.181010,665.542419 9.475596,664.140747 
	C10.597750,662.925781 12.170071,662.935547 13.680845,663.326172 
	C15.773682,663.867371 17.925436,664.291626 19.915689,665.101013 
	C35.980556,671.634277 49.785511,681.185547 60.022243,695.440552 
	C60.969582,696.759766 61.969585,698.041138 63.484299,700.057922 
	C63.969677,689.309326 63.301769,679.379150 64.614853,669.509644 
	C66.153374,657.945618 67.834610,646.438538 71.777878,635.400513 
	C72.727150,632.743347 73.733650,629.540771 76.882637,629.160278 
	C79.873634,628.798767 81.446304,631.739807 82.722443,633.965515 
	C88.822830,644.605469 92.330376,656.239685 95.230522,668.068054 
	C96.409210,672.875488 97.353249,677.740540 98.730972,684.084717 
	C100.542953,680.366028 101.736008,677.913147 102.932793,675.462097 
	C109.227386,662.570679 117.318939,651.083679 128.891190,642.331238 
	C130.217880,641.327881 131.559158,640.297119 133.027634,639.538330 
	C135.433838,638.295105 137.907379,635.378235 140.658981,637.487183 
	C143.507874,639.670654 141.357330,642.787415 140.380432,645.290955 
	C133.574341,662.732910 128.902039,680.739624 125.805046,699.178223 
	C125.640114,700.160217 125.441208,701.141174 125.362488,702.130859 
	C125.327187,702.574524 125.549858,703.038757 125.761673,703.951111 
	C132.317871,696.919556 138.781250,690.265625 147.120270,685.864624 
	C151.857498,683.364563 156.756210,681.284546 161.966095,680.037292 
	C164.786728,679.362061 168.169968,677.434875 170.346313,680.374939 
	C172.763962,683.640930 169.572617,686.332153 167.841385,688.751221 
	C162.201920,696.631287 157.119904,704.830139 152.804749,713.498962 
	C151.635300,715.848450 150.145370,718.102417 149.791092,721.439148 
	C157.361816,720.154053 164.698502,718.994324 172.001343,717.650635 
	C185.746445,715.121765 199.450439,712.361511 213.221817,709.989502 
	C216.419449,709.438782 217.238541,708.293457 217.210693,705.166626 
	C217.108154,693.658081 214.796707,682.691162 210.052475,672.220459 
	C209.502533,671.006775 208.977631,669.781067 208.470352,668.548889 
	C207.689743,666.652832 207.033051,664.665527 208.678864,662.951660 
	C210.254318,661.310974 212.118988,662.272522 213.827972,662.834412 
	C221.672943,665.414001 227.967529,670.183228 232.971695,676.678406 
	C235.086334,679.423096 237.025513,682.303040 239.044937,685.122131 
	C241.447861,684.261414 242.059921,682.209290 242.947800,680.537598 
	C247.493042,671.979614 254.924637,666.849915 263.487000,663.088989 
	C265.711792,662.111694 268.353607,660.672302 270.431091,663.046265 
	C272.320465,665.205261 270.787567,667.557800 269.581024,669.485413 
	C264.292786,677.934082 262.763214,687.471619 261.417053,697.055725 
	C260.687744,702.247742 261.516815,703.085083 267.055359,702.973328 
	C281.555359,702.680969 295.872894,700.170715 310.332764,699.343567 
	C317.973389,698.906494 325.601624,697.857178 333.236084,697.850708 
	C338.102570,697.846558 339.836273,696.043213 340.742737,691.488159 
	C345.947174,665.336060 352.757507,639.611572 362.459534,614.728210 
	C364.998718,608.215820 367.849274,601.820984 370.693604,595.432983 
	C372.146729,592.169556 373.010590,588.932129 372.608734,585.291504 
	C369.715698,559.082581 371.637268,533.162109 377.158722,507.418732 
	C383.134949,479.554993 390.886749,452.188995 399.916382,425.184753 
	C401.327362,420.965118 399.370270,420.070282 396.236389,418.824615 
	C372.730438,409.481293 350.532440,397.801819 331.087067,381.400085 
	C309.714203,363.372589 292.718262,342.139282 286.899323,314.168579 
	C279.008606,276.238770 290.956573,244.702728 320.950165,220.515472 
	C328.451263,214.466492 333.079346,207.896713 336.248871,198.854584 
	C345.156128,173.443726 359.300354,150.874176 376.917877,130.546646 
	C379.779541,127.244766 379.796967,125.703308 375.832550,123.594231 
	C351.108551,110.441071 336.943390,89.758652 333.166138,62.121140 
	C331.701660,51.405712 333.041840,40.813782 337.608978,30.865011 
	C342.011688,21.274376 350.124359,17.284666 361.055725,19.207193 
	C374.786682,21.622080 386.209229,28.468292 396.476746,37.636288 
	C410.384430,50.054630 419.606232,65.493965 425.804932,82.847679 
	C427.291870,87.010429 428.574860,87.618256 433.239349,86.289017 
	C443.726959,83.300316 447.283600,76.720184 448.074432,66.526321 
	C448.496674,61.083721 448.111298,57.117020 444.191162,53.058926 
	C436.837982,45.447021 435.632416,36.357388 439.962341,26.741560 
	C444.105988,17.539438 454.459808,12.150869 466.081604,12.800966 
	C475.722626,13.340262 484.173798,19.632406 487.466095,28.342775 
	C490.379364,36.050480 490.045746,43.557590 484.097748,49.249031 
	C477.104767,55.940334 478.920959,63.262318 480.597168,70.908165 
	C480.875916,72.179688 481.335052,73.578438 483.061829,73.622650 
	C483.935394,73.645012 484.714386,73.296066 485.155670,72.503372 
	C485.882202,71.198456 484.871948,70.330566 484.281372,69.366623 
	C481.060974,64.110298 481.680450,61.713802 487.053223,58.767162 
	C489.266388,57.553364 491.590576,56.705063 494.159241,56.613720 
	C509.858429,56.055443 523.248535,61.087917 533.965454,72.821846 
	C536.975586,76.117645 539.310852,80.146309 543.538513,82.192383 
	C545.162109,82.978149 546.761597,84.054382 548.731140,83.329895 
	C552.722107,81.861855 558.149170,70.139122 556.838989,65.891846 
	C554.661072,58.831886 554.328491,51.681023 557.421021,44.899437 
	C563.503601,31.561035 582.545166,27.567739 594.700378,37.136589 
	C602.564514,43.327454 607.761536,51.307014 605.822449,61.796738 
	C603.958191,71.882294 596.706665,77.363022 587.287537,80.011688 
	C584.186951,80.883575 582.798645,82.526711 582.462036,85.475464 
	C582.405334,85.972000 582.453552,86.530647 582.239319,86.951767 
	C575.044617,101.094032 585.149597,109.150970 593.100342,117.990936 
	C595.449097,120.602379 597.015076,119.186142 598.761292,117.231102 
	C603.658752,111.747910 609.188293,106.914429 614.974365,102.420853 
	C633.837524,87.771210 655.130554,80.480049 679.144165,81.710312 
	C684.532410,81.986359 689.709717,83.124519 694.499634,85.690369 
	C704.730774,91.170929 707.790771,98.893448 704.952148,111.964134 
	C698.464661,141.835236 668.499329,168.400192 638.052490,171.262619 
	C633.116882,171.726639 628.177917,172.154266 623.002808,172.620117 
	C622.926636,177.577255 625.175842,181.780884 626.193604,186.247345 
	C631.602356,209.982330 633.820557,233.931030 630.217407,258.113770 
	C629.324585,264.106262 631.361145,268.746460 633.909607,273.628906 
	C641.034973,287.279938 644.852417,301.876343 645.148987,317.227539 
	C645.774597,349.613739 631.919556,375.400269 608.085632,396.372986 
	C595.582825,407.374878 581.476257,415.795807 565.832520,421.573730 
	C563.109436,422.579437 561.369263,423.613068 562.092529,427.291901 
	C563.180725,432.826538 560.342529,437.272003 556.536926,441.078033 
	C555.379761,442.235321 554.109192,443.279266 552.572083,444.661499 
	C557.262024,448.063293 561.611816,451.385437 561.574524,457.754242 
	C561.540955,463.481384 559.041809,467.967529 555.292908,471.723511 
	C555.408142,473.558167 556.865051,473.542755 557.779358,474.123810 
	C562.110474,476.876434 563.866272,481.165436 562.613647,486.117889 
	C560.790649,493.325348 556.291138,498.443726 550.033020,502.192322 
	C547.660950,503.613129 545.323242,505.091492 542.188354,507.025787 
	C547.179199,508.763428 551.327332,509.489655 555.640137,509.737701 
	C568.955811,510.503662 582.245422,508.478302 595.576233,509.640045 
	C618.884827,511.671295 639.075562,520.287048 655.395081,537.300415 
	C657.646912,539.648071 660.171509,541.404907 663.189453,542.534668 
	C690.650024,552.815002 708.861267,572.335144 719.349854,599.318787 
	C721.452087,604.727112 723.900818,607.826538 730.347107,608.571228 
	C741.930298,609.909180 750.929749,616.725220 758.512024,625.307739 
	C761.929138,629.175659 764.982056,633.379578 770.390198,635.486633 
	C768.187561,641.810913 762.369690,641.783325 757.708313,643.764893 
	C758.059937,647.403320 760.817444,649.598145 762.441040,652.374634 
	C764.787476,656.387512 768.773254,660.846863 766.666260,665.091919 
	C764.423950,669.609558 758.418335,668.244690 753.854004,668.304260 
	C746.580994,668.399292 739.637329,666.912476 733.183716,663.383606 
	C731.929810,662.697876 730.717285,661.601257 729.073730,662.008179 
	C728.019714,663.322144 729.023315,664.578491 729.065491,665.846619 
	C729.139526,668.073120 730.415161,670.823547 727.858948,672.224060 
	C725.539429,673.494812 723.383301,671.755554 721.450928,670.493225 
	C716.770264,667.435608 712.875183,663.445496 710.104553,658.684937 
	C702.980713,646.444702 699.605408,633.543213 704.712769,619.543152 
	C705.274658,618.002869 706.129517,616.444397 705.116699,614.763611 
	C699.882385,606.076538 696.124451,596.499695 689.405640,588.706604 
	C688.216064,587.326721 687.044250,585.938477 684.770081,584.889832 
	C686.394897,592.844238 688.000000,600.332153 689.444763,607.850891 
	C692.593933,624.240112 693.584290,640.852112 694.092102,657.481018 
	C694.528870,671.785278 694.588074,686.103088 694.638855,700.415466 
	C694.650024,703.577881 695.748230,704.749817 698.889404,705.073975 
	C719.575928,707.208679 740.252869,709.442627 760.916199,711.791626 
	C770.008179,712.825134 779.071167,714.133240 788.128296,715.448059 
	C796.065918,716.600342 795.850952,716.293518 797.852539,708.525208 
	C801.010254,696.270569 804.162720,684.019226 806.098755,671.523865 
	C811.732178,635.166565 813.081055,598.976746 800.885620,563.450195 
	C792.022522,537.631165 774.976135,517.960938 754.207153,501.068420 
	C747.097168,495.285461 739.945923,489.555206 732.317078,484.452881 
	C727.123901,480.979614 721.696716,478.226837 715.229187,478.163544 
	C713.756104,478.149139 712.197510,477.868256 710.831665,477.324493 
	C700.499634,473.211029 689.539551,471.924408 678.787598,469.562622 
	C664.129272,466.342743 658.585571,452.148224 665.102234,436.865967 
	C671.480591,421.907776 683.723083,413.246246 698.703125,408.363434 
	C706.902100,405.690979 715.253601,403.197113 724.003296,402.875732 
	C726.328247,402.790375 727.510437,401.440338 728.683716,399.689972 
	C741.791565,380.134003 762.039734,373.217621 784.444702,380.764984 
	C787.787415,381.891052 789.805969,381.870972 791.630432,378.241028 
	C804.933838,351.772400 839.368408,343.785553 863.360596,361.699158 
	C867.188782,364.557404 870.299011,365.217987 875.043274,364.059601 
	C898.309082,358.378723 919.324280,370.924805 925.568176,393.811890 
	C926.359497,396.712372 927.668579,397.884460 930.722229,397.888580 
	C936.388367,397.896271 942.044189,398.469635 947.505493,400.112579 
	C962.335022,404.573792 971.997253,413.825592 974.269104,429.631866 
	C974.679382,432.486481 976.742737,432.888763 978.702759,433.663422 
	C990.907471,438.487274 1002.205872,444.728363 1011.361694,454.363983 
	C1014.258911,457.413025 1016.696838,460.771179 1018.271851,464.684814 
	C1021.019897,471.513153 1019.457825,476.284027 1013.109192,479.952515 
	C1005.406616,484.403290 996.836609,485.660522 988.148560,486.283783 
	C978.237732,486.994812 968.535706,485.540405 958.980225,483.057465 
	C956.493835,482.411407 954.338623,482.429138 952.583252,484.415314 
	C938.774963,500.038696 920.738098,510.646790 905.299072,524.328125 
	C882.631592,544.415100 866.404724,568.970459 856.072937,597.315430 
	C845.703735,625.762756 840.451477,655.151794 842.360779,685.526428 
	C843.165344,698.326172 845.616516,710.906311 849.475830,723.174988 
	C850.000977,724.844482 850.837708,726.251221 852.694580,726.653687 
	C864.701965,729.256287 876.713196,731.841125 888.547363,734.393860 
	C890.353516,732.357666 889.378906,730.586853 888.964783,728.883484 
	C885.968201,716.557434 881.629944,704.672791 877.107910,692.845459 
	C876.316467,690.775696 874.266602,688.353882 876.373352,686.418518 
	C878.294067,684.653992 880.898010,686.231201 882.974731,687.079346 
	C892.218262,690.853943 900.344421,696.223999 906.534485,704.236877 
	C907.513855,705.504639 908.208191,707.124878 910.393555,707.721985 
	C911.098694,698.216980 911.875793,688.823914 914.724487,679.767151 
	C916.380920,674.500977 918.312927,669.344666 921.222717,664.659119 
	C924.140991,659.959839 927.434204,659.877197 930.456116,664.547974 
	C936.679016,674.166321 938.485229,685.227661 940.218506,696.265930 
	C940.733643,699.546326 941.047974,702.858337 941.593506,707.284973 
	C943.788269,704.041443 945.567444,701.557068 947.197144,698.978271 
	C953.802124,688.526489 961.850098,679.520447 973.058533,673.888123 
	C976.313110,672.252747 980.452271,668.974548 983.529114,672.446838 
	C986.246826,675.513794 983.171509,679.419922 981.259033,682.454407 
	C974.388916,693.354980 969.493347,705.108704 964.927307,718.667419 
	C971.647339,711.473267 978.667542,707.176758 986.697510,704.912415 
	C994.541565,702.700684 1002.536011,699.493896 1010.946594,704.072876 
	C1009.707153,708.612854 1006.135193,710.754883 1003.166016,713.210632 
	C990.924622,723.335022 981.388367,735.629272 973.554443,749.335266 
	C972.731262,750.775330 972.180969,752.368469 971.440186,753.858887 
	C969.527039,757.708008 970.654419,759.821594 974.758240,761.318481 
	C987.946716,766.129456 1000.220642,772.857056 1012.257446,780.016235 
	C1014.257080,781.205566 1016.214539,782.506958 1017.806946,784.725220 
	C1015.629456,785.000000 1013.258850,785.000000 1010.198730,784.765320 
	C1003.982544,781.054016 997.963013,778.601685 991.948853,776.155396 
	C954.977722,761.117065 916.611511,750.793030 877.705933,742.247375 
	C839.333313,733.818848 800.557068,727.778809 761.665100,722.433472 
	C741.732239,719.693909 721.781067,716.987122 701.643005,716.199524 
	C694.689392,715.927551 694.414307,716.286377 694.255554,723.410583 
	C693.988525,735.394531 693.645386,747.378601 692.260559,759.294312 
	C691.106567,769.223389 688.892090,778.725281 680.000000,785.000000 
	C657.979126,785.000000 635.958191,785.000000 613.289307,784.715698 
	C607.598755,780.007324 605.944763,773.590088 603.543335,767.585388 
	C585.535645,776.365723 567.705505,776.099670 549.579590,770.618408 
	C540.574402,767.895386 535.988892,761.749207 534.591797,752.640564 
	C533.418579,744.991821 533.630249,737.405579 534.492798,729.769897 
	C534.807190,726.986145 535.362000,723.778503 531.100220,723.362793 
	C520.174133,722.297058 509.227692,721.542053 498.246033,721.371948 
	C495.939667,721.336243 494.630280,722.148865 494.155518,724.669922 
	C490.311981,745.080200 486.345306,765.466980 479.000000,785.000000 
	C474.643097,785.000000 470.286194,785.000000 465.601196,784.691711 
	C471.671173,778.227783 472.392761,769.993225 474.364197,761.515808 
	C461.479034,763.470459 449.446930,764.883484 437.270691,764.350586 
	C425.194946,763.822021 413.428925,761.638611 401.579346,756.890930 
	C401.032776,767.382935 401.069763,776.563660 406.000000,785.000000 
	C401.975464,785.000000 397.950897,785.000000 393.351929,784.636169 
	C392.338257,782.184021 392.154572,780.013428 390.745758,777.911743 
	C388.014160,778.081360 385.197510,778.153198 382.404266,778.447083 
	C369.172516,779.839172 356.600494,777.422546 344.389771,772.327515 
	C336.900085,769.202454 333.243439,763.593994 332.887543,755.747437 
	C332.487030,746.918762 332.995941,738.117310 334.315796,729.365112 
	C335.326202,722.665283 336.233185,715.949829 337.199097,709.150330 
	C333.409912,707.764648 329.915771,708.373352 326.490997,708.579590 
	C307.552368,709.720337 288.727356,711.991150 269.872284,714.061218 
	C227.007431,718.767334 184.363983,724.922119 142.162262,733.718262 
	C104.335106,741.602539 67.028816,751.572693 30.961260,765.683594 
	C20.906925,769.617188 10.983481,773.885315 0.999998,778.000000 
	C1.000000,776.285645 1.000000,774.571289 1.340199,772.329224 
	C9.567226,767.639648 17.454056,763.477844 25.927847,759.006226 
	C19.320423,749.073914 10.868452,742.715149 1.000000,738.000000 
	C1.000000,734.307068 1.000000,730.614197 1.000000,726.460632 
M402.014313,261.000824 
	C402.014313,261.000824 401.987457,260.977356 402.580627,261.387665 
	C421.518829,266.158752 438.703705,274.896973 455.419891,284.706940 
	C458.024414,286.235443 460.843811,287.329102 463.857635,287.635803 
	C472.346008,288.499420 480.855499,288.281952 489.296509,287.259979 
	C503.228973,285.573120 517.134583,284.831390 531.106567,286.700134 
	C573.432251,292.361237 606.952515,323.921936 615.193176,365.906342 
	C615.496460,367.451538 615.380981,369.176086 617.018677,370.625122 
	C621.385742,365.174042 624.985413,359.409210 627.574829,353.082764 
	C638.368774,326.710693 635.762939,300.897339 623.530518,275.805084 
	C620.543396,269.677612 619.337463,263.716675 619.949158,257.072021 
	C622.636902,227.877014 620.093933,199.256073 610.774963,171.299927 
	C599.713562,138.116913 580.426636,111.887222 548.412659,96.171761 
	C546.486572,95.226234 544.236633,93.673973 542.442078,94.013695 
	C539.504761,94.569756 538.635620,93.115913 537.457825,91.224709 
	C532.811768,83.764740 527.004578,77.371841 519.410950,72.851120 
	C513.630676,69.409943 507.481964,66.984825 499.808014,67.434021 
	C505.486145,72.890251 513.199219,75.256912 514.825195,84.756752 
	C506.642670,81.456993 499.353790,80.302605 491.777405,81.243080 
	C483.248138,82.301834 476.674866,87.114639 475.102509,93.890793 
	C483.393951,92.915695 491.822510,90.731331 500.937714,96.546379 
	C491.489960,102.159119 483.222504,107.052872 481.880676,117.810257 
	C490.116913,112.239594 498.990540,109.946121 508.600830,111.221809 
	C513.583374,111.883209 518.192932,111.706131 522.518188,108.890251 
	C523.597473,108.187622 524.911560,107.520302 526.134155,108.893524 
	C526.818176,110.804291 525.536072,112.015991 524.494019,113.283272 
	C520.702515,117.894287 515.694214,119.277390 509.872894,119.502464 
	C499.831116,119.890724 490.102386,121.118057 485.675201,132.499786 
	C484.406158,135.762253 481.206787,134.973587 478.793121,133.494553 
	C474.179535,130.667435 472.196075,126.189171 471.672272,120.962585 
	C471.166748,115.918625 472.491089,111.158554 474.297974,106.405602 
	C463.755341,106.961517 461.278778,103.726204 464.057739,93.603951 
	C464.732880,91.144920 466.268341,88.880829 466.243622,85.746384 
	C464.174255,86.198654 462.550293,86.458443 460.981781,86.910614 
	C436.592651,93.941673 415.580872,106.894325 397.530548,124.446770 
	C372.635284,148.655396 354.905396,177.601898 343.082458,210.190048 
	C341.739868,213.890747 339.854370,216.819687 336.686890,219.385529 
	C322.857330,230.588272 310.638519,243.253235 302.897339,259.597961 
	C295.355164,275.522522 293.526367,292.139069 296.741760,310.036194 
	C308.206879,287.611877 325.887878,273.411285 348.515259,265.286591 
	C365.880188,259.051392 383.755219,256.807983 402.014313,261.000824 
M423.010437,575.254578 
	C432.922607,579.827820 439.421478,587.544250 443.378448,597.538269 
	C445.824829,603.717041 446.109528,609.923767 442.511414,615.768677 
	C441.007416,618.211792 439.152740,620.797852 435.261230,619.290039 
	C435.719269,614.729492 438.133972,610.741516 437.131378,606.022034 
	C431.984955,581.796692 406.058594,572.393799 386.580597,587.792358 
	C384.966644,589.068298 384.194122,590.429688 384.579315,592.492432 
	C387.465179,607.945435 391.231567,623.086731 399.943726,636.503296 
	C401.088257,638.265930 402.156952,640.114441 404.386169,641.155396 
	C408.671814,631.106750 408.451447,619.573242 415.785248,610.369934 
	C418.012543,613.107727 418.076294,615.296082 417.654602,617.679749 
	C415.018494,632.578979 412.284576,647.463074 409.863464,662.397644 
	C405.893677,686.884888 403.014343,711.513306 402.079865,736.309937 
	C401.623322,748.424622 402.016968,748.482788 413.972351,751.985840 
	C433.235596,757.630188 452.666290,757.988525 472.245178,753.753052 
	C474.888702,753.181213 476.886230,752.243225 477.581421,749.322205 
	C482.781219,727.474426 487.317108,705.494080 490.670471,683.284363 
	C492.035736,674.241882 493.025604,665.142944 494.365936,656.096313 
	C494.677307,653.994751 494.743164,651.352783 497.906952,650.600281 
	C500.004913,653.593872 500.064484,656.942627 500.177979,660.186218 
	C500.405212,666.679321 500.315491,673.167786 499.401031,679.632996 
	C499.039368,682.189819 499.076904,684.468567 502.884827,684.806335 
	C521.827148,686.486389 540.778564,687.617798 559.738220,685.510986 
	C566.577271,684.751038 573.583435,684.501770 580.574829,681.995789 
	C579.868713,679.732910 579.344971,677.834900 578.687256,675.984436 
	C575.676392,667.513794 572.584229,659.071716 569.624390,650.583435 
	C568.888123,648.471985 567.979126,646.111572 570.728271,644.491638 
	C573.252136,645.471802 574.225159,647.662048 575.356567,649.647461 
	C591.061035,677.206055 601.503235,706.812561 609.143616,737.459656 
	C610.220947,741.780701 612.022522,743.937073 616.480347,744.751160 
	C637.201477,748.535400 657.567322,747.104248 677.789795,741.538330 
	C681.493164,740.518982 682.627075,738.669373 682.869202,734.909912 
	C684.682068,706.755676 683.658875,678.620972 682.554199,650.489258 
	C682.214905,641.848389 681.246948,633.233276 680.635925,624.601440 
	C680.386353,621.076660 678.980835,619.930847 675.438354,621.182983 
	C671.674988,622.513062 667.744507,623.327942 663.672913,622.745544 
	C651.239502,620.966980 640.937439,610.721252 638.807922,597.998901 
	C636.581421,584.696777 642.952698,572.727417 654.458679,568.200684 
	C657.389587,567.047668 660.620728,567.665649 664.228149,566.348572 
	C658.568848,556.288147 651.497498,548.229126 643.026062,540.811035 
	C641.659851,542.535339 640.838257,543.554932 640.036011,544.589478 
	C639.117126,545.774475 638.308228,547.059021 637.291931,548.151917 
	C626.502258,559.754700 613.675049,566.290466 597.562378,562.237183 
	C582.372070,558.415955 575.134399,547.311829 572.205688,532.565063 
	C571.420166,528.609985 574.189026,523.133850 570.178101,521.019104 
	C566.890442,519.285645 562.008423,520.827209 557.905640,520.324890 
	C552.808899,519.700928 550.520142,521.697815 549.074158,526.553711 
	C546.887207,533.898499 541.656616,538.624451 534.121643,540.615662 
	C527.199463,542.445007 520.284424,542.482544 513.442261,540.364990 
	C494.540314,534.515076 487.937561,519.292847 496.508575,501.574432 
	C499.305206,495.793121 502.901031,490.631989 508.013916,486.684875 
	C509.802185,485.304352 510.528320,483.966461 509.963959,481.613007 
	C506.937897,468.993286 507.579620,456.142120 507.763458,443.321503 
	C507.791351,441.376160 508.392120,439.352051 507.119904,436.997498 
	C498.792572,439.756073 491.037170,443.511963 486.249878,451.192230 
	C482.547791,457.131439 484.949097,463.109100 488.072205,468.638428 
	C490.886963,473.621948 495.199921,472.496979 499.507355,471.202728 
	C500.861542,470.795807 502.303284,470.816040 503.091034,472.139618 
	C504.106903,473.846436 503.194733,475.342896 502.055237,476.653259 
	C498.946747,480.227905 491.592712,480.714844 486.755127,477.688446 
	C476.780823,471.448639 473.006226,454.773651 479.253448,444.753540 
	C481.449860,441.230682 484.356934,438.421326 488.391357,435.969482 
	C478.985504,435.485718 470.299286,435.549377 461.752960,434.487213 
	C446.572174,432.600494 431.485138,430.009918 416.811310,425.444946 
	C414.774689,424.811340 412.137939,423.395447 410.854584,426.700531 
	C406.893158,436.902527 404.858673,447.638428 401.664948,457.914886 
	C403.894470,459.209778 405.465973,458.249817 407.041595,457.948151 
	C414.302185,456.557922 421.638397,456.041870 428.916504,457.273041 
	C451.789124,461.142242 465.938965,482.640137 462.390839,507.285858 
	C457.957520,538.079834 427.216003,564.459412 390.818237,549.540649 
	C388.565552,548.617310 386.434937,547.097961 383.343109,547.240540 
	C381.217468,557.737793 383.217773,568.137207 383.191101,578.900085 
	C404.429657,570.357788 409.067108,569.919617 423.010437,575.254578 
M602.878296,352.612640 
	C590.597900,322.151093 568.416687,302.801239 536.650696,295.023834 
	C519.949707,290.934937 502.892975,292.773987 485.985779,294.751923 
	C472.964294,296.275269 460.090149,296.896881 448.164246,289.742767 
	C442.599518,286.404602 436.784485,283.485046 431.098541,280.347382 
	C401.507141,264.017975 371.370850,261.883850 340.807159,277.352386 
	C325.341003,285.179932 312.332214,295.805939 304.743469,311.988586 
	C301.463531,318.982910 301.036407,325.465637 304.855469,332.791107 
	C315.225647,352.682495 330.199066,368.446259 348.419250,380.793243 
	C409.415924,422.127930 475.841064,435.478210 547.624329,416.541504 
	C569.783264,410.695892 589.496765,399.500000 606.063782,383.263580 
	C608.652100,380.726959 609.743652,378.218231 609.132751,374.417969 
	C607.959778,367.120819 605.561584,360.240692 602.878296,352.612640 
M906.291321,379.186584 
	C895.106323,371.107117 883.211182,369.426453 870.541931,375.337616 
	C867.869934,376.584351 865.532349,377.021149 863.418640,374.385468 
	C854.520325,363.289886 842.418335,361.103912 829.211853,362.352081 
	C814.402832,363.751740 801.359985,374.144409 797.340515,387.496735 
	C794.699646,396.269379 794.699646,396.269379 786.735779,392.143494 
	C786.587891,392.066895 786.440979,391.988495 786.292603,391.912689 
	C766.778015,381.940918 744.730408,389.058350 735.019653,408.575897 
	C733.418579,411.793823 731.324341,413.510986 727.614380,413.157898 
	C714.645325,411.923859 702.934021,416.173706 691.756470,421.998291 
	C682.438416,426.853943 675.275513,433.854675 672.740906,444.573242 
	C670.641663,453.450592 674.487976,459.648682 683.388062,461.684631 
	C686.146545,462.315674 688.878418,462.624115 691.778870,462.038696 
	C695.018433,461.384918 698.436340,460.995361 701.453308,463.065460 
	C711.421509,469.904999 722.831055,470.320526 733.000854,466.055084 
	C742.509033,462.067139 749.472595,463.439697 757.869141,468.089081 
	C766.372498,472.797577 775.806641,472.734406 784.533813,467.257904 
	C793.212158,461.812012 793.211609,461.810974 801.393860,468.482819 
	C801.652039,468.693329 801.908020,468.906708 802.162842,469.121307 
	C823.447205,487.051422 855.195618,485.753204 874.553101,470.714935 
	C881.457336,465.351196 886.450745,465.012360 892.852112,469.759155 
	C893.774658,470.443237 894.897583,470.876068 895.962585,471.346313 
	C911.443298,478.181915 927.081177,478.562866 942.241577,470.988434 
	C946.989380,468.616364 950.744629,468.075745 955.239563,470.394104 
	C956.706970,471.150970 958.350098,471.573822 959.924561,472.115509 
	C974.151245,477.010254 988.532593,478.055115 1003.083801,473.683990 
	C1009.444885,471.773193 1010.377136,468.800659 1006.412231,463.425049 
	C1003.509155,459.489136 999.783264,456.429810 995.781982,453.677765 
	C987.349609,447.877960 978.100525,443.709229 968.568970,440.129791 
	C965.253723,438.884796 963.164246,437.120575 963.815491,433.129730 
	C965.203491,424.624207 960.977295,418.695404 954.432129,414.138977 
	C945.669250,408.038605 935.677002,406.813477 925.326050,407.415222 
	C918.346497,407.821014 917.230652,407.309052 917.097534,400.447144 
	C916.928345,391.728088 913.039429,385.202667 906.291321,379.186584 
M843.280029,609.980103 
	C850.496582,583.362488 863.152039,559.616028 880.781250,538.436401 
	C894.223083,522.287537 910.725342,509.598633 927.153015,496.796051 
	C931.464294,493.436157 935.615479,489.870697 939.840149,486.399628 
	C923.849731,493.288483 910.623169,504.723785 894.350403,512.514771 
	C892.606506,501.975311 896.780212,493.239624 898.301575,482.971954 
	C897.212708,484.468994 896.761108,484.818726 896.680420,485.239502 
	C892.594360,506.558838 881.519653,524.554626 869.467590,542.025879 
	C858.319092,558.187134 845.741760,573.378784 836.615662,590.908203 
	C835.853760,592.371582 835.193115,594.396179 832.082336,594.495667 
	C824.301941,558.927612 836.821899,525.718750 844.173889,491.878143 
	C840.532471,490.652740 839.579712,492.544189 838.975769,495.368988 
	C835.150330,513.262451 827.219238,529.650574 820.090759,546.325623 
	C819.361450,548.031616 818.899536,550.252319 816.180481,550.683105 
	C815.528259,549.847900 814.779602,548.982300 814.132507,548.046448 
	C806.058411,536.370178 799.633057,523.735657 793.065857,511.206726 
	C788.301636,502.117554 785.134338,492.499146 786.567078,481.925964 
	C786.733887,480.695099 786.997864,479.252594 785.743347,477.959900 
	C782.373596,478.170227 780.865112,479.623657 781.578979,483.385101 
	C782.414795,487.788940 782.931519,492.262604 783.383057,496.726593 
	C783.655884,499.423187 784.791077,502.316986 781.673218,505.645508 
	C768.007935,493.476410 752.198242,484.632751 735.612610,477.088196 
	C745.506165,482.510223 753.574646,490.256012 762.034973,497.497528 
	C777.109985,510.401001 789.946777,525.168701 799.289673,542.749573 
	C812.942383,568.440186 816.602295,596.431580 817.067688,624.924683 
	C817.542236,653.980225 812.136047,682.195679 802.892456,709.701599 
	C802.110535,712.028198 800.776733,714.245972 801.269165,717.487732 
	C815.142517,719.716553 829.136841,721.964783 843.856201,724.329529 
	C842.821228,720.604675 842.113892,717.555054 841.128540,714.597961 
	C836.395752,700.394531 834.623779,685.813965 834.570801,670.863281 
	C834.498291,650.383972 837.747192,630.449524 843.280029,609.980103 
M16.546217,738.872131 
	C22.094971,742.737915 26.643648,747.560913 30.066360,753.382019 
	C31.587904,755.969727 33.081547,756.649292 36.099060,755.285278 
	C65.683395,741.912720 96.898102,733.649048 128.482101,726.825806 
	C136.943481,724.997803 142.951508,722.549927 145.500534,713.225891 
	C147.923630,704.362488 154.154663,697.039673 159.026993,688.408569 
	C142.819580,694.777893 131.302673,705.396484 122.671318,719.410522 
	C121.437965,721.412964 120.738487,724.045288 116.738144,724.777649 
	C117.220497,698.954346 121.591179,674.367371 130.025436,650.371338 
	C128.150040,651.781860 126.637863,653.301636 125.209373,654.896423 
	C114.371635,666.996216 107.318161,681.264526 101.370697,696.203613 
	C100.287201,698.925232 99.893806,703.380249 95.858940,702.807251 
	C92.525963,702.333923 93.292778,698.218689 92.795120,695.622375 
	C89.568375,678.788513 86.796104,661.853027 80.799583,645.688293 
	C80.205872,644.087830 80.059471,642.155762 77.896263,641.072510 
	C77.362793,642.732605 76.814842,644.096680 76.487122,645.511780 
	C73.966141,656.397156 72.850357,667.452576 71.979881,678.586060 
	C71.001526,691.099487 72.389694,703.538208 72.218353,716.010254 
	C72.190536,718.034668 73.019302,720.880737 70.260773,721.573364 
	C67.751900,722.203125 66.640137,719.675110 65.467850,717.908264 
	C62.982731,714.162781 60.508244,710.406372 58.162476,706.572998 
	C50.894859,694.696533 41.327751,685.143188 29.422415,677.940918 
	C27.443445,676.743774 25.456161,675.437378 22.626869,675.060913 
	C34.561237,695.619629 44.580357,716.203674 47.358387,741.171631 
	C33.768238,733.487854 20.991058,727.980164 5.586383,731.929382 
	C9.505108,734.400940 12.729421,736.434509 16.546217,738.872131 
M448.057983,522.517517 
	C452.532471,514.233215 454.408234,505.320557 453.574127,496.019135 
	C452.600616,485.162781 449.194824,475.241791 438.715607,469.889740 
	C426.042267,463.417053 412.993500,464.613403 400.002136,469.222504 
	C398.263611,469.839264 397.449829,471.155304 396.923096,472.854126 
	C391.002655,491.948303 386.805176,511.406799 384.294434,531.242188 
	C383.849976,534.753723 385.147797,536.712830 388.171631,538.414368 
	C410.808838,551.152344 433.854980,545.304321 448.057983,522.517517 
M351.521851,727.910645 
	C361.927734,731.520447 372.491150,734.433594 383.574310,734.920349 
	C390.738373,735.234985 391.197021,734.778015 391.619171,727.624939 
	C392.746185,708.530334 394.999756,689.550232 398.566345,670.778015 
	C400.325836,661.517212 399.732300,653.912170 393.339478,645.976257 
	C385.393677,636.112671 381.108582,623.935364 377.713287,611.657288 
	C377.223358,609.885620 376.721405,608.117310 375.893127,605.164001 
	C374.771240,608.054688 374.114410,609.570740 373.587494,611.130615 
	C361.380280,647.268982 352.245361,684.152954 346.512268,721.881287 
	C345.928223,725.724792 347.617310,727.023499 351.521851,727.910645 
M958.597351,735.152039 
	C957.342957,736.372803 956.463196,738.216858 953.285400,737.695801 
	C955.905945,717.525757 964.345093,699.469055 973.701294,680.769958 
	C968.646057,683.514160 965.301392,686.457275 962.075012,689.615051 
	C951.739746,699.730652 945.575562,712.458191 939.419067,725.219543 
	C938.574036,726.971252 938.320190,729.534912 935.058777,729.593262 
	C932.650818,710.315247 934.955017,690.392700 926.290039,671.290894 
	C922.692444,677.258545 921.281921,682.872498 920.273926,688.572510 
	C917.322021,705.264893 918.066223,722.042725 919.234985,738.835327 
	C919.424561,741.558411 920.958374,742.700562 923.107971,743.358093 
	C936.765015,747.535583 950.403320,751.764648 964.120972,757.309814 
	C971.268921,739.034973 982.155701,723.545288 995.671509,709.658325 
	C979.859802,712.820740 967.717834,721.139465 958.597351,735.152039 
M872.381470,484.034790 
	C870.423218,484.954376 868.520203,486.514557 866.497681,486.688904 
	C853.948242,487.770660 850.942139,495.879822 849.153015,506.875397 
	C846.379700,523.919067 839.870667,540.230469 837.777527,557.482117 
	C836.975830,564.090088 835.374146,570.793884 837.856689,577.922485 
	C844.950317,564.495911 853.912537,552.918762 862.304810,540.958740 
	C874.439026,523.666077 884.616455,505.429474 889.172363,484.525543 
	C889.665283,482.263611 890.471008,479.910431 887.904846,478.236847 
	C885.318970,476.550446 882.898376,476.957153 880.482544,478.654144 
	C878.031860,480.375671 875.515076,482.003204 872.381470,484.034790 
M644.865234,108.254723 
	C654.449890,104.119919 664.435913,101.661003 674.897644,101.954796 
	C685.251648,102.245567 688.028442,106.899040 684.024475,116.551773 
	C683.643616,117.470078 683.188782,118.372841 682.654358,119.210136 
	C670.941101,137.561539 655.014465,150.054428 633.325134,154.366211 
	C627.902893,155.444122 622.392700,156.079437 616.784180,156.939453 
	C618.222473,161.719620 621.300537,163.085846 625.407043,162.572723 
	C629.860718,162.016220 634.360596,161.589310 638.725098,160.598297 
	C667.661377,154.028076 686.962097,136.961014 695.121033,108.088318 
	C698.032471,97.785263 696.167114,94.425339 685.679626,93.134438 
	C653.499756,89.173431 627.099365,101.303764 604.682678,123.510147 
	C600.812683,127.343788 602.067383,131.030136 608.016541,135.318909 
	C618.802612,124.800911 629.779419,114.340004 644.865234,108.254723 
M382.614258,40.900433 
	C377.218445,36.978714 371.788513,33.159260 365.352173,31.006203 
	C351.266022,26.294189 346.029755,29.715918 344.261810,44.459641 
	C340.317719,77.351540 359.969086,102.959923 383.403687,117.126350 
	C387.468903,119.583809 389.750366,118.018684 391.407532,114.396049 
	C390.534424,112.813713 389.169830,112.480782 388.036591,111.828117 
	C363.861328,97.904808 351.616882,77.028076 351.712006,49.098389 
	C351.742645,40.103069 355.780518,37.631550 363.862183,41.207088 
	C385.043701,50.578377 398.549622,67.019974 407.073456,88.064537 
	C408.429657,91.412872 409.317810,94.985634 411.463348,97.939957 
	C418.687805,95.342979 419.512909,94.059891 417.011414,87.434563 
	C410.030182,68.944664 399.035156,53.337814 382.614258,40.900433 
M591.314392,731.877808 
	C595.541138,731.734070 595.115540,728.945496 594.359741,726.232666 
	C591.816711,717.104553 588.706055,708.105225 586.725525,698.861023 
	C585.557800,693.411011 582.805420,692.617310 578.312256,693.488892 
	C568.345032,695.422180 558.276306,696.576172 548.153015,697.171265 
	C545.089111,697.351379 544.128174,698.719543 544.179443,701.557495 
	C544.305542,708.545837 544.404419,715.538086 544.301514,722.525696 
	C544.250305,726.005249 546.041199,727.674194 549.047058,728.603882 
	C562.604980,732.797668 576.419861,733.828003 591.314392,731.877808 
M642.577515,780.851440 
	C651.434692,781.036926 660.234497,780.623291 668.722778,777.787476 
	C672.360901,776.572021 676.629333,775.378235 678.019409,771.613525 
	C680.651062,764.486145 681.878845,756.964844 681.548096,748.463257 
	C659.003723,755.842957 636.556091,757.344055 613.554138,752.703857 
	C613.315063,758.153381 614.884277,762.606873 615.292664,767.187561 
	C615.703979,771.801636 618.170654,774.817139 622.241272,776.785156 
	C628.371887,779.749207 634.876099,780.817200 642.577515,780.851440 
M547.335266,428.356171 
	C539.659058,429.841583 532.007324,431.475464 524.295715,432.746185 
	C520.746155,433.331085 519.339661,434.768341 519.053040,438.519867 
	C518.199707,449.686249 518.032288,460.831085 519.415222,471.929779 
	C520.466431,480.366577 522.098145,488.731323 527.341980,495.828064 
	C528.735352,497.713715 530.133911,499.602509 532.845093,499.644043 
	C538.521606,499.731049 549.835876,489.844055 550.950439,483.643677 
	C544.432556,480.657166 536.762878,481.301819 530.247620,478.033569 
	C530.996521,476.023468 532.426331,475.741486 533.543030,475.101440 
	C538.478516,472.272461 543.208923,469.124023 547.125732,464.989197 
	C552.569397,459.242432 551.527893,455.767548 543.918762,453.961700 
	C540.362854,453.117767 536.689575,452.765259 533.137878,451.907227 
	C531.142944,451.425262 528.326965,451.313873 528.035156,448.677460 
	C527.760681,446.197632 530.258789,445.129059 532.057861,444.057251 
	C534.770935,442.440887 537.677917,441.153778 540.466064,439.658844 
	C544.006165,437.760773 547.434204,435.660583 549.847534,432.349792 
	C551.434204,430.173065 551.878357,428.239166 547.335266,428.356171 
M661.632446,132.128632 
	C668.244141,125.726173 675.167908,119.552040 678.468506,109.887421 
	C669.877808,108.119308 662.295959,109.757347 654.892639,112.063713 
	C638.625610,117.131340 625.208252,126.657967 613.532349,138.920059 
	C611.463867,141.092361 610.300049,142.592987 611.831360,145.650452 
	C613.289673,148.562256 614.958984,149.987335 618.346191,149.667984 
	C634.289307,148.164841 648.906799,143.449829 661.632446,132.128632 
M582.179260,534.225342 
	C583.539246,540.276733 586.548279,545.341492 591.381042,549.240601 
	C603.753845,559.223022 627.706360,552.698059 633.997681,537.758179 
	C635.340942,534.568420 633.726318,533.118469 631.374817,531.793335 
	C619.143372,524.900696 605.946655,521.143127 591.993774,520.359497 
	C581.604309,519.776001 579.903809,522.048950 581.760437,532.451050 
	C581.818665,532.777466 581.926514,533.094971 582.179260,534.225342 
M375.181763,92.309441 
	C380.453979,98.151024 386.345490,103.193146 393.348938,106.911514 
	C396.552612,108.612480 398.969696,107.427010 401.600922,105.652649 
	C404.327637,103.813881 403.819794,101.488625 403.126221,99.023689 
	C397.153564,77.796745 385.962128,60.606632 365.566345,50.557911 
	C363.807190,49.691189 362.101044,48.562935 360.003601,48.992210 
	C355.729004,58.734718 365.464447,81.016502 375.181763,92.309441 
M825.857056,490.829834 
	C814.748657,488.713989 804.921753,483.786957 796.243958,476.446136 
	C790.365601,487.658295 801.045044,518.574707 816.705017,537.457397 
	C817.803345,537.061523 818.003540,535.967834 818.350403,535.095398 
	C823.196899,522.902954 827.886719,510.649750 831.543335,498.036591 
	C833.277771,492.053986 833.087280,491.888000 825.857056,490.829834 
M375.519989,767.001282 
	C379.016815,766.962769 382.514679,766.854797 386.010193,766.905823 
	C389.346954,766.954590 390.846832,765.571045 390.706390,762.101074 
	C390.524719,757.612061 390.438446,753.093628 390.745758,748.617737 
	C391.038025,744.361328 389.297729,743.306396 385.264801,743.261475 
	C372.508789,743.119568 360.155975,740.738892 348.466583,735.404175 
	C347.456665,734.943359 346.426086,734.162415 344.786407,735.068481 
	C343.549194,741.158997 343.073212,747.535461 343.605927,754.023071 
	C343.942261,758.119141 345.936188,760.674194 349.715424,762.285156 
	C357.668793,765.675415 365.925415,767.199890 375.519989,767.001282 
M596.565125,755.841553 
	C597.510315,750.655884 598.644897,745.475769 597.213013,739.672363 
	C579.346252,742.476074 561.929688,741.348328 544.811646,735.507568 
	C543.710327,739.584106 544.181580,743.097717 544.551575,746.499084 
	C545.648987,756.589111 549.419006,760.404358 559.378174,762.551575 
	C568.860840,764.596069 578.298950,763.450623 587.692200,762.190002 
	C591.179871,761.722046 595.161621,761.076843 596.565125,755.841553 
M712.581970,637.796997 
	C713.702148,642.371704 714.581238,647.051514 718.027466,651.034973 
	C719.226135,648.283691 718.556946,645.154663 721.992371,643.456360 
	C726.221680,646.990601 730.377625,651.084656 735.791077,653.375793 
	C741.107178,655.625671 746.396912,657.723145 752.820557,656.638977 
	C748.576904,648.896057 743.792969,641.957153 741.043884,633.972778 
	C744.465027,631.853943 748.148010,634.051147 751.068054,632.096985 
	C745.089539,621.521912 731.551270,615.112366 720.059448,617.121094 
	C717.811279,617.514160 716.548462,618.765991 715.496460,620.551392 
	C712.492920,625.649109 711.937500,631.193298 712.581970,637.796997 
M565.572937,52.281609 
	C564.714233,56.038883 565.830872,59.543518 567.077271,62.983868 
	C568.726013,67.534576 568.255615,71.695488 565.644104,75.812653 
	C563.602600,79.031319 561.974304,82.510765 560.130676,85.856888 
	C559.105408,87.717773 559.070862,89.338211 561.085266,90.548256 
	C563.756531,92.152855 566.437683,93.740776 569.657959,95.659653 
	C571.427124,89.378448 573.136841,83.709991 574.596924,77.977951 
	C575.516663,74.367371 577.581909,72.239403 581.175659,71.310219 
	C583.736511,70.648079 586.336487,69.905724 588.694397,68.743515 
	C592.382568,66.925644 595.341187,64.299721 595.773743,59.796841 
	C596.473083,52.517651 590.284058,44.445381 582.572632,42.578381 
	C575.354797,40.830872 569.037659,44.208427 565.572937,52.281609 
M464.308350,23.381037 
	C456.618835,23.661175 450.741516,27.313118 448.801025,33.016682 
	C446.720337,39.132542 448.503601,44.028019 455.028259,49.369869 
	C458.320312,52.065121 459.382446,55.104134 458.748444,59.448494 
	C457.953461,64.896271 456.449188,70.382576 457.199036,76.241219 
	C458.412201,76.100960 459.234436,76.055748 460.037018,75.905594 
	C470.858643,73.880905 470.772034,75.484238 468.736328,64.822586 
	C467.348358,57.553455 468.190796,51.480789 474.487366,46.563618 
	C477.175385,44.464409 478.778656,41.149929 478.780701,37.324390 
	C478.784576,30.075638 474.161163,25.264685 464.308350,23.381037 
M534.352112,515.294373 
	C524.528503,511.112366 518.111755,503.523163 513.904053,493.897827 
	C508.054596,497.945618 504.060791,504.580139 501.961456,512.372803 
	C500.977417,516.025513 501.475647,519.221191 503.258209,522.424194 
	C509.162933,533.033936 527.188599,536.688293 536.635376,529.157776 
	C543.458374,523.718689 542.877197,518.761963 534.352112,515.294373 
M675.166748,594.332764 
	C673.272034,589.021240 671.399109,583.701782 669.468262,578.403442 
	C668.947998,576.975891 668.176453,575.811096 666.443481,575.435669 
	C659.945190,574.027771 649.639465,580.201233 647.718384,586.742065 
	C644.918884,596.273621 650.487244,608.805725 659.461853,612.868774 
	C663.973267,614.911194 668.505310,614.833557 672.744446,612.014526 
	C676.995056,609.187866 677.123596,604.860168 676.644287,600.442993 
	C676.449097,598.644714 675.830811,596.892273 675.166748,594.332764 
M255.676422,688.521667 
	C257.400238,683.034424 259.124054,677.547241 260.998688,671.579834 
	C257.657013,673.188293 255.370941,675.283447 253.209015,677.570862 
	C247.925766,683.160767 245.378723,690.223083 242.537506,697.141785 
	C241.773880,699.001221 241.681976,701.510010 238.356232,701.887268 
	C233.393661,691.118835 229.637009,679.263733 217.118088,672.163452 
	C221.125412,680.142395 223.242401,687.249634 223.243027,694.885193 
	C223.243317,698.210449 223.314285,701.537109 223.240677,704.860596 
	C223.180481,707.579102 224.168335,708.943909 227.088943,708.506592 
	C235.131561,707.302307 243.173294,706.083740 251.235321,705.022339 
	C253.923523,704.668518 254.955612,703.457153 254.835556,700.772156 
	C254.665222,696.962341 254.414139,693.118774 255.676422,688.521667 
M496.507690,704.823364 
	C496.276031,708.153687 495.347382,712.123352 500.863892,711.481201 
	C508.376923,710.606628 515.833008,711.367065 523.316589,711.725403 
	C534.527100,712.262329 534.448669,712.208191 533.777588,701.136597 
	C533.611206,698.390564 532.647949,697.330261 529.894287,697.257690 
	C522.072021,697.051697 514.257751,696.545349 506.435516,696.335510 
	C498.177856,696.114075 498.175446,696.203796 496.507690,704.823364 
M895.575134,728.026672 
	C896.743347,730.690613 895.087646,734.808594 898.338989,736.141357 
	C903.599060,738.297302 909.171387,739.808472 915.115601,740.553284 
	C912.517273,728.064331 898.670654,701.170532 887.036926,698.463623 
	C890.132629,707.981628 894.009644,717.231201 895.575134,728.026672 
M680.511597,569.974670 
	C695.511475,577.484070 702.773682,592.066101 711.947388,604.900879 
	C706.742615,587.176025 686.584717,563.736511 673.001587,559.287964 
	C675.029419,563.083313 675.956055,567.323853 680.511597,569.974670 
M921.129700,488.761658 
	C922.297668,487.897125 923.465637,487.032593 925.544983,485.493469 
	C919.421875,486.464172 914.686707,485.110870 909.891968,485.227356 
	C907.694458,485.280762 905.956970,485.547668 905.437134,488.087433 
	C904.654907,491.908844 903.794800,495.714325 902.903320,499.823669 
	C908.966431,496.149048 914.759033,492.638428 921.129700,488.761658 
M767.452393,480.333038 
	C761.998352,480.103516 756.856812,478.235565 751.392273,477.570038 
	C758.992615,481.626068 766.593018,485.682098 774.319885,489.805634 
	C774.114319,480.975189 773.928162,480.689972 767.452393,480.333038 
z"/>
<path fill="#000000" opacity="1.000000" stroke="none" 
	d="
M736.108582,181.681198 
	C727.726501,162.646851 734.806824,141.556946 753.022644,130.920242 
	C762.855347,125.178658 773.386230,121.852837 785.001648,123.084190 
	C786.760132,120.350670 786.222534,117.381180 786.370422,114.696709 
	C787.395447,96.084938 797.769104,84.296585 813.892090,76.866005 
	C835.331543,66.985291 861.672485,73.530197 875.430115,91.914650 
	C876.717285,93.634590 878.088684,95.475578 878.699829,97.480232 
	C880.123657,102.150490 882.396851,101.911987 886.059265,99.782486 
	C904.364990,89.138519 927.012573,93.729866 938.463440,107.516624 
	C944.007812,114.191940 947.208862,121.577614 947.277588,130.286194 
	C947.289185,131.753647 946.918091,133.283920 947.977539,135.077347 
	C952.804077,135.292847 957.907959,135.280716 962.881165,136.636887 
	C975.830566,140.168106 985.135559,147.862137 987.830750,161.176743 
	C990.560852,174.664093 985.623962,186.332077 975.121948,195.009705 
	C958.603455,208.658783 940.103699,210.268433 920.839294,201.687531 
	C916.673523,199.832016 914.666016,200.595001 912.105469,203.618042 
	C902.352478,215.132660 889.805542,221.182449 874.805298,222.438416 
	C854.905212,224.104630 838.614868,216.718414 825.282532,202.445908 
	C822.522705,199.491531 820.719910,199.312241 817.332764,201.054123 
	C801.810242,209.036697 785.412354,211.419769 768.418823,207.022263 
	C754.225586,203.349396 743.218384,195.209106 736.108582,181.681198 
M812.127808,194.661713 
	C814.494812,193.110443 816.845886,191.534271 819.232056,190.013214 
	C823.865356,187.059769 825.249023,187.246170 827.957214,192.050980 
	C833.959961,202.701080 843.035095,208.973465 854.706726,212.145782 
	C874.171936,217.436325 898.635559,212.306931 909.919861,192.696915 
	C912.383667,188.415268 914.663391,188.515427 918.577271,191.278976 
	C935.393921,203.153198 959.000793,200.659195 972.390808,185.954300 
	C986.171692,170.820190 980.727600,150.454590 961.314026,144.392303 
	C956.598938,142.919891 951.797729,143.088120 946.962585,143.166718 
	C943.693237,143.219879 940.404907,144.183609 937.066467,143.331985 
	C936.036133,140.590530 937.139282,138.240753 937.620483,135.849716 
	C940.806091,120.021118 932.381897,106.925560 916.587463,103.212143 
	C903.920715,100.234070 892.968384,104.420029 882.748901,111.466896 
	C876.909058,115.493820 875.915405,115.322121 874.268250,108.291954 
	C871.990723,98.571152 866.393127,91.555077 857.938904,86.619736 
	C852.406067,83.389854 846.407288,81.425751 840.056641,80.678902 
	C813.136108,77.513039 788.555603,99.175591 795.254395,127.458038 
	C796.459167,132.544815 795.465759,133.644409 790.371338,132.693100 
	C781.680298,131.070206 773.085510,131.306747 764.799805,134.374847 
	C751.060425,139.462402 741.645203,148.846176 740.707458,163.898132 
	C739.832825,177.937759 747.469788,188.151489 759.569824,194.396072 
	C776.588501,203.179001 794.078979,203.228180 812.127808,194.661713 
z"/>
<path fill="#000000" opacity="1.000000" stroke="none" 
	d="
M204.461792,395.288391 
	C193.648422,411.223846 174.984894,416.507385 157.115494,408.472382 
	C152.775696,406.521027 150.675415,407.323242 147.531799,410.687775 
	C137.013214,421.945557 123.461098,424.784912 108.677345,422.890594 
	C97.417747,421.447876 88.277420,416.010010 81.225021,407.188873 
	C78.959854,404.355621 76.920502,405.658112 74.698029,406.863129 
	C63.417122,412.979492 51.457676,414.707306 38.909168,412.254395 
	C22.525711,409.051880 10.800745,397.523834 8.849248,382.849121 
	C6.572369,365.727631 18.573484,349.945007 36.204052,346.935150 
	C38.824394,346.487854 41.518829,345.799469 44.112728,346.016052 
	C49.151714,346.436829 50.235538,343.807434 50.597767,339.529388 
	C52.029522,322.619904 62.359386,310.979248 78.981194,307.186646 
	C95.472931,303.423767 113.061607,310.285950 120.948837,324.225952 
	C123.358215,328.484283 125.509964,329.002380 129.539246,327.052887 
	C139.312180,322.324432 149.241104,321.470306 159.368408,326.272339 
	C169.417603,331.037384 175.449585,338.757629 175.958649,349.873810 
	C176.188080,354.883942 178.000305,355.742249 182.476471,355.895020 
	C195.276672,356.331787 205.372513,364.794861 207.880844,376.715698 
	C209.240295,383.176483 208.007080,389.286224 204.461792,395.288391 
M163.262131,337.246307 
	C160.269089,334.182678 156.659180,332.157532 152.496887,331.276917 
	C142.468613,329.155182 133.361511,331.123749 125.387680,337.725800 
	C122.682823,339.965363 119.834076,341.360596 119.025429,336.402313 
	C116.617928,321.640381 100.940445,312.312256 85.006630,313.299683 
	C66.536293,314.444336 54.044048,330.848419 58.202690,348.800964 
	C59.154324,352.909119 57.828941,354.382050 53.574593,353.701569 
	C44.242207,352.208710 35.329659,352.909821 27.200878,358.299591 
	C17.960524,364.426392 13.429754,375.796051 16.358082,385.621582 
	C19.735285,396.953247 33.486301,406.204529 47.578384,406.672943 
	C58.145683,407.024200 67.565926,403.730743 76.079239,397.672485 
	C79.160469,395.479767 81.559776,395.631866 83.437958,399.079132 
	C90.172897,411.440643 101.572678,415.934082 114.626091,416.330688 
	C127.509071,416.722168 139.207535,412.988403 146.390808,401.215790 
	C148.918610,397.073029 150.427139,396.406525 154.599960,399.334137 
	C169.658493,409.899109 190.941010,405.351440 198.951675,390.261749 
	C204.358932,380.076111 201.238052,370.417603 191.008484,365.050629 
	C185.514694,362.168304 179.912796,362.301483 174.020157,363.277466 
	C167.438110,364.367584 167.200928,364.062988 168.514984,357.714478 
	C170.057571,350.261749 169.210251,343.493225 163.262131,337.246307 
z"/>
<path fill="#000000" opacity="1.000000" stroke="none" 
	d="
M96.066544,150.601318 
	C87.152084,115.075676 104.630165,83.041672 131.332962,67.875237 
	C171.654099,44.973961 216.249084,66.773537 231.467072,97.742065 
	C248.207352,131.808472 237.011459,170.948807 210.168915,189.821381 
	C181.528061,209.958298 150.580200,209.495651 121.892487,189.185654 
	C108.557617,179.744980 100.774780,166.407104 96.066544,150.601318 
M134.770340,188.737595 
	C147.358276,195.352737 160.557938,197.469482 174.825012,196.104431 
	C212.399765,192.509384 241.854095,152.556259 228.843399,111.353722 
	C215.960022,70.554420 162.130600,47.032436 121.815521,83.106651 
	C88.866234,112.589912 95.505753,165.511154 134.770340,188.737595 
z"/>
<path fill="#000000" opacity="1.000000" stroke="none" 
	d="
M105.685211,210.736542 
	C102.125435,213.237427 98.898552,215.585632 95.592697,217.816818 
	C94.223785,218.740707 92.675949,219.660690 90.975159,218.573395 
	C89.242432,217.465668 89.445618,215.630722 89.862488,214.061234 
	C92.083176,205.700729 94.665764,197.443619 98.540390,189.683395 
	C100.505737,185.747131 103.701424,184.619278 107.655296,186.976746 
	C110.218620,188.505081 112.871193,189.980286 115.137840,191.889908 
	C120.129005,196.094864 119.939774,200.721695 114.691368,204.714722 
	C111.918327,206.824463 108.896034,208.606628 105.685211,210.736542 
M109.266266,192.100204 
	C103.559860,189.038727 102.891594,189.251373 100.467262,195.063568 
	C99.506012,197.368118 98.544960,199.679443 97.739655,202.040817 
	C96.452766,205.814331 94.504837,209.445084 94.582344,214.460968 
	C99.927353,210.618454 104.624207,207.227921 109.335815,203.858017 
	C116.204979,198.945007 116.242813,198.220322 109.266266,192.100204 
z"/>
<path fill="#000000" opacity="1.000000" stroke="none" 
	d="
M195.401917,52.370506 
	C194.506927,48.814442 196.158020,46.555649 198.262039,44.541325 
	C203.423065,39.600243 208.628113,34.705097 213.819748,29.796013 
	C215.405823,28.296249 217.091019,26.531187 219.454773,27.532383 
	C222.027069,28.621893 221.424255,31.262154 221.158890,33.266308 
	C220.135986,40.991661 218.953461,48.723221 216.444260,56.126209 
	C214.358917,62.278751 211.096710,63.572063 205.287094,60.742977 
	C201.437683,58.868446 197.314606,57.178600 195.401917,52.370506 
M213.851242,51.414776 
	C215.526016,45.189419 217.441956,39.003201 217.815689,31.184124 
	C211.374237,37.328556 205.988861,42.424324 200.664047,47.582626 
	C199.694550,48.521797 198.964066,49.881718 199.594803,51.196945 
	C201.480911,55.129978 204.997482,57.033741 209.082596,57.525288 
	C212.783844,57.970642 212.902664,54.630547 213.851242,51.414776 
z"/>
<path fill="#000000" opacity="1.000000" stroke="none" 
	d="
M152.201462,20.453512 
	C153.217743,18.130432 153.798660,15.748307 156.552826,15.840030 
	C158.982346,15.920940 159.761444,18.069206 160.432083,19.888592 
	C162.954117,26.730801 165.592346,33.549038 167.674500,40.529156 
	C169.691330,47.290356 167.419418,50.547897 160.505081,51.737717 
	C158.395111,52.100796 156.210632,52.242294 154.070007,52.175236 
	C148.277237,51.993767 145.498688,48.740463 146.694199,43.044582 
	C148.258499,35.591667 150.248367,28.228075 152.201462,20.453512 
M163.985977,42.088028 
	C161.730911,35.032848 160.266724,27.672527 156.151794,19.837046 
	C153.431549,28.208223 152.075928,35.320930 151.040161,42.486992 
	C150.577148,45.690308 151.098251,48.486023 155.388611,48.694809 
	C160.896912,48.962860 163.656982,47.222107 163.985977,42.088028 
z"/>
<path fill="#000000" opacity="1.000000" stroke="none" 
	d="
M164.296021,211.793686 
	C167.000076,214.876205 166.524124,217.944580 165.235901,220.979828 
	C162.442657,227.561142 159.558167,234.103790 156.703018,240.658768 
	C155.820480,242.684937 154.817291,244.879211 152.245804,244.740173 
	C149.613052,244.597809 149.737671,241.973312 149.138138,240.185944 
	C146.913086,233.552567 145.367386,226.744278 144.106064,219.867416 
	C142.605118,211.684128 145.080231,208.753555 153.507553,208.902603 
	C157.187027,208.967697 160.843674,209.264969 164.296021,211.793686 
M148.237350,220.494690 
	C149.597641,226.604980 150.147476,232.965530 153.453964,239.450043 
	C156.556686,231.998306 159.243912,225.568283 161.905838,219.127808 
	C162.348175,218.057587 162.815216,216.960098 162.272232,215.762421 
	C161.264542,213.539734 154.337311,212.066315 150.108353,213.167603 
	C145.886475,214.267044 147.960449,217.249344 148.237350,220.494690 
z"/>
<path fill="#000000" opacity="1.000000" stroke="none" 
	d="
M200.595001,202.316818 
	C210.247406,200.120407 211.915848,201.144104 213.572708,210.679474 
	C214.790680,217.689056 216.641449,224.632278 216.363113,231.843491 
	C216.306213,233.317413 216.508255,234.968063 214.828552,235.748550 
	C212.989532,236.603073 211.582947,235.523605 210.413239,234.336136 
	C205.755524,229.607712 201.144775,224.832352 196.558731,220.034134 
	C188.494781,211.597107 189.491745,206.864899 200.595001,202.316818 
M210.606064,216.786118 
	C210.337830,215.149857 210.079559,213.511887 209.799088,211.877731 
	C209.360611,209.322891 209.636108,206.186874 206.297836,205.429169 
	C202.717438,204.616470 199.360977,205.536453 196.614731,208.088120 
	C195.104111,209.491699 194.546677,211.392120 195.926758,212.993576 
	C201.146729,219.050766 206.536652,224.961517 212.606522,231.759872 
	C213.312073,225.841232 211.230927,221.852356 210.606064,216.786118 
z"/>
<path fill="#000000" opacity="1.000000" stroke="none" 
	d="
M118.867325,56.163334 
	C122.733078,60.972378 122.708359,63.272728 118.829697,67.170586 
	C116.117546,69.896179 113.131935,72.257355 109.595612,73.915436 
	C106.226494,75.495117 103.538597,74.740738 102.126274,71.460175 
	C98.637573,63.356575 95.416733,55.136894 92.148659,46.939777 
	C91.559975,45.463238 91.659180,43.913052 93.100479,42.883038 
	C94.855316,41.628956 96.652962,42.203033 98.257317,43.195339 
	C105.057503,47.401321 111.815666,51.675247 118.867325,56.163334 
M100.289612,48.458256 
	C99.138496,48.019001 98.253525,46.644936 96.742096,47.404236 
	C96.692268,47.760399 96.522583,48.122456 96.623558,48.377247 
	C98.575745,53.303070 100.533722,58.226948 102.542595,63.129887 
	C106.185692,72.021408 108.792519,72.474190 115.534119,65.511597 
	C118.175011,62.784130 118.331100,60.511497 114.861488,58.287991 
	C110.119240,55.248913 105.503906,52.011776 100.289612,48.458256 
z"/>
<path fill="#000000" opacity="1.000000" stroke="none" 
	d="
M76.952988,94.794632 
	C80.391037,95.101646 83.369263,95.331421 86.327148,95.717178 
	C87.452957,95.864006 88.629738,96.193062 89.615921,96.740547 
	C94.541397,99.474998 94.297676,104.846062 88.933098,113.356789 
	C85.751137,118.404877 82.050537,119.525726 77.815552,116.329308 
	C71.991386,111.933449 66.312401,107.339668 60.678417,102.700500 
	C58.763058,101.123352 56.683380,99.121017 57.883053,96.345718 
	C59.027527,93.698120 61.802650,94.430016 64.044449,94.454834 
	C68.192009,94.500748 72.338272,94.664726 76.952988,94.794632 
M70.572136,105.889168 
	C73.483986,108.080849 76.432785,110.225563 79.296501,112.478424 
	C81.778885,114.431305 83.932983,114.065475 85.664146,111.610291 
	C86.799881,109.999535 87.725044,108.213562 88.552162,106.417480 
	C90.296043,102.630676 88.940598,100.256149 84.908188,99.679863 
	C80.489799,99.048416 76.036537,98.589287 71.582527,98.304054 
	C68.598465,98.112953 65.518013,97.485939 62.002274,98.567734 
	C64.571495,101.715233 67.340019,103.532845 70.572136,105.889168 
z"/>
<path fill="#000000" opacity="1.000000" stroke="none" 
	d="
M265.068909,190.404388 
	C264.866669,194.484818 262.145660,194.517761 259.665161,194.022949 
	C252.170639,192.527924 244.665817,191.002045 237.289230,189.024765 
	C231.578827,187.494095 230.241608,184.605362 231.652603,178.883392 
	C232.783676,174.296631 235.719437,170.915314 239.252686,168.068100 
	C241.890274,165.942642 245.031616,166.470276 246.913696,168.807022 
	C252.746277,176.048584 260.118256,181.972656 265.068909,190.404388 
M235.246216,182.153198 
	C242.304276,188.723312 251.768387,187.527451 260.246948,190.179337 
	C256.411194,184.708160 252.136795,180.006088 247.817368,175.345734 
	C242.442856,169.547043 239.601257,169.969131 236.297867,177.120163 
	C235.690338,178.435364 235.537613,179.960663 235.246216,182.153198 
z"/>
<path fill="#000000" opacity="1.000000" stroke="none" 
	d="
M249.857254,92.957352 
	C241.767334,99.386116 238.351959,98.578461 234.159637,89.520470 
	C233.463272,88.015907 232.775391,86.490768 232.277847,84.913841 
	C230.516800,79.332222 232.211273,76.127541 237.844040,74.953903 
	C245.147797,73.432114 252.498932,72.126945 259.853241,70.866020 
	C261.756531,70.539696 263.978333,70.150391 265.233704,72.310631 
	C266.454468,74.411339 265.169556,76.161827 264.029572,77.788437 
	C260.092316,83.406525 254.911682,87.877777 249.857254,92.957352 
M239.852982,91.674248 
	C241.267471,93.019142 243.020050,93.130745 244.427368,92.099380 
	C250.929810,87.333992 256.510925,81.663956 261.748596,74.316513 
	C255.107590,74.118683 250.073257,76.595490 244.765778,77.496109 
	C233.710999,79.371956 233.123032,80.969147 239.077606,90.732895 
	C239.163651,90.873985 239.272034,91.001457 239.852982,91.674248 
z"/>
<path fill="#000000" opacity="1.000000" stroke="none" 
	d="
M74.916138,165.203400 
	C69.832123,164.861420 65.202393,164.550934 60.574699,164.212524 
	C58.476406,164.059097 56.574249,163.427505 55.920486,161.177841 
	C55.267872,158.932114 57.000603,157.839615 58.506851,156.846741 
	C65.294121,152.372910 72.089020,147.883026 79.528839,144.545273 
	C85.105278,142.043488 87.776474,143.264221 89.938026,148.919418 
	C90.115105,149.382721 90.250786,149.864746 90.369591,150.346985 
	C93.292595,162.211777 91.334145,167.308624 78.351837,165.388000 
	C77.371651,165.242981 76.365387,165.274216 74.916138,165.203400 
M71.140984,152.668823 
	C67.718132,154.999496 63.519630,156.291885 60.308205,160.619308 
	C68.373703,161.077011 75.593132,161.534836 82.818352,161.865967 
	C84.856888,161.959396 87.050621,161.610443 87.567223,159.179581 
	C88.348747,155.502075 88.015862,151.850403 85.662018,148.748535 
	C83.998108,146.555862 81.802422,147.350845 79.793533,148.305450 
	C77.098595,149.586044 74.453018,150.970505 71.140984,152.668823 
z"/>
<path fill="#000000" opacity="1.000000" stroke="none" 
	d="
M277.548431,129.113235 
	C282.431946,132.206497 282.599274,134.111252 277.845184,136.408768 
	C269.557678,140.413910 260.571014,142.317459 251.553329,143.885941 
	C248.967697,144.335678 247.190826,142.683319 245.964813,140.473495 
	C244.519394,137.868195 244.567337,135.035980 244.652954,132.197952 
	C244.979309,121.378647 248.090744,119.240555 258.255493,122.706673 
	C264.552490,124.853912 270.893311,126.872566 277.548431,129.113235 
M252.497086,139.717102 
	C260.500397,137.913101 268.821594,137.192154 276.340637,133.186722 
	C270.005890,130.111633 263.770050,127.905846 257.515930,125.753143 
	C250.756744,123.426598 248.797821,124.610397 248.381134,131.857346 
	C248.213257,134.777328 246.316986,138.918640 252.497086,139.717102 
z"/>
<path fill="#000000" opacity="1.000000" stroke="none" 
	d="
M523.466370,569.546265 
	C529.921448,576.470032 535.040527,583.619385 531.833618,593.408020 
	C528.837891,602.552063 521.677979,607.654297 513.135559,610.827942 
	C500.146423,615.653625 487.553619,613.635254 475.565552,607.375305 
	C468.570435,603.722595 465.783508,596.930176 464.936981,589.662598 
	C463.745270,579.432007 465.015320,569.413391 470.228851,560.214844 
	C476.668640,548.852844 486.038086,545.601257 497.995758,550.820129 
	C507.760406,555.081909 515.683777,561.939819 523.466370,569.546265 
M473.238159,585.249634 
	C473.308655,590.579102 474.457458,595.551575 478.699463,599.175598 
	C489.359985,608.283142 511.223511,606.599121 520.315063,596.056030 
	C524.251648,591.491028 525.358398,585.748291 521.860535,581.394592 
	C514.110840,571.748779 505.021545,563.380005 493.687378,558.097473 
	C487.331055,555.135071 482.706390,557.098389 478.757782,563.023193 
	C474.447235,569.491150 472.717316,576.618042 473.238159,585.249634 
z"/>
<path fill="#000000" opacity="1.000000" stroke="none" 
	d="
M608.954224,609.793091 
	C608.386719,610.857422 607.960571,611.575500 607.599243,612.324890 
	C602.338867,623.235901 593.973511,628.261169 581.709412,626.247009 
	C574.795288,625.111328 567.932678,623.868713 561.494629,620.966736 
	C550.883728,616.183899 547.225708,608.255127 550.364319,597.110840 
	C551.490173,593.113037 552.394714,589.053528 553.438721,585.032104 
	C556.311401,573.966919 564.795715,567.914185 576.028381,569.134949 
	C586.130859,570.232910 595.478210,573.798950 604.051697,579.087708 
	C613.652771,585.010254 616.133484,593.768372 611.697266,604.048584 
	C610.906311,605.881470 609.986084,607.658569 608.954224,609.793091 
M603.913025,598.148376 
	C605.149719,590.818481 601.268860,586.474121 595.208618,583.562317 
	C589.625244,580.879700 583.606384,579.480103 577.596252,578.148682 
	C569.397766,576.332336 563.913635,579.669983 561.768921,587.672424 
	C560.694214,591.682373 559.672791,595.706726 558.645081,599.729126 
	C557.098328,605.782898 558.705750,609.686340 564.291870,612.574524 
	C571.899658,616.507874 580.308350,616.727356 588.591675,617.273621 
	C589.920959,617.361328 591.593933,616.556763 592.656372,615.640808 
	C597.882080,611.135559 602.528381,606.169678 603.913025,598.148376 
z"/>
<path fill="#000000" opacity="1.000000" stroke="none" 
	d="
M402.030823,261.008514 
	C388.006683,252.110001 385.492126,238.511307 386.993530,223.443497 
	C387.834534,215.003342 390.780182,207.261490 396.108917,200.538116 
	C398.192505,197.909210 400.534332,195.551041 403.397858,193.768845 
	C412.542236,188.077621 421.547241,190.580887 426.363739,200.231018 
	C431.306946,210.134964 430.959320,220.560593 428.851532,231.003464 
	C427.157104,239.398514 424.269043,247.399567 418.508881,253.988464 
	C414.405060,258.682739 409.565765,262.018707 402.418945,261.018433 
	C401.987457,260.977356 402.014313,261.000824 402.030823,261.008514 
M403.255890,215.858841 
	C405.433167,213.143555 407.616425,210.433044 409.785736,207.711426 
	C411.517151,205.539154 413.116974,203.045654 410.893677,200.587540 
	C408.646637,198.103180 405.747192,198.970871 403.124695,200.429947 
	C401.041412,201.589020 399.526154,203.308563 398.292694,205.331589 
	C395.409180,210.060928 393.515137,215.200607 392.448975,220.581360 
	C390.691589,229.450470 391.714233,238.219635 394.780334,242.854416 
	C394.928040,233.193832 397.677460,224.453735 403.255890,215.858841 
z"/>
<path fill="#000000" opacity="1.000000" stroke="none" 
	d="
M553.109375,216.361542 
	C560.470215,216.556259 564.977295,220.205292 567.570251,226.478104 
	C574.483215,243.200958 566.978821,270.503845 552.480225,281.427979 
	C543.396240,288.272430 536.340088,287.024231 530.397400,277.396667 
	C526.301392,270.760834 525.321838,263.352264 525.771240,255.762711 
	C526.469421,243.971298 530.211182,233.298126 538.145691,224.315475 
	C542.041443,219.905121 546.804749,217.086609 553.109375,216.361542 
M534.971191,237.505814 
	C529.763367,250.749863 528.903564,262.179749 532.634277,268.684723 
	C533.229553,255.898941 536.887573,244.573318 547.559509,236.396622 
	C549.211853,235.130630 550.367249,233.145905 551.556641,231.362946 
	C553.164246,228.953033 552.804749,226.604568 550.715149,224.624725 
	C548.434082,222.463470 546.161499,223.166916 544.013062,224.892365 
	C540.041504,228.081924 537.147095,232.077194 534.971191,237.505814 
z"/>
<path fill="#000000" opacity="1.000000" stroke="none" 
	d="
M559.943848,189.484985 
	C555.810059,188.237823 557.309204,186.495087 559.112305,184.841644 
	C564.857910,179.573074 572.647034,179.378723 579.270264,184.287567 
	C586.578674,189.704208 590.519653,203.391434 586.723145,212.637924 
	C582.672729,207.197662 582.088623,200.461517 577.724915,195.940155 
	C572.924072,190.965958 566.658691,190.242554 559.943848,189.484985 
z"/>
<path fill="#000000" opacity="1.000000" stroke="none" 
	d="
M418.675171,163.515259 
	C409.046875,160.357391 401.324097,163.160614 394.496857,169.454849 
	C393.521057,170.354431 392.628418,171.345566 391.637299,172.226837 
	C390.759766,173.007141 389.766266,173.805435 388.574188,172.842148 
	C387.672241,172.113297 387.901337,171.076477 388.121582,170.082138 
	C390.354706,160.000854 403.549744,150.529221 413.776764,151.745544 
	C417.760529,152.219345 421.054016,154.063385 423.276001,157.452637 
	C424.427490,159.208969 426.223724,161.264847 424.675110,163.327377 
	C423.310577,165.144821 421.010956,164.141068 418.675171,163.515259 
z"/>
<path fill="#000000" opacity="1.000000" stroke="none" 
	d="
M551.881714,338.858582 
	C548.783752,341.556915 545.427490,343.052124 541.904602,344.049042 
	C533.833435,346.332977 525.708923,348.428406 516.938416,350.779327 
	C516.988403,341.482788 520.814819,334.649750 527.278503,329.235413 
	C532.242432,325.077362 538.098022,322.844604 544.681763,322.729523 
	C549.109863,322.652100 553.114563,323.631866 555.228149,327.883636 
	C557.373779,332.199829 554.804565,335.490448 551.881714,338.858582 
z"/>
<path fill="#000000" opacity="1.000000" stroke="none" 
	d="
M385.655884,295.302063 
	C394.143616,303.507507 396.536957,313.334045 395.864288,323.974396 
	C393.872803,325.105896 392.843018,324.365753 391.891479,323.789307 
	C385.638733,320.001587 379.362000,316.248230 373.208862,312.303131 
	C369.526398,309.942139 366.468811,306.890350 364.797607,302.700531 
	C361.532593,294.514893 366.109772,288.609131 374.863373,289.719940 
	C379.004181,290.245392 382.261353,292.523804 385.655884,295.302063 
z"/>
<path fill="#000000" opacity="1.000000" stroke="none" 
	d="
M445.975006,394.841644 
	C457.989624,394.704163 468.857758,392.106659 478.922089,386.285461 
	C481.717743,384.668457 483.130615,382.990662 482.096161,379.491913 
	C481.322723,376.875824 481.104797,373.961304 482.372375,371.441010 
	C484.288147,370.561127 485.150177,371.713013 485.906647,372.783173 
	C490.052124,378.647614 494.719910,384.057312 499.722534,389.205841 
	C501.163025,390.688324 503.316528,392.630676 501.532227,394.791473 
	C499.429077,397.338348 497.025421,395.252472 495.529236,393.722839 
	C491.714722,389.823120 488.372406,390.786621 484.068878,393.188477 
	C467.870636,402.228882 450.825684,405.655060 432.752319,399.200836 
	C430.369141,398.349731 427.573547,397.609467 427.239166,393.435944 
	C433.555237,393.143524 439.476227,395.390045 445.975006,394.841644 
z"/>
<path fill="#000000" opacity="1.000000" stroke="none" 
	d="
M151.037949,132.108093 
	C163.458298,137.308228 173.492966,133.840210 180.058136,122.419685 
	C180.990234,120.798264 181.673294,117.951851 184.185913,119.301460 
	C186.542191,120.567101 184.709015,122.942543 184.068237,124.629700 
	C180.657791,133.609238 171.180908,139.331039 160.112885,139.283401 
	C150.319412,139.241241 141.691528,133.503143 138.274475,124.721497 
	C137.683990,123.204018 136.936569,121.652557 138.304291,119.404976 
	C144.019669,122.079872 144.654205,129.898911 151.037949,132.108093 
z"/>
<path fill="#000000" opacity="1.000000" stroke="none" 
	d="
M145.997437,108.292023 
	C142.085205,107.602722 140.912109,105.345978 141.703964,102.061218 
	C142.298264,99.595901 144.124878,98.414406 146.595276,98.919914 
	C149.217407,99.456474 150.533630,101.387459 150.454697,104.013130 
	C150.379349,106.519501 148.864975,107.924034 145.997437,108.292023 
z"/>
<path fill="#000000" opacity="1.000000" stroke="none" 
	d="
M175.678680,108.086349 
	C173.071625,106.281693 172.084839,104.200012 173.410019,101.505318 
	C174.203033,99.892761 175.629517,98.972565 177.416183,99.055092 
	C179.639343,99.157768 181.063019,100.529518 181.732880,102.587395 
	C182.818741,105.923248 180.597855,108.087349 175.678680,108.086349 
z"/>
</svg>