<svg version="1.1" id="Layer_1" xmlns="http://www.w3.org/2000/svg" xmlns:xlink="http://www.w3.org/1999/xlink" x="0px" y="0px"
	 width="100%" viewBox="0 0 1024 784" enable-background="new 0 0 1024 784" xml:space="preserve">
<path fill="#000000" opacity="1.000000" stroke="none" 
	d="
M121.468658,785.000000 
	C127.969513,781.585022 135.730942,781.405396 143.116425,779.783875 
	C208.999237,765.318970 274.506744,749.488770 338.381989,727.540100 
	C343.733978,725.701050 349.013855,723.651306 354.315887,721.669006 
	C354.895844,721.452148 355.400330,721.033508 357.244232,719.922363 
	C352.436371,719.922363 349.017365,719.916382 345.598358,719.923218 
	C309.267426,719.995667 272.936523,720.076172 236.605591,720.140198 
	C226.609665,720.157837 224.200211,717.873596 223.652390,707.980408 
	C223.307892,701.758911 223.071625,701.428894 216.904388,702.321411 
	C178.863068,707.826538 140.862198,713.526733 103.319138,721.976562 
	C86.268105,725.814331 69.237579,729.701050 52.308975,734.043213 
	C48.466789,735.028809 44.815937,734.809448 43.085922,730.488525 
	C41.687386,726.995544 43.918087,723.936951 48.959942,722.333618 
	C53.242008,720.971863 57.580700,719.768127 61.939888,718.676331 
	C64.632500,718.002014 65.815765,716.621521 65.685471,713.754456 
	C64.831268,694.957947 64.589058,676.116089 63.103718,657.371826 
	C62.118252,644.935669 69.033051,636.606750 75.849731,628.113831 
	C78.481743,624.834534 81.719933,627.439514 83.828133,630.001282 
	C90.865608,638.552795 97.752296,647.211060 96.095642,659.418579 
	C95.992172,660.181091 96.208359,660.987061 96.786758,661.752563 
	C96.786758,659.775757 97.042763,657.759399 96.744751,655.828491 
	C94.957161,644.246033 100.374603,635.151428 106.831276,626.464050 
	C110.369362,621.703674 113.382668,621.713623 117.461716,625.954651 
	C119.646980,628.226685 120.817833,631.340820 123.787552,633.434937 
	C127.586479,630.542480 129.060013,625.928955 131.852707,622.338318 
	C136.659363,616.158447 139.253082,616.179199 144.185623,622.277405 
	C151.345123,631.128845 156.234055,640.620911 154.431091,652.473572 
	C154.233124,653.774902 154.426483,655.135620 154.435669,656.468750 
	C154.449432,658.464661 155.306198,659.608643 157.447601,659.552002 
	C159.375320,659.500977 160.672470,658.720825 160.818420,656.666504 
	C160.924500,655.173157 161.109573,653.642761 160.908508,652.177002 
	C159.178329,639.564270 164.543655,629.505615 172.247513,620.262695 
	C175.879791,615.904724 178.866974,615.906982 182.397964,620.283386 
	C189.689728,629.320923 194.546570,638.895691 193.523727,651.277283 
	C192.525330,663.363098 193.356186,675.593323 193.168640,687.756775 
	C193.106155,691.809265 194.270950,693.006042 198.451645,692.160706 
	C204.469452,690.943848 210.627243,690.398132 216.737473,689.667908 
	C220.049576,689.272095 221.451126,688.220642 221.054169,684.271118 
	C217.176544,645.689575 213.573395,607.080444 209.871353,568.481140 
	C207.823044,547.124207 205.736481,525.770996 203.662415,504.416534 
	C203.518997,502.939789 203.547241,501.397247 201.930084,499.900513 
	C197.125519,501.273285 192.067459,503.053864 186.638565,502.128540 
	C171.330750,499.519531 162.701340,483.412140 168.866440,468.872131 
	C171.446335,462.787659 175.943130,457.993408 179.810944,452.802368 
	C188.968994,440.511322 198.255661,428.312378 207.710724,416.248932 
	C210.135529,413.155212 211.086823,410.062836 211.079208,406.192780 
	C211.000534,366.195282 211.055115,326.197540 211.084747,286.199860 
	C211.086609,283.701416 211.050674,281.190552 211.274094,278.707184 
	C211.787918,272.995789 214.187866,270.761963 219.965256,270.654327 
	C238.622177,270.306641 257.279541,269.963715 275.938110,269.732880 
	C284.215820,269.630493 286.630066,271.948639 286.892090,280.354034 
	C287.130859,288.013367 287.019989,295.683716 287.057068,303.349213 
	C287.068237,305.661041 287.058807,307.972931 287.058807,310.727692 
	C289.836609,310.103943 290.589874,308.080170 291.697845,306.648987 
	C335.145477,250.526321 378.548004,194.368744 421.960297,138.218719 
	C434.287354,122.274750 454.108612,122.299164 465.654297,138.713852 
	C503.615326,192.683487 541.372131,246.796783 579.195679,300.863098 
	C591.134644,317.929108 603.018860,335.033478 614.983215,352.081665 
	C616.183105,353.791412 617.090576,355.859222 619.250366,356.847015 
	C620.863464,355.140167 621.135071,352.929016 621.910339,350.957520 
	C629.030151,332.851318 640.712646,318.839966 658.627014,310.640350 
	C662.401062,308.912933 663.443909,306.982330 663.067017,302.700104 
	C660.935242,278.479309 679.573242,256.103546 703.825317,253.770233 
	C710.164001,253.160400 713.608521,251.006271 716.841431,244.942917 
	C732.578674,215.427872 757.760681,198.603882 790.966370,195.853485 
	C831.000916,192.537491 861.886536,208.580475 882.309509,243.578522 
	C884.144409,246.722992 886.084534,247.885406 889.721069,247.969421 
	C916.034790,248.577271 935.341187,268.570282 935.135498,295.058472 
	C935.102173,299.352539 936.420410,301.367859 940.357544,303.280975 
	C963.734802,314.640320 976.585144,334.138611 981.125061,359.137329 
	C984.979431,380.361481 980.566895,400.217468 968.392456,418.143707 
	C966.414856,421.055573 966.147705,423.667175 967.134705,427.001770 
	C971.779846,442.695404 970.988464,458.100830 962.609985,472.363373 
	C950.357056,493.221619 931.657654,502.839203 907.598694,501.930145 
	C904.383179,501.808655 902.513794,502.368835 900.737183,505.269104 
	C894.785767,514.984680 886.368347,521.845215 875.350891,525.131897 
	C872.791138,525.895508 871.502625,527.408997 870.498169,529.655090 
	C858.124390,557.325195 839.138611,579.422241 813.725586,595.824585 
	C808.083496,599.466187 805.534180,603.202576 805.996094,610.248230 
	C807.596375,634.655090 809.328857,659.036682 812.346497,683.315613 
	C812.636536,685.648621 813.306519,687.462463 816.078491,687.804565 
	C826.152100,689.048096 836.224182,690.311707 846.276855,691.711548 
	C850.425110,692.289062 851.857300,690.839600 851.791626,686.596497 
	C851.569824,672.267212 851.457520,657.928589 851.729004,643.601685 
	C851.927795,633.112732 859.166687,626.110779 865.536316,618.966187 
	C867.773376,616.456909 870.551453,618.453247 872.315979,620.700928 
	C879.391602,629.713928 885.854492,638.978333 884.277161,651.400696 
	C884.027283,653.369202 884.325867,655.401123 884.212402,657.394714 
	C884.051392,660.225525 884.930969,661.724976 888.121277,661.711975 
	C891.149475,661.699646 892.862854,660.883911 892.891235,657.536560 
	C892.915161,654.713562 893.698669,651.854736 893.435791,649.079102 
	C892.409485,638.242310 899.200989,631.024170 905.133606,623.508545 
	C908.606079,619.109497 911.814941,619.462036 915.352539,623.906372 
	C923.064209,633.594727 928.110657,644.125366 926.110352,657.016968 
	C925.621338,660.168091 925.934265,662.945984 930.489685,663.029358 
	C934.392456,663.100708 936.055481,661.834290 935.713257,657.881165 
	C934.717773,646.380920 941.710022,638.519043 948.491943,630.700500 
	C951.139282,627.648560 954.634583,627.759521 957.067383,631.073669 
	C963.373108,639.663879 969.377869,648.100891 968.392029,659.990295 
	C966.947937,677.406311 966.926514,694.936096 965.901550,712.394104 
	C965.649231,716.693115 967.054382,718.336548 970.953857,719.212524 
	C974.344543,719.973999 977.603271,721.361084 980.881531,722.576233 
	C986.462463,724.644775 988.342957,727.313049 987.039368,731.122742 
	C985.756836,734.870911 982.206665,736.045288 976.915710,734.266663 
	C956.383606,727.364563 935.510315,721.652893 914.388062,716.934326 
	C880.753479,709.420532 846.758972,704.038513 812.507263,700.144897 
	C759.126160,694.076721 705.571045,692.312378 651.899231,692.920715 
	C645.340271,692.995117 644.900879,693.383362 644.356506,699.946899 
	C644.012695,704.092041 643.743713,708.246460 643.265259,712.376404 
	C642.775818,716.600891 640.243225,718.941162 636.020630,719.262146 
	C633.699341,719.438660 631.356689,719.352173 629.023682,719.353943 
	C591.359802,719.382263 553.695923,719.399109 516.032043,719.435303 
	C507.509674,719.443481 507.697388,719.549072 504.587036,727.196594 
	C497.751587,744.003296 485.516266,756.730530 472.458008,768.741943 
	C466.582733,774.146118 460.401581,779.217651 454.179626,784.720093 
	C448.311951,785.000000 442.623932,785.000000 436.568604,784.674438 
	C440.264160,781.179626 444.351105,778.040649 448.385559,774.835571 
	C463.562561,762.778442 478.046844,750.026306 488.864594,733.689941 
	C491.503052,729.705566 494.252930,725.722961 494.970795,720.926086 
	C493.735596,719.666809 492.310394,719.670959 491.038940,719.680786 
	C479.714020,719.768311 468.389862,719.954529 457.065216,720.088196 
	C455.472687,720.106995 454.245270,720.829834 452.980133,721.704468 
	C423.780823,741.892273 391.803528,756.843323 359.512848,771.194092 
	C349.033203,775.851501 338.505646,780.401123 328.000000,785.000000 
	C318.312439,785.000000 308.624878,785.000000 298.665100,784.704285 
	C299.743958,783.782715 301.067902,783.088257 302.450073,782.540955 
	C335.434723,769.479736 368.015137,755.497192 399.701508,739.512146 
	C411.340759,733.640320 422.886322,727.562988 434.716614,719.910278 
	C409.430267,719.750671 384.957367,717.403687 362.829102,730.684204 
	C362.408020,730.936890 361.898254,731.041016 361.431122,731.217834 
	C312.777985,749.626709 262.619507,762.941162 212.212311,775.442200 
	C199.153595,778.680725 185.836151,780.856140 173.000000,785.000000 
	C155.979111,785.000000 138.958206,785.000000 121.468658,785.000000 
M779.684570,210.230118 
	C762.009216,214.714844 747.240540,223.796082 735.771667,238.062485 
	C730.516846,244.598953 726.438110,251.811890 723.283447,259.590729 
	C720.774048,265.778320 719.209839,266.471191 712.634033,265.574066 
	C709.501709,265.146729 706.358337,265.157898 703.209961,265.900574 
	C682.982849,270.671906 672.156860,287.439636 676.139526,307.935394 
	C677.420654,314.528351 676.264099,316.998230 670.772522,318.888977 
	C647.143372,327.024628 634.634644,344.242218 630.022400,368.169769 
	C629.334412,371.738678 630.386719,374.279510 632.220032,376.928314 
	C651.556824,404.866547 670.894592,432.804199 690.211121,460.756500 
	C692.291687,463.767212 694.359558,466.798584 695.290466,470.432159 
	C698.026123,481.109253 695.724243,490.327148 686.758423,497.846771 
	C691.505249,498.027832 695.285583,496.796265 699.075073,495.501038 
	C704.544678,493.631531 706.925659,494.720520 709.364380,500.016022 
	C718.173889,519.144592 739.361877,525.373169 757.107788,514.050903 
	C768.239868,506.948425 768.239868,506.948395 777.965698,515.449707 
	C792.660217,528.294128 814.248840,525.758301 827.592712,509.620514 
	C832.490723,503.696991 835.046448,503.334686 840.923279,507.731018 
	C859.288269,521.469482 883.121521,515.219238 892.580139,494.184052 
	C895.006348,488.788605 897.157837,487.515472 903.210632,488.662048 
	C910.207397,489.987488 917.094666,489.976135 923.980591,488.109894 
	C950.503601,480.921570 964.217041,453.435089 954.219238,427.150482 
	C952.616333,422.936493 952.144104,419.352692 955.165283,415.520142 
	C966.632019,400.973969 971.418701,384.287537 969.587646,365.957947 
	C967.072266,340.778076 951.886841,319.589417 928.616516,311.645233 
	C922.253845,309.473083 921.253052,307.695984 922.462280,300.843201 
	C926.660095,277.052338 907.645935,257.173676 883.827820,260.633362 
	C879.084595,261.322327 876.198059,259.817078 874.387756,255.452744 
	C859.578491,219.749390 817.835632,200.571274 779.684570,210.230118 
M576.500000,489.730377 
	C600.934143,489.730377 625.368225,489.730377 651.330017,489.730377 
	C581.299255,388.587189 512.245483,288.855042 442.426117,188.017120 
	C365.365204,289.145569 289.197021,389.102478 212.515198,489.733429 
	C334.383179,489.733429 454.941589,489.733429 576.500000,489.730377 
M231.381607,659.156189 
	C232.710907,672.725281 234.093796,686.289368 235.346100,699.865540 
	C235.941833,706.323914 236.263565,706.770386 242.864685,706.769836 
	C284.685547,706.766113 326.506439,706.742676 368.327301,706.733154 
	C375.782471,706.731445 375.779205,706.747375 375.788361,699.502747 
	C375.847229,652.850342 375.903625,606.197998 375.978210,559.545593 
	C375.982483,556.882812 375.962830,554.200073 376.263153,551.561768 
	C376.886505,546.086060 379.291229,543.745178 384.693604,543.727783 
	C419.183075,543.616699 453.672852,543.575378 488.162506,543.576721 
	C493.222260,543.576965 495.708405,546.078735 496.164825,551.210693 
	C496.312042,552.865906 496.265015,554.540466 496.266571,556.206177 
	C496.312286,604.346802 496.376434,652.487488 496.348297,700.628113 
	C496.346100,704.371277 496.468628,706.869263 501.483582,706.846741 
	C543.137085,706.659241 584.791748,706.673584 626.445801,706.747559 
	C630.288696,706.754333 631.529785,705.501709 631.789612,701.598450 
	C632.750244,687.164001 634.164124,672.760071 635.365356,658.341187 
	C637.174255,636.627930 638.950623,614.911865 640.734924,593.196594 
	C641.974792,578.107178 643.204895,563.016907 644.439270,547.927063 
	C645.523804,534.669373 646.463867,521.397461 647.768372,508.161407 
	C648.250427,503.270233 646.306458,502.016693 641.864258,502.355194 
	C636.722473,502.747009 631.549316,502.857788 626.389526,502.864380 
	C491.763062,503.036530 357.136627,503.179047 222.510162,503.327606 
	C216.165100,503.334595 215.961639,503.862396 216.710419,510.301270 
	C218.380600,524.663574 219.837936,539.051697 221.260010,553.441406 
	C222.781540,568.837585 224.133286,584.250427 225.613022,599.650818 
	C227.489685,619.182190 229.420654,638.708374 231.381607,659.156189 
M221.575623,419.055695 
	C214.886795,427.782257 208.180435,436.495453 201.514008,445.239105 
	C194.847321,453.983093 188.129288,462.690369 181.615540,471.547424 
	C178.466019,475.829987 178.296677,480.607239 181.108383,485.151520 
	C183.951172,489.746002 188.483368,490.536163 193.406570,489.681793 
	C197.349289,488.997589 199.571503,485.969849 201.804337,483.031555 
	C234.464371,440.052338 267.055756,397.020752 299.804108,354.108917 
	C344.176788,295.965179 388.655670,237.902496 433.123962,179.831802 
	C441.841064,168.448181 444.155670,168.565094 452.230896,180.221146 
	C485.723877,228.566132 519.242554,276.893311 552.726868,325.244293 
	C589.246033,377.977570 625.745239,430.724701 662.230835,483.481201 
	C666.407593,489.520569 673.941223,491.693237 679.122803,488.197968 
	C684.551819,484.535767 685.708923,476.444794 681.613403,470.368469 
	C679.006287,466.500427 676.315979,462.688354 673.652771,458.858276 
	C633.703979,401.405609 593.796814,343.923889 553.789795,286.511780 
	C521.022034,239.488388 488.157593,192.532272 455.280914,145.584930 
	C448.915619,136.495392 439.318176,136.498810 432.493530,145.321854 
	C419.447723,162.187881 406.312561,178.984985 393.305420,195.880692 
	C336.190704,270.070190 279.108429,344.284637 221.575623,419.055695 
M706.620483,523.827759 
	C704.421265,520.104492 702.017151,516.483337 700.093201,512.622864 
	C698.761475,509.950745 697.185486,508.902283 694.212585,509.554016 
	C687.621887,510.998840 681.053650,510.521820 674.393372,509.537720 
	C669.810547,508.860626 665.814758,506.243713 661.145081,505.687653 
	C660.806519,506.733246 660.478699,507.339508 660.425537,507.968994 
	C658.717102,528.177795 656.990295,548.385254 655.359436,568.600464 
	C652.497925,604.071899 649.769531,639.554321 646.769043,675.013855 
	C646.441345,678.885559 647.360168,680.020325 651.127869,680.007568 
	C681.256958,679.905701 711.394409,679.663940 741.477966,681.745667 
	C745.931702,682.053772 747.358826,680.059509 747.661804,676.092896 
	C749.776062,648.412903 751.605652,620.688538 754.290344,593.084473 
	C755.585205,579.770081 751.449890,571.045105 741.811462,563.481018 
	C741.419434,563.173401 741.066101,562.815979 740.699158,562.477051 
	C728.193115,550.926208 716.438354,538.709229 706.620483,523.827759 
M389.048309,589.500000 
	C388.142151,617.626160 388.724731,645.750671 389.085144,673.876709 
	C389.204590,683.198914 389.099487,692.525146 388.989014,701.848267 
	C388.951538,705.010315 389.734558,706.777954 393.440399,706.766479 
	C422.078857,706.677856 450.717865,706.692810 479.356293,706.791504 
	C482.873810,706.803589 483.985199,705.413330 483.977661,702.050720 
	C483.871857,654.930481 483.828308,607.810120 483.834045,560.689758 
	C483.834442,557.576599 482.842834,556.162415 479.531647,556.176880 
	C451.226257,556.300842 422.920471,556.347229 394.614777,556.353821 
	C390.664856,556.354736 388.902374,557.905884 388.987091,562.026978 
	C389.168396,570.848022 389.047638,579.675293 389.048309,589.500000 
M767.937622,557.190979 
	C767.363831,569.823242 766.977051,582.467468 766.169189,595.084778 
	C765.149292,611.011536 763.855957,626.922119 762.547607,642.828796 
	C761.593628,654.426758 760.508423,666.015869 759.305054,677.590515 
	C758.894714,681.538147 760.313232,682.816956 764.231567,682.945679 
	C770.535583,683.152954 776.811035,684.302551 783.113464,684.460632 
	C788.666687,684.600037 794.196777,686.689880 799.893555,685.122559 
	C799.893555,683.840271 799.989197,682.852173 799.879517,681.887451 
	C797.022766,656.762878 795.215576,631.558228 793.591797,606.326721 
	C793.062378,598.100708 795.657043,592.986450 802.770569,588.880188 
	C824.936340,576.084961 841.470459,557.622559 854.338257,535.720825 
	C855.796387,533.238953 857.639099,530.820679 857.819519,527.923401 
	C853.884338,525.629211 851.814026,527.071472 849.991577,530.444519 
	C845.665222,538.451599 839.650146,545.185852 832.700378,550.953918 
	C823.185059,558.851074 812.802612,564.954956 799.742432,564.311646 
	C795.174744,564.086609 792.700256,562.035828 792.590637,557.223206 
	C792.454285,551.237061 792.024536,545.258179 791.770264,539.274048 
	C791.689880,537.382812 791.688782,535.455994 789.368164,534.912537 
	C781.831604,533.147644 775.083740,529.799683 769.348083,524.363831 
	C768.891907,524.566467 768.435791,524.769104 767.979614,524.971802 
	C767.979614,535.395569 767.979614,545.819397 767.937622,557.190979 
M223.810333,384.912872 
	C223.637787,387.609619 222.763062,390.408356 224.798141,393.160583 
	C225.559052,392.490387 226.122086,392.135406 226.501617,391.639862 
	C241.693558,371.804169 256.849121,351.940521 272.078766,332.133850 
	C273.510803,330.271393 273.929565,328.318542 273.936157,326.098145 
	C273.973633,313.434784 273.917450,300.768982 274.169708,288.109528 
	C274.261902,283.485107 272.504089,282.056305 267.984528,282.236420 
	C255.004959,282.753601 242.011673,283.055176 229.022186,283.119720 
	C224.910583,283.140167 223.751785,284.323608 223.777298,288.547974 
	C223.969482,320.372070 223.868683,352.197968 223.810333,384.912872 
M73.207642,683.562927 
	C73.561295,692.692261 73.904366,701.822021 74.280685,710.950439 
	C74.333557,712.232971 74.015953,714.051575 75.619469,714.363953 
	C79.526588,715.125061 83.105179,713.279053 86.708298,712.207764 
	C89.409416,711.404663 88.693558,708.643005 88.628960,706.587830 
	C88.054886,688.324890 87.457275,670.062317 86.743050,651.804443 
	C86.519539,646.090576 82.100456,642.783691 78.952141,637.809998 
	C75.555092,643.862000 70.873825,647.992493 71.423630,654.748535 
	C72.177773,664.015564 72.609428,673.308838 73.207642,683.562927 
M121.198021,663.127625 
	C121.104294,659.463623 120.630020,655.761230 120.995827,652.143677 
	C121.764275,644.544373 116.889519,639.958923 112.452034,634.167725 
	C108.798248,639.559326 104.828430,643.870239 105.178139,650.538086 
	C106.041298,666.995667 106.692970,683.465515 107.289452,699.935486 
	C107.578629,707.920044 107.820236,708.225220 115.624466,706.388611 
	C116.434685,706.197998 117.225212,705.886047 118.044365,705.777710 
	C121.162491,705.365112 122.120300,703.475769 122.047607,700.534363 
	C121.747192,688.377319 121.541962,676.218018 121.198021,663.127625 
M958.561340,683.076538 
	C958.816162,676.764221 958.730286,670.445862 959.566528,664.149841 
	C960.768066,655.103088 959.297363,646.748962 951.988220,639.526489 
	C949.365723,644.200134 944.609497,647.521362 944.397827,652.911560 
	C943.686462,671.028931 943.445435,689.164917 943.039795,707.294128 
	C942.997009,709.207825 943.242065,711.093506 945.528931,711.605347 
	C949.056458,712.394836 952.422058,714.033936 956.375000,713.831787 
	C958.360291,703.913452 957.124695,693.862305 958.561340,683.076538 
M146.250717,695.701721 
	C146.135208,678.552673 145.977600,661.403809 145.925949,644.254578 
	C145.906677,637.857483 141.818039,633.909424 137.959274,629.001770 
	C134.436737,634.586914 130.130707,638.798523 130.341797,645.213379 
	C130.872498,661.342285 131.220810,677.479370 131.965546,693.598267 
	C132.417892,703.388367 132.667816,703.287170 142.553833,701.044922 
	C145.221771,700.439758 146.980209,699.636108 146.250717,695.701721 
M901.373840,680.577698 
	C901.346497,684.405029 901.309204,688.232239 901.293823,692.059631 
	C901.255737,701.522583 901.291382,701.363159 910.704712,703.228210 
	C914.468445,703.973877 915.763916,703.127747 915.867310,699.200012 
	C916.317810,682.079163 916.986267,664.963745 917.627197,647.848328 
	C917.873596,641.268921 913.727661,637.056946 909.855713,631.769775 
	C906.478027,636.808594 902.192627,640.253723 902.096069,646.176147 
	C901.914490,657.319702 901.623840,668.461487 901.373840,680.577698 
M169.433472,641.328979 
	C169.683533,658.147095 169.928131,674.965332 170.194366,691.783203 
	C170.214935,693.082764 169.919907,694.843262 171.405975,695.312012 
	C175.230408,696.518494 179.048981,695.242676 182.644455,694.218872 
	C185.058304,693.531494 184.540283,690.597656 184.553192,688.487000 
	C184.639786,674.327515 184.279419,660.151245 184.874191,646.014587 
	C185.183792,638.656006 181.202026,634.019958 176.728714,627.733765 
	C176.041580,629.069580 175.685654,629.824219 175.275421,630.548096 
	C173.390213,633.874817 171.489868,637.192993 169.433472,641.328979 
M860.314636,684.416382 
	C860.455139,694.464722 858.949707,693.599304 869.800903,695.272949 
	C873.492310,695.842285 874.926208,695.054199 874.951111,691.117615 
	C875.046753,676.008301 875.296631,660.898376 875.668457,645.793091 
	C875.831726,639.160889 871.824524,634.945190 867.840088,629.842529 
	C863.575745,635.193176 859.841370,639.656738 860.083862,646.568726 
	C860.514709,658.847351 860.273254,671.149658 860.314636,684.416382 
M817.128296,547.658081 
	C827.112854,541.564697 834.796570,533.321777 840.488037,523.190796 
	C837.753296,519.631287 835.505249,519.155701 832.305359,522.502991 
	C825.936157,529.165588 817.906006,533.235962 808.886536,534.846497 
	C805.007202,535.539185 804.160828,537.216553 804.171692,540.765442 
	C804.210876,553.616516 805.075562,554.189941 817.128296,547.658081 
M736.873657,533.571716 
	C734.004944,531.550781 730.856018,530.691895 726.533752,530.986938 
	C735.548035,541.510315 744.860413,550.581177 755.850220,560.072388 
	C755.850220,555.914124 755.646606,553.422119 755.896973,550.976501 
	C756.294189,547.095337 755.189331,544.517639 751.451904,542.598816 
	C746.602722,540.109253 742.135498,536.875793 736.873657,533.571716 
M930.899780,688.608582 
	C926.659119,687.594177 924.673950,689.282104 924.729492,693.624207 
	C924.750549,695.268738 924.409546,696.914673 924.362793,698.563660 
	C924.127197,706.862610 924.549500,707.290222 933.647278,707.748230 
	C933.969604,702.554810 934.301331,697.330566 934.614197,692.105225 
	C934.737366,690.047668 933.522400,689.132507 930.899780,688.608582 
M892.284790,697.575134 
	C892.409058,695.095337 892.603760,692.616516 892.638123,690.135498 
	C892.673218,687.593750 890.875000,687.225342 888.883545,687.282715 
	C886.957825,687.338196 884.888794,686.840759 884.158997,689.676819 
	C882.449524,696.320312 884.885315,699.124512 892.284790,697.575134 
M160.155426,697.512695 
	C162.823578,694.305969 161.421875,690.576355 161.362335,687.069031 
	C161.334412,685.424438 159.694534,685.286072 158.294098,685.327759 
	C156.612762,685.377930 155.334488,685.949524 155.262833,687.853210 
	C155.175705,690.168518 155.281128,692.493591 155.132706,694.803467 
	C154.907532,698.307983 156.670670,698.727844 160.155426,697.512695 
M925.400879,677.011292 
	C926.710632,680.442505 929.713196,679.381104 932.214539,679.508606 
	C933.519409,679.575134 934.493286,678.785217 934.570984,677.433777 
	C934.687744,675.401245 935.635498,672.600647 932.333801,672.420471 
	C929.460938,672.263794 925.085205,670.295654 925.400879,677.011292 
M884.416504,672.041809 
	C884.354126,672.862793 884.241089,673.683655 884.240356,674.504700 
	C884.238953,676.087585 884.541382,677.593872 886.479065,677.763062 
	C888.398804,677.930664 890.578247,678.674377 892.082947,676.934021 
	C893.230774,675.606384 893.279297,673.473572 892.484680,672.225464 
	C890.462524,669.049316 887.512085,670.160461 884.416504,672.041809 
M160.856262,672.372131 
	C160.942383,670.256470 160.887756,668.274048 157.931198,668.314514 
	C156.211563,668.338074 155.024460,669.010193 154.756775,670.774231 
	C154.476639,672.620361 154.379288,674.694824 156.406754,675.504150 
	C158.450119,676.319885 160.396469,675.939453 160.856262,672.372131 
M98.029846,695.050354 
	C97.949265,694.091797 97.868690,693.133179 97.788109,692.174622 
	C97.524536,697.675537 96.806229,703.190552 98.261902,710.069641 
	C99.345825,704.297668 98.415459,700.063721 98.029846,695.050354 
z"/>
<path fill="#000000" opacity="1.000000" stroke="none" 
	d="
M744.865723,47.726578 
	C769.132874,49.869869 784.294312,62.487747 787.694946,84.280525 
	C788.651733,90.411812 790.093018,92.811012 796.590393,93.370171 
	C803.826416,93.992889 810.773804,96.872208 816.808655,101.370987 
	C833.527893,113.834732 833.267578,135.348587 816.023071,147.124756 
	C802.774414,156.172180 787.965332,156.752930 772.802429,153.955048 
	C766.763794,152.840805 760.794495,151.246887 754.896606,149.519699 
	C752.065674,148.690674 750.102600,148.902710 747.712219,150.890228 
	C727.284119,167.875305 705.175720,169.846008 681.734985,157.660919 
	C679.373230,156.433228 677.524109,156.583710 675.197815,157.603317 
	C654.512024,166.669861 632.952698,162.706863 616.783325,146.632614 
	C613.936279,143.802261 611.270081,143.131210 607.473450,143.642532 
	C598.723877,144.820877 589.852417,145.581436 581.115173,143.912140 
	C563.077515,140.465988 550.498962,127.190834 548.837830,110.372330 
	C547.236877,94.162148 557.206665,78.883842 574.042053,71.678307 
	C581.221313,68.605560 588.699158,67.320030 596.475891,67.805733 
	C599.203003,67.976051 601.086670,67.483025 602.222595,64.437210 
	C614.411194,31.756058 654.971680,17.503641 688.770447,37.259933 
	C697.740906,42.503418 704.386292,50.111462 710.808899,58.753048 
	C721.038940,51.798462 731.990234,47.396141 744.865723,47.726578 
M694.476624,55.029495 
	C681.429688,41.941242 665.540100,36.573456 647.491394,39.488503 
	C628.756897,42.514313 616.502441,53.932854 610.333435,71.836746 
	C607.683838,79.526390 607.538635,79.642845 599.732666,78.622200 
	C594.232300,77.903030 588.754150,78.246292 583.329773,79.352592 
	C569.621460,82.148384 559.061707,94.334991 559.052795,107.330070 
	C559.043884,120.298630 568.809448,130.978867 583.051941,133.933304 
	C591.747620,135.737152 600.374939,134.447281 608.879944,133.255753 
	C614.790955,132.427658 618.743164,133.508408 622.848816,138.065018 
	C636.093384,152.764450 655.794861,156.323471 672.866211,147.303070 
	C677.278320,144.971725 680.656006,145.063263 684.834473,147.624390 
	C695.945312,154.434631 708.007507,156.601883 720.838379,153.743011 
	C728.871826,151.953033 735.730469,147.776611 741.661438,142.353119 
	C746.417419,138.004074 751.034424,137.058594 757.095581,139.241821 
	C763.173340,141.430954 769.523743,143.201065 775.903992,144.138855 
	C787.573303,145.854019 799.249512,145.955780 809.691650,139.059921 
	C822.279602,130.747070 822.063049,116.609467 809.316223,108.634323 
	C803.048889,104.713089 796.093323,103.411995 788.848083,103.022095 
	C778.268616,102.452789 778.276001,102.404739 778.100342,92.093208 
	C778.077637,90.761551 778.026123,89.426201 777.898804,88.101135 
	C776.654907,75.157272 770.247131,65.912331 758.038208,61.133484 
	C742.003296,54.857098 727.715820,58.528816 714.753479,69.182594 
	C709.150085,73.788033 707.382019,73.435905 703.386719,67.299156 
	C700.754456,63.255962 698.410278,59.002430 694.476624,55.029495 
z"/>
<path fill="#000000" opacity="1.000000" stroke="none" 
	d="
M154.557281,195.657150 
	C128.566635,185.445953 112.814125,161.126144 113.753021,133.056000 
	C114.636513,106.642677 132.399185,82.897293 158.014435,75.526360 
	C183.236038,68.268707 205.927612,73.768059 223.612015,93.468285 
	C241.530869,113.429688 245.078217,136.916534 234.368011,161.401520 
	C223.623734,185.964447 203.851456,198.402405 176.982529,199.368637 
	C169.388046,199.641754 162.061203,198.300568 154.557281,195.657150 
M212.977829,98.518730 
	C200.728653,86.727936 185.865433,82.460320 169.363998,84.496735 
	C141.723541,87.907799 121.288269,115.379852 125.510056,142.744247 
	C130.169785,172.947235 156.874008,192.709488 185.774368,187.140869 
	C206.073303,183.229630 219.748962,171.011322 225.902664,151.622025 
	C232.112030,132.057297 227.778320,114.158051 212.977829,98.518730 
z"/>
<path fill="#000000" opacity="1.000000" stroke="none" 
	d="
M171.913254,51.785084 
	C171.920441,45.174221 171.864319,39.035698 171.961426,32.899593 
	C172.014526,29.545027 172.856628,26.167269 176.898239,26.089865 
	C181.073898,26.009893 181.806686,29.582548 181.891266,32.818184 
	C182.077621,39.945839 182.023865,47.081524 181.965286,54.213081 
	C181.936630,57.702984 181.315460,61.445606 176.984695,61.471600 
	C172.619507,61.497799 172.170013,57.692574 171.938858,54.248508 
	C171.894501,53.587566 171.920380,52.921909 171.913254,51.785084 
z"/>
<path fill="#000000" opacity="1.000000" stroke="none" 
	d="
M82.099113,130.040344 
	C87.559944,130.058350 92.540894,129.949692 97.509773,130.146133 
	C100.494041,130.264099 103.310966,131.315475 103.420319,134.906479 
	C103.540024,138.837296 100.548378,139.960449 97.391342,140.033356 
	C89.765564,140.209442 82.129555,140.229355 74.504890,140.032410 
	C71.201157,139.947083 67.909088,138.758621 67.969917,134.710556 
	C68.026222,130.962723 71.307938,130.668228 74.167061,130.418442 
	C76.641495,130.202240 79.131195,130.160828 82.099113,130.040344 
z"/>
<path fill="#000000" opacity="1.000000" stroke="none" 
	d="
M171.931351,221.083954 
	C172.030136,218.114517 171.938431,215.603271 172.286957,213.154663 
	C172.612061,210.870499 173.952423,209.041656 176.469788,208.884247 
	C179.203201,208.713333 180.741486,210.418747 181.416580,212.903992 
	C182.524323,216.981918 181.942581,221.162781 182.007370,225.297974 
	C182.074951,229.611496 182.128967,233.940216 181.843353,238.239319 
	C181.632095,241.419098 180.302338,244.375519 176.501724,244.171783 
	C172.925705,243.980087 172.110428,240.952454 172.023849,238.005035 
	C171.863007,232.530350 171.949493,227.048386 171.931351,221.083954 
z"/>
<path fill="#000000" opacity="1.000000" stroke="none" 
	d="
M113.225182,77.814949 
	C109.244926,73.780167 105.437614,70.072754 101.820847,66.187935 
	C99.377998,63.564041 95.854736,60.528046 99.641396,56.933285 
	C103.051437,53.696056 106.053467,56.766644 108.574829,59.225929 
	C113.326210,63.860325 118.034180,68.541206 122.675964,73.285187 
	C125.044472,75.705833 127.724854,78.602013 124.540749,81.822952 
	C121.286079,85.115280 118.196503,82.899406 115.587517,80.182625 
	C114.898003,79.464630 114.182709,78.771393 113.225182,77.814949 
z"/>
<path fill="#000000" opacity="1.000000" stroke="none" 
	d="
M277.643494,130.104614 
	C279.095001,130.180954 280.099609,130.177628 281.078705,130.334076 
	C283.953644,130.793488 286.339905,132.049454 286.182922,135.345947 
	C286.026855,138.622650 283.460968,139.910187 280.642639,139.954819 
	C272.844208,140.078262 265.035950,140.062454 257.242798,139.785034 
	C254.292969,139.680054 251.547989,138.330475 251.640366,134.691147 
	C251.729401,131.183167 254.535370,130.418518 257.267853,130.328400 
	C263.902191,130.109558 270.545349,130.157486 277.643494,130.104614 
z"/>
<path fill="#000000" opacity="1.000000" stroke="none" 
	d="
M109.808868,209.846436 
	C108.212944,211.334015 106.968529,212.704346 105.502602,213.769943 
	C103.620636,215.137970 101.447418,215.628006 99.590675,213.800995 
	C97.699654,211.940277 97.309723,209.395935 99.067818,207.477173 
	C105.346100,200.625198 111.794319,193.910156 118.901054,187.903397 
	C120.747063,186.343109 123.147881,186.762741 124.711090,188.683563 
	C126.588181,190.990067 126.026398,193.435043 124.092613,195.433502 
	C119.472351,200.208374 114.745651,204.880280 109.808868,209.846436 
z"/>
<path fill="#000000" opacity="1.000000" stroke="none" 
	d="
M239.451447,65.451859 
	C242.332336,62.678673 244.900177,60.078110 247.603745,57.627270 
	C249.575562,55.839783 251.938522,54.750668 254.301834,56.770962 
	C256.871643,58.967770 256.281860,61.715401 254.301895,63.823483 
	C248.511765,69.988281 242.600449,76.047546 236.536880,81.942726 
	C234.451385,83.970276 231.633667,84.316727 229.399445,81.973000 
	C227.058304,79.517113 228.135544,77.000801 230.104736,74.900063 
	C233.054214,71.753548 236.158249,68.751900 239.451447,65.451859 
z"/>
<path fill="#000000" opacity="1.000000" stroke="none" 
	d="
M251.901093,214.800720 
	C249.598953,214.706436 248.100082,213.714539 246.778503,212.394516 
	C241.381180,207.003510 235.973007,201.623215 230.602875,196.205231 
	C228.268250,193.849792 226.959641,191.050964 229.761963,188.399902 
	C232.409943,185.894882 235.038177,187.513290 237.183929,189.612213 
	C242.755524,195.062164 248.372421,200.473816 253.745651,206.115616 
	C257.075195,209.611557 256.472626,212.173767 251.901093,214.800720 
z"/>
<path fill="#000000" opacity="1.000000" stroke="none" 
	d="
M687.651123,381.140625 
	C678.665588,364.260681 685.483215,345.534943 701.666504,339.039642 
	C710.229614,335.602753 721.534180,338.021606 727.008972,344.503174 
	C728.240234,345.960754 730.221313,347.713226 728.482605,349.711334 
	C726.482727,352.009399 724.997498,349.665131 723.542419,348.453278 
	C712.433594,339.201538 695.662537,345.564575 692.456055,360.253601 
	C689.964844,371.665863 696.030823,384.608765 706.393433,389.803406 
	C711.629272,392.428070 716.857056,392.970276 721.968811,389.339050 
	C723.412537,388.313507 725.224182,386.668854 726.767700,388.633514 
	C728.430542,390.750153 726.455139,392.410614 724.967102,393.640869 
	C719.342529,398.290955 712.999573,398.943695 706.167114,396.780792 
	C697.941589,394.176880 692.064697,388.818634 687.651123,381.140625 
z"/>
<path fill="#000000" opacity="1.000000" stroke="none" 
	d="
M904.777832,457.906158 
	C915.046082,457.134460 922.327454,452.851044 925.683533,443.152008 
	C928.413452,435.262604 925.480530,427.255707 918.309387,422.922028 
	C917.882935,422.664246 917.432251,422.446838 916.996765,422.203491 
	C915.665955,421.459808 914.090332,420.665710 914.896179,418.826050 
	C915.806030,416.748718 917.623840,417.445221 919.219116,417.958160 
	C929.923767,421.400055 936.191345,434.495483 932.722595,446.147827 
	C928.592651,460.020966 913.785461,468.580322 898.296631,466.001495 
	C891.803772,464.920410 885.735596,462.778717 880.719238,458.321991 
	C874.751160,453.019684 872.404297,446.393799 874.082581,438.575073 
	C874.546082,436.415741 875.364563,433.434326 878.411072,434.139343 
	C881.327820,434.814301 879.681213,437.352264 879.405823,439.174805 
	C878.302002,446.478577 883.195007,453.454620 891.518433,456.428284 
	C895.672729,457.912415 899.981750,458.048950 904.777832,457.906158 
z"/>
<path fill="#000000" opacity="1.000000" stroke="none" 
	d="
M875.867065,322.326721 
	C883.678040,336.884338 879.546875,351.877808 865.566467,359.975555 
	C855.549866,365.777374 844.876282,367.561493 833.951355,362.979309 
	C827.037720,360.079559 822.832703,354.589905 822.366882,346.827820 
	C822.251221,344.901245 822.262024,342.339294 824.903931,342.122131 
	C827.602600,341.900299 827.080688,344.425476 827.399597,346.138336 
	C828.334595,351.159637 831.401306,354.401306 836.011108,356.359436 
	C849.669373,362.161072 868.259766,353.022339 872.019714,338.642303 
	C874.513428,329.105103 867.500916,318.521027 857.778442,317.156738 
	C857.119263,317.064209 856.443909,317.073669 855.790649,316.955109 
	C854.467224,316.714996 852.931396,316.485138 852.869751,314.795227 
	C852.796753,312.790985 854.550293,312.415527 856.002075,312.276947 
	C861.388733,311.762848 866.250854,313.362396 870.449341,316.662384 
	C872.389648,318.187469 873.928467,320.223297 875.867065,322.326721 
z"/>
<path fill="#000000" opacity="1.000000" stroke="none" 
	d="
M700.217407,439.480011 
	C699.717285,447.979095 701.980103,454.939148 708.136230,460.551270 
	C714.311279,466.180664 722.049805,465.900452 729.966187,466.045105 
	C729.401917,470.315765 726.487610,470.698608 724.077087,471.045563 
	C716.280640,472.167786 709.003113,470.375702 703.027588,465.268890 
	C695.040710,458.443085 690.330200,449.826874 691.511719,438.936707 
	C692.336487,431.334381 697.266235,427.112823 704.781738,427.872437 
	C715.199829,428.925354 723.291565,434.089813 728.627563,443.188507 
	C729.740723,445.086731 731.436523,447.639069 728.712219,449.398254 
	C725.931091,451.194061 725.051270,448.069733 723.831177,446.585999 
	C718.789612,440.454834 712.693970,436.615265 704.460510,437.064301 
	C702.817993,437.153870 701.027893,437.019897 700.217407,439.480011 
z"/>
<path fill="#000000" opacity="1.000000" stroke="none" 
	d="
M762.779053,270.136169 
	C761.444092,269.391144 760.453491,268.754150 759.381592,268.316071 
	C756.322510,267.065765 752.718140,264.781891 749.974182,266.982788 
	C746.913330,269.437897 747.011597,273.863068 747.600769,277.672302 
	C749.619812,290.725037 756.474609,297.506226 769.606689,299.721466 
	C770.588684,299.887115 771.625977,299.883209 772.307617,301.345520 
	C772.154358,303.685364 770.173767,304.051758 768.171814,304.248901 
	C764.081543,304.651703 760.217407,303.627899 756.557251,301.949799 
	C744.377319,296.365570 736.804382,280.853424 739.782043,267.772919 
	C741.657654,259.533356 747.079041,255.857544 755.228577,257.861115 
	C766.136719,260.542877 773.074951,267.672668 776.661194,278.202698 
	C777.357971,280.248810 777.526306,282.449554 775.340759,283.449677 
	C772.973267,284.533020 772.267639,282.282318 771.532898,280.640076 
	C769.649963,276.431702 766.757629,273.068451 762.779053,270.136169 
z"/>
<path fill="#000000" opacity="1.000000" stroke="none" 
	d="
M937.439087,360.270264 
	C931.488098,369.190796 923.556641,373.993103 913.099976,374.278076 
	C911.623718,374.318359 910.104309,374.093872 908.662903,373.749329 
	C907.017944,373.356079 905.146484,372.637482 905.461365,370.581726 
	C905.761475,368.622528 907.718689,369.085846 909.164185,369.029572 
	C922.657776,368.504242 931.341064,360.951019 933.455017,347.895874 
	C934.654297,340.490051 932.009338,337.841614 924.694702,339.517822 
	C918.201660,341.005798 913.536865,345.184387 909.746948,350.501251 
	C908.708679,351.957916 908.132935,354.860229 905.439819,353.289398 
	C902.924561,351.822296 904.070557,349.422455 905.045471,347.517487 
	C909.820984,338.187195 917.211975,332.114624 927.735840,330.700531 
	C937.042419,329.450012 941.852783,333.890411 942.196533,343.358612 
	C942.414612,349.366608 940.744263,354.862885 937.439087,360.270264 
z"/>
<path fill="#000000" opacity="1.000000" stroke="none" 
	d="
M793.175659,398.485168 
	C796.017517,396.428162 797.735474,398.298584 799.390259,399.893616 
	C807.154358,407.377075 807.267273,418.246704 799.733826,426.746246 
	C789.159607,438.676544 769.307434,439.475922 758.014221,428.328125 
	C754.070251,424.434967 752.035583,419.525635 751.906067,414.004852 
	C751.856934,411.910065 752.277649,409.220581 754.968384,408.978668 
	C758.194031,408.688568 757.749573,411.588165 758.016113,413.627167 
	C759.043762,421.489471 765.778137,427.165833 774.834412,427.677734 
	C780.437866,427.994476 785.770569,426.817169 790.734314,424.236511 
	C799.604553,419.624817 801.433716,410.181030 795.002075,402.585724 
	C794.053223,401.465149 792.692871,400.580963 793.175659,398.485168 
z"/>
<path fill="#000000" opacity="1.000000" stroke="none" 
	d="
M842.768188,473.591980 
	C843.547607,470.954651 843.847290,468.692017 843.231018,466.333099 
	C842.848206,464.867767 842.557861,463.132996 844.554932,462.621368 
	C846.713074,462.068420 847.447083,463.809692 848.031372,465.399628 
	C849.856140,470.365448 849.796448,475.340912 846.910950,479.816467 
	C840.568909,489.653259 831.106995,493.345825 819.823669,492.104645 
	C809.291931,490.946106 801.383118,485.759796 797.575134,475.379242 
	C796.327820,471.979004 796.340271,468.514679 797.141907,465.059265 
	C797.497375,463.526855 798.502319,462.224884 800.268860,462.352295 
	C802.227112,462.493561 802.332886,464.040131 802.448608,465.657104 
	C803.219971,476.434448 810.247375,483.292328 821.119263,483.686279 
	C829.845581,484.002472 838.361572,483.565338 842.768188,473.591980 
z"/>
<path fill="#000000" opacity="1.000000" stroke="none" 
	d="
M595.435974,635.536621 
	C573.163635,636.559998 551.357056,636.289368 529.568665,635.035156 
	C523.525696,634.687378 521.354858,631.912476 520.877991,624.424500 
	C520.402039,616.951843 520.093201,609.460083 520.000427,601.973083 
	C519.777649,583.994019 519.290710,566.009766 520.679993,548.045715 
	C521.232056,540.907166 523.137756,538.372131 530.319824,537.815674 
	C554.757812,535.922485 579.219421,536.067078 603.653809,537.924011 
	C609.726746,538.385498 611.667908,540.561829 612.803711,546.600342 
	C613.078918,548.063416 613.216980,549.573608 613.222534,551.062866 
	C613.313049,575.207092 613.771973,599.355774 612.260193,623.480164 
	C611.697021,632.466858 609.011536,635.109924 599.891357,635.359985 
	C598.559570,635.396545 597.227966,635.444824 595.435974,635.536621 
M530.347961,558.664917 
	C530.517029,578.962280 529.848450,599.265930 531.028442,619.558716 
	C531.244080,623.266724 532.124207,624.903137 536.171387,624.873108 
	C556.307495,624.723389 576.445496,624.774109 596.582397,624.859802 
	C599.947510,624.874084 601.618286,624.130066 601.819580,620.201782 
	C602.953003,598.082092 602.788879,575.954346 602.827637,553.822388 
	C602.835449,549.374634 601.131714,548.266724 596.952820,548.083618 
	C576.992249,547.208862 557.050964,547.157227 537.082947,547.926453 
	C532.010620,548.121826 530.156311,550.004639 530.391418,554.720703 
	C530.441040,555.715942 530.371216,556.717102 530.347961,558.664917 
z"/>
<path fill="#000000" opacity="1.000000" stroke="none" 
	d="
M347.238525,606.986084 
	C346.912170,613.627380 346.705078,619.779968 346.243530,625.913452 
	C345.755981,632.393311 343.276947,634.839050 336.810211,635.205200 
	C312.861938,636.560913 288.907928,636.426514 264.961487,635.160095 
	C258.561340,634.821594 256.057037,632.354065 255.682053,625.784241 
	C254.184479,599.543945 252.818390,573.296265 254.687668,547.010925 
	C255.094803,541.285950 257.095673,538.862671 262.781097,538.060608 
	C267.218384,537.434692 271.718414,536.964172 276.193054,536.942627 
	C295.987946,536.847229 315.799011,535.888733 335.568939,537.689148 
	C343.551910,538.416199 345.734680,540.958557 346.329285,549.101624 
	C347.725098,568.217651 347.237457,587.355591 347.238525,606.986084 
M275.496460,548.072937 
	C274.496735,548.092651 273.496979,548.112915 272.497253,548.132019 
	C264.383423,548.287292 264.275665,548.288513 264.378235,556.492859 
	C264.638519,577.313354 265.143280,598.132019 265.223083,618.952698 
	C265.241119,623.660095 266.876373,624.844971 271.321991,624.933838 
	C290.311279,625.313477 309.293854,625.048462 328.278595,624.835083 
	C336.167206,624.746460 336.486664,624.712463 336.553070,616.735657 
	C336.726410,595.906799 336.580750,575.075439 336.616486,554.245239 
	C336.623810,549.980225 335.083923,548.150208 330.409546,548.021301 
	C312.421844,547.525452 294.446198,546.786560 275.496460,548.072937 
z"/>
<path fill="#000000" opacity="1.000000" stroke="none" 
	d="
M454.626892,623.692383 
	C461.263031,618.117493 466.423065,617.312866 472.665161,620.645691 
	C478.167755,623.583618 481.496216,629.675964 480.759491,635.461243 
	C479.943634,641.867493 475.288269,647.087708 468.909454,648.749329 
	C463.261078,650.220642 456.920258,647.663208 453.302887,642.454590 
	C449.498840,636.977112 449.875000,630.456848 454.626892,623.692383 
M470.008026,637.615784 
	C472.168488,634.623474 472.163116,631.700684 469.390808,629.159912 
	C467.075317,627.037903 464.379547,626.609558 461.652588,628.465149 
	C458.904785,630.335083 458.580078,633.096252 459.391205,635.996948 
	C460.553711,640.154236 464.571075,640.978516 470.008026,637.615784 
z"/>
<path fill="#000000" opacity="1.000000" stroke="none" 
	d="
M175.217880,154.972351 
	C183.371063,155.663666 189.082626,152.061768 193.909668,146.506241 
	C195.839279,144.285416 197.808899,141.001770 201.184433,143.819321 
	C204.725571,146.775101 201.847412,149.558548 199.892563,151.940872 
	C186.637253,168.094666 164.653320,167.613144 153.036270,150.947540 
	C151.394196,148.591858 149.465073,145.976639 152.814209,143.614624 
	C155.808167,141.503098 157.737656,143.678986 159.411636,145.918518 
	C163.273514,151.085098 168.060852,154.653320 175.217880,154.972351 
z"/>
<path fill="#000000" opacity="1.000000" stroke="none" 
	d="
M164.337082,129.777527 
	C163.061584,132.380020 162.104034,134.975296 158.923676,134.556976 
	C155.984741,134.170395 155.096039,131.622009 154.216965,129.285339 
	C152.503098,124.729774 152.688736,120.177742 154.543381,115.694855 
	C155.391266,113.645416 156.392609,111.708138 159.025436,111.623917 
	C161.880554,111.532593 163.147720,113.532585 164.037582,115.741669 
	C165.838272,120.211807 165.851776,124.793381 164.337082,129.777527 
z"/>
<path fill="#000000" opacity="1.000000" stroke="none" 
	d="
M200.354065,126.171631 
	C199.495956,130.112762 199.058121,134.698242 194.349274,134.333694 
	C190.071167,134.002457 189.290771,129.598785 188.721603,125.963470 
	C188.177353,122.487068 188.422729,118.994286 189.806503,115.696686 
	C190.672363,113.633278 191.959747,111.834175 194.467590,111.801300 
	C196.955215,111.768692 198.354950,113.442032 199.261246,115.524643 
	C200.690720,118.809479 200.853760,122.259895 200.354065,126.171631 
z"/>
<path fill="#000000" opacity="1.000000" stroke="none" 
	d="
M557.635620,589.309448 
	C549.519043,589.142517 541.882141,588.642334 534.292480,587.558044 
	C533.507690,587.445923 532.660278,587.192810 532.211609,585.993652 
	C533.184021,583.997437 535.301025,584.100098 537.160828,583.835938 
	C543.768188,582.897522 550.426270,582.376282 557.084290,582.709290 
	C561.539062,582.932068 562.949524,581.113953 562.787964,576.864624 
	C562.509583,569.541382 563.038879,562.226868 563.780334,554.932678 
	C563.998108,552.789734 564.239319,550.689514 565.493042,548.556335 
	C568.254028,550.024963 567.945496,552.566772 568.176758,554.648010 
	C569.003784,562.091675 569.800354,569.570923 569.279846,577.060791 
	C568.966919,581.563232 570.801453,582.770508 575.038635,582.784485 
	C581.685852,582.806396 588.332642,583.427795 594.976257,583.847412 
	C596.906433,583.969299 598.905579,584.066162 600.700378,585.987366 
	C598.660217,587.939392 596.332031,587.919678 594.133423,588.176331 
	C587.512024,588.949158 580.866760,589.520630 574.200073,589.295532 
	C570.501709,589.170715 569.100830,590.673462 569.298218,594.318787 
	C569.677429,601.322632 568.870178,608.286865 568.184509,615.243958 
	C567.962036,617.500488 568.181519,619.927185 566.259094,622.011536 
	C563.872009,620.565552 564.082214,618.116333 563.861877,615.968750 
	C563.114136,608.680725 562.519958,601.373352 562.743713,594.039795 
	C562.846252,590.678772 561.584106,588.980164 557.635620,589.309448 
z"/>
<path fill="#000000" opacity="1.000000" stroke="none" 
	d="
M297.666687,557.896912 
	C297.675842,554.607239 298.128754,551.868225 299.388000,549.067627 
	C302.255707,550.074951 301.887054,552.486328 302.198914,554.438477 
	C303.252594,561.033569 303.322052,567.690247 303.337830,574.352539 
	C303.357239,582.537292 303.404510,582.456238 311.352020,582.797119 
	C317.168274,583.046631 322.976379,583.512024 328.782837,583.950623 
	C330.561127,584.084900 332.460510,584.098999 333.848907,586.047546 
	C332.794006,588.157654 330.708893,588.015137 328.844482,588.232727 
	C322.558044,588.966370 316.255707,589.397888 309.918182,589.390564 
	C303.406982,589.383057 303.307709,589.452820 303.365540,596.186157 
	C303.427094,603.356079 303.048004,610.490662 302.193878,617.602905 
	C302.002808,619.193726 302.306305,620.996826 300.439056,622.216125 
	C297.764862,620.773071 298.226776,617.960083 298.025452,615.724548 
	C297.399292,608.771118 296.873566,601.789307 296.796265,594.813171 
	C296.751801,590.799744 295.549469,589.227112 291.365143,589.209534 
	C284.886932,589.182251 278.408539,588.559021 271.936462,588.100281 
	C270.007538,587.963501 267.921906,588.045288 266.338196,586.136719 
	C267.272339,583.830139 269.408051,584.027832 271.273926,583.788147 
	C278.052856,582.917542 284.868286,582.486755 291.695435,582.678650 
	C295.290375,582.779602 296.826355,581.505920 296.737793,577.769836 
	C296.583984,571.284790 296.737152,564.789795 297.666687,557.896912 
z"/>
</svg>