<svg version="1.1" id="Layer_1" xmlns="http://www.w3.org/2000/svg" xmlns:xlink="http://www.w3.org/1999/xlink" x="0px" y="0px"
	 width="100%" viewBox="0 0 1152 896" enable-background="new 0 0 1152 896" xml:space="preserve">
<path fill="none" opacity="1.000000" stroke="#000000" stroke-linecap="round" stroke-linejoin="round" stroke-width="8.000000"
	d="
M1152.500000,738.500000 
	C1152.601440,735.760254 1152.079834,734.221863 1149.150269,732.274048 
	C1132.295898,721.068359 1114.348267,711.894653 1096.510132,702.480835 
	C1085.140869,696.480896 1073.044434,692.074341 1061.546753,686.405212 
	C1050.161743,680.791626 1037.783203,678.258484 1026.086670,673.773987 
	C1019.638916,671.301880 1013.003174,670.083313 1006.651245,668.031677 
	C1000.460938,666.032166 994.300903,664.687439 988.002930,663.484558 
	C980.490479,662.049744 973.055908,660.061951 965.487793,659.095703 
	C951.853638,657.354980 938.200562,655.683533 924.536011,654.174011 
	C910.130798,652.582825 895.832642,653.305725 881.498596,653.096924 
	C865.243164,652.860229 849.139282,654.959412 832.974731,656.774719 
	C803.242432,660.113770 774.942627,668.633850 747.058838,678.663513 
	C729.576233,684.951965 712.668823,692.838440 695.499023,699.997681 
	C687.579407,703.299866 679.297546,705.432861 670.991028,707.463196 
	C670.057495,707.691345 669.066833,708.149170 667.988647,707.519470 
	C662.836975,704.511047 657.115479,704.847168 651.501038,705.032166 
	C628.271851,705.797485 605.735046,701.168396 583.552429,695.301758 
	C564.128601,690.164551 545.379395,682.681824 527.021851,674.451233 
	C504.430267,664.322266 482.102966,653.601135 459.471649,643.563965 
	C435.818329,633.073425 411.278320,625.171326 386.016998,619.425293 
	C372.925110,616.447388 359.760071,613.643005 346.474670,612.239746 
	C334.089294,610.931702 321.526367,610.850403 308.999664,610.890381 
	C291.729095,610.945496 274.594452,612.551758 257.525696,614.703918 
	C252.524551,615.334412 246.924927,615.010132 242.363785,619.043213 
	C232.540756,610.562378 222.986908,601.991943 210.500000,598.000000 
"/>
<path fill="none" opacity="1.000000" stroke="#000000" stroke-linecap="round" stroke-linejoin="round" stroke-width="8.000000"
	d="
M155.750000,446.500000 
	C159.181686,442.606018 157.736725,437.402802 159.385895,432.957672 
	C161.857162,426.296631 161.972275,418.963745 165.313019,412.404755 
	C166.543091,409.989716 165.557831,406.498199 165.762283,403.483887 
	C166.142807,397.873413 167.434799,392.168762 166.015564,386.496094 
	C165.897827,386.025574 165.888321,385.469116 166.016739,385.004639 
	C167.979416,377.905792 164.932510,371.303741 163.976212,364.503357 
	C163.015564,357.671997 160.939423,351.092682 158.974792,344.507507 
	C155.027237,331.275879 150.718124,318.111572 152.019714,304.001831 
	C152.743256,296.158356 153.711792,288.337830 154.489471,280.498962 
	C155.662582,268.673981 155.842636,256.953491 145.460297,248.549057 
	C132.794388,238.296097 108.082336,239.606567 101.987755,264.997070 
	C99.392418,275.809479 99.924423,286.575531 101.409836,297.512238 
	C104.341293,319.095856 111.329575,339.620789 116.952446,360.512787 
	C120.782890,374.744965 124.467354,389.094635 123.923088,403.997192 
	C123.529335,414.778381 121.534233,425.437469 119.368637,435.972992 
	C117.381271,445.641449 115.198082,455.268677 113.403679,464.982208 
	C113.099457,466.628998 113.425507,468.451233 112.075844,470.063477 
	C110.415512,472.046906 110.899628,474.453857 111.368011,477.024048 
	C112.292870,482.099152 111.932007,487.393524 111.775902,492.493134 
	C111.507057,501.275635 113.994705,509.753937 113.660973,518.506165 
	C113.577103,520.705505 116.158928,522.787903 115.500000,525.500000 
"/>
<path fill="none" opacity="1.000000" stroke="#000000" stroke-linecap="round" stroke-linejoin="round" stroke-width="8.000000"
	d="
M1027.500000,283.000000 
	C1024.958496,281.875885 1022.682434,283.136597 1021.062744,284.570862 
	C1010.787109,293.670105 1004.354919,305.155792 1001.571533,318.514893 
	C999.483887,328.534729 998.713379,338.727234 998.414124,348.997498 
	C997.781433,370.702942 987.932190,387.716125 971.021729,401.027618 
	C954.228760,414.246704 936.187195,425.919708 920.563110,440.567291 
	C901.908691,458.055756 886.372864,477.932098 878.071838,502.524231 
	C872.618713,518.679138 870.190613,535.461243 871.086731,552.495422 
	C872.280762,575.192566 879.981201,595.589722 893.368286,614.095276 
	C900.123901,623.433838 907.041687,632.761292 912.493286,643.003601 
	C913.986450,645.809082 915.552856,648.614929 915.000000,652.000000 
"/>
<path fill="none" opacity="1.000000" stroke="#000000" stroke-linecap="round" stroke-linejoin="round" stroke-width="8.000000"
	d="
M158.000000,444.000000 
	C162.253555,445.528503 166.095215,443.651215 169.996109,442.487000 
	C194.283813,435.238190 214.445236,422.064484 228.982910,400.988220 
	C239.033340,386.417389 243.200577,369.993805 244.049454,352.502411 
	C244.422226,344.821472 244.818954,337.077454 246.129303,329.522430 
	C247.791626,319.937897 252.738281,312.494202 262.487946,308.966644 
	C274.016968,304.795288 284.526123,308.890747 289.599976,319.451965 
	C293.837433,328.272278 293.601044,337.412323 292.373627,346.482910 
	C290.010895,363.943024 285.144928,380.881104 276.877014,396.434631 
	C262.013550,424.395599 241.165070,446.754028 213.041473,462.076141 
	C198.089050,470.222412 182.461319,476.335846 166.004898,480.519287 
	C157.670197,482.638092 156.837646,484.251892 156.441467,492.997345 
	C155.517090,513.402039 159.781784,533.004944 164.987198,552.503418 
	C166.404984,557.814209 167.582413,563.189575 169.025131,568.493164 
	C170.309753,573.215454 171.405655,573.947144 175.470322,571.939941 
	C184.777802,567.343567 192.010040,560.596924 196.544327,551.020996 
	C201.510269,540.533447 202.513840,529.183655 203.893204,517.986816 
	C205.895874,501.730469 216.546173,492.028625 232.481125,493.681915 
	C242.613510,494.733185 251.280289,500.613098 252.054886,514.496948 
	C252.960510,530.729492 247.227081,545.152771 239.872253,558.931824 
	C232.998611,571.809387 222.501846,581.949341 212.785034,592.756287 
	C205.181900,601.212341 194.680832,604.479126 186.447144,611.437439 
	C182.465073,614.802734 177.319901,616.877563 176.446808,622.992432 
	C175.919800,626.683472 175.671402,629.379578 179.922272,631.645813 
	C191.302658,637.713074 198.863373,647.750793 205.458542,658.525391 
	C206.262726,659.839172 206.500000,661.500000 207.000000,663.000000 
"/>
<path fill="none" opacity="1.000000" stroke="#000000" stroke-linecap="round" stroke-linejoin="round" stroke-width="5.000000"
	d="
M1019.500000,352.500000 
	C1020.755920,360.091278 1023.199219,367.399872 1024.582031,374.985046 
	C1030.415405,406.985443 1024.547974,435.897430 1003.026184,461.022461 
	C994.864502,470.550568 986.575562,480.018616 979.112915,490.083710 
	C970.745544,501.368896 966.018555,513.981506 965.242493,528.486206 
	C964.362793,544.929932 968.642639,560.143066 973.034058,575.490234 
	C976.408569,587.283508 978.316162,599.289551 977.390930,611.491760 
	C976.432922,624.127502 973.616211,636.380798 967.060913,647.535828 
	C965.226440,650.657654 964.387207,654.274719 964.500000,658.000000 
"/>
<path fill="none" opacity="1.000000" stroke="#000000" stroke-linecap="round" stroke-linejoin="round" stroke-width="8.000000"
	d="
M1032.000000,279.000000 
	C1029.794067,280.816467 1027.413086,281.819397 1028.661133,286.098816 
	C1029.586548,289.271545 1027.129272,293.271942 1026.364746,296.972046 
	C1023.990173,308.463135 1026.131348,319.406281 1030.107910,329.959320 
	C1035.507690,344.289368 1041.176392,358.561584 1047.635864,372.436737 
	C1054.284302,386.717590 1059.381348,401.465973 1060.797974,417.018402 
	C1062.664673,437.512634 1059.762085,457.460602 1051.124146,476.556152 
	C1043.386841,493.660645 1032.438965,508.635681 1022.015442,524.010498 
	C1016.936584,531.502014 1012.339172,539.283508 1008.459473,547.480835 
	C1007.920288,548.620056 1006.833313,549.500000 1006.000000,550.500000 
"/>
<path fill="none" opacity="1.000000" stroke="#000000" stroke-linecap="round" stroke-linejoin="round" stroke-width="8.000000"
	d="
M998.000000,391.500000 
	C996.690979,398.073700 993.387085,403.695923 989.485962,408.989655 
	C980.472534,421.220642 969.619873,431.732208 958.512146,442.013153 
	C945.136719,454.393158 932.206604,466.976379 923.347168,483.417664 
	C910.827576,506.651337 913.395081,528.912537 925.548035,550.973511 
	C934.130127,566.552673 943.525269,581.760620 948.420471,599.022522 
	C952.529724,613.512634 956.304016,628.202026 953.891602,643.482910 
	C953.229187,647.678711 953.061890,651.811646 953.000000,656.000000 
"/>
<path fill="none" opacity="1.000000" stroke="#000000" stroke-linecap="round" stroke-linejoin="round" stroke-width="8.000000"
	d="
M1121.500000,435.750000 
	C1118.694336,436.125610 1117.303223,437.226746 1117.903931,440.517548 
	C1118.516357,443.871155 1116.559937,446.904114 1115.477173,449.991974 
	C1111.540771,461.216553 1113.581665,472.224030 1117.084839,482.972351 
	C1121.216553,495.649445 1125.979736,508.109863 1129.541260,520.988586 
	C1138.002197,551.583435 1130.945679,578.757507 1112.016968,603.513000 
	C1101.500732,617.266602 1087.712891,627.593933 1074.900757,638.887451 
	C1062.682373,649.657837 1054.707642,662.445312 1051.996826,678.499451 
	C1051.855347,679.337097 1051.666748,680.166687 1051.500000,681.000000 
"/>
<path fill="none" opacity="1.000000" stroke="#000000" stroke-linecap="round" stroke-linejoin="round" stroke-width="8.000000"
	d="
M110.000000,473.000000 
	C103.448387,470.884949 100.463600,465.113953 97.049530,459.967133 
	C86.724785,444.402344 81.266121,427.300385 82.043762,408.501801 
	C82.464752,398.324982 83.797234,388.169983 83.869942,377.999084 
	C83.943108,367.763336 80.416908,358.598633 70.448593,354.114288 
	C56.461224,347.821899 41.158443,350.706696 33.555630,363.532959 
	C28.458210,372.132538 27.138985,381.549438 28.431389,391.508911 
	C29.770239,401.826263 31.343739,412.060852 34.500313,421.999908 
	C35.665020,425.667175 36.739212,429.368378 38.080330,432.970093 
	C38.344856,433.680511 38.495316,434.318207 38.485558,434.999786 
	C38.346214,444.730957 46.451481,451.134613 48.548992,459.988403 
	C49.531307,464.134857 52.625275,466.949951 55.390121,470.096558 
	C61.412537,476.950623 66.625923,484.511383 72.571945,491.438232 
	C76.628685,496.164185 80.695152,501.056580 86.044563,504.429321 
	C88.469757,505.958405 88.865547,508.189545 89.500000,510.500000 
"/>
<path fill="none" opacity="1.000000" stroke="#000000" stroke-linecap="round" stroke-linejoin="round" stroke-width="8.000000"
	d="
M166.000000,411.500000 
	C168.081467,412.311005 170.077560,412.126373 172.000427,411.000732 
	C194.389740,397.894348 210.591614,379.686096 219.639832,355.051361 
	C223.600861,344.266998 226.958298,333.507477 226.898743,322.000519 
	C226.872452,316.922821 226.114960,311.814636 224.030365,306.986877 
	C217.706573,292.341492 200.554031,292.609314 192.418274,303.941315 
	C188.341949,309.619110 187.133881,315.886200 186.495697,322.499573 
	C185.596909,331.813751 187.314255,341.169495 185.599045,350.518158 
	C184.009171,359.183716 180.678391,366.881897 174.920151,373.429779 
	C173.246414,375.333008 170.754852,376.676361 168.000000,377.000000 
"/>
<path fill="none" opacity="1.000000" stroke="#000000" stroke-linecap="round" stroke-linejoin="round" stroke-width="8.000000"
	d="
M39.000000,443.000000 
	C35.613735,443.890778 32.666534,441.921295 29.523111,441.368561 
	C20.178753,439.725433 9.412917,445.826996 7.479597,456.996460 
	C5.343153,469.339508 9.097132,480.617767 14.075968,491.465118 
	C25.663685,516.711243 45.777344,533.176208 70.521790,544.452209 
	C85.048691,551.072083 100.377403,555.281921 115.985809,558.567444 
	C120.379349,559.492249 123.684921,561.279175 124.762596,566.950073 
	C126.218765,574.612732 127.985367,582.349609 127.744736,589.991943 
	C127.419670,600.315735 128.895447,610.861023 125.525925,621.008606 
	C124.317116,624.648987 122.861008,628.150208 121.348602,631.650635 
	C119.706810,635.450500 116.341133,638.955078 117.317955,644.035034 
	C117.895294,647.037476 115.817940,650.105957 114.500000,653.000000 
"/>
<path fill="none" opacity="1.000000" stroke="#000000" stroke-linecap="round" stroke-linejoin="round" stroke-width="9.000000"
	d="
M715.000000,387.000000 
	C714.140564,389.610138 712.396484,391.579865 710.515442,393.515015 
	C691.526672,413.050110 680.623779,436.809662 674.526001,463.006042 
	C670.738281,479.278259 669.237976,495.845306 670.077881,512.496094 
	C671.643433,543.534302 679.631470,572.381287 700.484375,596.513489 
	C702.311462,598.627930 702.979553,601.308167 703.500000,604.000000 
"/>
<path fill="none" opacity="1.000000" stroke="#000000" stroke-linecap="round" stroke-linejoin="round" stroke-width="8.000000"
	d="
M669.000000,708.500000 
	C667.788025,712.046570 665.426453,714.532410 661.998596,715.996704 
	C636.024231,727.092590 610.559631,739.424438 583.031433,746.620300 
	C570.781677,749.822388 558.522400,752.552612 546.027527,754.663086 
	C526.406067,757.977295 506.689240,758.010193 487.009796,757.247009 
	C477.047089,756.860657 466.425995,757.284668 457.500000,751.000000 
"/>
<path fill="none" opacity="1.000000" stroke="#000000" stroke-linecap="round" stroke-linejoin="round" stroke-width="10.000000"
	d="
M670.500000,613.000000 
	C669.346619,621.733643 663.018860,627.362549 657.364136,632.860229 
	C643.710144,646.134949 627.710022,655.470764 608.513916,658.585815 
	C605.499817,659.074890 602.537170,659.458130 599.500183,659.511108 
	C594.092957,659.605286 591.044617,656.612549 591.350525,650.492554 
	C591.927856,638.942261 597.284851,629.607788 603.518677,620.512756 
	C604.722046,618.757080 606.259583,617.231201 607.474915,615.482544 
	C608.794373,613.584045 608.523254,610.164429 611.031189,609.652771 
	C614.743958,608.895325 618.745483,608.591797 622.485657,609.104492 
	C635.285645,610.859375 648.084229,611.915771 661.000427,611.006104 
	C661.663818,610.959351 662.415894,610.797424 662.987610,611.030457 
	C671.348938,614.439087 679.095154,609.669556 686.944519,608.594666 
	C699.430298,606.884766 711.961731,604.165161 723.992676,599.978882 
	C758.304077,588.040039 789.438843,571.000732 814.012756,543.511414 
	C815.581238,541.756958 817.292175,540.122925 819.007690,538.508179 
	C824.161499,533.657227 825.259705,526.454590 829.311157,520.863159 
	C831.913757,517.271362 829.492737,512.355347 828.318298,508.556183 
	C820.238159,482.418915 807.866028,458.622559 789.578003,437.931091 
	C771.537415,417.519562 750.318298,401.553406 726.023621,389.452576 
	C722.959900,387.926544 719.990784,386.499634 716.500122,386.476776 
	C715.832397,386.472351 714.916931,386.389191 714.539124,385.965149 
	C711.182373,382.197754 706.102417,382.041290 702.078491,379.855469 
	C693.390137,375.135742 683.674194,374.924835 674.463867,372.646088 
	C665.522522,370.433899 656.240234,370.001434 647.005798,369.409729 
	C628.815125,368.244141 610.860107,369.851257 593.004944,373.027740 
	C574.354065,376.345764 556.423950,382.149719 539.012512,389.529510 
	C525.799744,395.129700 513.545349,402.635376 500.812775,409.133118 
	C491.968231,413.646698 485.039337,420.246796 477.126831,425.684570 
	C468.493530,431.617706 460.903534,439.071289 452.822693,445.786621 
	C446.792450,450.797821 441.422150,456.591766 435.934998,461.945831 
	C430.648346,467.104279 426.156830,473.828613 421.576965,480.056580 
	C420.192993,481.938568 420.463104,484.415863 421.993256,486.504944 
	C426.038147,492.027374 430.923492,496.975525 433.516449,503.493469 
	C434.306305,505.478973 436.761139,505.428619 438.022156,506.982025 
	C453.697357,526.292542 472.570618,542.131775 491.813507,557.730042 
	C499.703949,564.126038 508.939697,567.709778 517.060913,573.413269 
	C525.308594,579.205505 534.497925,583.468384 543.462463,588.073120 
	C545.845764,589.297485 548.759827,590.128906 550.000000,593.000000 
"/>
<path fill="none" opacity="1.000000" stroke="#000000" stroke-linecap="round" stroke-linejoin="round" stroke-width="11.000000"
	d="
M435.000000,462.000000 
	C431.631714,459.487640 430.576080,455.544312 429.040985,451.982330 
	C417.762085,425.811279 398.979675,406.687408 373.959564,393.577148 
	C366.504761,389.670929 358.403961,387.193237 349.998566,386.010101 
	C345.364349,385.357788 342.717499,387.880798 342.995300,392.500275 
	C344.765472,421.932281 354.571991,448.237213 373.498047,471.001617 
	C374.180206,471.822083 375.003632,472.584625 375.455170,473.521606 
	C375.973328,474.596802 376.149780,475.836700 376.594818,477.437103 
	C371.947571,483.834412 365.723114,489.273804 360.935913,495.954071 
	C350.504425,510.510712 343.569122,526.505371 340.024139,544.004883 
	C339.355774,547.304077 338.667267,550.656799 338.567932,554.002014 
	C338.348541,561.390137 338.436066,561.308472 345.511017,561.858093 
	C353.915497,562.511047 362.136993,560.553955 369.993195,557.482605 
	C389.517090,549.849976 405.289276,537.205872 419.154266,521.637390 
	C424.127106,516.053528 427.619812,509.273743 433.500000,504.500000 
"/>
<path fill="none" opacity="1.000000" stroke="#000000" stroke-linecap="round" stroke-linejoin="round" stroke-width="9.000000"
	d="
M270.500000,735.000000 
	C270.560364,738.719849 272.564056,741.461731 274.997620,744.002258 
	C286.876160,756.402527 299.879639,767.432068 314.493561,776.510376 
	C315.708923,777.265320 316.744110,778.351929 318.016907,778.964905 
	C321.711090,780.743774 321.454987,783.437073 319.999298,786.499695 
	C314.513306,798.041809 310.602081,810.107666 307.399719,822.474060 
	C305.599854,829.424438 304.728058,836.346802 304.360779,843.492859 
	C304.029572,849.936279 308.999603,855.913574 317.984558,852.953186 
	C326.342743,850.199341 333.560577,845.294495 340.494415,839.992676 
	C348.518433,833.857483 356.507507,827.676392 364.497528,821.496826 
	C370.518768,816.839905 371.902740,816.868469 378.506439,821.490784 
	C389.983276,829.523865 401.310669,837.794739 413.089325,845.360901 
	C418.087433,848.571472 423.452332,851.806274 430.001953,851.550171 
	C436.033051,851.314331 438.181152,849.191650 438.543640,843.002563 
	C438.920380,836.569397 436.878052,830.585999 435.445770,824.512817 
	C432.381226,811.518005 427.370514,799.188416 422.009064,786.996033 
	C419.207886,780.625916 419.869171,777.377808 425.536987,773.554871 
	C434.036804,767.821655 441.351288,760.548096 449.683014,754.763611 
	C455.773010,750.535461 460.041199,745.349731 464.021820,739.514893 
	C464.460693,738.871582 464.718658,738.138550 465.076813,737.546448 
	C471.081238,727.621277 465.593811,723.866272 458.025635,721.901306 
	C447.910034,719.274780 437.707123,720.127197 427.500641,719.960999 
	C421.461334,719.862671 415.495178,720.484436 409.496033,720.948669 
	C397.509125,721.876221 396.938171,720.707275 394.858002,709.025269 
	C392.058105,693.301086 387.696136,677.950989 378.486328,664.509338 
	C372.678528,656.032959 366.397583,655.993652 360.535278,664.524231 
	C355.426819,671.957825 352.840057,680.554749 350.019989,689.006653 
	C348.713501,692.922485 347.355225,696.774414 345.683319,700.580505 
	C344.014313,704.380127 343.632080,708.804932 343.039398,713.005554 
	C341.523254,723.751648 339.811676,725.203796 329.508423,722.961365 
	C319.229340,720.724182 308.836304,721.473145 298.502106,721.634583 
	C292.490540,721.728394 286.478729,723.039124 280.505920,724.035461 
	C274.420746,725.050537 270.702820,729.101501 270.500000,734.500000 
"/>
<path fill="none" opacity="1.000000" stroke="#000000" stroke-linecap="round" stroke-linejoin="round" stroke-width="8.000000"
	d="
M1117.000000,438.000000 
	C1112.619507,436.382721 1109.179077,438.704681 1106.038086,441.051056 
	C1094.894531,449.375610 1089.542603,460.973053 1088.025146,474.502808 
	C1086.736816,485.989197 1085.978394,497.542419 1084.421021,508.989258 
	C1082.472412,523.312134 1074.802734,534.937805 1066.041992,546.033142 
	C1055.713989,559.113403 1044.858765,571.787659 1035.908813,585.942322 
	C1032.016113,592.098816 1029.291138,598.931885 1023.757690,604.267212 
	C1021.240784,606.693970 1021.067200,611.949036 1020.589172,616.010498 
	C1019.557861,624.772461 1016.655151,633.035767 1014.571960,641.517700 
	C1014.233215,642.896790 1013.648254,643.351868 1012.543579,644.067261 
	C1005.336548,648.734314 1001.126892,655.731140 998.000000,663.500000 
"/>
<path fill="none" opacity="1.000000" stroke="#000000" stroke-linecap="round" stroke-linejoin="round" stroke-width="5.000000"
	d="
M903.500000,488.500000 
	C898.335083,494.744751 897.341553,502.413971 896.556091,510.005798 
	C894.213501,532.647278 899.471802,553.721985 909.375732,574.060486 
	C916.096741,587.862610 923.756531,601.298950 928.452820,616.015076 
	C931.661377,626.069458 933.802734,636.382568 933.970215,647.000488 
	C934.007019,649.330566 933.666687,651.666687 933.500000,654.000000 
"/>
<path fill="none" opacity="1.000000" stroke="#000000" stroke-linecap="round" stroke-linejoin="round" stroke-width="5.000000"
	d="
M1101.500000,499.500000 
	C1100.447021,503.058075 1101.754639,506.547150 1102.119141,509.987366 
	C1104.768066,534.987671 1098.171509,557.309814 1083.516724,577.512146 
	C1074.062256,590.545837 1063.316406,602.630737 1054.988281,616.492981 
	C1049.433960,625.738403 1044.044312,635.072144 1041.045532,645.513062 
	C1039.461548,651.028076 1039.272095,656.786926 1039.000000,662.500000 
"/>
<path fill="none" opacity="1.000000" stroke="#000000" stroke-linecap="round" stroke-linejoin="round" stroke-width="10.000000"
	d="
M696.000000,376.000000 
	C697.795288,364.473389 697.794128,353.092041 693.512451,341.995178 
	C689.626221,331.923035 685.900879,331.010559 676.043945,333.663300 
	C670.796082,335.075592 666.027710,338.228760 660.990051,340.477692 
	C657.739197,341.928925 654.781433,341.654083 652.490417,338.506989 
	C649.194641,333.979645 645.828125,329.503845 642.501160,324.999146 
	C636.143738,316.391541 629.534241,316.312531 621.019409,322.028900 
	C616.746094,324.897827 613.510254,328.917664 610.563232,333.045135 
	C607.850891,336.843933 604.796448,336.447144 601.525879,334.457428 
	C598.569885,332.659058 595.864685,330.453796 592.994812,328.507660 
	C577.131042,317.749725 569.152283,323.365906 563.504272,337.001770 
	C562.473999,339.489227 561.569519,342.030609 560.484680,344.493225 
	C558.567932,348.844086 557.358887,349.340424 553.008362,347.480438 
	C550.130920,346.250275 547.283081,344.929230 544.511841,343.477386 
	C540.417175,341.332092 535.917236,340.545746 531.502563,340.632080 
	C525.409729,340.751190 521.167908,344.250244 519.015137,350.005646 
	C517.150024,354.991791 516.346375,360.225037 516.037720,365.502197 
	C515.726440,370.823700 514.446899,372.292328 508.999542,372.486816 
	C503.798706,372.672485 498.635834,372.256622 493.474152,373.919769 
	C481.664307,377.724976 478.345978,385.468445 483.942902,396.528900 
	C485.824097,400.246399 487.928925,403.744110 490.482147,407.013947 
	C491.588531,408.430878 492.500000,410.000000 493.500000,411.500000 
"/>
<path fill="none" opacity="1.000000" stroke="#000000" stroke-linecap="round" stroke-linejoin="round" stroke-width="8.000000"
	d="
M1007.500000,485.500000 
	C1001.828796,490.529694 996.311768,495.754303 993.545959,503.017487 
	C990.504150,511.005219 990.325256,519.197144 992.465881,527.508789 
	C994.335266,534.767578 996.581848,542.334839 1001.313232,547.725098 
	C1005.960754,553.019958 1006.365173,559.661072 1009.984558,565.010437 
	C1013.807251,570.660400 1016.378052,576.902954 1017.957336,583.510193 
	C1018.860046,587.287109 1019.405579,591.155945 1019.977600,595.003357 
	C1020.456238,598.222534 1021.464417,601.180908 1023.500000,603.750000 
"/>
<path fill="none" opacity="1.000000" stroke="#000000" stroke-linecap="round" stroke-linejoin="round" stroke-width="8.000000"
	d="
M870.500000,263.000000 
	C874.622192,271.745789 878.733337,280.487122 884.988708,288.009399 
	C892.288330,296.787567 901.026428,303.571655 912.032471,306.892303 
	C915.316040,307.882996 918.881226,309.827972 922.837830,307.250732 
	C923.929077,287.001373 916.470398,269.356598 904.960938,253.175232 
	C906.126343,250.862000 906.992004,248.624161 908.976929,246.972305 
	C919.724670,238.028168 925.124146,225.801117 929.461304,212.986908 
	C930.495728,209.930908 931.293335,206.828873 931.658691,203.517502 
	C932.159485,198.978745 929.978760,198.350510 926.500061,198.500778 
	C919.021545,198.823822 911.992493,201.191223 905.563354,204.618805 
	C894.177185,210.689056 884.538269,218.978516 877.497437,229.998367 
	C876.016357,232.316498 874.458740,234.573303 872.000000,236.000000 
"/>
<path fill="none" opacity="1.000000" stroke="#000000" stroke-linecap="round" stroke-linejoin="round" stroke-width="8.000000"
	d="
M973.000000,837.000000 
	C969.313660,844.909058 970.878906,848.745972 979.474243,854.538269 
	C987.843384,860.178223 997.353760,861.504211 1007.001160,862.488708 
	C1014.235474,863.226929 1021.308289,862.863403 1028.009766,859.519531 
	C1037.633911,854.717529 1038.128540,849.775208 1030.043457,842.948486 
	C1021.006714,835.318115 1010.021301,832.860046 998.983765,832.354553 
	C991.776001,832.024475 983.908386,832.561584 977.032227,836.063293 
	C974.263306,837.473389 972.549316,836.353760 971.030457,834.475342 
	C968.215088,830.993591 964.363586,828.780457 960.957458,826.053101 
	C948.173401,815.816711 936.872375,804.417542 929.464111,789.517883 
	C920.265930,771.018555 928.193726,755.068542 940.579773,749.167419 
	C944.570740,747.265930 946.886047,744.651184 948.475769,740.989502 
	C952.184631,732.446655 958.380310,726.084290 966.571777,722.149414 
	C972.414185,719.342896 979.044739,718.784607 985.481628,720.566284 
	C988.459412,721.390503 990.687683,720.736755 992.484802,718.487854 
	C1004.386902,703.593750 1034.428467,703.658569 1047.432007,721.549377 
	C1049.723755,724.702271 1052.402588,725.540894 1056.000000,725.543823 
	C1070.518677,725.555542 1087.682007,736.373108 1089.458984,756.003723 
	C1089.625122,757.839600 1090.462646,758.519104 1091.909302,759.619202 
	C1098.438843,764.584900 1103.945679,770.018677 1105.734131,778.953125 
	C1107.829224,789.420288 1104.325684,797.973267 1098.877686,805.916077 
	C1092.227173,815.612183 1083.033691,822.585632 1072.547974,828.091370 
	C1060.143066,834.604919 1047.476929,840.406433 1034.250000,845.000000 
"/>
<path fill="none" opacity="1.000000" stroke="#000000" stroke-linecap="round" stroke-linejoin="round" stroke-width="7.000000"
	d="
M988.000000,721.500000 
	C989.817505,725.547913 989.132629,729.742676 989.115662,734.000488 
	C989.058044,748.518677 989.811768,763.007874 990.833740,777.511719 
	C992.120178,795.769775 995.235413,813.662659 999.000000,831.500000 
"/>
<path fill="none" opacity="1.000000" stroke="#000000" stroke-linecap="round" stroke-linejoin="round" stroke-width="8.000000"
	d="
M53.500000,753.500000 
	C36.818077,759.536926 27.678482,777.333191 39.009651,795.994141 
	C44.339333,804.771484 51.973747,811.228210 59.905079,817.617798 
	C71.890610,827.273438 85.678658,833.397766 99.573616,839.327515 
	C102.918243,840.754822 106.315254,837.977905 109.000000,835.500000 
"/>
<path fill="none" opacity="1.000000" stroke="#000000" stroke-linecap="round" stroke-linejoin="round" stroke-width="8.000000"
	d="
M344.500000,701.000000 
	C334.055206,693.200378 320.970642,690.252136 310.500000,682.500000 
	C301.575104,681.714478 293.853790,676.545227 285.000305,675.497375 
	C284.314819,675.416199 283.687073,675.347412 282.972778,675.070068 
	C268.837189,669.582764 253.859985,668.255005 238.992630,666.564758 
	C228.697632,665.394348 218.344147,664.429932 207.995911,664.152222 
	C201.851562,663.987305 195.644669,665.177002 189.505798,666.041199 
	C182.480774,667.030090 175.500626,668.337097 168.499405,669.496460 
	C167.337006,669.688843 165.997269,670.287354 165.027786,669.925598 
	C159.210083,667.754822 155.914047,671.232239 152.469467,674.971863 
	C146.322266,681.645691 139.159439,687.096558 129.982956,688.377930 
	C120.918312,689.643677 111.642036,689.189392 103.048325,685.874695 
	C93.143532,682.054260 83.309532,683.588501 73.533432,685.202515 
	C69.549828,685.860168 65.501015,687.064270 61.490494,687.378723 
	C50.613579,688.231323 41.294212,693.932068 31.000147,696.500610 
	C26.910410,697.521118 23.291943,697.600220 19.914301,694.082275 
	C16.051315,690.058777 11.353367,686.816895 9.002847,681.498718 
	C5.224396,672.949829 8.387006,665.697998 13.542821,659.033142 
	C17.841982,653.475647 24.534149,650.439270 28.983023,644.986145 
	C29.442793,644.422607 29.783386,644.949402 29.983242,644.911560 
	C39.424324,643.122925 48.619438,639.733215 58.503529,640.971863 
	C62.620857,641.487793 66.621239,642.074036 69.500000,645.500000 
"/>
<path fill="none" opacity="1.000000" stroke="#000000" stroke-linecap="round" stroke-linejoin="round" stroke-width="8.000000"
	d="
M732.500000,183.000000 
	C733.171814,186.584915 736.108826,188.703613 737.997070,191.501968 
	C747.717224,205.907379 751.975769,221.376999 749.697021,239.025436 
	C747.379822,256.971771 740.833984,272.774506 729.950073,286.961731 
	C728.626709,288.686707 727.419495,290.251282 727.500000,292.500000 
"/>
<path fill="none" opacity="1.000000" stroke="#000000" stroke-linecap="round" stroke-linejoin="round" stroke-width="7.000000"
	d="
M93.000000,721.000000 
	C94.668465,731.697998 97.758682,742.062500 100.544800,752.488037 
	C103.854393,764.872253 107.071159,777.309753 111.123550,789.458801 
	C114.985275,801.036194 116.760941,813.196716 121.421562,824.532227 
	C122.149055,826.301636 121.833336,828.500000 122.000000,830.500000 
"/>
<path fill="none" opacity="1.000000" stroke="#000000" stroke-linecap="round" stroke-linejoin="round" stroke-width="10.000000"
	d="
M497.500000,564.500000 
	C492.931519,570.744568 485.436554,573.675537 480.506744,579.505676 
	C479.129120,581.134949 477.649597,582.720032 476.537262,584.522949 
	C474.024750,588.595459 474.412140,591.843079 478.025757,594.970215 
	C486.751892,602.521606 497.447357,605.743225 508.517487,606.820312 
	C520.088684,607.946167 531.454163,606.011292 542.035156,600.568359 
	C544.369446,599.367554 546.594299,598.357971 548.019592,596.011902 
	C550.634399,591.708130 554.422852,592.031860 558.504028,593.488770 
	C565.155945,595.863464 571.746887,598.466370 578.523010,600.420166 
	C586.089294,602.601685 593.850281,604.099731 601.491394,606.034058 
	C604.404236,606.771484 607.338745,607.655884 609.500000,610.000000 
"/>
<path fill="none" opacity="1.000000" stroke="#000000" stroke-linecap="round" stroke-linejoin="round" stroke-width="7.000000"
	d="
M149.500000,831.000000 
	C153.556976,822.283325 159.777115,814.951660 165.091431,807.061584 
	C175.886673,791.033875 184.574463,773.983459 191.409927,755.965820 
	C192.062271,754.246338 193.044525,752.932129 193.810013,751.734314 
	C193.010696,748.539062 192.224396,745.526855 191.505295,742.498718 
	C188.237396,728.737976 175.693878,720.965576 163.984970,719.094055 
	C161.085693,718.630615 157.946915,719.043457 155.014694,719.580322 
	C151.988144,720.134399 151.068787,722.812256 151.038589,725.500427 
	C150.847763,742.486572 148.020203,759.216797 145.855026,775.981262 
	C143.792419,791.951599 140.718384,807.802307 137.013107,823.503113 
	C136.546478,825.480469 136.060181,827.500000 137.000000,829.500000 
"/>
<path fill="none" opacity="1.000000" stroke="#000000" stroke-linecap="round" stroke-linejoin="round" stroke-width="7.000000"
	d="
M1050.000000,725.500000 
	C1039.581299,748.916504 1030.208374,772.680420 1023.321045,797.450256 
	C1019.975708,809.481262 1016.947754,821.630615 1013.000000,833.500000 
"/>
<path fill="none" opacity="1.000000" stroke="#000000" stroke-linecap="round" stroke-linejoin="round" stroke-width="8.000000"
	d="
M705.500000,783.500000 
	C705.472839,779.094971 702.071472,776.932068 698.944092,775.634766 
	C687.446960,770.865051 675.710327,769.953430 664.537842,776.563904 
	C656.164124,781.518555 656.468506,786.898438 665.010803,791.479858 
	C667.794434,792.972656 670.765503,793.833984 673.996948,794.046448 
	C681.582764,794.545227 689.168213,795.613831 696.502747,792.506531 
	C700.570496,790.783386 704.925720,789.401794 705.500000,784.000000 
"/>
<path fill="none" opacity="1.000000" stroke="#000000" stroke-linecap="round" stroke-linejoin="round" stroke-width="7.000000"
	d="
M527.500000,118.500000 
	C529.304565,126.661621 532.060120,133.293137 541.957031,135.220673 
	C553.293884,137.428650 564.550049,128.882141 563.500000,117.500000 
	C562.622803,107.991440 554.912964,99.663071 546.505737,100.107903 
	C536.632568,100.630302 530.382996,104.791641 527.997009,115.999359 
	C527.854004,116.671066 527.666687,117.333344 527.500061,118.000015 
"/>
<path fill="none" opacity="1.000000" stroke="#000000" stroke-linecap="round" stroke-linejoin="round" stroke-width="10.000000"
	d="
M638.500000,486.500000 
	C628.626709,483.043671 618.363342,481.021881 608.008911,481.647583 
	C588.097717,482.850830 569.542786,488.592926 553.518188,501.023468 
	C550.723267,503.191467 547.950562,505.465698 545.550293,508.046753 
	C541.881470,511.992096 542.102051,514.508484 546.008118,518.492004 
	C551.048950,523.632812 556.754700,527.954407 563.015198,531.473022 
	C572.903442,537.030579 583.300415,541.749329 594.522522,543.341431 
	C610.240479,545.571289 625.517639,543.832520 639.000000,534.250000 
"/>
<path fill="none" opacity="1.000000" stroke="#000000" stroke-linecap="round" stroke-linejoin="round" stroke-width="8.000000"
	d="
M194.500000,751.500000 
	C211.832993,754.618958 218.074005,775.962036 208.011139,793.006592 
	C199.262650,807.824829 186.699722,818.790405 172.434128,827.896790 
	C168.414276,830.462830 165.514648,834.017090 162.000000,837.000000 
"/>
<path fill="none" opacity="1.000000" stroke="#000000" stroke-linecap="round" stroke-linejoin="round" stroke-width="8.000000"
	d="
M854.500000,164.000000 
	C850.643921,165.202637 847.431763,163.678497 843.961975,162.082657 
	C831.192932,156.209900 817.833496,155.721085 803.979797,157.325516 
	C792.013428,158.711380 780.729126,162.208160 769.558044,166.163895 
	C765.288879,167.675613 760.147583,169.255554 759.000000,175.000000 
"/>
<path fill="none" opacity="1.000000" stroke="#000000" stroke-linecap="round" stroke-linejoin="round" stroke-width="7.000000"
	d="
M557.000000,818.000000 
	C560.933655,824.605164 571.651184,829.115295 580.486145,827.427429 
	C585.739014,826.423950 591.190979,825.468262 595.004944,821.004272 
	C597.018738,818.647156 597.157776,816.218201 594.979736,814.020081 
	C585.987061,804.944641 566.886658,805.832031 559.013489,813.014771 
	C557.735474,814.180603 556.634338,815.541199 557.000000,817.500000 
"/>
<path fill="none" opacity="1.000000" stroke="#000000" stroke-linecap="round" stroke-linejoin="round" stroke-width="7.000000"
	d="
M470.500000,197.000000 
	C467.295349,202.965607 462.120209,207.628845 459.478394,213.991028 
	C450.691498,235.152405 448.688477,256.027588 461.405121,276.558777 
	C462.361053,278.102142 463.654541,279.868042 463.500000,282.000000 
"/>
<path fill="none" opacity="1.000000" stroke="#000000" stroke-linecap="round" stroke-linejoin="round" stroke-width="6.000000"
	d="
M945.000000,748.000000 
	C947.521667,752.922424 949.018677,758.185425 950.565430,763.480896 
	C956.330017,783.217163 966.711060,800.715027 977.475769,818.015076 
	C980.351746,822.637085 983.885864,826.949829 985.000000,832.500000 
"/>
<path fill="none" opacity="1.000000" stroke="#000000" stroke-linecap="round" stroke-linejoin="round" stroke-width="7.000000"
	d="
M363.000000,223.499985 
	C360.666687,219.333328 358.410400,215.121185 355.984070,211.009399 
	C350.832550,202.279419 344.077148,195.410095 334.001160,192.495956 
	C328.907654,191.022827 326.406555,192.734100 326.533203,197.999207 
	C326.761322,207.481964 329.591492,216.171234 334.996460,224.002457 
	C339.132690,229.995514 339.164520,230.760849 334.481049,236.484482 
	C328.792603,243.436264 324.706573,251.138016 323.016052,260.003052 
	C322.086487,264.877625 323.504059,266.335327 328.498901,266.528351 
	C339.355133,266.947937 346.637177,260.480164 353.411194,253.414856 
	C356.277222,250.425568 358.332275,246.596207 360.441376,242.965927 
	C361.831818,240.572662 361.404327,237.652008 361.412842,234.999725 
	C361.424957,231.220886 361.679626,227.554794 363.000000,224.000000 
"/>
<path fill="none" opacity="1.000000" stroke="#000000" stroke-linecap="round" stroke-linejoin="round" stroke-width="6.000000"
	d="
M1089.500000,758.500000 
	C1083.561768,763.024536 1080.462646,769.804749 1076.013794,775.510742 
	C1062.310791,793.085022 1048.463745,810.540039 1034.024048,827.520508 
	C1031.025513,831.046631 1028.333374,834.833313 1025.500000,838.500000 
"/>
<path fill="none" opacity="1.000000" stroke="#000000" stroke-linecap="round" stroke-linejoin="round" stroke-width="8.000000"
	d="
M152.500000,720.500000 
	C150.650040,719.349976 149.378571,717.648865 147.958817,716.036255 
	C142.807358,710.185059 136.017288,707.521667 128.513992,705.933899 
	C116.129906,703.313293 105.841850,707.456116 97.699722,716.186279 
	C93.991493,720.162231 90.088234,720.756714 86.033676,719.849487 
	C72.363518,716.790588 53.966572,735.269653 54.579422,748.020203 
	C54.959423,755.926147 58.686787,761.506104 62.123112,767.428589 
	C75.584129,790.628540 91.886337,811.810730 109.480896,832.016663 
	C109.800339,832.383606 109.833328,833.000000 109.999992,833.500000 
"/>
<path fill="none" opacity="1.000000" stroke="#000000" stroke-linecap="round" stroke-linejoin="round" stroke-width="5.000000"
	d="
M989.000000,570.500000 
	C992.875916,577.854370 993.942078,585.945740 994.968506,594.004028 
	C997.180603,611.372009 992.101379,627.240234 984.429260,642.464355 
	C983.273804,644.757263 982.194519,646.938538 982.000000,649.500000 
"/>
<path fill="none" opacity="1.000000" stroke="#000000" stroke-linecap="round" stroke-linejoin="round" stroke-width="8.000000"
	d="
M773.500000,304.000000 
	C777.918091,299.518097 783.908386,301.449402 789.037659,300.795746 
	C796.724304,299.816193 804.053284,297.782410 811.503906,296.016541 
	C831.588989,291.256195 847.999451,279.932312 863.476196,266.971558 
	C867.450562,263.643341 871.359985,260.247406 874.564758,256.049408 
	C877.723877,251.911179 878.078918,249.073410 875.526245,244.485382 
	C866.475525,228.218246 852.804565,216.424515 838.637512,204.831940 
	C830.178406,197.910065 820.593384,193.603271 811.002380,188.995071 
	C798.962830,183.210449 786.373535,179.477829 773.003357,178.456009 
	C770.479858,178.263168 768.014893,177.403030 765.497437,177.016647 
	C754.151489,175.275223 743.536194,178.401642 732.999817,181.999512 
	C732.501099,182.169815 732.011597,182.416214 731.498352,182.488037 
	C713.011780,185.075043 698.892639,195.625427 686.095581,208.098068 
	C679.057983,214.957275 672.673279,222.526627 668.871521,231.948151 
	C667.796997,234.610870 666.718567,237.227783 666.000000,240.000000 
"/>
<path fill="none" opacity="1.000000" stroke="#000000" stroke-linecap="round" stroke-linejoin="round" stroke-width="8.000000"
	d="
M109.750000,834.500000 
	C115.231476,833.634216 120.308464,830.932861 126.000114,830.988342 
	C131.499588,831.041992 137.028366,831.352112 142.492920,830.912048 
	C149.509506,830.346863 154.884430,834.564514 160.940613,836.670776 
	C164.030685,837.745483 163.230286,841.751282 162.325821,843.927612 
	C160.629959,848.007996 157.650955,851.488220 153.489838,853.478760 
	C138.412903,860.691284 122.822037,860.751953 107.017311,856.436584 
	C105.057083,855.901306 103.227776,854.651917 101.522697,853.467346 
	C98.293411,851.223938 96.727600,848.449524 98.940025,844.466675 
	C99.655396,843.178894 99.666641,841.500000 99.999977,840.000000 
"/>
<path fill="none" opacity="1.000000" stroke="#000000" stroke-linecap="round" stroke-linejoin="round" stroke-width="8.000000"
	d="
M309.500000,682.000000 
	C311.933197,674.132568 308.912048,667.130371 305.408386,660.548767 
	C298.511719,647.593323 287.988678,639.238586 272.993988,637.553467 
	C269.790771,637.193542 266.359528,637.158264 263.531921,639.047729 
	C260.082275,641.352783 256.605591,640.053284 254.644089,637.870483 
	C248.343048,630.858765 240.455536,627.823303 231.527267,625.875000 
	C219.795883,623.315002 208.538330,622.467285 197.441940,628.391235 
	C193.834518,630.317078 191.245636,633.273865 188.000000,635.500000 
"/>
<path fill="none" opacity="1.000000" stroke="#000000" stroke-linecap="round" stroke-linejoin="round" stroke-width="10.000000"
	d="
M849.000000,830.500000 
	C847.216003,830.246643 845.509216,830.751648 844.018982,831.536072 
	C832.334900,837.686523 819.690002,837.949951 807.004395,837.398560 
	C802.227234,837.190979 797.534485,835.728271 792.994324,834.015015 
	C786.056519,831.396973 779.528809,828.217834 774.990417,822.007019 
	C773.777283,820.346924 771.951721,819.763184 770.000000,819.500000 
"/>
<path fill="none" opacity="1.000000" stroke="#000000" stroke-linecap="round" stroke-linejoin="round" stroke-width="8.000000"
	d="
M618.000000,853.500000 
	C617.228149,850.332642 615.255493,847.823608 612.464905,846.578674 
	C602.313477,842.049866 592.163391,841.194580 581.960144,846.929138 
	C577.077576,849.673279 575.319519,855.099731 580.997559,859.003540 
	C590.028076,865.212097 605.227173,865.191528 613.936157,859.403992 
	C615.619873,858.285095 618.056946,856.930176 617.500000,854.000000 
"/>
<path fill="none" opacity="1.000000" stroke="#000000" stroke-linecap="round" stroke-linejoin="round" stroke-width="8.000000"
	d="
M664.500000,239.750000 
	C667.565186,244.567657 671.852478,248.626816 673.924988,254.028778 
	C675.154968,257.234833 677.348999,259.521118 679.467468,262.027496 
	C690.431641,274.999329 703.902466,284.848206 719.591370,290.757477 
	C733.668945,296.059906 747.821533,301.988708 763.503296,301.652344 
	C767.740356,301.561462 772.521057,302.403137 774.504211,307.498352 
	C774.638794,307.844177 774.747253,308.276550 775.012329,308.484222 
	C786.401306,317.407745 798.487610,324.845337 813.501831,325.454407 
	C818.830994,325.670593 824.076050,327.204742 829.517761,326.086365 
	C832.177063,325.539795 834.782288,325.180267 837.000000,323.500000 
"/>
<path fill="none" opacity="1.000000" stroke="#000000" stroke-linecap="round" stroke-linejoin="round" stroke-width="7.000000"
	d="
M361.500000,242.000000 
	C363.312103,241.929718 364.083313,243.498444 364.949280,244.542084 
	C371.524597,252.466980 378.915375,259.694092 386.690430,266.275024 
	C392.561890,271.244751 400.139648,274.215820 407.005615,277.989777 
	C421.412842,285.908875 437.226715,286.015472 452.998840,285.871918 
	C455.982544,285.844788 459.310974,285.501923 462.014801,283.520203 
	C462.727844,282.997589 463.201660,282.470673 464.483032,282.337219 
	C482.695831,280.440125 496.825226,270.876404 508.379944,257.397064 
	C513.073181,251.922134 514.279602,244.849533 510.942078,238.028336 
	C503.199280,222.203491 494.196564,207.226181 477.955231,198.584137 
	C471.056763,194.913437 463.903961,190.438248 456.443176,189.413925 
	C445.828461,187.956589 434.772034,188.085846 424.004059,190.022629 
	C411.954193,192.190002 400.749756,197.212662 390.180145,202.838455 
	C382.107056,207.135452 375.611450,214.436157 368.543182,220.549911 
	C366.991486,221.892044 365.482849,223.026962 363.500000,223.500000 
"/>
<path fill="none" opacity="1.000000" stroke="#000000" stroke-linecap="round" stroke-linejoin="round" stroke-width="8.000000"
	d="
M870.500061,693.000000 
	C870.666687,693.500000 870.842773,694.440063 870.998718,694.436768 
	C878.345459,694.280273 881.693176,699.724060 883.819580,705.071777 
	C888.335449,716.428894 887.784058,729.009521 878.054871,738.059021 
	C874.258972,741.589661 869.624573,742.743164 864.976562,743.906433 
	C862.274292,744.582703 860.331726,741.963623 858.048706,740.895813 
	C854.731262,739.344055 852.449036,739.223145 849.904175,742.423828 
	C847.110291,745.937683 843.788391,749.007202 842.500000,753.500000 
"/>
<path fill="none" opacity="1.000000" stroke="#000000" stroke-linecap="round" stroke-linejoin="round" stroke-width="8.000000"
	d="
M50.500000,467.000000 
	C46.641640,478.587708 50.049526,488.839142 57.662712,497.354523 
	C63.429012,503.804230 70.983673,508.445648 79.508301,510.971985 
	C81.284431,511.498383 83.550812,512.491394 84.929695,511.849060 
	C89.505150,509.717804 92.714287,512.457947 96.547531,513.871033 
	C101.973869,515.871521 106.754379,519.903503 113.000000,519.500000 
"/>
<path fill="none" opacity="1.000000" stroke="#000000" stroke-linecap="round" stroke-linejoin="round" stroke-width="9.000000"
	d="
M773.000000,719.000000 
	C772.348572,715.954529 772.178223,713.024841 769.735352,710.289795 
	C768.176208,708.544189 767.694946,704.967224 768.007812,702.000854 
	C768.343689,698.816406 766.901611,696.328552 765.580933,693.713318 
	C755.287231,696.345520 752.177734,704.328552 750.158630,712.539001 
	C748.538025,719.128723 749.392395,725.761658 752.906189,732.052368 
	C756.666443,738.784180 762.696167,741.778625 769.491089,744.026917 
	C770.554810,744.378967 771.431702,744.346741 772.510193,744.035278 
	C790.548401,738.825500 796.608337,721.051514 790.999817,706.000061 
	C789.195740,701.158691 785.534119,700.524292 782.010803,704.509521 
	C779.118164,707.781311 776.943359,711.727051 773.000000,714.000000 
"/>
<path fill="none" opacity="1.000000" stroke="#000000" stroke-linecap="round" stroke-linejoin="round" stroke-width="8.000000"
	d="
M126.000000,598.500000 
	C119.441200,596.992371 113.725159,593.073547 107.003502,591.978516 
	C94.433182,589.930420 80.988541,593.246521 72.024307,603.521179 
	C70.838158,604.880737 70.364601,606.642700 70.500000,608.500000 
"/>
<path fill="none" opacity="1.000000" stroke="#000000" stroke-linecap="round" stroke-linejoin="round" stroke-width="8.000000"
	d="
M120.000000,632.500000 
	C115.833336,629.166687 111.706886,625.781494 107.491600,622.510803 
	C98.805183,615.771057 88.777702,612.134888 77.991760,611.084595 
	C60.968330,609.427002 49.459309,612.104187 37.008186,621.510864 
	C29.970625,626.827576 26.493187,636.980591 29.000000,644.500000 
"/>
<path fill="none" opacity="1.000000" stroke="#000000" stroke-linecap="round" stroke-linejoin="round" stroke-width="9.000000"
	d="
M865.500000,722.500000 
	C865.692322,718.114746 866.190796,713.746521 860.535339,711.892273 
	C858.629211,711.267395 857.971497,708.820435 856.970337,707.016479 
	C855.692993,704.714905 854.001648,702.888367 850.999512,702.984436 
	C848.026062,703.079712 847.407715,705.522217 846.534729,707.515198 
	C842.481995,716.767639 842.811462,725.657898 848.982361,734.013000 
	C850.270264,735.756775 851.333313,737.666687 852.500000,739.500000 
"/>
<path fill="none" opacity="1.000000" stroke="#000000" stroke-linecap="round" stroke-linejoin="round" stroke-width="8.000000"
	d="
M717.000000,227.500000 
	C724.541626,226.432648 727.802856,222.860779 727.500000,216.000000 
	C727.271606,210.827484 723.808655,207.941635 718.500000,208.499985 
	C713.869934,208.986954 709.606873,214.708801 710.539185,219.492355 
	C711.229004,223.031006 712.859253,226.063889 716.500000,227.500000 
"/>
<path fill="none" opacity="1.000000" stroke="#000000" stroke-linecap="round" stroke-linejoin="round" stroke-width="8.000000"
	d="
M897.000000,829.000000 
	C889.956909,819.270630 881.685608,811.023438 870.538513,805.916016 
	C867.066895,804.325317 867.660889,800.467773 868.099976,797.514893 
	C868.983032,791.576294 868.075134,786.014648 866.011597,780.495667 
	C862.231750,770.386597 855.633545,762.758850 846.538574,756.939697 
	C835.394165,749.809204 822.998413,748.751221 810.515625,749.704834 
	C801.097107,750.424316 792.201355,753.346619 783.874390,758.808472 
	C769.064331,768.522522 761.863586,781.337708 762.977966,799.501343 
	C763.149292,802.293762 762.466064,804.273499 759.607910,806.163208 
	C752.699036,810.730896 745.592224,815.186218 739.993286,821.494019 
	C737.678406,824.102112 735.401855,826.700928 735.500000,830.500000 
"/>
<path fill="none" opacity="1.000000" stroke="#000000" stroke-linecap="round" stroke-linejoin="round" stroke-width="7.000000"
	d="
M456.500000,188.500000 
	C457.603882,183.101074 455.573547,178.419830 451.379425,175.684906 
	C447.266235,173.002808 442.250458,171.557693 437.468414,170.103851 
	C434.620056,169.237930 431.564392,170.469955 429.591644,172.585464 
	C427.661346,174.655487 425.711914,174.974594 423.520172,173.956543 
	C418.152557,171.463318 413.821167,173.590179 410.058960,177.063843 
	C406.979187,179.907394 403.895691,181.658798 399.520081,182.171326 
	C392.828949,182.955093 385.877197,192.638672 390.500000,202.000000 
"/>
<path fill="none" opacity="1.000000" stroke="#000000" stroke-linecap="round" stroke-linejoin="round" stroke-width="9.000000"
	d="
M824.000000,527.500000 
	C819.754578,525.046997 815.340698,526.741638 811.001099,527.017090 
	C799.523071,527.745667 788.187744,528.079956 779.453979,518.542175 
	C779.149902,518.210083 778.166687,518.500000 777.500000,518.500000 
"/>
<path fill="none" opacity="1.000000" stroke="#000000" stroke-linecap="round" stroke-linejoin="round" stroke-width="7.000000"
	d="
M387.000000,268.000000 
	C379.933258,275.487762 381.231415,282.287628 390.497528,286.505432 
	C398.753448,290.263428 409.722595,287.905609 413.500000,282.500000 
"/>
<path fill="none" opacity="1.000000" stroke="#000000" stroke-linecap="round" stroke-linejoin="round" stroke-width="8.000000"
	d="
M736.500000,440.500000 
	C723.306580,444.079712 720.034729,466.626404 734.021423,477.472412 
	C736.903442,479.707245 742.468018,478.588593 746.987244,474.984039 
	C756.806152,467.152649 759.373474,452.138367 749.580078,443.410156 
	C745.656921,439.913605 741.726990,439.165253 737.000000,440.500000 
"/>
<path fill="none" opacity="1.000000" stroke="#000000" stroke-linecap="round" stroke-linejoin="round" stroke-width="8.000000"
	d="
M103.000000,638.000000 
	C96.683571,639.107056 90.262123,639.295898 83.980713,640.925659 
	C65.695412,645.670105 56.147110,658.821777 50.710060,675.568176 
	C49.453205,679.439331 50.833332,684.166687 51.000000,688.500000 
"/>
<path fill="none" opacity="1.000000" stroke="#000000" stroke-linecap="round" stroke-linejoin="round" stroke-width="8.000000"
	d="
M177.000000,630.500000 
	C172.615540,633.936462 171.944427,639.318054 170.039124,644.015869 
	C166.838135,651.908325 162.309723,659.232056 160.030441,667.508362 
	C159.956863,667.775513 160.333328,668.166687 160.500000,668.500000 
"/>
<path fill="none" opacity="1.000000" stroke="#000000" stroke-linecap="round" stroke-linejoin="round" stroke-width="10.000000"
	d="
M869.000000,806.000000 
	C866.465332,810.414551 862.276978,813.781677 860.913635,818.977356 
	C860.696289,819.805603 859.398254,820.443237 858.488586,820.980774 
	C854.835022,823.139465 851.702698,825.822510 849.211426,829.411560 
	C856.457397,840.502014 862.260986,851.872620 861.000000,865.500000 
"/>
<path fill="none" opacity="1.000000" stroke="#000000" stroke-linecap="round" stroke-linejoin="round" stroke-width="9.000000"
	d="
M782.000000,830.500000 
	C774.414246,840.576294 771.081970,852.216431 769.500000,864.500000 
"/>
<path fill="none" opacity="1.000000" stroke="#000000" stroke-linecap="round" stroke-linejoin="round" stroke-width="7.000000"
	d="
M441.500000,235.500000 
	C432.335358,232.596146 423.930542,234.130676 415.969025,239.453659 
	C411.140015,242.682281 409.390228,244.931244 415.066101,249.924866 
	C423.000763,256.905762 432.276825,258.949280 442.500000,255.500000 
"/>
<path fill="none" opacity="1.000000" stroke="#000000" stroke-linecap="round" stroke-linejoin="round" stroke-width="7.000000"
	d="
M385.750000,777.000000 
	C384.419220,779.222839 383.201843,781.482361 381.551178,783.541016 
	C377.789764,788.232117 372.981171,789.463501 367.518066,787.935486 
	C362.042938,786.404053 358.333496,782.840759 357.250000,777.000000 
"/>
<path fill="none" opacity="1.000000" stroke="#000000" stroke-linecap="round" stroke-linejoin="round" stroke-width="10.000000"
	d="
M762.500000,805.000000 
	C766.566040,807.989258 767.846741,812.675964 769.391235,817.038513 
	C770.462646,820.064392 767.614380,821.470398 765.513794,823.018738 
	C759.413086,827.515320 755.260559,833.542480 752.558167,840.522522 
	C751.403076,843.505859 750.958984,846.747925 751.000000,850.000000 
"/>
<path fill="none" opacity="1.000000" stroke="#000000" stroke-linecap="round" stroke-linejoin="round" stroke-width="7.000000"
	d="
M848.500000,165.000000 
	C845.445007,170.979431 839.252869,174.034851 835.278137,179.333588 
	C831.576172,184.268692 828.568176,189.292297 826.500000,195.000000 
"/>
<path fill="none" opacity="1.000000" stroke="#000000" stroke-linecap="round" stroke-linejoin="round" stroke-width="8.000000"
	d="
M261.000000,641.000000 
	C262.549774,646.514893 267.748962,649.331238 270.567810,653.958679 
	C273.891724,659.415100 277.004578,664.807983 276.500000,671.500000 
"/>
<path fill="none" opacity="1.000000" stroke="#000000" stroke-linecap="round" stroke-linejoin="round" stroke-width="10.000000"
	d="
M861.000000,820.000000 
	C872.940918,828.102600 880.778320,838.838806 882.500000,853.500000 
"/>
<path fill="none" opacity="1.000000" stroke="#000000" stroke-linecap="round" stroke-linejoin="round" stroke-width="7.000000"
	d="
M819.500000,295.500000 
	C822.947266,302.439575 828.007141,308.275787 832.499634,314.500275 
	C834.211792,316.872681 836.138062,319.086578 837.030762,321.990540 
	C837.844543,324.637726 840.145142,324.956146 842.500000,325.000000 
"/>
<path fill="none" opacity="1.000000" stroke="#000000" stroke-linecap="round" stroke-linejoin="round" stroke-width="7.000000"
	d="
M23.000000,697.500000 
	C20.204027,701.537598 15.476288,702.456970 11.460838,704.419861 
	C7.534718,706.339111 3.227955,707.531128 2.000000,712.500000 
"/>
<path fill="none" opacity="1.000000" stroke="#000000" stroke-linecap="round" stroke-linejoin="round" stroke-width="9.000000"
	d="
M1014.500000,644.000000 
	C1016.664185,646.816467 1017.132019,650.035889 1017.035583,653.500977 
	C1016.896545,658.497131 1017.000000,663.500000 1017.000000,668.500000 
"/>
<path fill="none" opacity="1.000000" stroke="#000000" stroke-linecap="round" stroke-linejoin="round" stroke-width="6.000000"
	d="
M696.500000,245.500000 
	C691.182068,249.728165 685.422852,251.923630 678.472534,250.104919 
	C676.994324,249.718109 675.166687,250.666656 673.500000,250.999985 
"/>
<path fill="none" opacity="1.000000" stroke="#000000" stroke-linecap="round" stroke-linejoin="round" stroke-width="5.000000"
	d="
M825.500000,790.500000 
	C824.738953,795.877380 822.261841,799.062195 818.500000,799.499939 
	C813.414978,800.091736 810.517029,798.063171 808.500000,792.500000 
"/>
<path fill="none" opacity="1.000000" stroke="#000000" stroke-linecap="round" stroke-linejoin="round" stroke-width="8.000000"
	d="
M864.000000,744.500000 
	C863.027405,751.430786 858.940247,756.473877 854.000000,761.000000 
"/>
<path fill="none" opacity="1.000000" stroke="#000000" stroke-linecap="round" stroke-linejoin="round" stroke-width="7.000000"
	d="
M771.000000,745.000000 
	C771.423767,751.239258 775.812012,755.770752 778.000000,761.250000 
"/>
<path fill="none" opacity="1.000000" stroke="#000000" stroke-linecap="round" stroke-linejoin="round" stroke-width="7.000000"
	d="
M495.000000,248.500000 
	C499.493073,251.066818 504.917175,250.258545 509.500000,252.500000 
"/>
<path fill="none" opacity="1.000000" stroke="#000000" stroke-linecap="round" stroke-linejoin="round" stroke-width="7.000000"
	d="
M785.000000,739.500000 
	C787.531189,743.997437 790.748413,748.176331 791.500000,753.500000 
"/>
<path fill="none" opacity="1.000000" stroke="#000000" stroke-linecap="round" stroke-linejoin="round" stroke-width="7.000000"
	d="
M870.500000,694.500000 
	C869.158508,696.831726 868.736694,699.247681 868.914246,702.005493 
	C869.201721,706.469666 868.213196,710.766357 865.500000,714.500000 
"/>
<path fill="none" opacity="1.000000" stroke="#000000" stroke-linecap="round" stroke-linejoin="round" stroke-width="6.000000"
	d="
M1090.000000,222.500000 
	C1079.045166,224.656174 1075.716187,232.638840 1075.106567,239.509445 
	C1074.426392,247.175797 1081.697021,256.121307 1089.006592,256.941467 
	C1098.880005,258.049286 1104.727539,254.342010 1107.932495,244.976913 
	C1111.739014,233.854202 1103.611084,222.369263 1093.498169,222.969879 
	C1092.511597,223.028473 1091.500000,222.666656 1090.500000,222.500000 
"/>
<path fill="none" opacity="1.000000" stroke="#000000" stroke-linecap="round" stroke-linejoin="round" stroke-width="5.000000"
	d="
M478.500000,220.500000 
	C472.693787,224.652954 472.547943,225.126999 474.470459,229.512955 
	C475.662567,232.232712 477.541107,234.812164 480.429535,233.799103 
	C483.237152,232.814392 484.964264,230.041321 485.072144,226.502197 
	C485.207520,222.057999 483.158142,220.341858 479.000000,220.500000 
"/>
<path fill="none" opacity="1.000000" stroke="#000000" stroke-linecap="round" stroke-linejoin="round" stroke-width="7.000000"
	d="
M1027.000000,150.500000 
	C1018.635925,152.853043 1011.084106,156.134171 1005.395508,163.418396 
	C995.301514,176.343781 996.260986,197.720490 1009.837891,209.683945 
	C1021.768616,220.196777 1042.424561,219.817535 1053.544922,209.046326 
	C1060.159058,202.639709 1064.664795,195.595856 1065.147583,186.007431 
	C1065.445801,180.086441 1064.675781,174.506729 1061.903809,169.553848 
	C1054.447632,156.231567 1043.067749,149.447250 1027.500000,150.500000 
"/>
<path fill="none" opacity="1.000000" stroke="#000000" stroke-linecap="round" stroke-linejoin="round" stroke-width="7.000000"
	d="
M999.000000,87.500000 
	C990.796631,88.137161 986.226074,93.754547 984.284058,100.580811 
	C982.701721,106.142815 983.855225,112.190926 988.428955,117.066643 
	C992.933044,121.867996 1002.351257,122.770889 1008.007812,120.015999 
	C1014.381470,116.911896 1018.340454,111.455284 1017.911194,103.504791 
	C1017.384033,93.740189 1009.993896,87.608780 999.500000,87.500000 
"/>
<path fill="none" opacity="1.000000" stroke="#000000" stroke-linecap="round" stroke-linejoin="round" stroke-width="8.000000"
	d="
M187.000000,69.500000 
	C173.475449,72.235344 162.630844,78.956436 155.514130,91.008347 
	C140.785110,115.951393 155.557892,147.993927 179.450851,154.675735 
	C205.757004,162.032410 230.242828,147.193787 235.374527,120.475899 
	C239.913956,96.841667 222.244522,75.239235 205.051620,71.276054 
	C199.134262,69.912033 193.392471,69.649239 187.500000,69.500000 
"/>
<path fill="none" opacity="1.000000" stroke="#000000" stroke-linecap="round" stroke-linejoin="round" stroke-width="7.000000"
	d="
M770.000000,64.500000 
	C758.715942,66.621368 752.683350,72.970657 753.063049,82.997612 
	C753.382996,91.447289 758.881592,99.651321 770.001221,99.955421 
	C779.837463,100.224426 788.633484,91.553932 788.160156,82.991150 
	C787.543762,71.839294 783.428589,66.938622 770.500000,64.500000 
"/>
</svg>