<svg version="1.1" id="Layer_1" xmlns="http://www.w3.org/2000/svg" xmlns:xlink="http://www.w3.org/1999/xlink" x="0px" y="0px"
	 width="100%" viewBox="0 0 784 1024" enable-background="new 0 0 784 1024" xml:space="preserve">
<path fill="#000000" opacity="1.000000" stroke="none" 
	d="
M173.923492,465.926056 
	C187.876266,446.621643 194.590057,424.647491 200.658539,402.421265 
	C207.954224,375.700378 211.537003,348.326172 214.722168,320.892853 
	C218.507874,288.287262 222.507599,255.676498 235.687500,225.198090 
	C256.912933,176.114441 291.590088,140.606705 343.720856,125.811714 
	C397.439331,110.566124 449.100128,116.854385 496.209473,148.432785 
	C523.877808,166.979431 542.555359,193.051788 555.403015,223.518539 
	C565.123230,246.568817 570.132446,270.760803 573.376160,295.446167 
	C577.965210,330.370178 581.581848,365.393768 589.954773,399.796722 
	C598.547791,435.104248 614.627686,465.817444 638.505676,493.156586 
	C660.204529,518.000732 680.384094,544.177429 697.516113,572.486267 
	C709.212585,591.813599 718.978394,612.042603 722.675903,634.615845 
	C723.860474,641.847595 724.256531,649.258484 722.053833,656.417053 
	C719.518982,664.654907 711.917419,668.998291 703.352661,667.742432 
	C679.410339,664.231934 658.569763,653.146179 638.061707,641.216431 
	C636.479431,640.296082 634.929871,639.317627 633.325012,638.439575 
	C632.943726,638.230957 632.400330,638.318542 631.825317,638.258850 
	C630.867188,640.937805 631.226868,643.622498 631.438354,646.202576 
	C633.479309,671.108398 631.481262,695.817688 627.138916,720.298035 
	C619.683594,762.328125 601.575806,798.932617 570.192810,828.436646 
	C567.530151,830.939941 564.586609,833.154724 561.691956,835.398315 
	C558.803650,837.636841 555.812500,839.742798 552.305237,842.319153 
	C559.512939,844.185669 566.434143,843.835449 573.185913,844.708313 
	C601.129395,848.320679 628.893250,852.734802 655.467468,862.580383 
	C664.061401,865.764404 672.585327,869.180847 679.843933,875.023010 
	C690.239075,883.389465 689.982056,893.148804 679.111572,900.816101 
	C669.631531,907.502808 658.419006,909.881104 647.585144,913.015381 
	C627.037537,918.959900 605.871277,921.437561 584.636108,923.371765 
	C582.490540,923.567261 580.366882,924.004456 578.186890,924.336548 
	C578.261047,924.616333 578.256531,925.004028 578.395691,925.065308 
	C581.974915,926.639954 585.862854,928.288086 585.641296,932.923645 
	C585.427429,937.399109 581.547119,939.151611 577.960693,940.594299 
	C569.649902,943.937317 560.769653,944.450256 552.002686,945.242249 
	C534.388977,946.833435 516.716370,946.477661 499.064758,946.140930 
	C471.035156,945.606384 443.206604,948.253113 415.347382,950.775574 
	C376.952667,954.252014 338.549042,955.456116 300.264954,949.285339 
	C295.496704,948.516724 290.777618,947.457092 286.283997,945.627991 
	C282.677948,944.160095 279.084839,942.543274 278.713196,937.932922 
	C278.352478,933.458069 281.657440,931.600769 286.133911,929.115967 
	C282.685089,929.115967 280.469940,929.105225 278.254913,929.117615 
	C252.240295,929.263184 226.299454,927.979431 200.545715,924.239746 
	C178.798065,921.081665 157.129623,917.386047 136.548538,909.198914 
	C130.496887,906.791565 124.659271,903.962891 119.523056,899.852722 
	C110.262428,892.442078 110.037430,882.587585 119.065361,874.872681 
	C127.728004,867.469971 138.049057,863.158447 148.733200,859.844849 
	C176.333435,851.285156 204.595184,846.017151 233.399246,843.670166 
	C234.226868,843.602722 235.063583,843.519653 235.867065,843.324524 
	C236.493118,843.172546 237.074005,842.834595 237.563370,842.626770 
	C237.873306,841.649902 237.352097,841.178284 236.819016,840.799805 
	C199.392487,814.225525 177.899216,777.257263 166.954987,733.471924 
	C159.655655,704.268982 158.691116,674.544800 160.088867,644.653381 
	C160.188705,642.518066 160.298264,640.383179 160.418839,637.931946 
	C157.771683,637.978577 156.167419,639.482117 154.386154,640.537048 
	C135.401703,651.780640 115.858330,661.743286 94.125237,666.620361 
	C91.375114,667.237366 88.556595,667.734009 85.749039,667.875793 
	C77.647697,668.284729 71.845947,663.901672 69.352859,656.037537 
	C67.049385,648.771545 67.964882,641.535583 69.214401,634.289429 
	C73.128281,611.592102 82.810394,591.227600 94.704315,571.789246 
	C113.811096,540.562866 137.404449,512.674988 160.069839,484.096039 
	C164.727707,478.222870 169.173981,472.181885 173.923492,465.926056 
M176.445389,714.085754 
	C178.845901,725.656982 181.394424,737.183777 185.227661,748.395325 
	C198.219482,786.394226 220.988297,816.561035 256.025208,836.898926 
	C282.487518,852.259521 311.708374,858.970032 341.586761,862.422913 
	C368.860992,865.575012 396.320953,866.893433 423.853455,864.744019 
	C445.295044,863.070068 466.570160,860.546448 487.519745,855.609558 
	C521.022888,847.714294 549.902161,831.776367 573.071716,806.071594 
	C594.041382,782.807434 606.091980,755.096436 612.706299,724.848328 
	C619.161926,695.325317 619.475098,665.416321 617.612488,635.401917 
	C617.260132,629.723877 615.264648,625.379944 610.442383,621.968689 
	C606.258423,619.009033 602.633545,615.232605 598.902832,611.669189 
	C596.855774,609.713867 595.157959,607.416443 594.205688,604.670654 
	C593.342896,602.182922 593.815063,600.055115 595.967346,598.452942 
	C597.953735,596.974182 600.019775,597.076721 601.985229,598.485474 
	C603.200806,599.356689 604.346863,600.335449 605.460632,601.336487 
	C619.023743,613.526611 633.846313,623.971497 649.730042,632.878113 
	C666.320374,642.180725 683.132507,651.000305 702.267578,654.062744 
	C709.174316,655.168152 710.708435,654.039368 710.624512,647.024475 
	C710.438965,631.519897 705.340942,617.269531 698.942200,603.459961 
	C685.455383,574.353271 666.201721,548.990295 646.550903,523.934021 
	C637.196655,512.006775 627.581177,500.275970 617.822266,488.676453 
	C598.879517,466.160980 587.573181,439.990082 579.518127,411.975555 
	C568.509521,373.689056 564.809265,334.256531 559.714600,295.002991 
	C556.144836,267.499146 550.220947,240.535324 537.145264,215.701996 
	C521.485413,185.960983 499.403137,162.761063 468.735046,148.054230 
	C442.543427,135.494049 414.892426,131.132492 386.191467,132.326492 
	C364.329254,133.235992 343.183380,137.695129 323.657959,147.868835 
	C277.708984,171.810501 250.980759,210.590790 238.293823,259.916656 
	C231.725082,285.455414 229.514694,311.692627 226.338562,337.765900 
	C223.114166,364.235291 218.468887,390.432281 210.854614,416.013977 
	C204.272552,438.127838 196.212479,459.605591 181.620987,477.972931 
	C173.643158,488.015167 165.636230,498.035065 157.743378,508.143829 
	C136.934631,534.794495 115.703224,561.141968 99.013397,590.731140 
	C88.896988,608.666382 82.016296,627.568237 81.365852,648.362122 
	C81.186134,654.107300 82.822708,655.306824 88.647858,654.267151 
	C95.554237,653.034485 102.306427,651.163696 108.780609,648.485291 
	C137.454010,636.622986 164.283890,621.743530 187.061813,600.284485 
	C189.686264,597.812012 192.762894,595.320801 196.241501,598.358887 
	C199.690933,601.371460 198.411346,605.002563 196.082458,608.225708 
	C195.015289,609.702698 193.742950,611.039551 192.496582,612.377441 
	C188.051956,617.148499 182.928467,621.159912 177.883621,625.248779 
	C175.678162,627.036316 174.482056,629.093323 174.292938,632.019531 
	C172.539291,659.154236 171.857452,686.252930 176.445389,714.085754 
M221.237427,856.738770 
	C223.019394,855.583557 224.801346,854.428345 226.583313,853.273132 
	C195.615097,855.874451 165.237167,860.799683 136.484619,872.983276 
	C132.352982,874.734009 128.390747,876.970886 124.930626,879.884644 
	C118.667702,885.158508 118.721741,889.578918 125.234764,894.382690 
	C130.360748,898.163452 136.199234,900.693604 142.120438,902.953430 
	C167.114777,912.492676 193.422653,915.714478 219.737991,918.600769 
	C244.931213,921.363953 270.263733,921.700073 295.593536,921.752075 
	C298.848175,921.758728 303.557739,920.361877 304.365356,925.093079 
	C305.158752,929.741150 300.231018,929.875122 297.260254,931.324463 
	C293.630005,933.095398 289.243622,933.564209 286.564789,937.371338 
	C288.096924,939.540955 290.338959,939.675293 292.392517,940.131958 
	C306.568878,943.284485 320.983429,944.793701 335.433228,945.587891 
	C372.314178,947.614868 408.947418,943.975891 445.596069,940.439941 
	C467.153381,938.360046 488.812225,937.858948 510.475861,938.480225 
	C528.151611,938.987183 545.797974,938.469727 563.350220,936.374207 
	C567.607910,935.865906 572.234131,935.711609 576.182556,933.020874 
	C574.625366,930.572937 572.278442,930.085693 570.131897,929.332520 
	C567.618835,928.450745 565.011169,927.828308 562.526733,926.878296 
	C560.018982,925.919312 558.289673,924.254517 558.605164,921.221558 
	C558.906250,918.327393 560.996521,917.295166 563.381042,916.915283 
	C566.498779,916.418701 569.668335,916.045776 572.820984,916.001587 
	C597.612854,915.653503 621.919678,911.797913 645.826599,905.516479 
	C655.611511,902.945496 665.626343,900.515442 674.217468,894.798645 
	C680.691956,890.490295 680.639771,885.381165 674.420105,880.808594 
	C668.880493,876.736084 662.636597,873.975769 656.316040,871.329163 
	C639.920715,864.464172 622.643982,860.830444 605.308594,857.589050 
	C591.653381,855.035828 577.836243,853.375244 563.152222,852.338989 
	C567.357056,854.983582 570.965515,857.006287 574.303345,859.405518 
	C580.594543,863.927551 586.174988,869.145081 588.967224,876.667358 
	C591.726868,884.101685 589.116577,890.198486 581.842041,893.453247 
	C579.699463,894.411865 577.448059,894.907104 575.155029,895.400085 
	C567.314880,897.085693 559.539612,895.368042 551.747681,895.101807 
	C548.169067,894.979431 546.494446,895.787048 545.725037,899.689575 
	C543.342224,911.775452 534.028442,917.781860 521.828918,915.933533 
	C498.689087,912.427612 477.238464,903.893311 456.222412,894.072205 
	C450.830627,891.552551 446.034393,887.992310 443.889832,882.231079 
	C442.193787,877.674805 439.268066,876.943298 434.992981,877.349243 
	C417.728516,878.988403 400.406769,879.421265 383.080414,878.935181 
	C373.932373,878.678528 364.796143,877.916260 355.662750,877.267212 
	C352.342102,877.031250 350.034119,877.614868 348.804565,881.304260 
	C347.158997,886.241882 343.480072,889.756287 338.892975,892.106750 
	C317.611725,903.011475 295.528015,911.813843 271.889343,915.999695 
	C257.801758,918.494263 247.850403,912.253479 245.967377,899.981995 
	C245.329422,895.824585 243.517456,895.013916 240.078751,895.408325 
	C232.594772,896.266541 225.125824,896.014282 217.639297,895.336060 
	C203.057770,894.014832 197.863663,883.366638 205.751480,870.967407 
	C209.526276,865.033569 214.948288,860.950378 221.237427,856.738770 
M268.161224,879.589661 
	C265.127808,882.655823 261.553101,885.217529 259.495239,889.184326 
	C257.593597,892.849976 256.106384,896.494446 258.635437,900.483032 
	C261.021545,904.246216 264.759003,903.985718 268.456146,903.773254 
	C270.112885,903.678101 271.791779,903.568970 273.407471,903.220154 
	C293.716583,898.835754 312.923553,891.356812 331.549164,882.299561 
	C334.196625,881.012268 336.715698,879.337524 337.219849,876.057068 
	C335.250732,874.567566 333.243652,874.561462 331.269989,874.275635 
	C307.799133,870.876770 284.749725,865.902649 263.182709,855.584839 
	C260.617401,854.357544 258.190887,854.187500 255.470520,854.979858 
	C246.470123,857.601379 237.822479,861.078735 229.766571,865.848938 
	C224.904938,868.727600 220.141251,871.869995 216.779861,876.629272 
	C213.531647,881.228210 214.063095,882.371460 219.497208,883.123535 
	C227.664566,884.253906 235.802383,882.937561 243.944946,883.068481 
	C248.836868,883.147095 252.564377,881.798157 255.650391,877.898010 
	C258.329803,874.511841 261.404449,871.367432 265.798737,870.091187 
	C267.877411,869.487427 269.796326,869.724182 271.255127,871.471558 
	C272.877228,873.414612 272.005005,875.221497 270.736694,876.902100 
	C270.138550,877.694824 269.378021,878.364929 268.161224,879.589661 
M520.066162,875.030823 
	C520.662231,870.259277 522.645203,868.883911 526.911011,870.322571 
	C531.235779,871.781006 534.043518,875.116028 536.752686,878.501160 
	C538.710999,880.948181 540.875977,882.724365 544.226135,882.803711 
	C552.707825,883.004700 561.185364,883.378967 569.666931,883.587524 
	C572.144287,883.648438 575.095093,883.838806 576.346863,881.265503 
	C577.710754,878.461670 575.120300,876.664795 573.445801,874.953003 
	C563.079041,864.354675 549.850159,859.112793 535.979309,855.055115 
	C533.085144,854.208374 530.563171,854.478394 527.815735,855.739319 
	C508.322327,864.685425 487.739655,869.880310 466.664642,873.440430 
	C462.899414,874.076416 458.701599,873.669861 455.320770,876.466309 
	C456.532837,880.469299 459.855225,881.851013 462.945312,883.347900 
	C475.546417,889.452087 488.563293,894.556824 501.950897,898.618103 
	C509.716827,900.973938 517.420471,903.893860 525.741028,903.804443 
	C531.568665,903.741882 535.238892,899.283936 534.138794,893.533691 
	C533.254272,888.909973 530.510315,885.417603 527.148987,882.291992 
	C524.847168,880.151733 522.001526,878.565613 520.066162,875.030823 
z"/>
<path fill="#000000" opacity="1.000000" stroke="none" 
	d="
M201.817108,646.009399 
	C202.982498,599.769104 209.775253,555.079773 226.639969,512.257202 
	C239.724869,479.032349 258.960480,450.348633 287.958008,428.826385 
	C288.344086,428.539886 288.629883,428.118195 288.916016,427.809723 
	C289.190247,426.141998 288.014832,425.284576 287.161591,424.332184 
	C264.367828,398.890686 251.986984,368.963440 248.538025,335.132843 
	C245.737991,307.667267 248.130707,280.774872 259.233795,255.345306 
	C267.891937,235.515366 281.007690,219.333038 302.788483,212.678207 
	C329.876343,204.401886 357.973602,217.026123 371.690918,243.180664 
	C381.588623,262.052460 385.455597,282.257538 385.368164,303.394073 
	C385.355377,306.483795 384.774261,309.665161 386.115021,313.200134 
	C393.113007,311.143311 400.096191,309.776611 407.630890,313.604736 
	C407.756500,303.646912 407.637299,294.695679 408.638000,285.782928 
	C410.854187,266.044678 416.468231,247.614029 429.155151,231.956772 
	C450.709167,205.356461 487.295593,202.483795 512.909912,225.216049 
	C529.063660,239.552277 537.522522,258.275146 542.039734,278.758484 
	C552.714050,327.161041 543.786987,371.937042 515.648071,412.799622 
	C513.860657,415.395233 511.760529,417.786865 509.690155,420.173004 
	C507.648102,422.526489 505.459015,424.752441 503.042938,427.347443 
	C507.033936,430.656891 510.698944,433.495880 514.141602,436.582825 
	C538.888489,458.772797 555.832825,486.163635 567.290894,517.102783 
	C579.150269,549.125305 586.063904,582.213684 588.425659,616.298340 
	C589.947510,638.263367 590.468811,660.198303 588.308472,682.137329 
	C584.096252,724.912659 571.793762,764.577026 543.944824,798.375061 
	C516.625305,831.530701 480.838440,850.073425 439.416718,858.146790 
	C404.975769,864.859497 370.438507,863.811523 336.577972,854.234558 
	C267.411224,834.671753 226.287537,788.324890 209.471268,719.315918 
	C203.645874,695.410278 201.676804,671.059937 201.817108,646.009399 
M458.166687,222.609436 
	C443.933014,228.494949 433.833344,238.634079 427.581665,252.615814 
	C418.877014,272.083679 417.585205,292.822449 417.378357,313.720947 
	C417.337341,317.865662 419.031616,320.985352 422.826202,323.099365 
	C427.775330,325.856628 432.658844,328.689758 437.898224,330.905945 
	C446.423645,334.512054 448.056274,338.316132 443.438446,346.483246 
	C434.422638,362.428619 421.924683,374.728455 404.495636,381.498505 
	C399.383575,383.484161 394.444092,383.555878 389.422699,381.560547 
	C370.742889,374.137817 357.412903,360.934540 348.485413,343.170593 
	C345.873962,337.974365 347.516968,334.280396 353.099304,332.060455 
	C359.670380,329.447357 365.476227,325.588196 371.341125,321.766693 
	C374.400696,319.773132 375.879517,317.266388 375.773895,313.481171 
	C375.518555,304.331909 376.127319,295.144196 374.651794,286.053864 
	C372.159790,270.701050 368.921448,255.557861 359.802856,242.486282 
	C343.343781,218.891937 313.809052,211.720123 289.680115,230.603683 
	C278.959778,238.993500 272.136780,250.067169 267.185455,262.463226 
	C257.970795,285.532745 255.665131,309.483856 258.188904,334.047638 
	C260.987701,361.288483 269.672913,386.249176 286.421814,408.190857 
	C290.581635,413.640320 295.573059,418.330322 299.862183,423.633392 
	C303.431091,428.046051 302.957886,431.025116 298.281860,433.982178 
	C283.981781,443.025269 272.537689,455.094757 262.330566,468.329651 
	C244.130188,491.928741 233.135696,519.033447 225.364182,547.504822 
	C213.728653,590.132141 209.866470,633.527771 213.072647,677.611938 
	C214.738617,700.518372 219.182175,722.770813 227.425262,744.198364 
	C245.472809,791.111938 278.141907,823.754578 325.386505,840.471191 
	C365.390900,854.625977 406.617950,855.679688 447.957031,846.000244 
	C487.859436,836.657288 520.141113,815.463928 543.846313,782.001526 
	C568.785095,746.797607 577.550354,706.377258 579.552551,664.172485 
	C580.570984,642.705872 579.602478,621.239624 576.957825,599.855835 
	C572.343750,562.547363 563.236267,526.546021 545.659607,493.113831 
	C533.414307,469.822327 517.505432,449.470154 495.262299,434.697266 
	C488.559875,430.245819 488.297791,427.524506 494.341217,421.942291 
	C503.996185,413.024200 511.743744,402.655029 517.841553,391.070129 
	C533.422058,361.469696 539.131897,329.872101 535.432251,296.780518 
	C533.403076,278.630676 528.354492,261.152710 517.961304,245.735519 
	C503.203827,223.844330 482.143951,215.584412 458.166687,222.609436 
M375.186737,345.273682 
	C380.480377,347.277496 385.774445,349.280212 391.067505,351.285522 
	C393.578552,352.236877 396.236725,353.373535 398.834778,352.464844 
	C409.775116,348.638214 420.665161,344.654022 431.268219,338.762115 
	C421.094604,334.519562 413.138123,326.981201 403.429749,322.261810 
	C398.836182,320.028809 394.467224,320.224335 389.999237,322.295685 
	C380.608368,326.649323 372.566772,333.310364 363.331543,337.937469 
	C363.022156,338.092468 362.980865,338.782593 362.765503,339.353485 
	C366.396057,341.936310 370.584290,343.156647 375.186737,345.273682 
M397.338470,373.218872 
	C410.410339,370.380280 419.204865,361.463531 427.634766,351.926941 
	C420.183136,354.260010 412.861725,356.802246 405.707642,359.750549 
	C399.673004,362.237579 393.854767,362.182617 387.811981,359.911316 
	C381.071533,357.377716 374.226166,355.123108 367.426453,352.747101 
	C375.150391,362.629089 384.192902,370.380951 397.338470,373.218872 
z"/>
<path fill="#000000" opacity="1.000000" stroke="none" 
	d="
M507.942627,743.880737 
	C486.282990,775.077148 457.693756,795.638611 420.506165,802.907410 
	C384.367432,809.971191 350.807404,802.525269 320.783569,781.477112 
	C284.539337,756.067932 264.761383,720.055298 257.766449,676.987000 
	C250.564377,632.643494 257.240356,589.708740 274.041107,548.336487 
	C285.955475,518.997070 303.162201,493.093933 328.723053,473.881866 
	C369.706055,443.078247 419.041901,441.977112 460.595276,472.026428 
	C488.792969,492.417603 506.688782,520.571167 519.340942,552.445923 
	C528.311340,575.045166 533.306396,598.537048 535.462219,622.709900 
	C538.440735,656.108521 534.862732,688.513367 521.229675,719.446777 
	C517.528320,727.845154 513.308044,735.972656 507.942627,743.880737 
M488.374847,752.862915 
	C513.050903,724.362244 524.588745,690.596436 526.479309,653.569275 
	C528.401672,615.921326 521.351624,579.663208 505.711456,545.238831 
	C494.018280,519.501831 478.126068,496.882080 455.061493,480.060425 
	C427.664795,460.079254 397.472443,454.695587 365.135956,465.344482 
	C339.298950,473.853027 319.719971,491.166229 304.597107,513.166077 
	C272.961548,559.187622 261.069153,610.517578 266.253448,665.837830 
	C269.165527,696.912109 279.856842,725.189880 300.167053,749.200134 
	C330.448181,784.997620 368.809326,800.891296 415.615479,793.729919 
	C444.552155,789.302673 468.316559,774.925781 488.374847,752.862915 
z"/>
<path fill="#000000" opacity="1.000000" stroke="none" 
	d="
M478.418640,319.609406 
	C468.566132,325.180969 459.613312,323.273102 453.171143,314.507935 
	C445.020508,303.418213 444.330933,284.898010 451.637268,273.311005 
	C460.700745,258.937317 477.402435,259.264252 485.822998,273.980225 
	C494.527710,289.192719 491.321838,309.698883 478.418640,319.609406 
M455.346497,282.257690 
	C455.770508,285.569550 457.644958,287.706268 460.824860,288.501373 
	C462.970306,289.037842 464.686676,287.946960 465.962128,286.267059 
	C468.044281,283.524597 468.510376,280.542908 466.690857,277.518707 
	C465.314850,275.231567 463.160675,273.793152 460.461853,274.506012 
	C457.049683,275.407196 455.440979,277.990540 455.346497,282.257690 
z"/>
<path fill="#000000" opacity="1.000000" stroke="none" 
	d="
M329.927338,263.592957 
	C341.499420,267.869690 345.406372,277.286652 347.014862,287.867737 
	C348.523285,297.790436 346.218628,307.097565 340.056213,315.212769 
	C332.469208,325.203918 319.348022,325.542725 311.257690,316.021332 
	C301.349121,304.360046 300.665466,283.311981 310.026855,271.234558 
	C314.919678,264.922180 321.046692,261.063202 329.927338,263.592957 
M333.249420,288.640320 
	C337.752014,287.312988 339.216125,284.016052 338.371368,279.797363 
	C337.697540,276.432190 335.592957,274.042450 331.720490,274.415375 
	C328.423859,274.732819 326.648010,276.913147 326.366211,280.028381 
	C325.959198,284.528381 327.568695,287.848358 333.249420,288.640320 
z"/>
</svg>