<svg version="1.1" id="Layer_1" xmlns="http://www.w3.org/2000/svg" xmlns:xlink="http://www.w3.org/1999/xlink" x="0px" y="0px"
	 width="100%" viewBox="0 0 1024 784" enable-background="new 0 0 1024 784" xml:space="preserve">
<path fill="#000000" opacity="1.000000" stroke="none" 
	d="
M155.061554,386.938873 
	C176.973267,379.156921 199.210052,374.127197 222.056015,369.383606 
	C220.695984,366.917603 218.382645,366.369110 216.468887,365.395050 
	C196.255585,355.106628 176.568375,343.924377 157.918137,330.981995 
	C152.710999,327.368530 147.685425,323.504059 143.211960,318.993866 
	C138.832748,314.578705 135.487640,309.643555 137.171082,302.985718 
	C139.004211,295.735962 144.562103,292.614075 151.252670,291.114594 
	C165.137054,288.002838 179.317093,287.422821 193.445312,286.962158 
	C208.587341,286.468445 223.763046,286.155365 238.902328,287.478088 
	C240.028320,287.576416 241.251556,287.803925 242.621323,286.369965 
	C238.479111,281.969269 234.353287,277.503906 230.138855,273.123779 
	C216.491776,258.940125 203.371735,244.312195 192.160431,228.080719 
	C189.029663,223.548065 186.221390,218.808380 184.577301,213.499939 
	C181.751282,204.375381 186.150101,196.431778 195.492813,194.595139 
	C206.082108,192.513443 216.354919,195.372131 226.572113,197.642059 
	C249.048340,202.635574 270.814484,209.967529 293.452179,218.659576 
	C291.509460,214.280167 289.967468,210.771973 288.399750,207.275314 
	C277.693878,183.397263 267.854248,159.197159 261.078827,133.856750 
	C259.996338,129.808090 259.476379,125.699196 259.594543,121.496902 
	C259.867096,111.805435 268.191528,105.233841 277.701599,107.501442 
	C285.871094,109.449379 293.273407,113.415588 300.654449,117.231209 
	C324.950714,129.791077 348.369446,143.832184 370.774170,159.545197 
	C372.065430,160.450790 373.190460,161.906693 375.732300,161.647232 
	C374.895844,154.578842 373.879517,147.580460 373.268982,140.546860 
	C371.006836,114.485634 368.677643,88.366089 373.800049,62.404694 
	C376.786987,47.266460 389.263519,43.092003 401.505463,52.612526 
	C403.080444,53.837391 404.562469,55.189598 406.024750,56.550339 
	C414.361206,64.307983 421.310944,73.267479 428.041687,82.381485 
	C438.841400,97.005196 448.645111,112.282715 457.488251,128.175949 
	C458.426788,129.862686 459.074188,131.844574 461.524567,133.444153 
	C463.342529,127.396576 465.070770,121.600220 466.827301,115.812447 
	C474.377899,90.933182 482.769684,66.364586 493.915680,42.820721 
	C495.343140,39.805511 496.983124,36.901482 499.171875,34.348930 
	C505.689667,26.747868 516.067200,26.601187 522.799316,33.986675 
	C525.765564,37.240845 527.655884,41.157482 529.538086,45.044380 
	C541.613708,69.981911 551.044250,95.943642 559.300659,122.355003 
	C559.896057,124.259430 560.511047,126.158989 561.179199,128.038651 
	C561.388977,128.628738 561.803162,129.146164 562.312378,130.020721 
	C564.992432,127.751022 566.225464,124.820801 567.801514,122.180504 
	C580.463928,100.968170 594.150269,80.488472 610.933960,62.255863 
	C614.310242,58.588070 617.883789,55.017330 621.788452,51.936703 
	C632.432190,43.539158 643.929626,47.257187 647.910950,60.127434 
	C650.145752,67.351715 650.822144,74.861130 651.128235,82.300888 
	C652.123596,106.490471 650.183899,130.540741 646.691772,154.475769 
	C646.453796,156.106613 645.983582,157.727264 646.642212,159.727081 
	C656.311584,153.393265 665.767395,146.978226 675.441406,140.910995 
	C692.663757,130.109650 710.025940,119.531044 728.580872,111.096199 
	C730.700317,110.132751 732.846008,109.197479 735.047424,108.448868 
	C749.248291,103.619820 759.669678,112.639565 756.809570,127.369476 
	C752.754578,148.253998 744.677307,167.828857 736.852173,187.464249 
	C732.911926,197.351303 728.554688,207.072159 724.013000,217.744781 
	C727.770081,216.397308 730.944885,215.285400 734.100830,214.122559 
	C757.732056,205.415329 781.677551,197.845047 806.719910,194.349091 
	C809.998291,193.891403 813.386597,193.709961 816.680237,193.965332 
	C828.462769,194.878937 834.404419,204.236816 830.084106,215.267960 
	C826.083069,225.483994 819.209839,233.936752 812.413757,242.372467 
	C800.793396,256.796234 788.078674,270.220245 774.820557,283.139343 
	C773.764832,284.168060 772.791443,285.281219 771.788086,286.346283 
	C772.689331,287.830048 773.965515,287.331635 775.001038,287.289368 
	C799.991882,286.270294 824.960205,286.292816 849.879333,288.786835 
	C855.528137,289.352203 861.146362,290.202240 866.495728,292.146088 
	C877.753845,296.237152 880.702393,307.426514 872.908936,316.642212 
	C867.585266,322.937592 860.795715,327.557922 854.063110,332.170105 
	C834.371948,345.659515 813.589355,357.273468 792.223083,367.869324 
	C791.649780,368.153625 791.092407,368.470123 789.712769,369.206573 
	C804.890869,371.759766 819.095825,374.974213 833.123779,378.865234 
	C848.861145,383.230469 864.422363,388.166840 878.989868,395.759338 
	C884.625427,398.696594 888.604248,402.807159 889.313599,409.472626 
	C889.956238,415.510437 887.090820,419.674286 882.403503,422.930725 
	C874.228088,428.610504 864.957764,431.957764 855.654419,435.101379 
	C837.175354,441.345367 818.269958,445.985413 799.060913,449.383606 
	C798.267578,449.523956 797.507935,449.854523 795.717590,450.413116 
	C803.846375,455.096832 811.268188,459.292755 818.611755,463.621338 
	C833.693359,472.510956 848.471985,481.870972 862.089966,492.921692 
	C865.700195,495.851410 869.223633,498.985687 872.299194,502.458008 
	C880.810364,512.067200 877.511353,523.473572 865.199158,527.477112 
	C856.883057,530.181213 848.216919,530.878113 839.572693,531.103455 
	C819.576843,531.624817 799.610718,531.048584 779.737488,528.464783 
	C777.686340,528.198059 775.503418,527.766846 772.572205,529.161804 
	C775.599060,532.031250 778.366333,534.576172 781.047180,537.209167 
	C795.699280,551.599792 809.187012,566.999390 821.197083,583.674377 
	C824.514893,588.280884 827.548706,593.057434 829.838196,598.270630 
	C835.085999,610.219788 828.912598,620.397339 815.779663,620.944336 
	C807.586731,621.285583 799.512878,619.696045 791.563477,617.841919 
	C770.279541,612.877625 749.592834,606.041199 729.435364,597.594360 
	C727.491089,596.779602 725.580688,595.714661 723.258545,595.886536 
	C722.927612,598.305603 724.419556,600.045837 725.275085,601.947937 
	C736.760559,627.483154 747.415771,653.335144 754.665771,680.443848 
	C756.067932,685.686646 757.831238,691.010315 756.652161,696.630432 
	C754.752869,705.683289 747.001526,710.735718 737.991882,708.494080 
	C727.176208,705.803345 717.786621,699.907776 708.224060,694.530273 
	C687.441711,682.843323 667.370056,670.017334 648.053650,656.024475 
	C646.984497,655.250000 645.834717,654.586853 644.261169,653.575317 
	C643.828308,662.203247 645.370850,670.325439 645.682922,678.499390 
	C646.585266,702.131287 647.740845,725.781555 642.223633,749.091553 
	C641.138794,753.675110 639.460266,758.047485 635.584839,761.115417 
	C629.762390,765.724792 621.978271,765.398987 615.352417,759.939331 
	C608.504578,754.296631 602.776001,747.549377 597.483215,740.455261 
	C583.906799,722.258545 571.846558,703.105042 561.402405,682.939819 
	C561.102783,682.361389 560.657959,681.858093 560.035156,680.969055 
	C558.159607,682.849182 557.975159,685.217834 557.327087,687.317810 
	C549.665222,712.145813 541.503357,736.796997 531.431335,760.773804 
	C529.236206,765.999329 526.914551,771.185791 523.656006,775.849976 
	C516.161255,786.577820 504.286133,786.429932 497.043579,775.519165 
	C491.657013,767.404297 488.348816,758.275635 484.779633,749.312805 
	C476.210327,727.794006 468.699463,705.905151 462.541107,683.564453 
	C462.233124,682.447144 461.811829,681.360962 461.326019,679.910034 
	C459.273743,681.072876 458.714264,683.043945 457.818024,684.681763 
	C445.319885,707.521667 431.821777,729.692200 414.815308,749.545532 
	C411.438782,753.487366 407.748291,757.078125 403.633453,760.228760 
	C393.363495,768.091980 381.796509,764.370239 378.234741,751.909302 
	C376.264923,745.017761 375.381012,737.896973 374.759949,730.759583 
	C372.511353,704.917908 374.578339,679.207947 377.140472,653.513794 
	C377.219727,652.719055 377.581757,651.891174 376.708374,650.983765 
	C366.138672,658.053772 355.630005,665.303833 344.900208,672.210388 
	C326.967987,683.753052 308.858887,695.013062 289.634521,704.346497 
	C285.874725,706.171814 282.053345,707.779541 277.933655,708.608459 
	C268.041382,710.598755 259.806549,704.021484 259.845734,693.916321 
	C259.874451,686.509827 262.021057,679.445374 264.175476,672.452942 
	C271.837646,647.584717 281.441528,623.461182 292.365906,599.854553 
	C293.057556,598.359924 293.948730,596.916626 293.819336,594.429871 
	C291.049591,595.464966 288.474304,596.345154 285.962250,597.379028 
	C264.209106,606.331726 241.973633,613.804199 218.934418,618.649658 
	C211.632416,620.185303 204.218277,621.578308 196.636703,620.446777 
	C186.763000,618.973083 181.584442,611.105957 184.538040,601.545227 
	C188.112137,589.976013 195.784378,580.842651 203.049759,571.532532 
	C214.037949,557.451843 226.360275,544.565552 239.061172,532.034058 
	C239.982834,531.124695 241.236099,530.467163 241.642532,528.533875 
	C235.608795,527.828491 229.772278,529.273315 223.935242,529.667297 
	C201.483749,531.182861 179.050339,532.501709 156.647446,529.208313 
	C153.701248,528.775146 150.758377,528.015320 147.945999,527.029907 
	C137.184875,523.259399 133.876999,512.587524 140.635635,503.333282 
	C144.409332,498.166199 149.515961,494.305939 154.551514,490.492676 
	C172.251526,477.089081 191.123367,465.490173 210.479935,454.658173 
	C212.785416,453.368011 215.057327,452.017883 218.167725,450.219818 
	C206.975433,447.778137 196.592468,445.791656 186.357788,443.215973 
	C170.367706,439.191895 154.516647,434.654907 139.510620,427.627136 
	C135.873138,425.923645 132.404007,423.977142 129.461731,421.183411 
	C122.328842,414.410706 122.717735,404.744568 130.461853,398.686401 
	C137.677155,393.041962 146.354630,390.396210 155.061554,386.938873 
M266.279053,488.277313 
	C279.086426,526.983765 299.898895,560.618286 329.868652,588.414612 
	C380.137848,635.038269 440.583679,654.638367 508.069855,654.374146 
	C535.454834,654.266907 562.348450,649.502380 588.713501,641.725952 
	C633.470825,628.524719 672.160767,605.790894 701.986511,569.496765 
	C746.305969,515.565613 764.686890,453.270294 759.402222,384.000732 
	C756.927612,351.564209 747.256836,321.025726 731.619690,292.435638 
	C710.376587,253.595947 681.150940,222.267166 643.348694,199.148315 
	C608.436157,177.796738 570.276733,166.197266 529.595215,163.525223 
	C485.093475,160.602249 441.816803,166.595215 400.702576,184.690125 
	C347.152008,208.258377 305.296417,244.872559 279.184692,297.649231 
	C248.872574,358.915741 245.980103,422.543610 266.279053,488.277313 
M493.360443,72.769882 
	C484.111847,97.429825 475.747345,122.362640 468.966644,148.774673 
	C498.367279,145.498550 526.607422,145.682404 555.334351,149.905319 
	C554.807312,146.818558 554.640625,144.657410 554.058350,142.614670 
	C547.898926,121.003471 540.307251,99.879890 532.153381,78.954910 
	C527.924622,68.102959 523.641174,57.258812 518.140503,46.972630 
	C516.486633,43.879837 515.385132,39.320538 511.062988,39.454254 
	C506.831451,39.585159 505.673615,44.076351 504.210022,47.267857 
	C500.467896,55.428066 497.122681,63.770279 493.360443,72.769882 
M729.023987,123.538452 
	C698.062805,139.095627 669.034851,157.745377 640.128296,178.520355 
	C664.939209,192.390350 686.674011,208.877365 705.740234,229.287903 
	C706.489624,228.163437 707.028442,227.545547 707.359070,226.831299 
	C718.960022,201.765594 729.924866,176.428497 738.769958,150.243454 
	C741.686523,141.609192 745.025513,133.011734 745.849854,123.813141 
	C746.312927,118.646011 744.175049,117.073700 739.244080,118.900978 
	C735.978516,120.111099 732.880798,121.774300 729.023987,123.538452 
M361.348450,186.771942 
	C366.367828,183.928833 371.387238,181.085724 376.499786,178.189850 
	C375.599487,176.117752 374.119202,175.310135 372.782990,174.397415 
	C350.216705,158.983032 327.225647,144.254257 303.117676,131.333908 
	C294.893829,126.926437 286.577789,122.696419 277.930511,119.178574 
	C271.706635,116.646584 269.355896,118.548912 270.500549,125.180084 
	C271.093140,128.613083 271.959229,132.014389 272.928436,135.364426 
	C281.701935,165.689911 294.587097,194.394943 307.610596,223.041428 
	C308.202515,224.343445 308.625732,225.932968 310.902679,226.438568 
	C326.023804,211.779419 342.496246,198.334549 361.348450,186.771942 
M677.651489,615.189270 
	C666.812134,623.739502 654.936279,630.736633 643.244812,637.647644 
	C643.440063,639.273254 644.459229,639.679993 645.229248,640.231812 
	C669.877991,657.894531 695.152222,674.582153 721.827698,689.062073 
	C727.531799,692.158386 733.234253,695.332397 739.428223,697.356018 
	C744.162292,698.902710 746.145264,697.311401 745.753967,692.398254 
	C745.544617,689.769531 744.958679,687.140625 744.270874,684.584900 
	C736.413696,655.389038 724.725281,627.635681 712.311951,600.164062 
	C710.701355,596.599670 709.688049,592.659363 706.475952,589.338928 
	C697.179871,598.199829 688.300781,607.167480 677.651489,615.189270 
M626.354309,171.972214 
	C628.170166,172.714417 629.768188,174.070358 631.865479,173.991821 
	C633.134521,173.101471 633.316467,171.711731 633.499268,170.446136 
	C637.975525,139.466141 641.531799,108.414719 639.564941,77.027565 
	C639.265259,72.244873 638.350220,67.450737 637.217407,62.783844 
	C636.007507,57.799587 633.298706,56.926529 629.213135,60.107559 
	C626.206299,62.448727 623.403564,65.115471 620.812317,67.916885 
	C601.934143,88.326332 586.863525,111.448616 573.115417,135.479172 
	C570.189514,140.593323 566.895142,145.577667 564.630371,151.848022 
	C586.220154,155.901718 606.375366,162.519348 626.354309,171.972214 
M310.621582,680.069702 
	C331.934967,667.832581 352.269379,654.116516 373.186249,639.429810 
	C349.048309,626.201233 327.985260,610.489441 309.885284,591.438904 
	C307.649658,592.521667 307.248596,594.059875 306.641266,595.373901 
	C296.865875,616.523376 287.686035,637.931152 280.055511,659.951599 
	C276.525909,670.137390 272.607819,680.282227 271.234467,691.077637 
	C270.402496,697.617065 272.478546,699.154236 278.528351,696.691345 
	C289.498962,692.225037 299.783478,686.403015 310.621582,680.069702 
M475.449585,689.150574 
	C476.078339,691.046875 476.729767,692.935913 477.332306,694.840515 
	C485.023865,719.153442 493.449310,743.190796 504.449463,766.242188 
	C505.698303,768.859314 506.708069,772.352722 510.250885,772.483215 
	C513.909546,772.617981 514.726318,769.031616 516.180786,766.494019 
	C516.677246,765.627930 517.114868,764.725830 517.541504,763.822388 
	C529.739075,737.994202 538.288086,710.827026 546.906067,683.687683 
	C548.551270,678.506714 549.996338,673.262085 551.906921,666.780701 
	C524.181641,670.870850 497.408356,671.468323 470.106079,668.741455 
	C471.213074,676.107788 473.456970,682.185425 475.449585,689.150574 
M396.632111,62.848026 
	C395.990601,62.316856 395.363922,61.766468 394.705231,61.257507 
	C388.390076,56.377644 385.930267,57.219845 384.332550,64.929306 
	C383.047211,71.131470 382.436829,77.415146 382.245270,83.751823 
	C381.569763,106.100647 382.819519,128.366760 385.512573,150.533661 
	C386.357269,157.486252 386.565979,164.653198 389.211823,171.973755 
	C410.935333,162.147964 433.086090,155.300491 455.839752,151.219421 
	C456.231567,148.798141 455.142517,147.429047 454.400299,145.988205 
	C448.370667,134.283234 441.825195,122.863968 434.626007,111.846466 
	C423.418152,94.694206 412.194519,77.529503 396.632111,62.848026 
M633.774658,667.510193 
	C633.339417,659.621826 632.433167,651.799805 630.941101,643.220642 
	C609.413269,653.247131 587.583923,659.994141 564.730042,664.444214 
	C565.367004,666.074158 565.649048,667.022278 566.089478,667.890015 
	C577.723816,690.814514 590.756531,712.888245 606.322815,733.390747 
	C610.753845,739.226807 615.359009,744.952881 620.796326,749.918396 
	C626.827454,755.426392 629.420532,754.619873 631.491638,746.582275 
	C633.240356,739.796143 634.300598,732.843445 634.547058,725.885742 
	C635.225342,706.736206 635.611023,687.570496 633.774658,667.510193 
M758.015686,283.490997 
	C760.929993,280.758209 763.923218,278.104340 766.745605,275.279694 
	C783.936707,258.074585 800.919617,240.682114 814.636047,220.441849 
	C816.788147,217.266220 818.722656,213.970810 820.102600,210.367340 
	C821.327576,207.168457 820.034790,205.380386 816.870056,205.276672 
	C813.563416,205.168289 810.200745,205.344559 806.928345,205.834854 
	C775.249695,210.581345 745.431030,221.504486 715.931335,233.449844 
	C714.626038,233.978394 712.984131,234.327026 712.528625,236.679062 
	C726.842529,252.900665 738.584778,271.322845 749.206482,290.593903 
	C753.082092,288.965790 755.028870,286.143860 758.015686,283.490997 
M243.103882,213.484543 
	C238.594025,212.317413 234.094193,211.109741 229.572220,209.991592 
	C220.202927,207.674881 210.794189,205.495773 201.098099,205.195755 
	C193.994080,204.975937 192.857025,206.859451 196.014313,213.052612 
	C198.748810,218.416428 202.153534,223.351105 205.820374,228.098618 
	C222.253174,249.374451 240.828598,268.681702 260.303711,287.151459 
	C261.567230,288.349731 262.682678,289.990417 265.203613,289.970276 
	C275.277252,270.276062 287.631348,251.903412 303.015686,234.842850 
	C283.099243,226.424927 263.673859,219.571655 243.103882,213.484543 
M255.151901,311.765015 
	C256.394012,308.065460 258.922424,304.800201 259.140472,300.857880 
	C257.700165,299.593597 256.203766,299.455597 254.704956,299.375275 
	C226.934937,297.886841 199.157318,297.463104 171.402008,299.488617 
	C164.629776,299.982849 157.775925,300.518707 151.222458,302.611969 
	C146.842758,304.010895 146.212555,306.003265 149.253784,309.455627 
	C151.107742,311.560211 153.295837,313.421906 155.536240,315.126740 
	C180.695023,334.271484 208.601059,348.772217 236.675568,362.979767 
	C237.822067,363.559967 239.011292,364.316437 241.054138,363.400574 
	C243.945007,346.234100 248.446655,329.085754 255.151901,311.765015 
M223.647308,460.213593 
	C209.732956,467.731110 196.087662,475.711426 182.829636,484.332001 
	C171.528549,491.680206 160.288269,499.136719 150.442383,508.443970 
	C148.879593,509.921295 146.995270,511.568665 147.627853,513.940613 
	C148.325150,516.555298 151.002838,517.050476 153.226990,517.476929 
	C159.929276,518.761902 166.713486,519.453308 173.541656,519.681152 
	C193.364807,520.342773 213.139862,519.314941 232.861526,517.535645 
	C241.217606,516.781799 249.674866,516.247192 258.522797,513.942871 
	C249.988510,493.761810 244.409225,473.087952 240.667557,451.129669 
	C234.517822,454.405273 229.402649,457.129852 223.647308,460.213593 
M797.875061,352.303864 
	C819.505981,340.538635 841.321472,329.065582 860.440063,313.278839 
	C863.073792,311.104126 867.276733,309.044189 866.182251,305.307678 
	C865.030151,301.374451 860.204651,301.748810 856.712524,301.266296 
	C824.577759,296.826355 792.326477,297.966034 760.077393,299.513519 
	C758.202820,299.603455 756.028442,299.460968 754.697144,301.407562 
	C754.807678,301.952850 754.828247,302.468018 755.014771,302.913727 
	C762.800476,321.515778 769.244507,340.520660 772.430603,360.514526 
	C772.997498,364.072052 775.192688,363.647156 777.574341,362.462311 
	C784.127686,359.201935 790.667175,355.913635 797.875061,352.303864 
M833.480713,519.814087 
	C842.486511,519.778320 851.462646,519.312805 860.309448,517.518311 
	C862.363831,517.101624 864.833618,516.824097 865.609192,514.364136 
	C866.454712,511.682190 864.536194,509.984039 862.823914,508.404724 
	C860.376648,506.147522 857.891602,503.917572 855.286499,501.847412 
	C831.159668,482.675262 804.116882,468.201233 777.197754,453.538971 
	C775.982117,452.876831 774.686401,451.782501 772.630310,452.546021 
	C769.454712,473.290344 763.029358,493.336182 754.848145,513.796509 
	C781.106323,518.354553 806.715271,520.021729 833.480713,519.814087 
M724.256531,583.210693 
	C741.384338,590.660522 758.925354,596.959778 776.827271,602.287842 
	C787.703979,605.524963 798.722656,608.096069 809.979919,609.470642 
	C813.301208,609.876282 817.461914,611.421631 819.838318,608.118469 
	C822.309082,604.684265 818.937744,601.585327 817.546692,598.541016 
	C816.656372,596.592529 815.299683,594.844971 814.065308,593.067627 
	C796.654358,567.999084 775.264343,546.539490 753.038940,525.840088 
	C752.315491,525.166260 751.581970,524.426025 749.651184,524.970886 
	C740.351379,543.664307 729.054626,561.801758 715.621948,578.560913 
	C718.254333,580.994263 721.009827,581.767212 724.256531,583.210693 
M387.701111,744.714661 
	C387.950439,745.681458 388.170746,746.656799 388.453644,747.613708 
	C390.492523,754.510132 392.566162,755.146790 398.064575,750.471313 
	C402.264923,746.899597 405.926605,742.791260 409.383179,738.517212 
	C426.417969,717.454102 440.098755,694.229736 453.037994,670.534180 
	C453.648407,669.416321 454.527161,668.278015 453.756134,666.509583 
	C431.955109,662.660583 410.688232,656.296021 389.041870,646.883362 
	C385.224640,679.793640 383.017059,711.762878 387.701111,744.714661 
M240.170242,546.669434 
	C230.247437,556.782349 220.772324,567.301453 211.815445,578.276184 
	C205.805588,585.640015 200.129990,593.262634 195.913849,601.837341 
	C192.897583,607.971802 194.324249,610.110901 201.245880,609.675354 
	C205.055649,609.435730 208.866180,608.891113 212.624496,608.201355 
	C241.131500,602.969543 268.061188,592.788635 294.747101,581.865845 
	C296.067932,581.325195 297.692261,581.032715 298.231934,578.709656 
	C284.418121,562.597900 273.069122,544.465759 263.492157,524.661133 
	C254.744644,531.133484 248.108887,539.087769 240.170242,546.669434 
M230.851578,440.650146 
	C239.074936,441.304718 239.355942,441.027924 238.599213,432.725159 
	C237.085175,416.113129 237.062286,399.498657 238.589691,382.890015 
	C238.899811,379.517822 238.262070,377.981110 234.259232,378.682404 
	C210.970993,382.762543 187.919189,387.778290 165.440826,395.203491 
	C156.270294,398.232758 147.139206,401.413849 138.684921,406.147461 
	C133.871918,408.842316 133.896576,411.883545 138.656693,414.572174 
	C142.124008,416.530548 145.756409,418.259491 149.458908,419.728577 
	C175.417374,430.028687 202.464325,436.161713 230.851578,440.650146 
M815.110046,434.563354 
	C828.280945,431.629456 841.247803,427.951843 854.058289,423.731476 
	C861.182373,421.384460 868.169006,418.648651 874.702637,414.926544 
	C880.003967,411.906494 879.946228,408.998444 874.582581,405.993439 
	C872.264343,404.694672 869.813965,403.617249 867.375183,402.550140 
	C843.592285,392.144135 818.451172,386.435486 793.167847,381.278412 
	C787.539673,380.130371 781.908325,378.677887 775.386475,378.536957 
	C776.880066,399.423401 776.802795,419.920380 774.790710,440.947021 
	C788.785767,440.639893 801.494812,437.394714 815.110046,434.563354 
z"/>
<path fill="#000000" opacity="1.000000" stroke="none" 
	d="
M655.031616,300.206360 
	C661.234680,327.265625 660.994812,353.792175 653.035828,380.040222 
	C649.870056,390.480591 645.226562,400.226501 637.086670,407.926422 
	C627.755737,416.753052 615.927490,416.797302 606.787537,407.775146 
	C597.322693,398.432373 592.424255,386.575653 589.417480,373.986115 
	C582.206543,343.792816 582.767212,313.939484 594.527710,284.785553 
	C596.982483,278.700287 600.410522,273.185272 604.809875,268.334045 
	C615.612488,256.421875 629.749817,256.705963 640.134338,268.983276 
	C647.734985,277.969391 651.872742,288.631012 655.031616,300.206360 
M618.168884,270.634247 
	C610.026367,274.916412 606.279602,282.620758 603.309082,290.612610 
	C593.748291,316.334839 593.278870,342.668030 598.915771,369.263275 
	C601.180847,379.949707 604.802368,390.143860 612.130859,398.538910 
	C618.714600,406.080811 625.277466,406.096924 632.011597,398.617065 
	C637.349976,392.687531 640.517395,385.497131 642.767090,377.949524 
	C649.897888,354.025330 650.603271,329.805573 645.382935,305.452057 
	C643.066711,294.646667 639.663452,284.153870 632.343323,275.516815 
	C628.889038,271.441162 624.739014,268.419952 618.168884,270.634247 
z"/>
<path fill="#000000" opacity="1.000000" stroke="none" 
	d="
M362.483459,378.319092 
	C354.365112,349.125732 354.511017,320.426910 363.694946,291.905975 
	C366.576447,282.957489 370.695831,274.616058 377.314606,267.732758 
	C388.101349,256.514923 401.851746,256.909943 411.972137,268.836975 
	C421.656372,280.249969 426.330658,293.999878 428.834045,308.355652 
	C432.734344,330.722351 432.510529,353.107697 426.354004,375.176300 
	C423.562866,385.181396 419.759491,394.724579 413.375885,403.079956 
	C401.873016,418.135864 386.108734,418.241608 374.645233,403.236633 
	C369.016266,395.868622 365.220184,387.567688 362.483459,378.319092 
M415.618988,375.158020 
	C422.219849,351.942291 422.226135,328.485870 417.425171,305.044556 
	C415.253113,294.439056 411.603333,284.164093 404.476135,275.624420 
	C397.937805,267.790344 389.951721,267.857819 383.426239,275.754425 
	C379.902222,280.018921 377.262299,284.852509 375.331116,290.025024 
	C365.492523,316.376495 364.739807,343.257690 370.989960,370.462372 
	C373.394043,380.926514 377.091705,390.911377 384.376740,399.105042 
	C390.183167,405.635651 396.790466,405.744904 402.932770,399.530975 
	C404.556885,397.887970 405.990784,396.013580 407.277435,394.088623 
	C411.009888,388.504333 413.314331,382.259033 415.618988,375.158020 
z"/>
<path fill="#000000" opacity="1.000000" stroke="none" 
	d="
M549.625000,494.736450 
	C529.566833,506.501282 509.227448,509.544128 487.970276,499.157593 
	C486.778137,498.575104 485.584198,497.952576 484.508331,497.184387 
	C481.906067,495.326202 480.716980,492.769073 482.292480,489.831238 
	C483.928406,486.780731 486.856445,486.619049 489.681580,487.950806 
	C495.114990,490.512085 500.586609,492.797546 506.586761,493.762024 
	C518.984985,495.755005 530.347900,492.704773 541.129456,486.877808 
	C549.259277,482.484009 556.206848,476.569733 562.432861,469.753601 
	C564.594971,467.386536 564.984253,465.334625 562.620300,462.876678 
	C561.366821,461.573364 560.449219,459.938171 559.432678,458.417542 
	C557.313721,455.247894 556.825989,452.049988 560.477173,449.782990 
	C563.858459,447.683624 566.567017,449.328094 568.460327,452.354309 
	C572.774170,459.249481 578.881836,463.909668 586.304749,466.978546 
	C587.686646,467.549805 589.108643,468.026306 590.520935,468.521576 
	C593.773315,469.662231 594.983093,472.112640 594.059570,475.211365 
	C593.109924,478.397461 590.563049,479.426910 587.328003,478.726898 
	C583.884888,477.981812 580.557495,476.811218 577.580444,474.994476 
	C574.762817,473.274994 572.990662,473.628387 570.898071,476.249084 
	C565.036011,483.590576 557.900085,489.563232 549.625000,494.736450 
z"/>
</svg>